M48
;DRILL file {Pcbnew (2012-jan-04)-stable} date Thu 15 Nov 2012 21:08:43 CET
;FORMAT={-:-/ absolute / inch / decimal}
FMAT,2
INCH,TZ
T1C0.025
T2C0.032
T3C0.039
T4C0.040
T5C0.091
%
G90
G05
M72
T1
X4.253Y-4.237
X4.353Y-4.038
X4.353Y-4.237
X4.353Y-4.338
X4.476Y-3.944
X4.560Y-4.255
X4.735Y-4.215
X4.790Y-4.315
X4.798Y-3.874
X4.835Y-4.045
X4.865Y-4.185
X4.888Y-4.107
X4.970Y-3.952
X5.015Y-4.355
X5.136Y-4.120
X5.205Y-4.355
X5.255Y-4.160
X5.308Y-4.082
X5.340Y-4.205
X5.350Y-4.045
X5.360Y-3.995
X5.360Y-4.095
X5.396Y-3.872
X5.505Y-4.215
X5.524Y-3.954
X5.540Y-4.083
X5.553Y-3.990
X5.685Y-4.158
X5.685Y-4.258
X5.690Y-4.003
X5.695Y-4.357
X5.833Y-3.963
X5.845Y-4.290
X5.850Y-3.845
X5.878Y-4.243
X5.930Y-4.110
X5.942Y-3.905
X6.075Y-3.990
X6.180Y-4.072
X6.180Y-4.253
T2
X5.685Y-4.158
X5.685Y-4.258
X5.690Y-3.903
X5.690Y-4.003
X5.942Y-3.905
X5.942Y-4.005
T3
X6.180Y-3.973
X6.180Y-4.072
X6.180Y-4.152
X6.180Y-4.253
T4
X4.253Y-3.938
X4.253Y-4.038
X4.253Y-4.138
X4.253Y-4.237
X4.253Y-4.338
X4.353Y-3.938
X4.353Y-4.038
X4.353Y-4.138
X4.353Y-4.237
X4.353Y-4.338
T5
X6.285Y-3.853
X6.285Y-4.393
T0
M30
