<?xml version="1.0" standalone="no"?>
 <!DOCTYPE svg PUBLIC "-//W3C//DTD SVG 1.1//EN" 
 "http://www.w3.org/Graphics/SVG/1.1/DTD/svg11.dtd"> 
<svg xmlns="http://www.w3.org/2000/svg" version="1.1" 
    width="8.44804cm" height="3.87858cm" viewBox="0 0 33260 15270 ">
<title>SVG Picture created as OpenUsbAsp-B_SilkS.svg date 2014/03/14 15:16:47 </title>
  <desc>Picture generated by PCBNEW </desc>
<g style="fill:#000000; fill-opacity:1;stroke:#000000; stroke-opacity:1;
stroke-linecap:round; stroke-linejoin:round; "
 transform="translate(0 0) scale(1 1)">
</g>
<g style="fill:#A000A0; fill-opacity:0.0; 
stroke:#A000A0; stroke-width:120; stroke-opacity:1; 
stroke-linecap:round; stroke-linejoin:round;">
<path d="M24404 13866
L24290 14399
L24176 14018
L24061 14399
L23947 13866
" />
<path d="M23776 13866
L23661 14399
L23547 14018
L23433 14399
L23319 13866
" />
<path d="M23147 13866
L23033 14399
L22919 14018
L22804 14399
L22690 13866
" />
<path d="M22461 14323
L22433 14361
L22461 14399
L22490 14361
L22461 14323
L22461 14399
" />
<path d="M22090 14399
L22147 14361
L22176 14323
L22204 14247
L22204 14018
L22176 13942
L22147 13904
L22090 13866
L22004 13866
L21947 13904
L21919 13942
L21890 14018
L21890 14247
L21919 14323
L21947 14361
L22004 14399
L22090 14399
" />
<path d="M21633 13866
L21633 14666
" />
<path d="M21633 13904
L21576 13866
L21461 13866
L21404 13904
L21376 13942
L21347 14018
L21347 14247
L21376 14323
L21404 14361
L21461 14399
L21576 14399
L21633 14361
" />
<path d="M20861 14361
L20919 14399
L21033 14399
L21090 14361
L21119 14285
L21119 13980
L21090 13904
L21033 13866
L20919 13866
L20861 13904
L20833 13980
L20833 14056
L21119 14133
" />
<path d="M20576 13866
L20576 14399
" />
<path d="M20576 13942
L20547 13904
L20490 13866
L20404 13866
L20347 13904
L20319 13980
L20319 14399
" />
<path d="M19947 14399
L20004 14361
L20033 14285
L20033 13599
" />
<path d="M19461 14399
L19461 13980
L19490 13904
L19547 13866
L19661 13866
L19719 13904
" />
<path d="M19461 14361
L19519 14399
L19661 14399
L19719 14361
L19747 14285
L19747 14209
L19719 14133
L19661 14095
L19519 14095
L19461 14056
" />
<path d="M19176 14399
L19176 13599
" />
<path d="M19176 13904
L19119 13866
L19004 13866
L18947 13904
L18919 13942
L18890 14018
L18890 14247
L18919 14323
L18947 14361
L19004 14399
L19119 14399
L19176 14361
" />
<path d="M18719 13866
L18490 13866
" />
<path d="M18633 13599
L18633 14285
L18604 14361
L18547 14399
L18490 14399
" />
<path d="M18204 14399
L18261 14361
L18290 14323
L18319 14247
L18319 14018
L18290 13942
L18261 13904
L18204 13866
L18119 13866
L18061 13904
L18033 13942
L18004 14018
L18004 14247
L18033 14323
L18061 14361
L18119 14399
L18204 14399
" />
<path d="M17747 14323
L17719 14361
L17747 14399
L17776 14361
L17747 14323
L17747 14399
" />
<path d="M17376 14399
L17433 14361
L17461 14323
L17490 14247
L17490 14018
L17461 13942
L17433 13904
L17376 13866
L17290 13866
L17233 13904
L17204 13942
L17176 14018
L17176 14247
L17204 14323
L17233 14361
L17290 14399
L17376 14399
" />
<path d="M16919 14399
L16919 13866
" />
<path d="M16919 14018
L16890 13942
L16861 13904
L16804 13866
L16747 13866
" />
<path d="M16290 13866
L16290 14514
L16319 14590
L16347 14628
L16404 14666
L16490 14666
L16547 14628
" />
<path d="M16290 14361
L16347 14399
L16461 14399
L16519 14361
L16547 14323
L16576 14247
L16576 14018
L16547 13942
L16519 13904
L16461 13866
L16347 13866
L16290 13904
" />
</g>
<g style="fill:#FFFF00; fill-opacity:0.0; 
stroke:#FFFF00; stroke-width:150; stroke-opacity:1; 
stroke-linecap:round; stroke-linejoin:round;">
<path d="M7879 15176
L7879 7296
" />
<path d="M29819 15176
L7879 15176
" />
<path d="M29819 7296
L29819 15176
" />
<path d="M7939 7296
L29819 7296
" />
</g>
<g style="fill:#A000A0; fill-opacity:1.0; 
stroke:#A000A0; stroke-width:1; stroke-opacity:1; 
stroke-linecap:round; stroke-linejoin:round;">
<polyline style="fill-rule:evenodd;"
points="22950,12144
22737,12144
22737,9591
22730,9587
22708,9584
22668,9581
22610,9578
22514,9568
22415,9551
22320,9526
22235,9496
22165,9464
22139,9447
22114,9434
22073,9417
22025,9400
22007,9395
21952,9379
21909,9370
21868,9368
21823,9371
21748,9380
21681,9393
21617,9412
21552,9438
21482,9474
21405,9520
21315,9579
21245,9627
21160,9685
21089,9729
21029,9762
20976,9785
20927,9798
20877,9805
20832,9806
20771,9802
20705,9789
20643,9770
20592,9747
20569,9731
20537,9704
20607,9668
20717,9610
20806,9562
20879,9520
20937,9485
20982,9453
21016,9425
21043,9397
21061,9374
21084,9331
21094,9285
21089,9232
21070,9169
21045,9108
21017,9048
20999,9003
20989,8971
20986,8946
20989,8923
20997,8898
20999,8892
21015,8860
21039,8830
21074,8800
21122,8768
21186,8734
21268,8694
21300,8679
21387,8639
21455,8605
21508,8577
21549,8552
21582,8529
21604,8509
21628,8482
21647,8450
21659,8422
21659,8404
21657,8403
21645,8405
21618,8419
21582,8440
21573,8446
21528,8473
21475,8501
21420,8528
21368,8552
21324,8569
21294,8577
21290,8577
21262,8582
21219,8593
21166,8610
21110,8630
21055,8651
21010,8671
21000,8676
20921,8720
20859,8764
20811,8815
20774,8875
20742,8951
20719,9025
20700,9089
20685,9135
20672,9168
20659,9193
20642,9217
20619,9243
20615,9248
20583,9279
20547,9305
20504,9328
20447,9349
20379,9371
20328,9388
20281,9403
20248,9416
20239,9421
20217,9430
20208,9427
20214,9411
20233,9379
20249,9355
20288,9292
20317,9235
20334,9188
20337,9165
20330,9140
20310,9109
20305,9102
20272,9066
20123,9079
20019,9086
19938,9085
19878,9077
19838,9059
19817,9032
19814,8995
19829,8946
19859,8886
19866,8875
19904,8806
19926,8750
19932,8705
19930,8690
19923,8686
19907,8699
19882,8733
19872,8746
19837,8790
19793,8841
19747,8889
19736,8899
19669,8969
19621,9030
19593,9083
19587,9126
19601,9160
19607,9165
19629,9180
19665,9197
19698,9211
19761,9239
19801,9270
19821,9305
19819,9345
19796,9394
19752,9452
19719,9487
19684,9521
19654,9545
19632,9556
19630,9556
19609,9548
19579,9528
19549,9502
19515,9472
19490,9456
19464,9450
19434,9449
19354,9459
19270,9490
19215,9520
19157,9556
17757,9559
17544,9559
17355,9560
17186,9560
17037,9561
16908,9561
16795,9562
16699,9563
16617,9563
16549,9564
16493,9566
16449,9567
16413,9569
16386,9571
16366,9572
16352,9575
16343,9578
16336,9581
16332,9584
16331,9585
16324,9591
16319,9600
16315,9612
16311,9632
16309,9661
16307,9701
16307,9756
16306,9827
16306,9917
16306,10009
16306,10121
16307,10211
16308,10283
16309,10338
16312,10378
16315,10406
16318,10423
16323,10432
16326,10436
16331,10440
16340,10443
16352,10446
16371,10448
16398,10450
16433,10451
16478,10453
16536,10454
16607,10455
16692,10456
16794,10456
16914,10457
17052,10458
17211,10458
17392,10459
17450,10459
17611,10459
17764,10460
17909,10461
18044,10461
18167,10463
18276,10464
18370,10464
18447,10465
18505,10466
18544,10468
18560,10469
18561,10469
18554,10487
18535,10516
18508,10552
18479,10589
18452,10621
18432,10641
18395,10666
18352,10686
18297,10704
18225,10719
18161,10730
18093,10744
18031,10760
17978,10779
17940,10798
17919,10816
17917,10824
17920,10834
17936,10835
17965,10829
17993,10823
18020,10824
18053,10831
18101,10846
18111,10850
18197,10874
18270,10883
18333,10876
18382,10857
18412,10837
18455,10801
18510,10750
18576,10685
18614,10646
18793,10461
18954,10461
19115,10462
18991,10578
18923,10645
18873,10703
18839,10755
18819,10804
18812,10853
18811,10865
18815,10904
18826,10941
18849,10980
18885,11027
18914,11061
18954,11107
18980,11144
18994,11177
19001,11213
19002,11253
19000,11294
18992,11333
18977,11371
18952,11412
18917,11459
18868,11514
18805,11580
18745,11640
18659,11727
18590,11801
18539,11863
18504,11913
18484,11953
18478,11983
18481,11994
18490,11990
18509,11968
18511,11965
18538,11932
18573,11894
18592,11874
18641,11832
18699,11794
18770,11759
18858,11724
18920,11703
18995,11677
19055,11651
19103,11621
19140,11586
19168,11542
19187,11486
19201,11416
19210,11329
19215,11221
19217,11178
19221,11084
19226,11004
19231,10941
19237,10898
19241,10879
19286,10793
19352,10716
19440,10649
19511,10608
19556,10587
19584,10576
19601,10575
19610,10581
19610,10582
19615,10600
19618,10636
19620,10687
19621,10745
19621,10752
19623,10834
19628,10896
19639,10941
19655,10973
19679,10996
19693,11005
19732,11020
19778,11028
19833,11030
19901,11024
19984,11011
20086,10990
20141,10978
20276,10954
20391,10946
20448,10946
20489,10949
20521,10955
20552,10966
20580,10979
20642,11019
20690,11074
20725,11144
20748,11231
20759,11338
20761,11380
20763,11447
20767,11497
20774,11536
20786,11573
20792,11589
20814,11633
20843,11677
20876,11718
20909,11751
20937,11771
20950,11774
20960,11772
20967,11763
20968,11744
20966,11711
20959,11662
20950,11607
20930,11488
20994,11330
21034,11218
21058,11121
21067,11038
21059,10967
21034,10905
20994,10851
20973,10832
20933,10802
20886,10778
20827,10757
20753,10740
20661,10725
20613,10718
20548,10708
20482,10697
20426,10684
20390,10675
20313,10641
20255,10595
20218,10539
20201,10474
20206,10402
20233,10327
20267,10269
20289,10238
20412,10273
20540,10303
20654,10316
20754,10312
20822,10297
20876,10278
20927,10254
20979,10222
21032,10182
21090,10131
21156,10066
21231,9986
21308,9899
21394,9811
21482,9738
21568,9683
21600,9668
21656,9646
21715,9631
21781,9623
21859,9621
21952,9625
22045,9632
22192,9644
22325,9649
22444,9649
22546,9644
22629,9633
22692,9617
22717,9606
22732,9597
22737,9591
22737,12144
19479,12144
16008,12144
16008,10176
16008,8208
19479,8208
22950,8208
22950,10176
22950,12144
22950,12144
" /> 
<polyline style="fill-rule:evenodd;"
points="19025,10009
19018,10020
18996,10028
18966,10036
18966,10212
18967,10280
18967,10328
18969,10359
18973,10378
18978,10387
18987,10391
18992,10392
19015,10401
19023,10411
19019,10419
18998,10424
18958,10426
18937,10426
18888,10425
18860,10421
18850,10415
18850,10411
18864,10400
18891,10392
18893,10392
18930,10388
18930,10311
18930,10233
18930,10233
18930,10138
18920,10088
18902,10061
18880,10040
18856,10030
18820,10027
18811,10027
18772,10029
18746,10038
18725,10056
18721,10061
18697,10103
18692,10146
18704,10187
18728,10222
18762,10247
18802,10259
18846,10252
18871,10238
18907,10208
18925,10176
18930,10138
18930,10233
18899,10258
18863,10276
18813,10283
18808,10283
18771,10281
18744,10272
18717,10251
18702,10236
18674,10204
18660,10177
18656,10145
18656,10145
18666,10087
18694,10040
18735,10006
18785,9989
18838,9990
18890,10010
18916,10025
18928,10026
18930,10016
18937,10003
18961,9998
18978,9998
19011,10001
19025,10009
19025,10009
" /> 
<polyline style="fill-rule:evenodd;"
points="16687,10162
16674,10211
16652,10244
16652,10137
16644,10090
16639,10080
16615,10054
16577,10033
16537,10022
16528,10021
16476,10032
16436,10059
16411,10099
16402,10146
16413,10196
16421,10211
16451,10247
16489,10264
16541,10266
16544,10266
16585,10258
16614,10239
16624,10227
16645,10186
16652,10137
16652,10244
16646,10254
16606,10285
16558,10303
16504,10304
16450,10285
16404,10248
16377,10201
16368,10148
16379,10093
16409,10043
16414,10038
16463,10003
16517,9988
16571,9992
16621,10016
16658,10054
16683,10108
16687,10162
16687,10162
" /> 
<polyline style="fill-rule:evenodd;"
points="17022,10149
17011,10202
16982,10248
16938,10281
16883,10301
16822,10304
16763,10291
16728,10274
16706,10257
16701,10242
16703,10240
16718,10239
16745,10246
16759,10251
16825,10270
16881,10268
16929,10245
16945,10230
16973,10201
16986,10179
16986,10178
16986,10106
16979,10091
16963,10067
16962,10065
16927,10038
16880,10024
16830,10025
16824,10027
16796,10039
16767,10061
16744,10085
16735,10104
16747,10110
16781,10115
16833,10116
16861,10117
16912,10116
16953,10113
16979,10110
16986,10106
16986,10178
16983,10166
16963,10158
16922,10154
16860,10153
16841,10153
16697,10153
16704,10114
16726,10057
16763,10017
16789,10002
16851,9988
16908,9993
16958,10017
16996,10057
17017,10110
17022,10149
17022,10149
" /> 
<polyline style="fill-rule:evenodd;"
points="17341,10013
17327,10025
17304,10031
17272,10035
17272,10146
17272,10198
17270,10232
17265,10254
17256,10269
17241,10281
17241,10282
17199,10301
17144,10305
17085,10294
17066,10287
17036,10271
17023,10257
17027,10250
17050,10251
17055,10252
17124,10265
17177,10267
17211,10260
17223,10251
17231,10237
17235,10214
17236,10176
17236,10140
17236,10033
17153,10033
17108,10032
17082,10028
17071,10021
17069,10015
17074,10005
17092,10000
17127,9998
17153,9998
17236,9998
17236,9950
17236,9902
17144,9900
17107,9898
17088,9897
17089,9894
17096,9893
17141,9888
17141,9794
17141,9699
17183,9699
17210,9702
17224,9707
17225,9708
17214,9715
17192,9717
17175,9718
17165,9724
17160,9741
17159,9773
17159,9801
17159,9884
17216,9888
17272,9891
17272,9944
17273,9977
17279,9993
17295,9997
17309,9998
17335,10002
17341,10013
17341,10013
" /> 
<polyline style="fill-rule:evenodd;"
points="18047,10282
18029,10290
17995,10295
17988,10295
17949,10292
17930,10284
17933,10271
17947,10262
17956,10252
17961,10231
17963,10196
17962,10152
17959,10103
17956,10072
17949,10053
17938,10041
17927,10034
17901,10023
17883,10027
17876,10032
17867,10044
17861,10067
17858,10103
17857,10157
17857,10172
17857,10295
17821,10295
17793,10289
17785,10277
17795,10261
17803,10259
17812,10254
17818,10238
17821,10206
17821,10164
17820,10114
17816,10081
17808,10059
17797,10045
17773,10025
17752,10023
17733,10028
17724,10035
17718,10052
17715,10081
17714,10128
17714,10166
17714,10295
17678,10295
17650,10290
17636,10280
17638,10269
17653,10262
17673,10247
17678,10227
17677,10209
17672,10207
17658,10221
17647,10235
17595,10280
17535,10303
17468,10304
17419,10291
17384,10274
17362,10257
17357,10242
17359,10240
17374,10239
17402,10246
17415,10251
17481,10270
17537,10268
17585,10245
17602,10230
17629,10201
17642,10179
17642,10178
17642,10110
17631,10082
17604,10054
17567,10033
17526,10022
17517,10021
17477,10029
17438,10048
17408,10074
17392,10103
17391,10110
17403,10113
17433,10115
17477,10116
17517,10117
17568,10116
17609,10115
17636,10112
17642,10110
17642,10178
17639,10166
17619,10158
17578,10154
17516,10153
17499,10153
17439,10152
17398,10151
17374,10149
17361,10144
17356,10136
17356,10126
17367,10081
17396,10040
17439,10008
17488,9989
17517,9985
17570,9995
17618,10022
17653,10059
17654,10059
17678,10099
17678,10066
17687,10031
17710,10004
17740,9988
17771,9987
17797,10003
17822,10020
17847,10013
17858,10002
17881,9989
17910,9991
17946,9995
17989,9997
17997,9997
18030,10000
18047,10009
18045,10020
18024,10030
18012,10035
18006,10046
18002,10068
18000,10105
18000,10146
18000,10198
18002,10231
18007,10250
18015,10259
18024,10262
18046,10272
18047,10282
18047,10282
" /> 
<polyline style="fill-rule:evenodd;"
points="18334,10144
18323,10198
18298,10238
18298,10146
18288,10103
18262,10064
18225,10034
18184,10022
18180,10021
18127,10031
18085,10057
18057,10094
18044,10137
18048,10182
18070,10225
18092,10246
18138,10269
18187,10270
18235,10249
18258,10230
18285,10197
18297,10167
18298,10146
18298,10238
18295,10244
18253,10279
18204,10300
18150,10305
18098,10290
18087,10284
18044,10245
18019,10197
18012,10147
18021,10096
18045,10050
18083,10014
18133,9991
18176,9985
18223,9996
18268,10025
18305,10065
18329,10112
18334,10144
18334,10144
" /> 
<polyline style="fill-rule:evenodd;"
points="18650,10277
18639,10282
18607,10287
18559,10290
18515,10292
18454,10293
18415,10292
18392,10289
18384,10283
18385,10280
18399,10270
18434,10263
18457,10261
18525,10258
18525,10182
18524,10140
18519,10114
18508,10094
18487,10074
18486,10074
18444,10042
18412,10027
18385,10027
18365,10037
18339,10048
18326,10043
18330,10026
18347,10008
18386,9991
18431,9997
18482,10025
18485,10028
18525,10058
18525,10028
18527,10009
18538,10000
18563,9998
18579,9998
18614,10000
18630,10008
18632,10015
18622,10029
18597,10033
18561,10033
18561,10146
18561,10257
18605,10261
18634,10266
18650,10275
18650,10277
18650,10277
" /> 
<polyline style="fill-rule:evenodd;"
points="20206,9788
20202,9805
20192,9838
20176,9883
20158,9936
20138,9990
20120,10041
20111,10063
20095,10083
20066,10105
20055,10110
20025,10127
19981,10153
19933,10182
19911,10196
19865,10225
19824,10249
19792,10266
19782,10271
19756,10276
19713,10280
19665,10281
19617,10280
19580,10277
19574,10276
19552,10272
19516,10267
19501,10265
19448,10258
19434,10176
19425,10122
19421,10082
19424,10050
19434,10020
19456,9988
19488,9948
19531,9899
19588,9839
19635,9794
19670,9766
19684,9759
19711,9750
19754,9736
19808,9718
19854,9704
19985,9662
20096,9717
20141,9742
20178,9764
20201,9781
20206,9788
20206,9788
" /> 
<polyline style="fill-rule:evenodd;"
points="16577,9795
16575,9812
16556,9854
16556,9766
16556,9765
16546,9745
16520,9727
16486,9714
16461,9711
16428,9719
16398,9738
16380,9762
16377,9774
16385,9781
16408,9785
16452,9785
16467,9785
16517,9781
16546,9775
16556,9766
16556,9854
16555,9859
16519,9891
16470,9907
16415,9904
16404,9901
16378,9890
16366,9878
16366,9877
16374,9872
16389,9878
16430,9890
16476,9888
16516,9874
16530,9862
16551,9838
16555,9821
16541,9812
16507,9807
16462,9806
16417,9805
16381,9802
16362,9797
16360,9796
16362,9780
16375,9755
16381,9745
16402,9719
16426,9707
16463,9702
16499,9701
16522,9709
16545,9731
16550,9737
16571,9768
16577,9795
16577,9795
" /> 
<polyline style="fill-rule:evenodd;"
points="17031,9815
17012,9850
17012,9792
17008,9772
16984,9736
16951,9717
16913,9713
16877,9724
16848,9748
16832,9785
16831,9801
16841,9843
16868,9874
16908,9889
16954,9887
16968,9882
16991,9862
17007,9829
17012,9792
17012,9850
17010,9854
16993,9873
16967,9897
16948,9911
16942,9912
16924,9909
16903,9905
16860,9887
16832,9854
16819,9812
16824,9767
16843,9731
16866,9709
16894,9700
16920,9699
16958,9702
16983,9716
17003,9736
17028,9777
17031,9815
17031,9815
" /> 
<polyline style="fill-rule:evenodd;"
points="17716,9839
17715,9862
17711,9872
17699,9887
17699,9860
17696,9829
17678,9811
17641,9802
17616,9801
17578,9802
17558,9807
17550,9819
17549,9823
17554,9850
17578,9872
17614,9885
17648,9887
17681,9882
17696,9871
17699,9860
17699,9887
17691,9896
17662,9911
17642,9912
17627,9909
17612,9905
17584,9893
17571,9886
17556,9878
17550,9887
17535,9898
17519,9901
17503,9898
17510,9895
17514,9894
17526,9886
17532,9869
17535,9835
17535,9813
17538,9757
17550,9722
17574,9703
17612,9698
17642,9699
17670,9705
17683,9712
17680,9718
17657,9718
17637,9715
17600,9712
17578,9716
17564,9728
17563,9729
17548,9756
17551,9772
17574,9781
17611,9783
17652,9784
17677,9791
17695,9807
17700,9813
17716,9839
17716,9839
" /> 
<polyline style="fill-rule:evenodd;"
points="18168,9806
18160,9845
18137,9879
18099,9902
18077,9908
18041,9907
18005,9897
17977,9882
17959,9868
17959,9867
17957,9856
17969,9858
17993,9872
17993,9873
18031,9888
18075,9888
18116,9874
18129,9862
18151,9824
18151,9781
18130,9742
18097,9718
18056,9711
18016,9722
18000,9735
17978,9755
17967,9755
17964,9735
17964,9727
17966,9707
17975,9706
17981,9710
17999,9717
18006,9712
18021,9704
18051,9699
18061,9699
18108,9708
18142,9733
18162,9767
18168,9806
18168,9806
" /> 
<polyline style="fill-rule:evenodd;"
points="18404,9792
18402,9809
18388,9856
18386,9857
18386,9799
18377,9757
18351,9727
18316,9712
18276,9714
18238,9735
18232,9740
18207,9778
18206,9819
18228,9859
18260,9883
18301,9891
18341,9883
18364,9865
18381,9834
18386,9799
18386,9857
18358,9887
18328,9902
18301,9911
18281,9911
18255,9902
18255,9902
18220,9876
18197,9835
18191,9797
18201,9754
18228,9722
18265,9702
18307,9698
18350,9710
18377,9732
18399,9761
18404,9792
18404,9792
" /> 
<polyline style="fill-rule:evenodd;"
points="18621,9867
18613,9892
18599,9899
18574,9902
18539,9907
18535,9907
18498,9908
18469,9895
18459,9887
18437,9858
18437,9829
18456,9805
18490,9789
18536,9783
18569,9776
18588,9760
18590,9738
18585,9729
18558,9714
18522,9712
18486,9722
18466,9737
18442,9763
18442,9733
18443,9717
18451,9708
18471,9705
18509,9704
18515,9704
18559,9707
18586,9713
18601,9726
18601,9726
18608,9753
18591,9776
18552,9794
18527,9801
18485,9811
18463,9821
18454,9833
18456,9853
18458,9860
18465,9878
18479,9887
18507,9890
18525,9890
18564,9888
18588,9879
18602,9863
18621,9837
18621,9867
18621,9867
" /> 
<polyline style="fill-rule:evenodd;"
points="18847,9870
18844,9892
18837,9897
18820,9896
18791,9900
18785,9901
18730,9902
18705,9895
18677,9877
18668,9853
18668,9850
18675,9821
18696,9802
18737,9790
18748,9788
18793,9778
18817,9766
18821,9750
18816,9738
18793,9721
18759,9713
18724,9716
18700,9728
18681,9745
18673,9742
18672,9729
18683,9718
18709,9707
18744,9700
18779,9699
18794,9701
18821,9715
18833,9739
18828,9765
18808,9785
18786,9792
18728,9804
18692,9823
18680,9847
18680,9848
18686,9871
18706,9884
18744,9889
18764,9890
18801,9885
18825,9868
18828,9863
18847,9837
18847,9870
18847,9870
" /> 
<polyline style="fill-rule:evenodd;"
points="19097,9849
19088,9878
19077,9886
19077,9839
19061,9816
19029,9800
18985,9795
18944,9798
18924,9810
18922,9831
18924,9841
18942,9865
18974,9882
19011,9889
19046,9886
19070,9871
19074,9867
19077,9839
19077,9886
19061,9898
19025,9906
18983,9902
18969,9896
18944,9888
18931,9889
18930,9891
18920,9898
18898,9901
18880,9898
18884,9894
18886,9894
18898,9886
18904,9869
18906,9835
18907,9813
18909,9760
18918,9728
18925,9718
18951,9705
18988,9700
19026,9702
19049,9710
19049,9715
19028,9716
19008,9714
18970,9712
18948,9717
18935,9729
18920,9754
18923,9770
18945,9780
18988,9785
18990,9785
19047,9795
19083,9815
19097,9845
19097,9849
19097,9849
" /> 
<polyline style="fill-rule:evenodd;"
points="16804,9701
16800,9707
16792,9712
16779,9732
16771,9766
16769,9807
16773,9848
16783,9878
16792,9889
16801,9897
16791,9900
16765,9900
16741,9898
16734,9895
16738,9894
16750,9886
16757,9867
16759,9831
16759,9818
16758,9776
16752,9751
16739,9734
16733,9729
16697,9714
16662,9714
16641,9727
16632,9750
16627,9785
16626,9825
16630,9862
16637,9887
16641,9891
16645,9898
16625,9901
16616,9901
16593,9899
16587,9895
16589,9894
16599,9878
16604,9841
16604,9820
16609,9762
16625,9723
16652,9703
16680,9699
16712,9703
16734,9714
16749,9723
16756,9714
16770,9702
16787,9699
16804,9701
16804,9701
" /> 
<polyline style="fill-rule:evenodd;"
points="17463,9892
17453,9898
17425,9902
17389,9902
17351,9901
17317,9896
17296,9889
17292,9886
17293,9863
17297,9853
17305,9845
17308,9859
17308,9863
17310,9879
17321,9887
17345,9889
17374,9890
17410,9889
17433,9886
17439,9883
17432,9871
17412,9846
17383,9813
17368,9795
17336,9758
17312,9728
17298,9710
17296,9707
17307,9703
17336,9700
17376,9699
17380,9699
17423,9699
17448,9702
17459,9708
17462,9721
17462,9732
17461,9754
17458,9753
17451,9738
17440,9721
17420,9713
17386,9711
17354,9713
17335,9719
17332,9723
17339,9736
17359,9762
17388,9796
17398,9807
17428,9843
17451,9872
17462,9889
17463,9892
17463,9892
" /> 
<polyline style="fill-rule:evenodd;"
points="17911,9704
17895,9708
17887,9709
17868,9714
17857,9723
17851,9742
17849,9775
17847,9803
17844,9888
17889,9893
17899,9895
17887,9897
17857,9898
17833,9898
17788,9898
17766,9896
17768,9893
17779,9891
17827,9884
17831,9792
17834,9699
17878,9700
17906,9702
17911,9704
17911,9704
" /> 
<polyline style="fill-rule:evenodd;"
points="17165,9622
17158,9637
17153,9640
17142,9630
17141,9622
17147,9606
17153,9604
17163,9613
17165,9622
17165,9622
" /> 
<polyline style="fill-rule:evenodd;"
points="17857,9622
17850,9637
17845,9640
17834,9630
17833,9622
17839,9606
17845,9604
17855,9613
17857,9622
17857,9622
" /> 
</g> 
</svg>
