<?xml version="1.0" standalone="no"?>
 <!DOCTYPE svg PUBLIC "-//W3C//DTD SVG 1.1//EN" 
 "http://www.w3.org/Graphics/SVG/1.1/DTD/svg11.dtd"> 
<svg xmlns="http://www.w3.org/2000/svg" version="1.1" 
    width="8.44804cm" height="3.87858cm" viewBox="0 0 33260 15270 ">
<title>SVG Picture created as OpenUsbAsp-Dwgs_User.svg date 2014/03/14 15:16:47 </title>
  <desc>Picture generated by PCBNEW </desc>
<g style="fill:#000000; fill-opacity:1;stroke:#000000; stroke-opacity:1;
stroke-linecap:round; stroke-linejoin:round; "
 transform="translate(0 0) scale(1 1)">
</g>
<g style="fill:#C0C0C0; fill-opacity:0.0; 
stroke:#C0C0C0; stroke-width:120; stroke-opacity:1; 
stroke-linecap:round; stroke-linejoin:round;">
<path d="M3055 8759
L3093 8788
L3132 8845
L3132 8988
L3094 9045
L3056 9073
L2980 9102
L2903 9102
L2789 9074
L2331 8732
L2332 9103
" />
<path d="M3133 9473
L3133 9530
L3095 9588
L3057 9616
L2981 9645
L2828 9674
L2638 9674
L2485 9646
L2409 9617
L2371 9589
L2333 9532
L2333 9475
L2371 9417
L2409 9389
L2485 9360
L2637 9331
L2828 9331
L2980 9359
L3056 9388
L3094 9416
L3133 9473
" />
<path d="M2372 9960
L2333 9960
L2257 9932
L2219 9903
" />
<path d="M2868 10474
L2334 10475
" />
<path d="M3172 10330
L2601 10188
L2601 10560
" />
<path d="M3135 10730
L3135 11130
L2335 10875
" />
<path d="M3060 11331
L3098 11359
L3136 11416
L3136 11559
L3098 11616
L3060 11645
L2984 11674
L2908 11674
L2794 11645
L2336 11303
L2336 11675
" />
<path d="M2338 12389
L2871 12388
" />
<path d="M2795 12388
L2833 12417
L2871 12474
L2871 12559
L2833 12617
L2757 12645
L2338 12646
" />
<path d="M2757 12645
L2833 12674
L2872 12731
L2872 12817
L2834 12874
L2758 12902
L2339 12903
" />
<path d="M2339 13189
L2872 13188
" />
<path d="M2796 13188
L2834 13217
L2873 13274
L2873 13359
L2835 13417
L2759 13445
L2340 13446
" />
<path d="M2759 13445
L2835 13474
L2873 13531
L2873 13617
L2835 13674
L2759 13702
L2340 13703
" />
<path d="M3300 7216
L3300 15276
" />
<path d="M7959 7216
L2020 7216
" />
<path d="M7959 15276
L2020 15276
" />
<path d="M3300 15276
L3070 14833
" />
<path d="M3300 15276
L3530 14833
" />
<path d="M3300 7216
L3070 7659
" />
<path d="M3300 7216
L3530 7659
" />
<path d="M16671 263
L16385 263
L16357 644
L16385 606
L16443 568
L16585 568
L16643 606
L16671 644
L16700 720
L16700 911
L16671 987
L16643 1025
L16585 1063
L16443 1063
L16385 1025
L16357 987
" />
<path d="M17214 263
L17100 263
L17043 301
L17014 340
L16957 454
L16928 606
L16928 911
L16957 987
L16985 1025
L17043 1063
L17157 1063
L17214 1025
L17243 987
L17271 911
L17271 720
L17243 644
L17214 606
L17157 568
L17043 568
L16985 606
L16957 644
L16928 720
" />
<path d="M17557 1025
L17557 1063
L17528 1140
L17500 1178
" />
<path d="M18128 1063
L17785 1063
" />
<path d="M17957 1063
L17957 263
L17900 378
L17843 454
L17785 492
" />
<path d="M18328 263
L18700 263
L18500 568
L18585 568
L18643 606
L18671 644
L18700 720
L18700 911
L18671 987
L18643 1025
L18585 1063
L18414 1063
L18357 1025
L18328 987
" />
<path d="M19214 530
L19214 1063
" />
<path d="M19071 225
L18928 797
L19300 797
" />
<path d="M19985 1063
L19985 530
" />
<path d="M19985 606
L20014 568
L20071 530
L20157 530
L20214 568
L20243 644
L20243 1063
" />
<path d="M20243 644
L20271 568
L20328 530
L20414 530
L20471 568
L20500 644
L20500 1063
" />
<path d="M20785 1063
L20785 530
" />
<path d="M20785 606
L20814 568
L20871 530
L20957 530
L21014 568
L21043 644
L21043 1063
" />
<path d="M21043 644
L21071 568
L21128 530
L21214 530
L21271 568
L21300 644
L21300 1063
" />
<path d="M7794 1390
L29894 1370
" />
<path d="M7799 7236
L7793 110
" />
<path d="M29899 7216
L29893 90
" />
<path d="M29894 1370
L29451 1601
" />
<path d="M29894 1370
L29451 1140
" />
<path d="M7794 1390
L8237 1620
" />
<path d="M7794 1390
L8237 1159
" />
</g>
<g style="fill:#FFFF00; fill-opacity:0.0; 
stroke:#FFFF00; stroke-width:150; stroke-opacity:1; 
stroke-linecap:round; stroke-linejoin:round;">
<path d="M7879 15176
L7879 7296
" />
<path d="M29819 15176
L7879 15176
" />
<path d="M29819 7296
L29819 15176
" />
<path d="M7939 7296
L29819 7296
" />
</g> 
</svg>
