<?xml version="1.0" standalone="no"?>
 <!DOCTYPE svg PUBLIC "-//W3C//DTD SVG 1.1//EN" 
 "http://www.w3.org/Graphics/SVG/1.1/DTD/svg11.dtd"> 
<svg xmlns="http://www.w3.org/2000/svg" version="1.1" 
    width="8.44804cm" height="3.87858cm" viewBox="0 0 33260 15270 ">
<title>SVG Picture created as OpenUsbAsp-B_Mask.svg date 2014/03/14 15:16:47 </title>
  <desc>Picture generated by PCBNEW </desc>
<g style="fill:#000000; fill-opacity:1;stroke:#000000; stroke-opacity:1;
stroke-linecap:round; stroke-linejoin:round; "
 transform="translate(0 0) scale(1 1)">
</g>
<g style="fill:#FFFF00; fill-opacity:0.0; 
stroke:#FFFF00; stroke-width:150; stroke-opacity:1; 
stroke-linecap:round; stroke-linejoin:round;">
<path d="M7879 15176
L7879 7296
" />
<path d="M29819 15176
L7879 15176
" />
<path d="M29819 7296
L29819 15176
" />
<path d="M7939 7296
L29819 7296
" />
</g>
<g style="fill:#808000; fill-opacity:0.0; 
stroke:#808000; stroke-width:39.3701; stroke-opacity:1; 
stroke-linecap:round; stroke-linejoin:round;">
</g>
<g style="fill:#808000; fill-opacity:1.0; 
stroke:#808000; stroke-width:39.3701; stroke-opacity:1; 
stroke-linecap:round; stroke-linejoin:round;">
<circle cx="28039" cy="10021" r="375.815" /> 
<circle cx="28039" cy="11021" r="375.815" /> 
<circle cx="28039" cy="11821" r="375.815" /> 
<circle cx="28039" cy="12821" r="375.815" /> 
<circle cx="29089" cy="8821" r="670.815" /> 
<circle cx="29089" cy="14221" r="670.815" /> 
<polyline style="fill-rule:evenodd;"
points="23494,10676
22783,10676
22783,9965
23494,9965
23494,10676
" /> 
<circle cx="23139" cy="9321" r="355.315" /> 
<polyline style="fill-rule:evenodd;"
points="23444,13226
22733,13226
22733,12515
23444,12515
23444,13226
" /> 
<circle cx="23089" cy="11871" r="355.315" /> 
<polyline style="fill-rule:evenodd;"
points="26019,10701
25308,10701
25308,9990
26019,9990
26019,10701
" /> 
<circle cx="25664" cy="9346" r="355.315" /> 
<polyline style="fill-rule:evenodd;"
points="8383,9290
9144,9290
9144,10051
8383,10051
8383,9290
" /> 
<circle cx="9764" cy="9671" r="380.315" /> 
<circle cx="8764" cy="10671" r="380.315" /> 
<circle cx="9764" cy="10671" r="380.315" /> 
<circle cx="8764" cy="11671" r="380.315" /> 
<circle cx="9764" cy="11671" r="380.315" /> 
<circle cx="8764" cy="12671" r="380.315" /> 
<circle cx="9764" cy="12671" r="380.315" /> 
<circle cx="8764" cy="13671" r="380.315" /> 
<circle cx="9764" cy="13671" r="380.315" /> 
</g> 
</svg>
