G04 (created by PCBNEW-RS274X (2012-jan-04)-stable) date Thu 15 Nov 2012 21:08:36 CET*
G01*
G70*
G90*
%MOIN*%
G04 Gerber Fmt 3.4, Leading zero omitted, Abs format*
%FSLAX34Y34*%
G04 APERTURE LIST*
%ADD10C,0.006000*%
%ADD11C,0.005000*%
%ADD12C,0.012000*%
%ADD13C,0.015000*%
%ADD14C,0.000100*%
%ADD15C,0.008000*%
%ADD16C,0.010000*%
%ADD17C,0.004500*%
G04 APERTURE END LIST*
G54D10*
G54D11*
X61350Y-38175D02*
X66900Y-38175D01*
X66900Y-44075D02*
X61350Y-44075D01*
X61350Y-38175D02*
X61350Y-44075D01*
X66900Y-38175D02*
X66900Y-44075D01*
G54D10*
X53540Y-38920D02*
X53540Y-39370D01*
X51360Y-38920D02*
X51360Y-39360D01*
X53540Y-38920D02*
X51360Y-38920D01*
X54010Y-39800D02*
X54440Y-39800D01*
X54020Y-42010D02*
X54440Y-42010D01*
X54440Y-42020D02*
X54450Y-39800D01*
X50470Y-42000D02*
X50460Y-39830D01*
X51160Y-42430D02*
X53990Y-42430D01*
X50470Y-39820D02*
X50880Y-39820D01*
X50920Y-42180D02*
X50920Y-39400D01*
X54000Y-39380D02*
X50960Y-39380D01*
X54000Y-42430D02*
X54000Y-39430D01*
X51330Y-42880D02*
X53550Y-42880D01*
X53550Y-42880D02*
X53550Y-42430D01*
X51150Y-42426D02*
X50920Y-42196D01*
X51330Y-42878D02*
X51330Y-42426D01*
X50920Y-42000D02*
X50468Y-42000D01*
X51512Y-42018D02*
X51508Y-42054D01*
X51497Y-42089D01*
X51480Y-42122D01*
X51457Y-42150D01*
X51429Y-42173D01*
X51396Y-42191D01*
X51361Y-42202D01*
X51325Y-42205D01*
X51289Y-42202D01*
X51254Y-42192D01*
X51222Y-42175D01*
X51193Y-42152D01*
X51169Y-42124D01*
X51152Y-42092D01*
X51141Y-42057D01*
X51137Y-42020D01*
X51140Y-41985D01*
X51150Y-41949D01*
X51166Y-41917D01*
X51189Y-41888D01*
X51217Y-41864D01*
X51249Y-41846D01*
X51284Y-41835D01*
X51321Y-41831D01*
X51356Y-41833D01*
X51391Y-41843D01*
X51424Y-41860D01*
X51453Y-41882D01*
X51477Y-41910D01*
X51495Y-41942D01*
X51507Y-41977D01*
X51511Y-42013D01*
X51512Y-42018D01*
G54D12*
X57400Y-40525D02*
X56400Y-40525D01*
X56400Y-40525D02*
X56400Y-38525D01*
X56400Y-38525D02*
X57400Y-38525D01*
X57400Y-38525D02*
X57400Y-40525D01*
X57350Y-43075D02*
X56350Y-43075D01*
X56350Y-43075D02*
X56350Y-41075D01*
X56350Y-41075D02*
X57350Y-41075D01*
X57350Y-41075D02*
X57350Y-43075D01*
X59925Y-40550D02*
X58925Y-40550D01*
X58925Y-40550D02*
X58925Y-38550D01*
X58925Y-38550D02*
X59925Y-38550D01*
X59925Y-38550D02*
X59925Y-40550D01*
X44025Y-38875D02*
X44025Y-43875D01*
X44025Y-43875D02*
X42025Y-43875D01*
X42025Y-43875D02*
X42025Y-38875D01*
X42025Y-38875D02*
X44025Y-38875D01*
G54D11*
X54750Y-38225D02*
X54750Y-39125D01*
X54750Y-39125D02*
X54250Y-39125D01*
X54250Y-39125D02*
X54250Y-38225D01*
X54250Y-38225D02*
X54750Y-38225D01*
X61075Y-38000D02*
X61075Y-38900D01*
X61075Y-38900D02*
X60575Y-38900D01*
X60575Y-38900D02*
X60575Y-38000D01*
X60575Y-38000D02*
X61075Y-38000D01*
X54525Y-43450D02*
X54525Y-42550D01*
X54525Y-42550D02*
X55025Y-42550D01*
X55025Y-42550D02*
X55025Y-43450D01*
X55025Y-43450D02*
X54525Y-43450D01*
X47600Y-41800D02*
X47600Y-40900D01*
X47600Y-40900D02*
X48100Y-40900D01*
X48100Y-40900D02*
X48100Y-41800D01*
X48100Y-41800D02*
X47600Y-41800D01*
X60925Y-41950D02*
X60925Y-42850D01*
X60925Y-42850D02*
X60425Y-42850D01*
X60425Y-42850D02*
X60425Y-41950D01*
X60425Y-41950D02*
X60925Y-41950D01*
X59100Y-42650D02*
X60000Y-42650D01*
X60000Y-42650D02*
X60000Y-43150D01*
X60000Y-43150D02*
X59100Y-43150D01*
X59100Y-43150D02*
X59100Y-42650D01*
X57725Y-43500D02*
X58625Y-43500D01*
X58625Y-43500D02*
X58625Y-44000D01*
X58625Y-44000D02*
X57725Y-44000D01*
X57725Y-44000D02*
X57725Y-43500D01*
X49325Y-39075D02*
X49325Y-38175D01*
X49325Y-38175D02*
X49825Y-38175D01*
X49825Y-38175D02*
X49825Y-39075D01*
X49825Y-39075D02*
X49325Y-39075D01*
X49275Y-43800D02*
X49275Y-42900D01*
X49275Y-42900D02*
X49775Y-42900D01*
X49775Y-42900D02*
X49775Y-43800D01*
X49775Y-43800D02*
X49275Y-43800D01*
X59125Y-37725D02*
X60025Y-37725D01*
X60025Y-37725D02*
X60025Y-38225D01*
X60025Y-38225D02*
X59125Y-38225D01*
X59125Y-38225D02*
X59125Y-37725D01*
X60425Y-41350D02*
X60425Y-40450D01*
X60425Y-40450D02*
X60925Y-40450D01*
X60925Y-40450D02*
X60925Y-41350D01*
X60925Y-41350D02*
X60425Y-41350D01*
X48775Y-42900D02*
X48775Y-43800D01*
X48775Y-43800D02*
X48275Y-43800D01*
X48275Y-43800D02*
X48275Y-42900D01*
X48275Y-42900D02*
X48775Y-42900D01*
X59125Y-41750D02*
X60025Y-41750D01*
X60025Y-41750D02*
X60025Y-42250D01*
X60025Y-42250D02*
X59125Y-42250D01*
X59125Y-42250D02*
X59125Y-41750D01*
X59975Y-44000D02*
X59075Y-44000D01*
X59075Y-44000D02*
X59075Y-43500D01*
X59075Y-43500D02*
X59975Y-43500D01*
X59975Y-43500D02*
X59975Y-44000D01*
X55600Y-38250D02*
X55600Y-39150D01*
X55600Y-39150D02*
X55100Y-39150D01*
X55100Y-39150D02*
X55100Y-38250D01*
X55100Y-38250D02*
X55600Y-38250D01*
G54D13*
X46803Y-39730D02*
X46803Y-42170D01*
X45347Y-42170D02*
X45347Y-39730D01*
G54D14*
G36*
X46205Y-38718D02*
X46057Y-38718D01*
X46057Y-38580D01*
X46057Y-38393D01*
X46057Y-38206D01*
X46057Y-38176D01*
X46057Y-37818D01*
X46057Y-37459D01*
X45703Y-37459D01*
X45348Y-37459D01*
X45348Y-37430D01*
X45348Y-37412D01*
X45341Y-37403D01*
X45324Y-37400D01*
X45299Y-37400D01*
X45250Y-37400D01*
X45250Y-37592D01*
X45250Y-37784D01*
X45299Y-37784D01*
X45348Y-37784D01*
X45348Y-37670D01*
X45348Y-37557D01*
X45651Y-37560D01*
X45954Y-37562D01*
X45956Y-37870D01*
X45959Y-38176D01*
X46008Y-38176D01*
X46057Y-38176D01*
X46057Y-38206D01*
X45703Y-38206D01*
X45348Y-38206D01*
X45348Y-38009D01*
X45348Y-37813D01*
X45299Y-37813D01*
X45250Y-37813D01*
X45250Y-38196D01*
X45250Y-38580D01*
X45654Y-38580D01*
X46057Y-38580D01*
X46057Y-38718D01*
X45211Y-38718D01*
X45211Y-37410D01*
X44808Y-37410D01*
X44404Y-37410D01*
X44404Y-37730D01*
X44404Y-38048D01*
X44756Y-38051D01*
X45108Y-38053D01*
X45108Y-38132D01*
X45108Y-38211D01*
X44756Y-38213D01*
X44404Y-38216D01*
X44404Y-38403D01*
X44404Y-38590D01*
X44807Y-38590D01*
X45211Y-38590D01*
X45208Y-38267D01*
X45206Y-37946D01*
X44854Y-37944D01*
X44502Y-37941D01*
X44502Y-37862D01*
X44502Y-37784D01*
X44854Y-37781D01*
X45206Y-37779D01*
X45208Y-37594D01*
X45211Y-37410D01*
X45211Y-38718D01*
X44365Y-38718D01*
X44365Y-37774D01*
X44362Y-37589D01*
X44359Y-37405D01*
X43959Y-37402D01*
X43558Y-37400D01*
X43558Y-37793D01*
X43558Y-38186D01*
X43607Y-38186D01*
X43657Y-38186D01*
X43657Y-37980D01*
X43657Y-37774D01*
X44011Y-37774D01*
X44365Y-37774D01*
X44365Y-38718D01*
X44364Y-38718D01*
X44364Y-38590D01*
X44364Y-38536D01*
X44364Y-38481D01*
X44011Y-38481D01*
X43657Y-38481D01*
X43657Y-38349D01*
X43657Y-38216D01*
X43607Y-38216D01*
X43558Y-38216D01*
X43558Y-38403D01*
X43558Y-38590D01*
X43962Y-38590D01*
X44364Y-38590D01*
X44364Y-38718D01*
X44040Y-38718D01*
X43512Y-38718D01*
X43512Y-38590D01*
X43505Y-38479D01*
X43504Y-38447D01*
X43503Y-38397D01*
X43502Y-38333D01*
X43501Y-38256D01*
X43500Y-38170D01*
X43500Y-38077D01*
X43499Y-37979D01*
X43499Y-37885D01*
X43499Y-37400D01*
X42756Y-37400D01*
X42013Y-37400D01*
X42013Y-37994D01*
X42013Y-38590D01*
X42763Y-38590D01*
X43512Y-38590D01*
X43512Y-38718D01*
X41875Y-38718D01*
X41875Y-37985D01*
X41875Y-37252D01*
X44040Y-37252D01*
X46205Y-37252D01*
X46205Y-37985D01*
X46205Y-38718D01*
X46205Y-38718D01*
X46205Y-38718D01*
G37*
G36*
X43322Y-37597D02*
X43322Y-37885D01*
X43322Y-37965D01*
X43321Y-38044D01*
X43320Y-38119D01*
X43319Y-38186D01*
X43317Y-38242D01*
X43316Y-38282D01*
X43316Y-38282D01*
X43309Y-38393D01*
X43297Y-38393D01*
X43297Y-37950D01*
X43282Y-37931D01*
X43274Y-37927D01*
X43264Y-37920D01*
X43260Y-37906D01*
X43260Y-37879D01*
X43261Y-37864D01*
X43262Y-37830D01*
X43259Y-37809D01*
X43250Y-37796D01*
X43247Y-37793D01*
X43234Y-37784D01*
X43236Y-37788D01*
X43242Y-37796D01*
X43250Y-37816D01*
X43250Y-37848D01*
X43248Y-37863D01*
X43242Y-37895D01*
X43233Y-37912D01*
X43228Y-37915D01*
X43228Y-37786D01*
X43206Y-37765D01*
X43189Y-37745D01*
X43186Y-37725D01*
X43195Y-37699D01*
X43199Y-37691D01*
X43211Y-37665D01*
X43210Y-37652D01*
X43197Y-37646D01*
X43184Y-37646D01*
X43163Y-37651D01*
X43153Y-37663D01*
X43160Y-37677D01*
X43164Y-37680D01*
X43172Y-37694D01*
X43174Y-37710D01*
X43174Y-37735D01*
X43094Y-37735D01*
X43094Y-37699D01*
X43094Y-37688D01*
X43086Y-37665D01*
X43068Y-37657D01*
X43053Y-37658D01*
X43047Y-37670D01*
X43046Y-37685D01*
X43049Y-37706D01*
X43060Y-37714D01*
X43072Y-37715D01*
X43090Y-37712D01*
X43094Y-37699D01*
X43094Y-37735D01*
X43016Y-37735D01*
X43016Y-37699D01*
X43015Y-37688D01*
X43007Y-37665D01*
X42990Y-37657D01*
X42974Y-37658D01*
X42968Y-37670D01*
X42968Y-37685D01*
X42970Y-37706D01*
X42981Y-37714D01*
X42993Y-37715D01*
X43011Y-37712D01*
X43016Y-37699D01*
X43016Y-37735D01*
X42943Y-37735D01*
X42938Y-37734D01*
X42938Y-37692D01*
X42930Y-37658D01*
X42907Y-37635D01*
X42873Y-37628D01*
X42871Y-37628D01*
X42851Y-37629D01*
X42851Y-37631D01*
X42859Y-37633D01*
X42890Y-37639D01*
X42904Y-37646D01*
X42904Y-37654D01*
X42900Y-37658D01*
X42891Y-37677D01*
X42889Y-37692D01*
X42893Y-37709D01*
X42911Y-37715D01*
X42913Y-37715D01*
X42932Y-37711D01*
X42938Y-37695D01*
X42938Y-37692D01*
X42938Y-37734D01*
X42878Y-37734D01*
X42859Y-37734D01*
X42859Y-37685D01*
X42856Y-37664D01*
X42845Y-37656D01*
X42840Y-37656D01*
X42823Y-37664D01*
X42817Y-37676D01*
X42817Y-37629D01*
X42810Y-37627D01*
X42783Y-37634D01*
X42761Y-37655D01*
X42751Y-37683D01*
X42751Y-37686D01*
X42754Y-37707D01*
X42766Y-37714D01*
X42771Y-37715D01*
X42785Y-37712D01*
X42790Y-37700D01*
X42789Y-37679D01*
X42789Y-37653D01*
X42798Y-37639D01*
X42805Y-37635D01*
X42817Y-37629D01*
X42817Y-37676D01*
X42813Y-37683D01*
X42814Y-37703D01*
X42815Y-37705D01*
X42829Y-37713D01*
X42840Y-37715D01*
X42854Y-37710D01*
X42859Y-37692D01*
X42859Y-37685D01*
X42859Y-37734D01*
X42820Y-37733D01*
X42772Y-37732D01*
X42736Y-37730D01*
X42716Y-37728D01*
X42712Y-37727D01*
X42718Y-37713D01*
X42722Y-37708D01*
X42729Y-37690D01*
X42723Y-37670D01*
X42708Y-37657D01*
X42701Y-37656D01*
X42687Y-37661D01*
X42682Y-37680D01*
X42682Y-37683D01*
X42686Y-37708D01*
X42694Y-37723D01*
X42698Y-37730D01*
X42686Y-37734D01*
X42668Y-37735D01*
X42653Y-37737D01*
X42653Y-37695D01*
X42653Y-37693D01*
X42647Y-37673D01*
X42631Y-37649D01*
X42613Y-37632D01*
X42600Y-37626D01*
X42599Y-37631D01*
X42608Y-37639D01*
X42619Y-37652D01*
X42615Y-37660D01*
X42606Y-37674D01*
X42603Y-37691D01*
X42608Y-37709D01*
X42624Y-37715D01*
X42628Y-37715D01*
X42647Y-37710D01*
X42653Y-37695D01*
X42653Y-37737D01*
X42625Y-37742D01*
X42585Y-37762D01*
X42574Y-37773D01*
X42574Y-37683D01*
X42571Y-37662D01*
X42561Y-37657D01*
X42552Y-37657D01*
X42536Y-37663D01*
X42531Y-37679D01*
X42531Y-37693D01*
X42530Y-37712D01*
X42520Y-37729D01*
X42511Y-37737D01*
X42511Y-37627D01*
X42507Y-37626D01*
X42492Y-37634D01*
X42490Y-37636D01*
X42477Y-37644D01*
X42461Y-37646D01*
X42440Y-37642D01*
X42431Y-37636D01*
X42416Y-37628D01*
X42393Y-37626D01*
X42372Y-37632D01*
X42361Y-37641D01*
X42359Y-37665D01*
X42374Y-37681D01*
X42395Y-37685D01*
X42420Y-37680D01*
X42436Y-37670D01*
X42454Y-37658D01*
X42464Y-37655D01*
X42479Y-37652D01*
X42495Y-37643D01*
X42508Y-37634D01*
X42511Y-37627D01*
X42511Y-37737D01*
X42500Y-37747D01*
X42486Y-37758D01*
X42445Y-37785D01*
X42412Y-37805D01*
X42387Y-37817D01*
X42375Y-37818D01*
X42366Y-37819D01*
X42356Y-37830D01*
X42351Y-37845D01*
X42352Y-37852D01*
X42368Y-37862D01*
X42390Y-37861D01*
X42409Y-37850D01*
X42416Y-37840D01*
X42427Y-37825D01*
X42451Y-37802D01*
X42483Y-37776D01*
X42499Y-37764D01*
X42535Y-37737D01*
X42558Y-37718D01*
X42569Y-37702D01*
X42574Y-37688D01*
X42574Y-37683D01*
X42574Y-37773D01*
X42554Y-37791D01*
X42533Y-37826D01*
X42528Y-37862D01*
X42529Y-37868D01*
X42532Y-37890D01*
X42527Y-37900D01*
X42509Y-37902D01*
X42504Y-37902D01*
X42474Y-37909D01*
X42431Y-37931D01*
X42406Y-37947D01*
X42339Y-37991D01*
X42361Y-37984D01*
X42393Y-37968D01*
X42397Y-37965D01*
X42423Y-37948D01*
X42440Y-37941D01*
X42454Y-37943D01*
X42467Y-37950D01*
X42491Y-37959D01*
X42512Y-37956D01*
X42520Y-37953D01*
X42539Y-37939D01*
X42540Y-37926D01*
X42543Y-37908D01*
X42554Y-37890D01*
X42570Y-37863D01*
X42573Y-37836D01*
X42564Y-37817D01*
X42562Y-37805D01*
X42577Y-37786D01*
X42589Y-37775D01*
X42624Y-37744D01*
X42766Y-37744D01*
X42909Y-37744D01*
X42909Y-37777D01*
X42905Y-37802D01*
X42898Y-37820D01*
X42898Y-37820D01*
X42890Y-37839D01*
X42892Y-37860D01*
X42904Y-37874D01*
X42913Y-37877D01*
X42929Y-37869D01*
X42937Y-37851D01*
X42935Y-37830D01*
X42929Y-37820D01*
X42922Y-37803D01*
X42918Y-37778D01*
X42918Y-37777D01*
X42918Y-37744D01*
X43046Y-37744D01*
X43097Y-37745D01*
X43139Y-37747D01*
X43167Y-37750D01*
X43179Y-37754D01*
X43192Y-37766D01*
X43207Y-37775D01*
X43228Y-37786D01*
X43228Y-37915D01*
X43218Y-37922D01*
X43217Y-37922D01*
X43209Y-37928D01*
X43209Y-37877D01*
X43205Y-37864D01*
X43191Y-37856D01*
X43161Y-37849D01*
X43160Y-37849D01*
X43126Y-37842D01*
X43098Y-37834D01*
X43089Y-37830D01*
X43066Y-37825D01*
X43046Y-37829D01*
X43037Y-37839D01*
X43037Y-37841D01*
X43042Y-37854D01*
X43050Y-37868D01*
X43062Y-37881D01*
X43072Y-37879D01*
X43083Y-37870D01*
X43107Y-37857D01*
X43132Y-37853D01*
X43153Y-37855D01*
X43159Y-37863D01*
X43158Y-37872D01*
X43147Y-37891D01*
X43129Y-37913D01*
X43113Y-37932D01*
X43105Y-37949D01*
X43105Y-37949D01*
X43099Y-37968D01*
X43089Y-37982D01*
X43078Y-37997D01*
X43081Y-38006D01*
X43086Y-38010D01*
X43111Y-38018D01*
X43133Y-38014D01*
X43142Y-38003D01*
X43140Y-37985D01*
X43132Y-37979D01*
X43118Y-37963D01*
X43119Y-37943D01*
X43132Y-37922D01*
X43154Y-37906D01*
X43183Y-37898D01*
X43188Y-37897D01*
X43205Y-37890D01*
X43209Y-37877D01*
X43209Y-37928D01*
X43193Y-37938D01*
X43187Y-37961D01*
X43193Y-37979D01*
X43198Y-37995D01*
X43188Y-38006D01*
X43182Y-38010D01*
X43162Y-38021D01*
X43157Y-38029D01*
X43162Y-38042D01*
X43166Y-38047D01*
X43174Y-38066D01*
X43167Y-38079D01*
X43151Y-38085D01*
X43131Y-38081D01*
X43115Y-38070D01*
X43111Y-38056D01*
X43111Y-38055D01*
X43108Y-38041D01*
X43092Y-38033D01*
X43070Y-38033D01*
X43065Y-38034D01*
X43049Y-38045D01*
X43049Y-38060D01*
X43065Y-38071D01*
X43073Y-38074D01*
X43097Y-38079D01*
X43112Y-38083D01*
X43119Y-38095D01*
X43122Y-38120D01*
X43122Y-38134D01*
X43117Y-38173D01*
X43102Y-38198D01*
X43073Y-38211D01*
X43066Y-38212D01*
X43066Y-38133D01*
X43066Y-38130D01*
X43059Y-38104D01*
X43035Y-38078D01*
X43032Y-38075D01*
X43015Y-38063D01*
X43012Y-38061D01*
X43012Y-37852D01*
X43006Y-37832D01*
X42990Y-37825D01*
X42973Y-37826D01*
X42968Y-37841D01*
X42968Y-37845D01*
X42972Y-37871D01*
X42986Y-37881D01*
X42997Y-37880D01*
X43009Y-37869D01*
X43012Y-37852D01*
X43012Y-38061D01*
X42999Y-38055D01*
X42978Y-38050D01*
X42966Y-38049D01*
X42966Y-37934D01*
X42961Y-37915D01*
X42943Y-37905D01*
X42916Y-37904D01*
X42887Y-37915D01*
X42886Y-37915D01*
X42858Y-37928D01*
X42858Y-37851D01*
X42853Y-37827D01*
X42840Y-37806D01*
X42828Y-37795D01*
X42813Y-37789D01*
X42790Y-37785D01*
X42755Y-37784D01*
X42731Y-37784D01*
X42687Y-37784D01*
X42658Y-37787D01*
X42639Y-37792D01*
X42626Y-37801D01*
X42623Y-37803D01*
X42609Y-37826D01*
X42603Y-37852D01*
X42608Y-37873D01*
X42610Y-37876D01*
X42626Y-37881D01*
X42643Y-37872D01*
X42651Y-37854D01*
X42649Y-37833D01*
X42642Y-37823D01*
X42632Y-37812D01*
X42641Y-37803D01*
X42667Y-37797D01*
X42709Y-37794D01*
X42730Y-37794D01*
X42778Y-37794D01*
X42808Y-37797D01*
X42823Y-37802D01*
X42825Y-37810D01*
X42819Y-37819D01*
X42811Y-37840D01*
X42814Y-37861D01*
X42826Y-37875D01*
X42835Y-37877D01*
X42851Y-37870D01*
X42858Y-37851D01*
X42858Y-37928D01*
X42856Y-37929D01*
X42831Y-37928D01*
X42802Y-37913D01*
X42799Y-37911D01*
X42780Y-37894D01*
X42778Y-37882D01*
X42780Y-37879D01*
X42790Y-37860D01*
X42789Y-37840D01*
X42780Y-37825D01*
X42772Y-37823D01*
X42753Y-37830D01*
X42746Y-37846D01*
X42750Y-37869D01*
X42765Y-37895D01*
X42789Y-37917D01*
X42796Y-37922D01*
X42824Y-37935D01*
X42850Y-37941D01*
X42853Y-37941D01*
X42874Y-37945D01*
X42884Y-37952D01*
X42897Y-37958D01*
X42922Y-37959D01*
X42927Y-37959D01*
X42952Y-37954D01*
X42964Y-37943D01*
X42966Y-37934D01*
X42966Y-38049D01*
X42949Y-38047D01*
X42905Y-38046D01*
X42891Y-38045D01*
X42847Y-38044D01*
X42809Y-38041D01*
X42783Y-38038D01*
X42773Y-38035D01*
X42764Y-38024D01*
X42771Y-38016D01*
X42789Y-38014D01*
X42801Y-38016D01*
X42824Y-38017D01*
X42835Y-38007D01*
X42836Y-38004D01*
X42836Y-37987D01*
X42820Y-37978D01*
X42786Y-37977D01*
X42772Y-37978D01*
X42740Y-37981D01*
X42724Y-37986D01*
X42722Y-37995D01*
X42729Y-38009D01*
X42729Y-38009D01*
X42735Y-38027D01*
X42731Y-38034D01*
X42722Y-38048D01*
X42722Y-38055D01*
X42725Y-38063D01*
X42737Y-38066D01*
X42764Y-38064D01*
X42776Y-38063D01*
X42815Y-38060D01*
X42839Y-38065D01*
X42845Y-38068D01*
X42862Y-38076D01*
X42884Y-38070D01*
X42885Y-38070D01*
X42918Y-38061D01*
X42958Y-38059D01*
X42994Y-38065D01*
X43014Y-38073D01*
X43029Y-38087D01*
X43028Y-38101D01*
X43025Y-38107D01*
X43018Y-38130D01*
X43026Y-38149D01*
X43046Y-38157D01*
X43046Y-38157D01*
X43061Y-38152D01*
X43066Y-38133D01*
X43066Y-38212D01*
X43029Y-38215D01*
X43028Y-38215D01*
X42975Y-38216D01*
X42983Y-38157D01*
X42985Y-38124D01*
X42985Y-38106D01*
X42980Y-38099D01*
X42970Y-38098D01*
X42949Y-38104D01*
X42940Y-38109D01*
X42927Y-38116D01*
X42916Y-38109D01*
X42897Y-38099D01*
X42887Y-38098D01*
X42874Y-38104D01*
X42869Y-38123D01*
X42869Y-38127D01*
X42872Y-38149D01*
X42884Y-38157D01*
X42888Y-38157D01*
X42906Y-38150D01*
X42912Y-38142D01*
X42923Y-38127D01*
X42936Y-38128D01*
X42947Y-38142D01*
X42955Y-38168D01*
X42958Y-38194D01*
X42957Y-38202D01*
X42953Y-38208D01*
X42943Y-38212D01*
X42923Y-38215D01*
X42892Y-38216D01*
X42845Y-38217D01*
X42835Y-38217D01*
X42835Y-38127D01*
X42829Y-38107D01*
X42813Y-38099D01*
X42796Y-38101D01*
X42791Y-38116D01*
X42791Y-38120D01*
X42795Y-38146D01*
X42809Y-38155D01*
X42820Y-38155D01*
X42832Y-38143D01*
X42835Y-38127D01*
X42835Y-38217D01*
X42817Y-38218D01*
X42773Y-38218D01*
X42761Y-38219D01*
X42761Y-38127D01*
X42758Y-38105D01*
X42746Y-38098D01*
X42742Y-38098D01*
X42724Y-38103D01*
X42719Y-38110D01*
X42712Y-38116D01*
X42700Y-38107D01*
X42692Y-38091D01*
X42685Y-38062D01*
X42680Y-38026D01*
X42676Y-37990D01*
X42675Y-37957D01*
X42677Y-37934D01*
X42681Y-37927D01*
X42694Y-37912D01*
X42708Y-37887D01*
X42718Y-37860D01*
X42722Y-37841D01*
X42714Y-37826D01*
X42701Y-37823D01*
X42687Y-37825D01*
X42683Y-37836D01*
X42685Y-37859D01*
X42685Y-37862D01*
X42685Y-37894D01*
X42677Y-37913D01*
X42672Y-37927D01*
X42668Y-37955D01*
X42663Y-37992D01*
X42660Y-38034D01*
X42657Y-38076D01*
X42657Y-38113D01*
X42658Y-38140D01*
X42660Y-38151D01*
X42676Y-38157D01*
X42693Y-38153D01*
X42702Y-38143D01*
X42702Y-38142D01*
X42707Y-38129D01*
X42712Y-38127D01*
X42720Y-38135D01*
X42722Y-38142D01*
X42730Y-38154D01*
X42741Y-38157D01*
X42756Y-38152D01*
X42761Y-38135D01*
X42761Y-38127D01*
X42761Y-38219D01*
X42743Y-38220D01*
X42727Y-38221D01*
X42729Y-38222D01*
X42739Y-38223D01*
X42778Y-38228D01*
X42798Y-38236D01*
X42800Y-38249D01*
X42785Y-38265D01*
X42771Y-38272D01*
X42759Y-38263D01*
X42757Y-38260D01*
X42742Y-38248D01*
X42729Y-38254D01*
X42722Y-38275D01*
X42722Y-38280D01*
X42729Y-38299D01*
X42745Y-38305D01*
X42765Y-38296D01*
X42767Y-38294D01*
X42780Y-38291D01*
X42790Y-38299D01*
X42807Y-38313D01*
X42821Y-38308D01*
X42830Y-38299D01*
X42838Y-38285D01*
X42833Y-38268D01*
X42826Y-38254D01*
X42809Y-38226D01*
X42889Y-38226D01*
X42968Y-38226D01*
X42952Y-38250D01*
X42942Y-38272D01*
X42947Y-38291D01*
X42948Y-38295D01*
X42961Y-38311D01*
X42972Y-38309D01*
X42980Y-38291D01*
X42980Y-38267D01*
X42979Y-38226D01*
X43028Y-38226D01*
X43078Y-38220D01*
X43112Y-38202D01*
X43131Y-38173D01*
X43135Y-38148D01*
X43138Y-38120D01*
X43150Y-38104D01*
X43159Y-38098D01*
X43180Y-38082D01*
X43190Y-38067D01*
X43198Y-38052D01*
X43205Y-38049D01*
X43211Y-38040D01*
X43214Y-38025D01*
X43217Y-38008D01*
X43230Y-38000D01*
X43252Y-37995D01*
X43278Y-37987D01*
X43295Y-37978D01*
X43296Y-37975D01*
X43297Y-37950D01*
X43297Y-38393D01*
X43210Y-38393D01*
X43210Y-38339D01*
X43203Y-38328D01*
X43199Y-38324D01*
X43182Y-38316D01*
X43160Y-38322D01*
X43159Y-38323D01*
X43132Y-38331D01*
X43102Y-38334D01*
X43076Y-38331D01*
X43061Y-38324D01*
X43060Y-38309D01*
X43065Y-38296D01*
X43069Y-38274D01*
X43062Y-38259D01*
X43050Y-38247D01*
X43037Y-38251D01*
X43032Y-38255D01*
X43020Y-38276D01*
X43021Y-38296D01*
X43021Y-38318D01*
X43015Y-38326D01*
X43008Y-38337D01*
X43010Y-38347D01*
X43023Y-38360D01*
X43043Y-38363D01*
X43060Y-38355D01*
X43061Y-38354D01*
X43076Y-38346D01*
X43102Y-38344D01*
X43132Y-38347D01*
X43159Y-38355D01*
X43181Y-38362D01*
X43196Y-38356D01*
X43200Y-38352D01*
X43210Y-38339D01*
X43210Y-38393D01*
X42909Y-38393D01*
X42909Y-38285D01*
X42905Y-38263D01*
X42894Y-38255D01*
X42890Y-38255D01*
X42872Y-38262D01*
X42866Y-38270D01*
X42864Y-38294D01*
X42876Y-38310D01*
X42890Y-38314D01*
X42904Y-38309D01*
X42908Y-38290D01*
X42909Y-38285D01*
X42909Y-38393D01*
X42780Y-38393D01*
X42780Y-38345D01*
X42776Y-38339D01*
X42758Y-38334D01*
X42723Y-38332D01*
X42700Y-38332D01*
X42700Y-38292D01*
X42698Y-38270D01*
X42687Y-38255D01*
X42677Y-38254D01*
X42677Y-38218D01*
X42650Y-38217D01*
X42618Y-38225D01*
X42598Y-38242D01*
X42579Y-38267D01*
X42575Y-38286D01*
X42586Y-38303D01*
X42602Y-38312D01*
X42613Y-38303D01*
X42618Y-38276D01*
X42618Y-38269D01*
X42620Y-38244D01*
X42628Y-38231D01*
X42647Y-38225D01*
X42648Y-38224D01*
X42677Y-38218D01*
X42677Y-38254D01*
X42672Y-38253D01*
X42666Y-38256D01*
X42655Y-38275D01*
X42654Y-38297D01*
X42659Y-38308D01*
X42676Y-38313D01*
X42693Y-38305D01*
X42700Y-38292D01*
X42700Y-38332D01*
X42671Y-38331D01*
X42614Y-38332D01*
X42547Y-38334D01*
X42497Y-38333D01*
X42462Y-38329D01*
X42437Y-38323D01*
X42422Y-38313D01*
X42411Y-38300D01*
X42406Y-38289D01*
X42394Y-38270D01*
X42376Y-38266D01*
X42347Y-38277D01*
X42343Y-38279D01*
X42315Y-38293D01*
X42360Y-38300D01*
X42392Y-38308D01*
X42416Y-38320D01*
X42422Y-38325D01*
X42431Y-38333D01*
X42444Y-38338D01*
X42463Y-38341D01*
X42494Y-38343D01*
X42538Y-38344D01*
X42575Y-38344D01*
X42629Y-38344D01*
X42673Y-38346D01*
X42703Y-38349D01*
X42716Y-38353D01*
X42717Y-38354D01*
X42732Y-38362D01*
X42755Y-38361D01*
X42771Y-38354D01*
X42780Y-38345D01*
X42780Y-38393D01*
X42755Y-38393D01*
X42200Y-38393D01*
X42200Y-38344D01*
X42200Y-38295D01*
X42252Y-38294D01*
X42281Y-38293D01*
X42292Y-38290D01*
X42289Y-38285D01*
X42269Y-38278D01*
X42241Y-38275D01*
X42237Y-38275D01*
X42209Y-38272D01*
X42200Y-38262D01*
X42200Y-38261D01*
X42207Y-38253D01*
X42229Y-38246D01*
X42268Y-38241D01*
X42271Y-38240D01*
X42307Y-38236D01*
X42334Y-38229D01*
X42359Y-38217D01*
X42388Y-38198D01*
X42413Y-38180D01*
X42448Y-38154D01*
X42474Y-38139D01*
X42495Y-38130D01*
X42518Y-38127D01*
X42533Y-38127D01*
X42565Y-38129D01*
X42580Y-38134D01*
X42584Y-38142D01*
X42592Y-38154D01*
X42603Y-38157D01*
X42618Y-38152D01*
X42623Y-38135D01*
X42623Y-38127D01*
X42620Y-38106D01*
X42608Y-38098D01*
X42603Y-38098D01*
X42587Y-38102D01*
X42584Y-38108D01*
X42575Y-38113D01*
X42552Y-38117D01*
X42532Y-38117D01*
X42506Y-38119D01*
X42484Y-38123D01*
X42462Y-38134D01*
X42433Y-38153D01*
X42407Y-38173D01*
X42371Y-38198D01*
X42346Y-38214D01*
X42327Y-38221D01*
X42310Y-38223D01*
X42298Y-38221D01*
X42264Y-38216D01*
X42232Y-38213D01*
X42207Y-38208D01*
X42199Y-38199D01*
X42208Y-38191D01*
X42232Y-38186D01*
X42240Y-38186D01*
X42267Y-38183D01*
X42277Y-38174D01*
X42268Y-38164D01*
X42244Y-38157D01*
X42221Y-38150D01*
X42216Y-38142D01*
X42226Y-38135D01*
X42248Y-38127D01*
X42282Y-38122D01*
X42324Y-38118D01*
X42339Y-38118D01*
X42376Y-38113D01*
X42400Y-38100D01*
X42401Y-38098D01*
X42424Y-38083D01*
X42449Y-38076D01*
X42475Y-38068D01*
X42484Y-38056D01*
X42479Y-38043D01*
X42463Y-38037D01*
X42444Y-38039D01*
X42428Y-38049D01*
X42424Y-38057D01*
X42412Y-38076D01*
X42393Y-38093D01*
X42377Y-38101D01*
X42359Y-38106D01*
X42333Y-38106D01*
X42294Y-38103D01*
X42283Y-38101D01*
X42240Y-38096D01*
X42213Y-38089D01*
X42204Y-38082D01*
X42212Y-38077D01*
X42239Y-38074D01*
X42264Y-38073D01*
X42306Y-38069D01*
X42349Y-38057D01*
X42385Y-38042D01*
X42409Y-38023D01*
X42411Y-38019D01*
X42424Y-38014D01*
X42446Y-38016D01*
X42469Y-38017D01*
X42481Y-38007D01*
X42482Y-38004D01*
X42481Y-37985D01*
X42474Y-37980D01*
X42456Y-37972D01*
X42442Y-37978D01*
X42429Y-37990D01*
X42410Y-38008D01*
X42385Y-38024D01*
X42359Y-38036D01*
X42340Y-38042D01*
X42333Y-38041D01*
X42320Y-38037D01*
X42294Y-38034D01*
X42265Y-38034D01*
X42227Y-38032D01*
X42207Y-38027D01*
X42206Y-38021D01*
X42223Y-38014D01*
X42259Y-38007D01*
X42276Y-38004D01*
X42324Y-37996D01*
X42338Y-37991D01*
X42269Y-37985D01*
X42234Y-37980D01*
X42208Y-37976D01*
X42195Y-37971D01*
X42195Y-37971D01*
X42197Y-37961D01*
X42215Y-37955D01*
X42246Y-37954D01*
X42274Y-37957D01*
X42311Y-37959D01*
X42330Y-37954D01*
X42333Y-37951D01*
X42334Y-37935D01*
X42318Y-37924D01*
X42283Y-37918D01*
X42256Y-37917D01*
X42195Y-37917D01*
X42192Y-37757D01*
X42190Y-37597D01*
X42756Y-37597D01*
X43322Y-37597D01*
X43322Y-37597D01*
X43322Y-37597D01*
G37*
G36*
X42610Y-38121D02*
X42609Y-38127D01*
X42603Y-38127D01*
X42595Y-38124D01*
X42597Y-38121D01*
X42609Y-38119D01*
X42610Y-38121D01*
X42610Y-38121D01*
X42610Y-38121D01*
G37*
G36*
X42308Y-38053D02*
X42303Y-38058D01*
X42298Y-38053D01*
X42303Y-38049D01*
X42308Y-38053D01*
X42308Y-38053D01*
X42308Y-38053D01*
G37*
G36*
X42462Y-38052D02*
X42461Y-38057D01*
X42456Y-38058D01*
X42448Y-38055D01*
X42449Y-38052D01*
X42461Y-38051D01*
X42462Y-38052D01*
X42462Y-38052D01*
X42462Y-38052D01*
G37*
G36*
X42462Y-37993D02*
X42461Y-37998D01*
X42456Y-37999D01*
X42448Y-37996D01*
X42449Y-37993D01*
X42461Y-37992D01*
X42462Y-37993D01*
X42462Y-37993D01*
X42462Y-37993D01*
G37*
G36*
X42308Y-37936D02*
X42303Y-37941D01*
X42298Y-37936D01*
X42303Y-37931D01*
X42308Y-37936D01*
X42308Y-37936D01*
X42308Y-37936D01*
G37*
G36*
X42505Y-37926D02*
X42500Y-37931D01*
X42495Y-37926D01*
X42500Y-37921D01*
X42505Y-37926D01*
X42505Y-37926D01*
X42505Y-37926D01*
G37*
G36*
X42554Y-37848D02*
X42549Y-37853D01*
X42544Y-37848D01*
X42549Y-37843D01*
X42554Y-37848D01*
X42554Y-37848D01*
X42554Y-37848D01*
G37*
G36*
X42918Y-37848D02*
X42913Y-37853D01*
X42909Y-37848D01*
X42913Y-37843D01*
X42918Y-37848D01*
X42918Y-37848D01*
X42918Y-37848D01*
G37*
G36*
X42710Y-37691D02*
X42709Y-37692D01*
X42703Y-37691D01*
X42702Y-37685D01*
X42706Y-37677D01*
X42709Y-37679D01*
X42710Y-37691D01*
X42710Y-37691D01*
X42710Y-37691D01*
G37*
G36*
X43194Y-37661D02*
X43189Y-37666D01*
X43184Y-37661D01*
X43189Y-37656D01*
X43194Y-37661D01*
X43194Y-37661D01*
X43194Y-37661D01*
G37*
G36*
X45105Y-38366D02*
X45104Y-38402D01*
X45104Y-38407D01*
X45101Y-38481D01*
X44802Y-38481D01*
X44502Y-38481D01*
X44502Y-38398D01*
X44502Y-38314D01*
X44801Y-38314D01*
X44890Y-38315D01*
X44965Y-38316D01*
X45025Y-38317D01*
X45069Y-38319D01*
X45096Y-38321D01*
X45104Y-38324D01*
X45105Y-38338D01*
X45105Y-38366D01*
X45105Y-38366D01*
X45105Y-38366D01*
G37*
G36*
X45112Y-37675D02*
X44502Y-37675D01*
X44502Y-37508D01*
X45112Y-37508D01*
X45112Y-37675D01*
X45112Y-37675D01*
X45112Y-37675D01*
G37*
G36*
X45959Y-38472D02*
X45348Y-38472D01*
X45348Y-38314D01*
X45959Y-38314D01*
X45959Y-38472D01*
X45959Y-38472D01*
X45959Y-38472D01*
G37*
G36*
X44266Y-37666D02*
X43657Y-37666D01*
X43657Y-37508D01*
X44266Y-37508D01*
X44266Y-37666D01*
X44266Y-37666D01*
X44266Y-37666D01*
G37*
G36*
X42751Y-38339D02*
X42746Y-38344D01*
X42741Y-38339D01*
X42746Y-38334D01*
X42751Y-38339D01*
X42751Y-38339D01*
X42751Y-38339D01*
G37*
G36*
X42387Y-38290D02*
X42382Y-38295D01*
X42377Y-38290D01*
X42382Y-38285D01*
X42387Y-38290D01*
X42387Y-38290D01*
X42387Y-38290D01*
G37*
G36*
X43046Y-38339D02*
X43042Y-38344D01*
X43037Y-38339D01*
X43042Y-38334D01*
X43046Y-38339D01*
X43046Y-38339D01*
X43046Y-38339D01*
G37*
G36*
X43184Y-38339D02*
X43179Y-38344D01*
X43174Y-38339D01*
X43179Y-38334D01*
X43184Y-38339D01*
X43184Y-38339D01*
X43184Y-38339D01*
G37*
G36*
X43053Y-38278D02*
X43052Y-38284D01*
X43046Y-38285D01*
X43038Y-38281D01*
X43040Y-38278D01*
X43052Y-38277D01*
X43053Y-38278D01*
X43053Y-38278D01*
X43053Y-38278D01*
G37*
G36*
X42613Y-38280D02*
X42608Y-38285D01*
X42603Y-38280D01*
X42608Y-38275D01*
X42613Y-38280D01*
X42613Y-38280D01*
X42613Y-38280D01*
G37*
G36*
X42682Y-38280D02*
X42677Y-38285D01*
X42672Y-38280D01*
X42677Y-38275D01*
X42682Y-38280D01*
X42682Y-38280D01*
X42682Y-38280D01*
G37*
G36*
X42751Y-38280D02*
X42746Y-38285D01*
X42741Y-38280D01*
X42746Y-38275D01*
X42751Y-38280D01*
X42751Y-38280D01*
X42751Y-38280D01*
G37*
G36*
X42820Y-38280D02*
X42815Y-38285D01*
X42810Y-38280D01*
X42815Y-38275D01*
X42820Y-38280D01*
X42820Y-38280D01*
X42820Y-38280D01*
G37*
G36*
X42978Y-38280D02*
X42972Y-38285D01*
X42968Y-38280D01*
X42972Y-38275D01*
X42978Y-38280D01*
X42978Y-38280D01*
X42978Y-38280D01*
G37*
G36*
X42899Y-38122D02*
X42894Y-38127D01*
X42889Y-38122D01*
X42894Y-38117D01*
X42899Y-38122D01*
X42899Y-38122D01*
X42899Y-38122D01*
G37*
G36*
X42978Y-38122D02*
X42972Y-38127D01*
X42968Y-38122D01*
X42972Y-38117D01*
X42978Y-38122D01*
X42978Y-38122D01*
X42978Y-38122D01*
G37*
G36*
X43086Y-38053D02*
X43081Y-38058D01*
X43076Y-38053D01*
X43081Y-38049D01*
X43086Y-38053D01*
X43086Y-38053D01*
X43086Y-38053D01*
G37*
G36*
X43194Y-38034D02*
X43189Y-38039D01*
X43184Y-38034D01*
X43189Y-38029D01*
X43194Y-38034D01*
X43194Y-38034D01*
X43194Y-38034D01*
G37*
G36*
X43253Y-37961D02*
X43246Y-37970D01*
X43243Y-37971D01*
X43234Y-37963D01*
X43234Y-37961D01*
X43241Y-37951D01*
X43243Y-37951D01*
X43253Y-37959D01*
X43253Y-37961D01*
X43253Y-37961D01*
X43253Y-37961D01*
G37*
G36*
X42899Y-38280D02*
X42894Y-38285D01*
X42889Y-38280D01*
X42894Y-38275D01*
X42899Y-38280D01*
X42899Y-38280D01*
X42899Y-38280D01*
G37*
G36*
X42682Y-38122D02*
X42677Y-38127D01*
X42672Y-38122D01*
X42677Y-38117D01*
X42682Y-38122D01*
X42682Y-38122D01*
X42682Y-38122D01*
G37*
G36*
X42751Y-38122D02*
X42746Y-38127D01*
X42741Y-38122D01*
X42746Y-38117D01*
X42751Y-38122D01*
X42751Y-38122D01*
X42751Y-38122D01*
G37*
G36*
X42712Y-37848D02*
X42707Y-37853D01*
X42702Y-37848D01*
X42707Y-37843D01*
X42712Y-37848D01*
X42712Y-37848D01*
X42712Y-37848D01*
G37*
G36*
X42820Y-38122D02*
X42815Y-38127D01*
X42810Y-38122D01*
X42815Y-38117D01*
X42820Y-38122D01*
X42820Y-38122D01*
X42820Y-38122D01*
G37*
G36*
X43056Y-38122D02*
X43051Y-38127D01*
X43046Y-38122D01*
X43051Y-38117D01*
X43056Y-38122D01*
X43056Y-38122D01*
X43056Y-38122D01*
G37*
G36*
X42758Y-38052D02*
X42756Y-38057D01*
X42751Y-38058D01*
X42743Y-38055D01*
X42745Y-38052D01*
X42756Y-38051D01*
X42758Y-38052D01*
X42758Y-38052D01*
X42758Y-38052D01*
G37*
G36*
X42869Y-38053D02*
X42864Y-38058D01*
X42859Y-38053D01*
X42864Y-38049D01*
X42869Y-38053D01*
X42869Y-38053D01*
X42869Y-38053D01*
G37*
G36*
X42758Y-37993D02*
X42756Y-37998D01*
X42751Y-37999D01*
X42743Y-37996D01*
X42745Y-37993D01*
X42756Y-37992D01*
X42758Y-37993D01*
X42758Y-37993D01*
X42758Y-37993D01*
G37*
G36*
X42820Y-37994D02*
X42815Y-37999D01*
X42810Y-37994D01*
X42815Y-37990D01*
X42820Y-37994D01*
X42820Y-37994D01*
X42820Y-37994D01*
G37*
G36*
X43115Y-37994D02*
X43110Y-37999D01*
X43105Y-37994D01*
X43110Y-37990D01*
X43115Y-37994D01*
X43115Y-37994D01*
X43115Y-37994D01*
G37*
G36*
X43194Y-37877D02*
X43189Y-37882D01*
X43184Y-37877D01*
X43189Y-37872D01*
X43194Y-37877D01*
X43194Y-37877D01*
X43194Y-37877D01*
G37*
G36*
X43073Y-37846D02*
X43071Y-37852D01*
X43066Y-37853D01*
X43058Y-37849D01*
X43060Y-37846D01*
X43071Y-37845D01*
X43073Y-37846D01*
X43073Y-37846D01*
X43073Y-37846D01*
G37*
G36*
X42928Y-37936D02*
X42923Y-37941D01*
X42918Y-37936D01*
X42923Y-37931D01*
X42928Y-37936D01*
X42928Y-37936D01*
X42928Y-37936D01*
G37*
G36*
X42781Y-37848D02*
X42776Y-37853D01*
X42771Y-37848D01*
X42776Y-37843D01*
X42781Y-37848D01*
X42781Y-37848D01*
X42781Y-37848D01*
G37*
G36*
X42633Y-37848D02*
X42628Y-37853D01*
X42623Y-37848D01*
X42628Y-37843D01*
X42633Y-37848D01*
X42633Y-37848D01*
X42633Y-37848D01*
G37*
G36*
X42846Y-37846D02*
X42845Y-37852D01*
X42840Y-37853D01*
X42832Y-37849D01*
X42833Y-37846D01*
X42845Y-37845D01*
X42846Y-37846D01*
X42846Y-37846D01*
X42846Y-37846D01*
G37*
G36*
X42997Y-37848D02*
X42992Y-37853D01*
X42987Y-37848D01*
X42992Y-37843D01*
X42997Y-37848D01*
X42997Y-37848D01*
X42997Y-37848D01*
G37*
G36*
X42387Y-37838D02*
X42382Y-37843D01*
X42377Y-37838D01*
X42382Y-37833D01*
X42387Y-37838D01*
X42387Y-37838D01*
X42387Y-37838D01*
G37*
G36*
X42564Y-37690D02*
X42559Y-37695D01*
X42554Y-37690D01*
X42559Y-37685D01*
X42564Y-37690D01*
X42564Y-37690D01*
X42564Y-37690D01*
G37*
G36*
X42643Y-37690D02*
X42638Y-37695D01*
X42633Y-37690D01*
X42638Y-37685D01*
X42643Y-37690D01*
X42643Y-37690D01*
X42643Y-37690D01*
G37*
G36*
X42781Y-37690D02*
X42776Y-37695D01*
X42771Y-37690D01*
X42776Y-37685D01*
X42781Y-37690D01*
X42781Y-37690D01*
X42781Y-37690D01*
G37*
G36*
X42995Y-37691D02*
X42994Y-37692D01*
X42988Y-37691D01*
X42987Y-37685D01*
X42991Y-37677D01*
X42994Y-37679D01*
X42995Y-37691D01*
X42995Y-37691D01*
X42995Y-37691D01*
G37*
G36*
X43074Y-37691D02*
X43073Y-37692D01*
X43067Y-37691D01*
X43066Y-37685D01*
X43070Y-37677D01*
X43073Y-37679D01*
X43074Y-37691D01*
X43074Y-37691D01*
X43074Y-37691D01*
G37*
G36*
X42407Y-37651D02*
X42402Y-37656D01*
X42397Y-37651D01*
X42402Y-37646D01*
X42407Y-37651D01*
X42407Y-37651D01*
X42407Y-37651D01*
G37*
G36*
X47582Y-38510D02*
X47589Y-38506D01*
X47604Y-38497D01*
X47626Y-38482D01*
X47652Y-38465D01*
X47678Y-38447D01*
X47700Y-38433D01*
X47715Y-38423D01*
X47721Y-38420D01*
X47724Y-38421D01*
X47737Y-38427D01*
X47754Y-38436D01*
X47765Y-38442D01*
X47781Y-38449D01*
X47790Y-38450D01*
X47791Y-38448D01*
X47797Y-38436D01*
X47806Y-38414D01*
X47819Y-38386D01*
X47833Y-38352D01*
X47848Y-38316D01*
X47864Y-38280D01*
X47878Y-38245D01*
X47891Y-38213D01*
X47901Y-38187D01*
X47908Y-38170D01*
X47911Y-38162D01*
X47910Y-38160D01*
X47902Y-38152D01*
X47887Y-38142D01*
X47856Y-38116D01*
X47825Y-38078D01*
X47807Y-38035D01*
X47800Y-37986D01*
X47806Y-37941D01*
X47823Y-37899D01*
X47853Y-37860D01*
X47890Y-37831D01*
X47932Y-37813D01*
X47980Y-37807D01*
X48025Y-37812D01*
X48069Y-37830D01*
X48108Y-37859D01*
X48125Y-37878D01*
X48147Y-37917D01*
X48160Y-37959D01*
X48161Y-37970D01*
X48159Y-38016D01*
X48146Y-38060D01*
X48121Y-38099D01*
X48088Y-38132D01*
X48083Y-38135D01*
X48068Y-38147D01*
X48057Y-38155D01*
X48049Y-38161D01*
X48108Y-38303D01*
X48117Y-38325D01*
X48133Y-38364D01*
X48147Y-38397D01*
X48159Y-38424D01*
X48167Y-38442D01*
X48170Y-38449D01*
X48170Y-38449D01*
X48176Y-38450D01*
X48186Y-38446D01*
X48206Y-38437D01*
X48219Y-38430D01*
X48234Y-38423D01*
X48241Y-38420D01*
X48247Y-38423D01*
X48261Y-38432D01*
X48282Y-38446D01*
X48308Y-38464D01*
X48332Y-38480D01*
X48354Y-38495D01*
X48370Y-38505D01*
X48378Y-38509D01*
X48379Y-38509D01*
X48386Y-38505D01*
X48399Y-38495D01*
X48418Y-38477D01*
X48445Y-38450D01*
X48449Y-38445D01*
X48472Y-38423D01*
X48490Y-38404D01*
X48502Y-38390D01*
X48507Y-38384D01*
X48507Y-38384D01*
X48503Y-38376D01*
X48492Y-38360D01*
X48478Y-38337D01*
X48460Y-38311D01*
X48413Y-38243D01*
X48439Y-38179D01*
X48447Y-38159D01*
X48457Y-38135D01*
X48464Y-38118D01*
X48468Y-38111D01*
X48475Y-38108D01*
X48492Y-38104D01*
X48518Y-38099D01*
X48548Y-38093D01*
X48577Y-38088D01*
X48603Y-38083D01*
X48622Y-38079D01*
X48631Y-38078D01*
X48633Y-38076D01*
X48635Y-38072D01*
X48636Y-38063D01*
X48636Y-38047D01*
X48637Y-38022D01*
X48637Y-37986D01*
X48637Y-37982D01*
X48636Y-37948D01*
X48636Y-37920D01*
X48635Y-37903D01*
X48634Y-37896D01*
X48634Y-37896D01*
X48625Y-37894D01*
X48607Y-37890D01*
X48581Y-37885D01*
X48550Y-37879D01*
X48548Y-37878D01*
X48517Y-37872D01*
X48490Y-37867D01*
X48472Y-37863D01*
X48465Y-37860D01*
X48463Y-37858D01*
X48457Y-37846D01*
X48448Y-37827D01*
X48437Y-37803D01*
X48427Y-37779D01*
X48419Y-37757D01*
X48413Y-37740D01*
X48411Y-37733D01*
X48411Y-37733D01*
X48416Y-37725D01*
X48426Y-37709D01*
X48441Y-37687D01*
X48460Y-37660D01*
X48461Y-37658D01*
X48479Y-37632D01*
X48493Y-37610D01*
X48503Y-37594D01*
X48507Y-37587D01*
X48506Y-37586D01*
X48501Y-37579D01*
X48487Y-37564D01*
X48468Y-37544D01*
X48445Y-37520D01*
X48438Y-37513D01*
X48412Y-37488D01*
X48394Y-37472D01*
X48383Y-37463D01*
X48378Y-37461D01*
X48378Y-37461D01*
X48370Y-37466D01*
X48353Y-37477D01*
X48331Y-37492D01*
X48304Y-37510D01*
X48302Y-37512D01*
X48276Y-37530D01*
X48254Y-37544D01*
X48239Y-37555D01*
X48232Y-37559D01*
X48231Y-37559D01*
X48220Y-37556D01*
X48201Y-37549D01*
X48178Y-37540D01*
X48154Y-37530D01*
X48132Y-37521D01*
X48115Y-37514D01*
X48108Y-37509D01*
X48107Y-37509D01*
X48105Y-37499D01*
X48100Y-37480D01*
X48094Y-37453D01*
X48088Y-37420D01*
X48087Y-37415D01*
X48081Y-37384D01*
X48076Y-37358D01*
X48073Y-37340D01*
X48071Y-37333D01*
X48066Y-37332D01*
X48051Y-37331D01*
X48028Y-37330D01*
X48000Y-37330D01*
X47970Y-37330D01*
X47941Y-37331D01*
X47917Y-37331D01*
X47899Y-37333D01*
X47891Y-37334D01*
X47891Y-37335D01*
X47888Y-37344D01*
X47884Y-37364D01*
X47879Y-37391D01*
X47872Y-37423D01*
X47871Y-37429D01*
X47865Y-37460D01*
X47860Y-37486D01*
X47856Y-37504D01*
X47854Y-37511D01*
X47852Y-37512D01*
X47839Y-37518D01*
X47818Y-37526D01*
X47792Y-37537D01*
X47732Y-37561D01*
X47658Y-37511D01*
X47651Y-37506D01*
X47625Y-37488D01*
X47603Y-37473D01*
X47588Y-37464D01*
X47581Y-37460D01*
X47581Y-37460D01*
X47573Y-37467D01*
X47559Y-37480D01*
X47539Y-37500D01*
X47516Y-37523D01*
X47498Y-37540D01*
X47478Y-37561D01*
X47465Y-37575D01*
X47458Y-37584D01*
X47456Y-37589D01*
X47456Y-37593D01*
X47461Y-37600D01*
X47472Y-37617D01*
X47487Y-37639D01*
X47505Y-37665D01*
X47520Y-37687D01*
X47536Y-37712D01*
X47546Y-37729D01*
X47550Y-37738D01*
X47549Y-37742D01*
X47544Y-37756D01*
X47535Y-37778D01*
X47524Y-37804D01*
X47498Y-37862D01*
X47460Y-37870D01*
X47437Y-37874D01*
X47404Y-37880D01*
X47373Y-37886D01*
X47325Y-37896D01*
X47323Y-38073D01*
X47331Y-38076D01*
X47338Y-38078D01*
X47356Y-38082D01*
X47381Y-38087D01*
X47412Y-38093D01*
X47437Y-38098D01*
X47463Y-38103D01*
X47482Y-38106D01*
X47490Y-38108D01*
X47492Y-38111D01*
X47499Y-38123D01*
X47508Y-38143D01*
X47518Y-38167D01*
X47529Y-38192D01*
X47538Y-38215D01*
X47544Y-38233D01*
X47547Y-38242D01*
X47543Y-38249D01*
X47533Y-38264D01*
X47519Y-38286D01*
X47501Y-38312D01*
X47484Y-38337D01*
X47469Y-38360D01*
X47459Y-38375D01*
X47454Y-38383D01*
X47456Y-38388D01*
X47467Y-38400D01*
X47486Y-38420D01*
X47515Y-38449D01*
X47520Y-38453D01*
X47543Y-38476D01*
X47562Y-38494D01*
X47576Y-38506D01*
X47582Y-38510D01*
X47582Y-38510D01*
G37*
G54D12*
X64600Y-41768D02*
X64600Y-42196D01*
X64572Y-42282D01*
X64515Y-42339D01*
X64429Y-42368D01*
X64372Y-42368D01*
X65200Y-42368D02*
X64857Y-42368D01*
X65029Y-42368D02*
X65029Y-41768D01*
X64972Y-41854D01*
X64914Y-41911D01*
X64857Y-41939D01*
X63529Y-39768D02*
X63529Y-40254D01*
X63557Y-40311D01*
X63586Y-40339D01*
X63643Y-40368D01*
X63757Y-40368D01*
X63815Y-40339D01*
X63843Y-40311D01*
X63872Y-40254D01*
X63872Y-39768D01*
X64129Y-40339D02*
X64215Y-40368D01*
X64358Y-40368D01*
X64415Y-40339D01*
X64444Y-40311D01*
X64472Y-40254D01*
X64472Y-40196D01*
X64444Y-40139D01*
X64415Y-40111D01*
X64358Y-40082D01*
X64244Y-40054D01*
X64186Y-40025D01*
X64158Y-39996D01*
X64129Y-39939D01*
X64129Y-39882D01*
X64158Y-39825D01*
X64186Y-39796D01*
X64244Y-39768D01*
X64386Y-39768D01*
X64472Y-39796D01*
X64929Y-40054D02*
X65015Y-40082D01*
X65043Y-40111D01*
X65072Y-40168D01*
X65072Y-40254D01*
X65043Y-40311D01*
X65015Y-40339D01*
X64957Y-40368D01*
X64729Y-40368D01*
X64729Y-39768D01*
X64929Y-39768D01*
X64986Y-39796D01*
X65015Y-39825D01*
X65043Y-39882D01*
X65043Y-39939D01*
X65015Y-39996D01*
X64986Y-40025D01*
X64929Y-40054D01*
X64729Y-40054D01*
X65186Y-40425D02*
X65643Y-40425D01*
X65757Y-39825D02*
X65786Y-39796D01*
X65843Y-39768D01*
X65986Y-39768D01*
X66043Y-39796D01*
X66072Y-39825D01*
X66100Y-39882D01*
X66100Y-39939D01*
X66072Y-40025D01*
X65729Y-40368D01*
X66100Y-40368D01*
G54D15*
X52152Y-41290D02*
X51652Y-41290D01*
X52105Y-40871D02*
X52129Y-40890D01*
X52152Y-40947D01*
X52152Y-40985D01*
X52129Y-41043D01*
X52081Y-41081D01*
X52033Y-41100D01*
X51938Y-41119D01*
X51867Y-41119D01*
X51771Y-41100D01*
X51724Y-41081D01*
X51676Y-41043D01*
X51652Y-40985D01*
X51652Y-40947D01*
X51676Y-40890D01*
X51700Y-40871D01*
X52152Y-40490D02*
X52152Y-40719D01*
X52152Y-40605D02*
X51652Y-40605D01*
X51724Y-40643D01*
X51771Y-40681D01*
X51795Y-40719D01*
G54D16*
X56583Y-38193D02*
X57011Y-38193D01*
X57097Y-38213D01*
X57154Y-38251D01*
X57183Y-38308D01*
X57183Y-38346D01*
X57183Y-38003D02*
X56583Y-38003D01*
X56583Y-37850D01*
X56611Y-37812D01*
X56640Y-37793D01*
X56697Y-37774D01*
X56783Y-37774D01*
X56840Y-37793D01*
X56869Y-37812D01*
X56897Y-37850D01*
X56897Y-38003D01*
X56583Y-37641D02*
X56583Y-37393D01*
X56811Y-37527D01*
X56811Y-37469D01*
X56840Y-37431D01*
X56869Y-37412D01*
X56926Y-37393D01*
X57069Y-37393D01*
X57126Y-37412D01*
X57154Y-37431D01*
X57183Y-37469D01*
X57183Y-37584D01*
X57154Y-37622D01*
X57126Y-37641D01*
X55483Y-42233D02*
X55911Y-42233D01*
X55997Y-42253D01*
X56054Y-42291D01*
X56083Y-42348D01*
X56083Y-42386D01*
X56083Y-42043D02*
X55483Y-42043D01*
X55483Y-41890D01*
X55511Y-41852D01*
X55540Y-41833D01*
X55597Y-41814D01*
X55683Y-41814D01*
X55740Y-41833D01*
X55769Y-41852D01*
X55797Y-41890D01*
X55797Y-42043D01*
X55540Y-41662D02*
X55511Y-41643D01*
X55483Y-41605D01*
X55483Y-41509D01*
X55511Y-41471D01*
X55540Y-41452D01*
X55597Y-41433D01*
X55654Y-41433D01*
X55740Y-41452D01*
X56083Y-41681D01*
X56083Y-41433D01*
X58068Y-39883D02*
X58496Y-39883D01*
X58582Y-39903D01*
X58639Y-39941D01*
X58668Y-39998D01*
X58668Y-40036D01*
X58668Y-39693D02*
X58068Y-39693D01*
X58068Y-39540D01*
X58096Y-39502D01*
X58125Y-39483D01*
X58182Y-39464D01*
X58268Y-39464D01*
X58325Y-39483D01*
X58354Y-39502D01*
X58382Y-39540D01*
X58382Y-39693D01*
X58668Y-39083D02*
X58668Y-39312D01*
X58668Y-39198D02*
X58068Y-39198D01*
X58154Y-39236D01*
X58211Y-39274D01*
X58239Y-39312D01*
G54D15*
X44622Y-41950D02*
X44222Y-41950D01*
X44584Y-41531D02*
X44603Y-41550D01*
X44622Y-41607D01*
X44622Y-41645D01*
X44603Y-41703D01*
X44565Y-41741D01*
X44527Y-41760D01*
X44450Y-41779D01*
X44393Y-41779D01*
X44317Y-41760D01*
X44279Y-41741D01*
X44241Y-41703D01*
X44222Y-41645D01*
X44222Y-41607D01*
X44241Y-41550D01*
X44260Y-41531D01*
X44603Y-41379D02*
X44622Y-41322D01*
X44622Y-41226D01*
X44603Y-41188D01*
X44584Y-41169D01*
X44546Y-41150D01*
X44508Y-41150D01*
X44470Y-41169D01*
X44450Y-41188D01*
X44431Y-41226D01*
X44412Y-41303D01*
X44393Y-41341D01*
X44374Y-41360D01*
X44336Y-41379D01*
X44298Y-41379D01*
X44260Y-41360D01*
X44241Y-41341D01*
X44222Y-41303D01*
X44222Y-41207D01*
X44241Y-41150D01*
X44622Y-40979D02*
X44222Y-40979D01*
X44222Y-40826D01*
X44241Y-40788D01*
X44260Y-40769D01*
X44298Y-40750D01*
X44355Y-40750D01*
X44393Y-40769D01*
X44412Y-40788D01*
X44431Y-40826D01*
X44431Y-40979D01*
G54D17*
X54582Y-37929D02*
X54591Y-37938D01*
X54601Y-37964D01*
X54601Y-37981D01*
X54591Y-38006D01*
X54572Y-38024D01*
X54553Y-38032D01*
X54515Y-38041D01*
X54487Y-38041D01*
X54449Y-38032D01*
X54430Y-38024D01*
X54410Y-38006D01*
X54401Y-37981D01*
X54401Y-37964D01*
X54410Y-37938D01*
X54420Y-37929D01*
X54601Y-37758D02*
X54601Y-37861D01*
X54601Y-37809D02*
X54401Y-37809D01*
X54430Y-37826D01*
X54449Y-37844D01*
X54458Y-37861D01*
X54021Y-38221D02*
X54021Y-38324D01*
X54021Y-38272D02*
X53821Y-38272D01*
X53850Y-38289D01*
X53869Y-38307D01*
X53878Y-38324D01*
X53821Y-38110D02*
X53821Y-38093D01*
X53830Y-38076D01*
X53840Y-38067D01*
X53859Y-38058D01*
X53897Y-38050D01*
X53945Y-38050D01*
X53983Y-38058D01*
X54002Y-38067D01*
X54011Y-38076D01*
X54021Y-38093D01*
X54021Y-38110D01*
X54011Y-38127D01*
X54002Y-38136D01*
X53983Y-38144D01*
X53945Y-38153D01*
X53897Y-38153D01*
X53859Y-38144D01*
X53840Y-38136D01*
X53830Y-38127D01*
X53821Y-38110D01*
X53821Y-37939D02*
X53821Y-37922D01*
X53830Y-37905D01*
X53840Y-37896D01*
X53859Y-37887D01*
X53897Y-37879D01*
X53945Y-37879D01*
X53983Y-37887D01*
X54002Y-37896D01*
X54011Y-37905D01*
X54021Y-37922D01*
X54021Y-37939D01*
X54011Y-37956D01*
X54002Y-37965D01*
X53983Y-37973D01*
X53945Y-37982D01*
X53897Y-37982D01*
X53859Y-37973D01*
X53840Y-37965D01*
X53830Y-37956D01*
X53821Y-37939D01*
X53888Y-37802D02*
X54021Y-37802D01*
X53907Y-37802D02*
X53897Y-37794D01*
X53888Y-37776D01*
X53888Y-37751D01*
X53897Y-37734D01*
X53916Y-37725D01*
X54021Y-37725D01*
X60362Y-38509D02*
X60371Y-38518D01*
X60381Y-38544D01*
X60381Y-38561D01*
X60371Y-38586D01*
X60352Y-38604D01*
X60333Y-38612D01*
X60295Y-38621D01*
X60267Y-38621D01*
X60229Y-38612D01*
X60210Y-38604D01*
X60190Y-38586D01*
X60181Y-38561D01*
X60181Y-38544D01*
X60190Y-38518D01*
X60200Y-38509D01*
X60200Y-38441D02*
X60190Y-38432D01*
X60181Y-38415D01*
X60181Y-38372D01*
X60190Y-38355D01*
X60200Y-38346D01*
X60219Y-38338D01*
X60238Y-38338D01*
X60267Y-38346D01*
X60381Y-38449D01*
X60381Y-38338D01*
X60708Y-37715D02*
X60841Y-37715D01*
X60631Y-37758D02*
X60774Y-37801D01*
X60774Y-37689D01*
X60822Y-37621D02*
X60831Y-37613D01*
X60841Y-37621D01*
X60831Y-37630D01*
X60822Y-37621D01*
X60841Y-37621D01*
X60641Y-37552D02*
X60641Y-37432D01*
X60841Y-37509D01*
X60708Y-37287D02*
X60841Y-37287D01*
X60708Y-37364D02*
X60812Y-37364D01*
X60831Y-37356D01*
X60841Y-37338D01*
X60841Y-37313D01*
X60831Y-37296D01*
X60822Y-37287D01*
X54322Y-43049D02*
X54331Y-43058D01*
X54341Y-43084D01*
X54341Y-43101D01*
X54331Y-43126D01*
X54312Y-43144D01*
X54293Y-43152D01*
X54255Y-43161D01*
X54227Y-43161D01*
X54189Y-43152D01*
X54170Y-43144D01*
X54150Y-43126D01*
X54141Y-43101D01*
X54141Y-43084D01*
X54150Y-43058D01*
X54160Y-43049D01*
X54141Y-42989D02*
X54141Y-42878D01*
X54217Y-42938D01*
X54217Y-42912D01*
X54227Y-42895D01*
X54236Y-42886D01*
X54255Y-42878D01*
X54303Y-42878D01*
X54322Y-42886D01*
X54331Y-42895D01*
X54341Y-42912D01*
X54341Y-42964D01*
X54331Y-42981D01*
X54322Y-42989D01*
X55160Y-43290D02*
X55150Y-43281D01*
X55141Y-43264D01*
X55141Y-43221D01*
X55150Y-43204D01*
X55160Y-43195D01*
X55179Y-43187D01*
X55198Y-43187D01*
X55227Y-43195D01*
X55341Y-43298D01*
X55341Y-43187D01*
X55160Y-43119D02*
X55150Y-43110D01*
X55141Y-43093D01*
X55141Y-43050D01*
X55150Y-43033D01*
X55160Y-43024D01*
X55179Y-43016D01*
X55198Y-43016D01*
X55227Y-43024D01*
X55341Y-43127D01*
X55341Y-43016D01*
X55208Y-42939D02*
X55408Y-42939D01*
X55217Y-42939D02*
X55208Y-42922D01*
X55208Y-42888D01*
X55217Y-42871D01*
X55227Y-42862D01*
X55246Y-42853D01*
X55303Y-42853D01*
X55322Y-42862D01*
X55331Y-42871D01*
X55341Y-42888D01*
X55341Y-42922D01*
X55331Y-42939D01*
X55208Y-42802D02*
X55208Y-42733D01*
X55341Y-42776D02*
X55170Y-42776D01*
X55150Y-42768D01*
X55141Y-42750D01*
X55141Y-42733D01*
X47342Y-41369D02*
X47351Y-41378D01*
X47361Y-41404D01*
X47361Y-41421D01*
X47351Y-41446D01*
X47332Y-41464D01*
X47313Y-41472D01*
X47275Y-41481D01*
X47247Y-41481D01*
X47209Y-41472D01*
X47190Y-41464D01*
X47170Y-41446D01*
X47161Y-41421D01*
X47161Y-41404D01*
X47170Y-41378D01*
X47180Y-41369D01*
X47228Y-41215D02*
X47361Y-41215D01*
X47151Y-41258D02*
X47294Y-41301D01*
X47294Y-41189D01*
X48300Y-41570D02*
X48290Y-41561D01*
X48281Y-41544D01*
X48281Y-41501D01*
X48290Y-41484D01*
X48300Y-41475D01*
X48319Y-41467D01*
X48338Y-41467D01*
X48367Y-41475D01*
X48481Y-41578D01*
X48481Y-41467D01*
X48300Y-41399D02*
X48290Y-41390D01*
X48281Y-41373D01*
X48281Y-41330D01*
X48290Y-41313D01*
X48300Y-41304D01*
X48319Y-41296D01*
X48338Y-41296D01*
X48367Y-41304D01*
X48481Y-41407D01*
X48481Y-41296D01*
X48348Y-41219D02*
X48548Y-41219D01*
X48357Y-41219D02*
X48348Y-41202D01*
X48348Y-41168D01*
X48357Y-41151D01*
X48367Y-41142D01*
X48386Y-41133D01*
X48443Y-41133D01*
X48462Y-41142D01*
X48471Y-41151D01*
X48481Y-41168D01*
X48481Y-41202D01*
X48471Y-41219D01*
X48348Y-41082D02*
X48348Y-41013D01*
X48481Y-41056D02*
X48310Y-41056D01*
X48290Y-41048D01*
X48281Y-41030D01*
X48281Y-41013D01*
X60281Y-42552D02*
X60081Y-42552D01*
X60081Y-42509D01*
X60090Y-42484D01*
X60110Y-42466D01*
X60129Y-42458D01*
X60167Y-42449D01*
X60195Y-42449D01*
X60233Y-42458D01*
X60252Y-42466D01*
X60271Y-42484D01*
X60281Y-42509D01*
X60281Y-42552D01*
X60281Y-42278D02*
X60281Y-42381D01*
X60281Y-42329D02*
X60081Y-42329D01*
X60110Y-42346D01*
X60129Y-42364D01*
X60138Y-42381D01*
X61061Y-42622D02*
X61061Y-42511D01*
X61137Y-42571D01*
X61137Y-42545D01*
X61147Y-42528D01*
X61156Y-42519D01*
X61175Y-42511D01*
X61223Y-42511D01*
X61242Y-42519D01*
X61251Y-42528D01*
X61261Y-42545D01*
X61261Y-42597D01*
X61251Y-42614D01*
X61242Y-42622D01*
X61061Y-42460D02*
X61261Y-42400D01*
X61061Y-42340D01*
X61061Y-42203D02*
X61061Y-42237D01*
X61070Y-42254D01*
X61080Y-42263D01*
X61109Y-42280D01*
X61147Y-42289D01*
X61223Y-42289D01*
X61242Y-42280D01*
X61251Y-42272D01*
X61261Y-42254D01*
X61261Y-42220D01*
X61251Y-42203D01*
X61242Y-42194D01*
X61223Y-42186D01*
X61175Y-42186D01*
X61156Y-42194D01*
X61147Y-42203D01*
X61137Y-42220D01*
X61137Y-42254D01*
X61147Y-42272D01*
X61156Y-42280D01*
X61175Y-42289D01*
X58648Y-43021D02*
X58648Y-42821D01*
X58691Y-42821D01*
X58716Y-42830D01*
X58734Y-42850D01*
X58742Y-42869D01*
X58751Y-42907D01*
X58751Y-42935D01*
X58742Y-42973D01*
X58734Y-42992D01*
X58716Y-43011D01*
X58691Y-43021D01*
X58648Y-43021D01*
X58819Y-42840D02*
X58828Y-42830D01*
X58845Y-42821D01*
X58888Y-42821D01*
X58905Y-42830D01*
X58914Y-42840D01*
X58922Y-42859D01*
X58922Y-42878D01*
X58914Y-42907D01*
X58811Y-43021D01*
X58922Y-43021D01*
X60178Y-43161D02*
X60289Y-43161D01*
X60229Y-43237D01*
X60255Y-43237D01*
X60272Y-43247D01*
X60281Y-43256D01*
X60289Y-43275D01*
X60289Y-43323D01*
X60281Y-43342D01*
X60272Y-43351D01*
X60255Y-43361D01*
X60203Y-43361D01*
X60186Y-43351D01*
X60178Y-43342D01*
X60340Y-43161D02*
X60400Y-43361D01*
X60460Y-43161D01*
X60597Y-43161D02*
X60563Y-43161D01*
X60546Y-43170D01*
X60537Y-43180D01*
X60520Y-43209D01*
X60511Y-43247D01*
X60511Y-43323D01*
X60520Y-43342D01*
X60528Y-43351D01*
X60546Y-43361D01*
X60580Y-43361D01*
X60597Y-43351D01*
X60606Y-43342D01*
X60614Y-43323D01*
X60614Y-43275D01*
X60606Y-43256D01*
X60597Y-43247D01*
X60580Y-43237D01*
X60546Y-43237D01*
X60528Y-43247D01*
X60520Y-43256D01*
X60511Y-43275D01*
X58028Y-43341D02*
X58028Y-43141D01*
X58071Y-43141D01*
X58096Y-43150D01*
X58114Y-43170D01*
X58122Y-43189D01*
X58131Y-43227D01*
X58131Y-43255D01*
X58122Y-43293D01*
X58114Y-43312D01*
X58096Y-43331D01*
X58071Y-43341D01*
X58028Y-43341D01*
X58191Y-43141D02*
X58302Y-43141D01*
X58242Y-43217D01*
X58268Y-43217D01*
X58285Y-43227D01*
X58294Y-43236D01*
X58302Y-43255D01*
X58302Y-43303D01*
X58294Y-43322D01*
X58285Y-43331D01*
X58268Y-43341D01*
X58216Y-43341D01*
X58199Y-43331D01*
X58191Y-43322D01*
X57748Y-44361D02*
X57662Y-44361D01*
X57662Y-44161D01*
X57808Y-44256D02*
X57868Y-44256D01*
X57894Y-44361D02*
X57808Y-44361D01*
X57808Y-44161D01*
X57894Y-44161D01*
X57971Y-44361D02*
X57971Y-44161D01*
X58014Y-44161D01*
X58039Y-44170D01*
X58057Y-44190D01*
X58065Y-44209D01*
X58074Y-44247D01*
X58074Y-44275D01*
X58065Y-44313D01*
X58057Y-44332D01*
X58039Y-44351D01*
X58014Y-44361D01*
X57971Y-44361D01*
X58108Y-44380D02*
X58245Y-44380D01*
X58391Y-44361D02*
X58331Y-44266D01*
X58288Y-44361D02*
X58288Y-44161D01*
X58356Y-44161D01*
X58374Y-44170D01*
X58382Y-44180D01*
X58391Y-44199D01*
X58391Y-44228D01*
X58382Y-44247D01*
X58374Y-44256D01*
X58356Y-44266D01*
X58288Y-44266D01*
X58536Y-44351D02*
X58519Y-44361D01*
X58485Y-44361D01*
X58468Y-44351D01*
X58459Y-44332D01*
X58459Y-44256D01*
X58468Y-44237D01*
X58485Y-44228D01*
X58519Y-44228D01*
X58536Y-44237D01*
X58545Y-44256D01*
X58545Y-44275D01*
X58459Y-44294D01*
X58699Y-44361D02*
X58699Y-44161D01*
X58699Y-44351D02*
X58682Y-44361D01*
X58648Y-44361D01*
X58630Y-44351D01*
X58622Y-44342D01*
X58613Y-44323D01*
X58613Y-44266D01*
X58622Y-44247D01*
X58630Y-44237D01*
X58648Y-44228D01*
X58682Y-44228D01*
X58699Y-44237D01*
X49101Y-38792D02*
X48901Y-38792D01*
X48901Y-38749D01*
X48910Y-38724D01*
X48930Y-38706D01*
X48949Y-38698D01*
X48987Y-38689D01*
X49015Y-38689D01*
X49053Y-38698D01*
X49072Y-38706D01*
X49091Y-38724D01*
X49101Y-38749D01*
X49101Y-38792D01*
X48968Y-38535D02*
X49101Y-38535D01*
X48891Y-38578D02*
X49034Y-38621D01*
X49034Y-38509D01*
X50201Y-39185D02*
X50201Y-39271D01*
X50001Y-39271D01*
X50096Y-39125D02*
X50096Y-39065D01*
X50201Y-39039D02*
X50201Y-39125D01*
X50001Y-39125D01*
X50001Y-39039D01*
X50201Y-38962D02*
X50001Y-38962D01*
X50001Y-38919D01*
X50010Y-38894D01*
X50030Y-38876D01*
X50049Y-38868D01*
X50087Y-38859D01*
X50115Y-38859D01*
X50153Y-38868D01*
X50172Y-38876D01*
X50191Y-38894D01*
X50201Y-38919D01*
X50201Y-38962D01*
X50220Y-38825D02*
X50220Y-38688D01*
X50010Y-38551D02*
X50001Y-38568D01*
X50001Y-38594D01*
X50010Y-38619D01*
X50030Y-38637D01*
X50049Y-38645D01*
X50087Y-38654D01*
X50115Y-38654D01*
X50153Y-38645D01*
X50172Y-38637D01*
X50191Y-38619D01*
X50201Y-38594D01*
X50201Y-38577D01*
X50191Y-38551D01*
X50182Y-38542D01*
X50115Y-38542D01*
X50115Y-38577D01*
X50201Y-38465D02*
X50068Y-38465D01*
X50106Y-38465D02*
X50087Y-38457D01*
X50077Y-38448D01*
X50068Y-38431D01*
X50068Y-38414D01*
X50191Y-38286D02*
X50201Y-38303D01*
X50201Y-38337D01*
X50191Y-38354D01*
X50172Y-38363D01*
X50096Y-38363D01*
X50077Y-38354D01*
X50068Y-38337D01*
X50068Y-38303D01*
X50077Y-38286D01*
X50096Y-38277D01*
X50115Y-38277D01*
X50134Y-38363D01*
X50191Y-38132D02*
X50201Y-38149D01*
X50201Y-38183D01*
X50191Y-38200D01*
X50172Y-38209D01*
X50096Y-38209D01*
X50077Y-38200D01*
X50068Y-38183D01*
X50068Y-38149D01*
X50077Y-38132D01*
X50096Y-38123D01*
X50115Y-38123D01*
X50134Y-38209D01*
X50068Y-38046D02*
X50201Y-38046D01*
X50087Y-38046D02*
X50077Y-38038D01*
X50068Y-38020D01*
X50068Y-37995D01*
X50077Y-37978D01*
X50096Y-37969D01*
X50201Y-37969D01*
X50213Y-43149D02*
X50080Y-43209D01*
X50213Y-43252D02*
X49933Y-43252D01*
X49933Y-43184D01*
X49947Y-43166D01*
X49960Y-43158D01*
X49987Y-43149D01*
X50027Y-43149D01*
X50053Y-43158D01*
X50067Y-43166D01*
X50080Y-43184D01*
X50080Y-43252D01*
X50213Y-42978D02*
X50213Y-43081D01*
X50213Y-43029D02*
X49933Y-43029D01*
X49973Y-43046D01*
X50000Y-43064D01*
X50013Y-43081D01*
X49693Y-44264D02*
X49693Y-44367D01*
X49693Y-44315D02*
X49413Y-44315D01*
X49453Y-44332D01*
X49480Y-44350D01*
X49493Y-44367D01*
X49413Y-44153D02*
X49413Y-44136D01*
X49427Y-44119D01*
X49440Y-44110D01*
X49467Y-44101D01*
X49520Y-44093D01*
X49587Y-44093D01*
X49640Y-44101D01*
X49667Y-44110D01*
X49680Y-44119D01*
X49693Y-44136D01*
X49693Y-44153D01*
X49680Y-44170D01*
X49667Y-44179D01*
X49640Y-44187D01*
X49587Y-44196D01*
X49520Y-44196D01*
X49467Y-44187D01*
X49440Y-44179D01*
X49427Y-44170D01*
X49413Y-44153D01*
X49693Y-44016D02*
X49413Y-44016D01*
X49693Y-43913D02*
X49533Y-43990D01*
X49413Y-43913D02*
X49573Y-44016D01*
X59546Y-38088D02*
X59486Y-37955D01*
X59443Y-38088D02*
X59443Y-37808D01*
X59511Y-37808D01*
X59529Y-37822D01*
X59537Y-37835D01*
X59546Y-37862D01*
X59546Y-37902D01*
X59537Y-37928D01*
X59529Y-37942D01*
X59511Y-37955D01*
X59443Y-37955D01*
X59614Y-37835D02*
X59623Y-37822D01*
X59640Y-37808D01*
X59683Y-37808D01*
X59700Y-37822D01*
X59709Y-37835D01*
X59717Y-37862D01*
X59717Y-37888D01*
X59709Y-37928D01*
X59606Y-38088D01*
X59717Y-38088D01*
X60233Y-40949D02*
X60100Y-41009D01*
X60233Y-41052D02*
X59953Y-41052D01*
X59953Y-40984D01*
X59967Y-40966D01*
X59980Y-40958D01*
X60007Y-40949D01*
X60047Y-40949D01*
X60073Y-40958D01*
X60087Y-40966D01*
X60100Y-40984D01*
X60100Y-41052D01*
X59953Y-40889D02*
X59953Y-40778D01*
X60060Y-40838D01*
X60060Y-40812D01*
X60073Y-40795D01*
X60087Y-40786D01*
X60113Y-40778D01*
X60180Y-40778D01*
X60207Y-40786D01*
X60220Y-40795D01*
X60233Y-40812D01*
X60233Y-40864D01*
X60220Y-40881D01*
X60207Y-40889D01*
X61013Y-40991D02*
X61013Y-41025D01*
X61027Y-41042D01*
X61040Y-41051D01*
X61080Y-41068D01*
X61133Y-41077D01*
X61240Y-41077D01*
X61267Y-41068D01*
X61280Y-41060D01*
X61293Y-41042D01*
X61293Y-41008D01*
X61280Y-40991D01*
X61267Y-40982D01*
X61240Y-40974D01*
X61173Y-40974D01*
X61147Y-40982D01*
X61133Y-40991D01*
X61120Y-41008D01*
X61120Y-41042D01*
X61133Y-41060D01*
X61147Y-41068D01*
X61173Y-41077D01*
X61133Y-40871D02*
X61120Y-40889D01*
X61107Y-40897D01*
X61080Y-40906D01*
X61067Y-40906D01*
X61040Y-40897D01*
X61027Y-40889D01*
X61013Y-40871D01*
X61013Y-40837D01*
X61027Y-40820D01*
X61040Y-40811D01*
X61067Y-40803D01*
X61080Y-40803D01*
X61107Y-40811D01*
X61120Y-40820D01*
X61133Y-40837D01*
X61133Y-40871D01*
X61147Y-40889D01*
X61160Y-40897D01*
X61187Y-40906D01*
X61240Y-40906D01*
X61267Y-40897D01*
X61280Y-40889D01*
X61293Y-40871D01*
X61293Y-40837D01*
X61280Y-40820D01*
X61267Y-40811D01*
X61240Y-40803D01*
X61187Y-40803D01*
X61160Y-40811D01*
X61147Y-40820D01*
X61133Y-40837D01*
X48613Y-42689D02*
X48480Y-42749D01*
X48613Y-42792D02*
X48333Y-42792D01*
X48333Y-42724D01*
X48347Y-42706D01*
X48360Y-42698D01*
X48387Y-42689D01*
X48427Y-42689D01*
X48453Y-42698D01*
X48467Y-42706D01*
X48480Y-42724D01*
X48480Y-42792D01*
X48427Y-42535D02*
X48613Y-42535D01*
X48320Y-42578D02*
X48520Y-42621D01*
X48520Y-42509D01*
X48633Y-44178D02*
X48633Y-44281D01*
X48633Y-44229D02*
X48353Y-44229D01*
X48393Y-44246D01*
X48420Y-44264D01*
X48433Y-44281D01*
X48633Y-44101D02*
X48353Y-44101D01*
X48633Y-43998D02*
X48473Y-44075D01*
X48353Y-43998D02*
X48513Y-44101D01*
X59546Y-42113D02*
X59486Y-41980D01*
X59443Y-42113D02*
X59443Y-41833D01*
X59511Y-41833D01*
X59529Y-41847D01*
X59537Y-41860D01*
X59546Y-41887D01*
X59546Y-41927D01*
X59537Y-41953D01*
X59529Y-41967D01*
X59511Y-41980D01*
X59443Y-41980D01*
X59709Y-41833D02*
X59623Y-41833D01*
X59614Y-41967D01*
X59623Y-41953D01*
X59640Y-41940D01*
X59683Y-41940D01*
X59700Y-41953D01*
X59709Y-41967D01*
X59717Y-41993D01*
X59717Y-42060D01*
X59709Y-42087D01*
X59700Y-42100D01*
X59683Y-42113D01*
X59640Y-42113D01*
X59623Y-42100D01*
X59614Y-42087D01*
X60271Y-43893D02*
X60211Y-43760D01*
X60168Y-43893D02*
X60168Y-43613D01*
X60236Y-43613D01*
X60254Y-43627D01*
X60262Y-43640D01*
X60271Y-43667D01*
X60271Y-43707D01*
X60262Y-43733D01*
X60254Y-43747D01*
X60236Y-43760D01*
X60168Y-43760D01*
X60425Y-43613D02*
X60391Y-43613D01*
X60374Y-43627D01*
X60365Y-43640D01*
X60348Y-43680D01*
X60339Y-43733D01*
X60339Y-43840D01*
X60348Y-43867D01*
X60356Y-43880D01*
X60374Y-43893D01*
X60408Y-43893D01*
X60425Y-43880D01*
X60434Y-43867D01*
X60442Y-43840D01*
X60442Y-43773D01*
X60434Y-43747D01*
X60425Y-43733D01*
X60408Y-43720D01*
X60374Y-43720D01*
X60356Y-43733D01*
X60348Y-43747D01*
X60339Y-43773D01*
X59442Y-44473D02*
X59339Y-44473D01*
X59391Y-44473D02*
X59391Y-44193D01*
X59374Y-44233D01*
X59356Y-44260D01*
X59339Y-44273D01*
X59519Y-44473D02*
X59519Y-44193D01*
X59622Y-44473D02*
X59545Y-44313D01*
X59622Y-44193D02*
X59519Y-44353D01*
X55413Y-37889D02*
X55280Y-37949D01*
X55413Y-37992D02*
X55133Y-37992D01*
X55133Y-37924D01*
X55147Y-37906D01*
X55160Y-37898D01*
X55187Y-37889D01*
X55227Y-37889D01*
X55253Y-37898D01*
X55267Y-37906D01*
X55280Y-37924D01*
X55280Y-37992D01*
X55133Y-37829D02*
X55133Y-37709D01*
X55413Y-37786D01*
X56073Y-38518D02*
X56073Y-38621D01*
X56073Y-38569D02*
X55793Y-38569D01*
X55833Y-38586D01*
X55860Y-38604D01*
X55873Y-38621D01*
X56073Y-38441D02*
X55793Y-38441D01*
X56073Y-38338D02*
X55913Y-38415D01*
X55793Y-38338D02*
X55953Y-38441D01*
G54D12*
X44903Y-43563D02*
X44560Y-43563D01*
X44732Y-43563D02*
X44732Y-42963D01*
X44675Y-43049D01*
X44617Y-43106D01*
X44560Y-43134D01*
X45131Y-43020D02*
X45160Y-42991D01*
X45217Y-42963D01*
X45360Y-42963D01*
X45417Y-42991D01*
X45446Y-43020D01*
X45474Y-43077D01*
X45474Y-43134D01*
X45446Y-43220D01*
X45103Y-43563D01*
X45474Y-43563D01*
X45731Y-43563D02*
X45731Y-42963D01*
X45931Y-43391D01*
X46131Y-42963D01*
X46131Y-43563D01*
X46417Y-43563D02*
X46417Y-42963D01*
X46417Y-43249D02*
X46760Y-43249D01*
X46760Y-43563D02*
X46760Y-42963D01*
X46989Y-42963D02*
X47389Y-42963D01*
X46989Y-43563D01*
X47389Y-43563D01*
M02*
