<?xml version="1.0" standalone="no"?>
 <!DOCTYPE svg PUBLIC "-//W3C//DTD SVG 1.1//EN" 
 "http://www.w3.org/Graphics/SVG/1.1/DTD/svg11.dtd"> 
<svg xmlns="http://www.w3.org/2000/svg" version="1.1" 
    width="8.44804cm" height="3.87858cm" viewBox="0 0 33260 15270 ">
<title>SVG Picture created as OpenUsbAsp--brd.svg date 2014/03/14 15:18:22 </title>
  <desc>Picture generated by PCBNEW </desc>
<g style="fill:#000000; fill-opacity:1;stroke:#000000; stroke-opacity:1;
stroke-linecap:round; stroke-linejoin:round; "
 transform="translate(0 0) scale(1 1)">
</g>
<g style="fill:#A000A0; fill-opacity:0.0; 
stroke:#A000A0; stroke-width:120; stroke-opacity:1; 
stroke-linecap:round; stroke-linejoin:round;">
<path d="M24404 13866
L24290 14399
L24176 14018
L24061 14399
L23947 13866
" />
<path d="M23776 13866
L23661 14399
L23547 14018
L23433 14399
L23319 13866
" />
<path d="M23147 13866
L23033 14399
L22919 14018
L22804 14399
L22690 13866
" />
<path d="M22461 14323
L22433 14361
L22461 14399
L22490 14361
L22461 14323
L22461 14399
" />
<path d="M22090 14399
L22147 14361
L22176 14323
L22204 14247
L22204 14018
L22176 13942
L22147 13904
L22090 13866
L22004 13866
L21947 13904
L21919 13942
L21890 14018
L21890 14247
L21919 14323
L21947 14361
L22004 14399
L22090 14399
" />
<path d="M21633 13866
L21633 14666
" />
<path d="M21633 13904
L21576 13866
L21461 13866
L21404 13904
L21376 13942
L21347 14018
L21347 14247
L21376 14323
L21404 14361
L21461 14399
L21576 14399
L21633 14361
" />
<path d="M20861 14361
L20919 14399
L21033 14399
L21090 14361
L21119 14285
L21119 13980
L21090 13904
L21033 13866
L20919 13866
L20861 13904
L20833 13980
L20833 14056
L21119 14133
" />
<path d="M20576 13866
L20576 14399
" />
<path d="M20576 13942
L20547 13904
L20490 13866
L20404 13866
L20347 13904
L20319 13980
L20319 14399
" />
<path d="M19947 14399
L20004 14361
L20033 14285
L20033 13599
" />
<path d="M19461 14399
L19461 13980
L19490 13904
L19547 13866
L19661 13866
L19719 13904
" />
<path d="M19461 14361
L19519 14399
L19661 14399
L19719 14361
L19747 14285
L19747 14209
L19719 14133
L19661 14095
L19519 14095
L19461 14056
" />
<path d="M19176 14399
L19176 13599
" />
<path d="M19176 13904
L19119 13866
L19004 13866
L18947 13904
L18919 13942
L18890 14018
L18890 14247
L18919 14323
L18947 14361
L19004 14399
L19119 14399
L19176 14361
" />
<path d="M18719 13866
L18490 13866
" />
<path d="M18633 13599
L18633 14285
L18604 14361
L18547 14399
L18490 14399
" />
<path d="M18204 14399
L18261 14361
L18290 14323
L18319 14247
L18319 14018
L18290 13942
L18261 13904
L18204 13866
L18119 13866
L18061 13904
L18033 13942
L18004 14018
L18004 14247
L18033 14323
L18061 14361
L18119 14399
L18204 14399
" />
<path d="M17747 14323
L17719 14361
L17747 14399
L17776 14361
L17747 14323
L17747 14399
" />
<path d="M17376 14399
L17433 14361
L17461 14323
L17490 14247
L17490 14018
L17461 13942
L17433 13904
L17376 13866
L17290 13866
L17233 13904
L17204 13942
L17176 14018
L17176 14247
L17204 14323
L17233 14361
L17290 14399
L17376 14399
" />
<path d="M16919 14399
L16919 13866
" />
<path d="M16919 14018
L16890 13942
L16861 13904
L16804 13866
L16747 13866
" />
<path d="M16290 13866
L16290 14514
L16319 14590
L16347 14628
L16404 14666
L16490 14666
L16547 14628
" />
<path d="M16290 14361
L16347 14399
L16461 14399
L16519 14361
L16547 14323
L16576 14247
L16576 14018
L16547 13942
L16519 13904
L16461 13866
L16347 13866
L16290 13904
" />
</g>
<g style="fill:#C0C0C0; fill-opacity:0.0; 
stroke:#C0C0C0; stroke-width:120; stroke-opacity:1; 
stroke-linecap:round; stroke-linejoin:round;">
<path d="M3055 8759
L3093 8788
L3132 8845
L3132 8988
L3094 9045
L3056 9073
L2980 9102
L2903 9102
L2789 9074
L2331 8732
L2332 9103
" />
<path d="M3133 9473
L3133 9530
L3095 9588
L3057 9616
L2981 9645
L2828 9674
L2638 9674
L2485 9646
L2409 9617
L2371 9589
L2333 9532
L2333 9475
L2371 9417
L2409 9389
L2485 9360
L2637 9331
L2828 9331
L2980 9359
L3056 9388
L3094 9416
L3133 9473
" />
<path d="M2372 9960
L2333 9960
L2257 9932
L2219 9903
" />
<path d="M2868 10474
L2334 10475
" />
<path d="M3172 10330
L2601 10188
L2601 10560
" />
<path d="M3135 10730
L3135 11130
L2335 10875
" />
<path d="M3060 11331
L3098 11359
L3136 11416
L3136 11559
L3098 11616
L3060 11645
L2984 11674
L2908 11674
L2794 11645
L2336 11303
L2336 11675
" />
<path d="M2338 12389
L2871 12388
" />
<path d="M2795 12388
L2833 12417
L2871 12474
L2871 12559
L2833 12617
L2757 12645
L2338 12646
" />
<path d="M2757 12645
L2833 12674
L2872 12731
L2872 12817
L2834 12874
L2758 12902
L2339 12903
" />
<path d="M2339 13189
L2872 13188
" />
<path d="M2796 13188
L2834 13217
L2873 13274
L2873 13359
L2835 13417
L2759 13445
L2340 13446
" />
<path d="M2759 13445
L2835 13474
L2873 13531
L2873 13617
L2835 13674
L2759 13702
L2340 13703
" />
<path d="M3300 7216
L3300 15276
" />
<path d="M7959 7216
L2020 7216
" />
<path d="M7959 15276
L2020 15276
" />
<path d="M3300 15276
L3070 14833
" />
<path d="M3300 15276
L3530 14833
" />
<path d="M3300 7216
L3070 7659
" />
<path d="M3300 7216
L3530 7659
" />
<path d="M16671 263
L16385 263
L16357 644
L16385 606
L16443 568
L16585 568
L16643 606
L16671 644
L16700 720
L16700 911
L16671 987
L16643 1025
L16585 1063
L16443 1063
L16385 1025
L16357 987
" />
<path d="M17214 263
L17100 263
L17043 301
L17014 340
L16957 454
L16928 606
L16928 911
L16957 987
L16985 1025
L17043 1063
L17157 1063
L17214 1025
L17243 987
L17271 911
L17271 720
L17243 644
L17214 606
L17157 568
L17043 568
L16985 606
L16957 644
L16928 720
" />
<path d="M17557 1025
L17557 1063
L17528 1140
L17500 1178
" />
<path d="M18128 1063
L17785 1063
" />
<path d="M17957 1063
L17957 263
L17900 378
L17843 454
L17785 492
" />
<path d="M18328 263
L18700 263
L18500 568
L18585 568
L18643 606
L18671 644
L18700 720
L18700 911
L18671 987
L18643 1025
L18585 1063
L18414 1063
L18357 1025
L18328 987
" />
<path d="M19214 530
L19214 1063
" />
<path d="M19071 225
L18928 797
L19300 797
" />
<path d="M19985 1063
L19985 530
" />
<path d="M19985 606
L20014 568
L20071 530
L20157 530
L20214 568
L20243 644
L20243 1063
" />
<path d="M20243 644
L20271 568
L20328 530
L20414 530
L20471 568
L20500 644
L20500 1063
" />
<path d="M20785 1063
L20785 530
" />
<path d="M20785 606
L20814 568
L20871 530
L20957 530
L21014 568
L21043 644
L21043 1063
" />
<path d="M21043 644
L21071 568
L21128 530
L21214 530
L21271 568
L21300 644
L21300 1063
" />
<path d="M7794 1390
L29894 1370
" />
<path d="M7799 7236
L7793 110
" />
<path d="M29899 7216
L29893 90
" />
<path d="M29894 1370
L29451 1601
" />
<path d="M29894 1370
L29451 1140
" />
<path d="M7794 1390
L8237 1620
" />
<path d="M7794 1390
L8237 1159
" />
</g>
<g style="fill:#FFFF00; fill-opacity:0.0; 
stroke:#FFFF00; stroke-width:150; stroke-opacity:1; 
stroke-linecap:round; stroke-linejoin:round;">
<path d="M7879 15176
L7879 7296
" />
<path d="M29819 15176
L7879 15176
" />
<path d="M29819 7296
L29819 15176
" />
<path d="M7939 7296
L29819 7296
" />
</g>
<g style="fill:#00A0A0; fill-opacity:0.0; 
stroke:#00A0A0; stroke-width:120; stroke-opacity:1; 
stroke-linecap:round; stroke-linejoin:round;">
<path d="M30839 12063
L30839 12492
L30810 12578
L30753 12635
L30667 12663
L30610 12663
" />
<path d="M31439 12663
L31096 12663
" />
<path d="M31267 12663
L31267 12063
L31210 12149
L31153 12206
L31096 12235
" />
<path d="M29767 10063
L29767 10549
L29796 10606
L29824 10635
L29881 10663
L29996 10663
L30053 10635
L30081 10606
L30110 10549
L30110 10063
" />
<path d="M30367 10635
L30453 10663
L30596 10663
L30653 10635
L30681 10606
L30710 10549
L30710 10492
L30681 10435
L30653 10406
L30596 10378
L30481 10349
L30424 10321
L30396 10292
L30367 10235
L30367 10178
L30396 10121
L30424 10092
L30481 10063
L30624 10063
L30710 10092
" />
<path d="M31167 10349
L31253 10378
L31281 10406
L31310 10463
L31310 10549
L31281 10606
L31253 10635
L31196 10663
L30967 10663
L30967 10063
L31167 10063
L31224 10092
L31253 10121
L31281 10178
L31281 10235
L31253 10292
L31224 10321
L31167 10349
L30967 10349
" />
<path d="M31424 10721
L31881 10721
" />
<path d="M31996 10121
L32024 10092
L32081 10063
L32224 10063
L32281 10092
L32310 10121
L32339 10178
L32339 10235
L32310 10321
L31967 10663
L32339 10663
" />
</g>
<g style="fill:#00A0A0; fill-opacity:0.0; 
stroke:#00A0A0; stroke-width:80; stroke-opacity:1; 
stroke-linecap:round; stroke-linejoin:round;">
<path d="M18391 11586
L17891 11586
" />
<path d="M18343 11167
L18367 11186
L18391 11243
L18391 11281
L18367 11338
L18319 11376
L18272 11395
L18177 11415
L18105 11415
L18010 11395
L17962 11376
L17915 11338
L17891 11281
L17891 11243
L17915 11186
L17939 11167
" />
<path d="M18391 10786
L18391 11015
" />
<path d="M18391 10900
L17891 10900
L17962 10938
L18010 10976
L18034 11015
" />
</g>
<g style="fill:#00A0A0; fill-opacity:0.0; 
stroke:#00A0A0; stroke-width:100; stroke-opacity:1; 
stroke-linecap:round; stroke-linejoin:round;">
<path d="M22821 8489
L23250 8489
L23336 8508
L23393 8546
L23421 8603
L23421 8641
" />
<path d="M23421 8298
L22821 8298
L22821 8146
L22850 8108
L22879 8089
L22936 8070
L23021 8070
L23079 8089
L23107 8108
L23136 8146
L23136 8298
" />
<path d="M22821 7936
L22821 7689
L23050 7822
L23050 7765
L23079 7727
L23107 7708
L23164 7689
L23307 7689
L23364 7708
L23393 7727
L23421 7765
L23421 7879
L23393 7917
L23364 7936
" />
<path d="M21721 12529
L22150 12529
L22236 12548
L22293 12586
L22321 12643
L22321 12681
" />
<path d="M22321 12338
L21721 12338
L21721 12186
L21750 12148
L21779 12129
L21836 12110
L21921 12110
L21979 12129
L22007 12148
L22036 12186
L22036 12338
" />
<path d="M21779 11957
L21750 11938
L21721 11900
L21721 11805
L21750 11767
L21779 11748
L21836 11729
L21893 11729
L21979 11748
L22321 11976
L22321 11729
" />
<path d="M24306 10179
L24735 10179
L24821 10198
L24878 10236
L24906 10293
L24906 10331
" />
<path d="M24906 9988
L24306 9988
L24306 9836
L24335 9798
L24364 9779
L24421 9760
L24506 9760
L24564 9779
L24592 9798
L24621 9836
L24621 9988
" />
<path d="M24906 9379
L24906 9607
" />
<path d="M24906 9493
L24306 9493
L24392 9531
L24449 9569
L24478 9607
" />
</g>
<g style="fill:#00A0A0; fill-opacity:0.0; 
stroke:#00A0A0; stroke-width:80; stroke-opacity:1; 
stroke-linecap:round; stroke-linejoin:round;">
<path d="M10860 12246
L10460 12246
" />
<path d="M10822 11827
L10841 11846
L10860 11903
L10860 11941
L10841 11998
L10803 12036
L10765 12055
L10689 12075
L10632 12075
L10556 12055
L10518 12036
L10479 11998
L10460 11941
L10460 11903
L10479 11846
L10499 11827
" />
<path d="M10841 11675
L10860 11617
L10860 11522
L10841 11484
L10822 11465
L10784 11446
L10746 11446
L10708 11465
L10689 11484
L10670 11522
L10651 11598
L10632 11636
L10613 11655
L10575 11675
L10537 11675
L10499 11655
L10479 11636
L10460 11598
L10460 11503
L10479 11446
" />
<path d="M10860 11275
L10460 11275
L10460 11122
L10479 11084
L10499 11065
L10537 11046
L10594 11046
L10632 11065
L10651 11084
L10670 11122
L10670 11275
" />
</g>
<g style="fill:#00A0A0; fill-opacity:0.0; 
stroke:#00A0A0; stroke-width:45; stroke-opacity:1; 
stroke-linecap:round; stroke-linejoin:round;">
<path d="M20820 8226
L20830 8234
L20839 8260
L20839 8277
L20830 8303
L20811 8320
L20792 8328
L20754 8337
L20725 8337
L20687 8328
L20668 8320
L20649 8303
L20639 8277
L20639 8260
L20649 8234
L20659 8226
" />
<path d="M20839 8054
L20839 8157
" />
<path d="M20839 8106
L20639 8106
L20668 8123
L20687 8140
L20697 8157
" />
<path d="M20259 8517
L20259 8620
" />
<path d="M20259 8568
L20059 8568
L20088 8586
L20107 8603
L20117 8620
" />
<path d="M20059 8406
L20059 8388
L20069 8371
L20079 8363
L20098 8354
L20136 8346
L20183 8346
L20221 8354
L20240 8363
L20250 8371
L20259 8388
L20259 8406
L20250 8423
L20240 8431
L20221 8440
L20183 8448
L20136 8448
L20098 8440
L20079 8431
L20069 8423
L20059 8406
" />
<path d="M20059 8234
L20059 8217
L20069 8200
L20079 8191
L20098 8183
L20136 8174
L20183 8174
L20221 8183
L20240 8191
L20250 8200
L20259 8217
L20259 8234
L20250 8251
L20240 8260
L20221 8268
L20183 8277
L20136 8277
L20098 8268
L20079 8260
L20069 8251
L20059 8234
" />
<path d="M20126 8097
L20259 8097
" />
<path d="M20145 8097
L20136 8088
L20126 8071
L20126 8045
L20136 8028
L20155 8020
L20259 8020
" />
<path d="M26600 8806
L26610 8814
L26619 8840
L26619 8857
L26610 8883
L26591 8900
L26572 8908
L26534 8917
L26505 8917
L26467 8908
L26448 8900
L26429 8883
L26419 8857
L26419 8840
L26429 8814
L26439 8806
" />
<path d="M26439 8737
L26429 8728
L26419 8711
L26419 8668
L26429 8651
L26439 8643
L26458 8634
L26477 8634
L26505 8643
L26619 8746
L26619 8634
" />
<path d="M26946 8011
L27079 8011
" />
<path d="M26870 8054
L27013 8097
L27013 7986
" />
<path d="M27060 7917
L27070 7908
L27079 7917
L27070 7925
L27060 7917
L27079 7917
" />
<path d="M26879 7848
L26879 7728
L27079 7806
" />
<path d="M26946 7583
L27079 7583
" />
<path d="M26946 7660
L27051 7660
L27070 7651
L27079 7634
L27079 7608
L27070 7591
L27060 7583
" />
<path d="M20560 13346
L20570 13354
L20579 13380
L20579 13397
L20570 13423
L20551 13440
L20532 13448
L20494 13457
L20465 13457
L20427 13448
L20408 13440
L20389 13423
L20379 13397
L20379 13380
L20389 13354
L20399 13346
" />
<path d="M20379 13286
L20379 13174
L20456 13234
L20456 13208
L20465 13191
L20475 13183
L20494 13174
L20541 13174
L20560 13183
L20570 13191
L20579 13208
L20579 13260
L20570 13277
L20560 13286
" />
<path d="M21399 13586
L21389 13577
L21379 13560
L21379 13517
L21389 13500
L21399 13491
L21418 13483
L21437 13483
L21465 13491
L21579 13594
L21579 13483
" />
<path d="M21399 13414
L21389 13406
L21379 13388
L21379 13346
L21389 13328
L21399 13320
L21418 13311
L21437 13311
L21465 13320
L21579 13423
L21579 13311
" />
<path d="M21446 13234
L21646 13234
" />
<path d="M21456 13234
L21446 13217
L21446 13183
L21456 13165
L21465 13157
L21484 13148
L21541 13148
L21560 13157
L21570 13165
L21579 13183
L21579 13217
L21570 13234
" />
<path d="M21446 13097
L21446 13028
" />
<path d="M21579 13071
L21408 13071
L21389 13063
L21379 13046
L21379 13028
" />
<path d="M13580 11666
L13590 11674
L13599 11700
L13599 11717
L13590 11743
L13571 11760
L13552 11768
L13514 11777
L13485 11777
L13447 11768
L13428 11760
L13409 11743
L13399 11717
L13399 11700
L13409 11674
L13419 11666
" />
<path d="M13466 11511
L13599 11511
" />
<path d="M13390 11554
L13533 11597
L13533 11486
" />
<path d="M14539 11866
L14529 11857
L14519 11840
L14519 11797
L14529 11780
L14539 11771
L14558 11763
L14577 11763
L14605 11771
L14719 11874
L14719 11763
" />
<path d="M14539 11694
L14529 11686
L14519 11668
L14519 11626
L14529 11608
L14539 11600
L14558 11591
L14577 11591
L14605 11600
L14719 11703
L14719 11591
" />
<path d="M14586 11514
L14786 11514
" />
<path d="M14596 11514
L14586 11497
L14586 11463
L14596 11445
L14605 11437
L14624 11428
L14681 11428
L14700 11437
L14710 11445
L14719 11463
L14719 11497
L14710 11514
" />
<path d="M14586 11377
L14586 11308
" />
<path d="M14719 11351
L14548 11351
L14529 11343
L14519 11326
L14519 11308
" />
<path d="M26519 12848
L26319 12848
L26319 12806
L26329 12780
L26348 12763
L26367 12754
L26405 12746
L26434 12746
L26472 12754
L26491 12763
L26510 12780
L26519 12806
L26519 12848
" />
<path d="M26519 12574
L26519 12677
" />
<path d="M26519 12626
L26319 12626
L26348 12643
L26367 12660
L26377 12677
" />
<path d="M27299 12918
L27299 12807
L27376 12867
L27376 12841
L27385 12824
L27395 12816
L27414 12807
L27461 12807
L27480 12816
L27490 12824
L27499 12841
L27499 12893
L27490 12910
L27480 12918
" />
<path d="M27299 12756
L27499 12696
L27299 12636
" />
<path d="M27299 12498
L27299 12533
L27309 12550
L27319 12558
L27347 12576
L27385 12584
L27461 12584
L27480 12576
L27490 12567
L27499 12550
L27499 12516
L27490 12498
L27480 12490
L27461 12481
L27414 12481
L27395 12490
L27385 12498
L27376 12516
L27376 12550
L27385 12567
L27395 12576
L27414 12584
" />
<path d="M24886 13316
L24886 13116
L24929 13116
L24954 13126
L24971 13145
L24980 13164
L24989 13202
L24989 13231
L24980 13269
L24971 13288
L24954 13307
L24929 13316
L24886 13316
" />
<path d="M25057 13136
L25066 13126
L25083 13116
L25126 13116
L25143 13126
L25151 13136
L25160 13155
L25160 13174
L25151 13202
L25049 13316
L25160 13316
" />
<path d="M26416 13456
L26527 13456
L26467 13533
L26493 13533
L26510 13542
L26519 13552
L26527 13571
L26527 13618
L26519 13637
L26510 13647
L26493 13656
L26441 13656
L26424 13647
L26416 13637
" />
<path d="M26579 13456
L26639 13656
L26699 13456
" />
<path d="M26836 13456
L26801 13456
L26784 13466
L26776 13476
L26759 13504
L26750 13542
L26750 13618
L26759 13637
L26767 13647
L26784 13656
L26819 13656
L26836 13647
L26844 13637
L26853 13618
L26853 13571
L26844 13552
L26836 13542
L26819 13533
L26784 13533
L26767 13542
L26759 13552
L26750 13571
" />
<path d="M24266 13636
L24266 13436
L24309 13436
L24334 13446
L24351 13465
L24360 13484
L24369 13522
L24369 13551
L24360 13589
L24351 13608
L24334 13627
L24309 13636
L24266 13636
" />
<path d="M24429 13436
L24540 13436
L24480 13513
L24506 13513
L24523 13522
L24531 13532
L24540 13551
L24540 13598
L24531 13617
L24523 13627
L24506 13636
L24454 13636
L24437 13627
L24429 13617
" />
<path d="M23986 14656
L23900 14656
L23900 14456
" />
<path d="M24046 14552
L24106 14552
" />
<path d="M24131 14656
L24046 14656
L24046 14456
L24131 14456
" />
<path d="M24209 14656
L24209 14456
L24251 14456
L24277 14466
L24294 14485
L24303 14504
L24311 14542
L24311 14571
L24303 14609
L24294 14628
L24277 14647
L24251 14656
L24209 14656
" />
<path d="M24346 14676
L24483 14676
" />
<path d="M24629 14656
L24569 14561
" />
<path d="M24526 14656
L24526 14456
L24594 14456
L24611 14466
L24620 14476
L24629 14495
L24629 14523
L24620 14542
L24611 14552
L24594 14561
L24526 14561
" />
<path d="M24774 14647
L24757 14656
L24723 14656
L24706 14647
L24697 14628
L24697 14552
L24706 14533
L24723 14523
L24757 14523
L24774 14533
L24783 14552
L24783 14571
L24697 14590
" />
<path d="M24937 14656
L24937 14456
" />
<path d="M24937 14647
L24920 14656
L24886 14656
L24869 14647
L24860 14637
L24851 14618
L24851 14561
L24860 14542
L24869 14533
L24886 14523
L24920 14523
L24937 14533
" />
<path d="M15339 9088
L15139 9088
L15139 9046
L15149 9020
L15168 9003
L15187 8994
L15225 8986
L15254 8986
L15292 8994
L15311 9003
L15330 9020
L15339 9046
L15339 9088
" />
<path d="M15206 8831
L15339 8831
" />
<path d="M15130 8874
L15273 8917
L15273 8806
" />
<path d="M16439 9481
L16439 9567
L16239 9567
" />
<path d="M16335 9421
L16335 9361
" />
<path d="M16439 9336
L16439 9421
L16239 9421
L16239 9336
" />
<path d="M16439 9258
L16239 9258
L16239 9216
L16249 9190
L16268 9173
L16287 9164
L16325 9156
L16354 9156
L16392 9164
L16411 9173
L16430 9190
L16439 9216
L16439 9258
" />
<path d="M16459 9121
L16459 8984
" />
<path d="M16249 8847
L16239 8864
L16239 8890
L16249 8916
L16268 8933
L16287 8941
L16325 8950
L16354 8950
L16392 8941
L16411 8933
L16430 8916
L16439 8890
L16439 8873
L16430 8847
L16420 8838
L16354 8838
L16354 8873
" />
<path d="M16439 8761
L16306 8761
" />
<path d="M16344 8761
L16325 8753
L16316 8744
L16306 8727
L16306 8710
" />
<path d="M16430 8581
L16439 8598
L16439 8633
L16430 8650
L16411 8658
L16335 8658
L16316 8650
L16306 8633
L16306 8598
L16316 8581
L16335 8573
L16354 8573
L16373 8658
" />
<path d="M16430 8427
L16439 8444
L16439 8478
L16430 8496
L16411 8504
L16335 8504
L16316 8496
L16306 8478
L16306 8444
L16316 8427
L16335 8418
L16354 8418
L16373 8504
" />
<path d="M16306 8341
L16439 8341
" />
<path d="M16325 8341
L16316 8333
L16306 8316
L16306 8290
L16316 8273
L16335 8264
L16439 8264
" />
<path d="M16452 13446
L16319 13506
" />
<path d="M16452 13548
L16172 13548
L16172 13480
L16185 13463
L16199 13454
L16225 13446
L16265 13446
L16292 13454
L16305 13463
L16319 13480
L16319 13548
" />
<path d="M16452 13274
L16452 13377
" />
<path d="M16452 13326
L16172 13326
L16212 13343
L16239 13360
L16252 13377
" />
<path d="M15932 14560
L15932 14663
" />
<path d="M15932 14611
L15652 14611
L15692 14628
L15719 14646
L15732 14663
" />
<path d="M15652 14448
L15652 14431
L15665 14414
L15679 14406
L15705 14397
L15759 14388
L15825 14388
L15879 14397
L15905 14406
L15919 14414
L15932 14431
L15932 14448
L15919 14466
L15905 14474
L15879 14483
L15825 14491
L15759 14491
L15705 14483
L15679 14474
L15665 14466
L15652 14448
" />
<path d="M15932 14311
L15652 14311
" />
<path d="M15932 14208
L15772 14286
" />
<path d="M15652 14208
L15812 14311
" />
<path d="M25784 8384
L25724 8251
" />
<path d="M25681 8384
L25681 8104
L25749 8104
L25766 8117
L25775 8131
L25784 8157
L25784 8197
L25775 8224
L25766 8237
L25749 8251
L25681 8251
" />
<path d="M25852 8131
L25861 8117
L25878 8104
L25921 8104
L25938 8117
L25946 8131
L25955 8157
L25955 8184
L25946 8224
L25844 8384
L25955 8384
" />
<path d="M26472 11246
L26339 11306
" />
<path d="M26472 11348
L26192 11348
L26192 11280
L26205 11263
L26219 11254
L26245 11246
L26285 11246
L26312 11254
L26325 11263
L26339 11280
L26339 11348
" />
<path d="M26192 11186
L26192 11074
L26299 11134
L26299 11108
L26312 11091
L26325 11083
L26352 11074
L26419 11074
L26445 11083
L26459 11091
L26472 11108
L26472 11160
L26459 11177
L26445 11186
" />
<path d="M27252 11287
L27252 11321
L27265 11338
L27279 11347
L27319 11364
L27372 11373
L27479 11373
L27505 11364
L27519 11356
L27532 11338
L27532 11304
L27519 11287
L27505 11278
L27479 11270
L27412 11270
L27385 11278
L27372 11287
L27359 11304
L27359 11338
L27372 11356
L27385 11364
L27412 11373
" />
<path d="M27372 11167
L27359 11184
L27345 11193
L27319 11201
L27305 11201
L27279 11193
L27265 11184
L27252 11167
L27252 11133
L27265 11116
L27279 11107
L27305 11098
L27319 11098
L27345 11107
L27359 11116
L27372 11133
L27372 11167
L27385 11184
L27399 11193
L27425 11201
L27479 11201
L27505 11193
L27519 11184
L27532 11167
L27532 11133
L27519 11116
L27505 11107
L27479 11098
L27425 11098
L27399 11107
L27385 11116
L27372 11133
" />
<path d="M14852 12986
L14719 13046
" />
<path d="M14852 13088
L14572 13088
L14572 13020
L14585 13003
L14599 12994
L14625 12986
L14665 12986
L14692 12994
L14705 13003
L14719 13020
L14719 13088
" />
<path d="M14665 12831
L14852 12831
" />
<path d="M14559 12874
L14759 12917
L14759 12806
" />
<path d="M14872 14474
L14872 14577
" />
<path d="M14872 14526
L14592 14526
L14632 14543
L14659 14560
L14672 14577
" />
<path d="M14872 14397
L14592 14397
" />
<path d="M14872 14294
L14712 14371
" />
<path d="M14592 14294
L14752 14397
" />
<path d="M25784 12409
L25724 12276
" />
<path d="M25681 12409
L25681 12129
L25749 12129
L25766 12142
L25775 12156
L25784 12182
L25784 12222
L25775 12249
L25766 12262
L25749 12276
L25681 12276
" />
<path d="M25946 12129
L25861 12129
L25852 12262
L25861 12249
L25878 12236
L25921 12236
L25938 12249
L25946 12262
L25955 12289
L25955 12356
L25946 12382
L25938 12396
L25921 12409
L25878 12409
L25861 12396
L25852 12382
" />
<path d="M26509 14189
L26449 14056
" />
<path d="M26406 14189
L26406 13909
L26474 13909
L26491 13922
L26500 13936
L26509 13962
L26509 14002
L26500 14029
L26491 14042
L26474 14056
L26406 14056
" />
<path d="M26663 13909
L26629 13909
L26611 13922
L26603 13936
L26586 13976
L26577 14029
L26577 14136
L26586 14162
L26594 14176
L26611 14189
L26646 14189
L26663 14176
L26671 14162
L26680 14136
L26680 14069
L26671 14042
L26663 14029
L26646 14016
L26611 14016
L26594 14029
L26586 14042
L26577 14069
" />
<path d="M25680 14769
L25577 14769
" />
<path d="M25629 14769
L25629 14489
L25611 14529
L25594 14556
L25577 14569
" />
<path d="M25757 14769
L25757 14489
" />
<path d="M25860 14769
L25783 14609
" />
<path d="M25860 14489
L25757 14649
" />
<path d="M21652 8186
L21519 8246
" />
<path d="M21652 8288
L21372 8288
L21372 8220
L21385 8203
L21399 8194
L21425 8186
L21465 8186
L21492 8194
L21505 8203
L21519 8220
L21519 8288
" />
<path d="M21372 8126
L21372 8006
L21652 8083
" />
<path d="M22312 8814
L22312 8917
" />
<path d="M22312 8866
L22032 8866
L22072 8883
L22099 8900
L22112 8917
" />
<path d="M22312 8737
L22032 8737
" />
<path d="M22312 8634
L22152 8711
" />
<path d="M22032 8634
L22192 8737
" />
</g>
<g style="fill:#00A0A0; fill-opacity:0.0; 
stroke:#00A0A0; stroke-width:120; stroke-opacity:1; 
stroke-linecap:round; stroke-linejoin:round;">
<path d="M11141 13858
L10799 13858
" />
<path d="M10970 13858
L10970 13258
L10913 13344
L10856 13401
L10799 13430
" />
<path d="M11370 13316
L11399 13287
L11456 13258
L11599 13258
L11656 13287
L11684 13316
L11713 13373
L11713 13430
L11684 13516
L11341 13858
L11713 13858
" />
<path d="M11970 13858
L11970 13258
L12170 13687
L12370 13258
L12370 13858
" />
<path d="M12656 13858
L12656 13258
" />
<path d="M12656 13544
L12999 13544
" />
<path d="M12999 13858
L12999 13258
" />
<path d="M13227 13258
L13627 13258
L13227 13858
L13627 13858
" />
</g>
<g style="fill:#00A0A0; fill-opacity:0.0; 
stroke:#00A0A0; stroke-width:50; stroke-opacity:1; 
stroke-linecap:round; stroke-linejoin:round;">
<path d="M27589 8471
L33139 8471
" />
<path d="M33139 14371
L27589 14371
" />
<path d="M27589 8471
L27589 14371
" />
<path d="M33139 8471
L33139 14371
" />
</g>
<g style="fill:#00A0A0; fill-opacity:0.0; 
stroke:#00A0A0; stroke-width:60; stroke-opacity:1; 
stroke-linecap:round; stroke-linejoin:round;">
<path d="M19779 9216
L19779 9666
" />
<path d="M17599 9216
L17599 9656
" />
<path d="M19779 9216
L17599 9216
" />
<path d="M20249 10096
L20679 10096
" />
<path d="M20259 12306
L20679 12306
" />
<path d="M20679 12316
L20689 10096
" />
<path d="M16709 12296
L16699 10126
" />
<path d="M17399 12726
L20229 12726
" />
<path d="M16709 10116
L17119 10116
" />
<path d="M17159 12476
L17159 9696
" />
<path d="M20239 9676
L17199 9676
" />
<path d="M20239 12726
L20239 9726
" />
<path d="M17569 13176
L19789 13176
" />
<path d="M19789 13176
L19789 12726
" />
<path d="M17389 12722
L17159 12492
" />
<path d="M17569 13174
L17569 12722
" />
<path d="M17159 12296
L16707 12296
" />
<circle cx="17563" cy="12314" r="188.68" /> 
</g>
<g style="fill:#00A0A0; fill-opacity:0.0; 
stroke:#00A0A0; stroke-width:120; stroke-opacity:1; 
stroke-linecap:round; stroke-linejoin:round;">
<path d="M23639 10821
L22639 10821
" />
<path d="M22639 10821
L22639 8821
" />
<path d="M22639 8821
L23639 8821
" />
<path d="M23639 8821
L23639 10821
" />
<path d="M23589 13371
L22589 13371
" />
<path d="M22589 13371
L22589 11371
" />
<path d="M22589 11371
L23589 11371
" />
<path d="M23589 11371
L23589 13371
" />
<path d="M26164 10846
L25164 10846
" />
<path d="M25164 10846
L25164 8846
" />
<path d="M25164 8846
L26164 8846
" />
<path d="M26164 8846
L26164 10846
" />
<path d="M10264 9171
L10264 14171
" />
<path d="M10264 14171
L8264 14171
" />
<path d="M8264 14171
L8264 9171
" />
<path d="M8264 9171
L10264 9171
" />
</g>
<g style="fill:#00A0A0; fill-opacity:0.0; 
stroke:#00A0A0; stroke-width:50; stroke-opacity:1; 
stroke-linecap:round; stroke-linejoin:round;">
<path d="M20989 8521
L20989 9421
" />
<path d="M20989 9421
L20489 9421
" />
<path d="M20489 9421
L20489 8521
" />
<path d="M20489 8521
L20989 8521
" />
<path d="M27314 8296
L27314 9196
" />
<path d="M27314 9196
L26814 9196
" />
<path d="M26814 9196
L26814 8296
" />
<path d="M26814 8296
L27314 8296
" />
<path d="M20764 13746
L20764 12846
" />
<path d="M20764 12846
L21264 12846
" />
<path d="M21264 12846
L21264 13746
" />
<path d="M21264 13746
L20764 13746
" />
<path d="M13839 12096
L13839 11196
" />
<path d="M13839 11196
L14339 11196
" />
<path d="M14339 11196
L14339 12096
" />
<path d="M14339 12096
L13839 12096
" />
<path d="M27164 12246
L27164 13146
" />
<path d="M27164 13146
L26664 13146
" />
<path d="M26664 13146
L26664 12246
" />
<path d="M26664 12246
L27164 12246
" />
<path d="M25339 12946
L26239 12946
" />
<path d="M26239 12946
L26239 13446
" />
<path d="M26239 13446
L25339 13446
" />
<path d="M25339 13446
L25339 12946
" />
<path d="M23964 13796
L24864 13796
" />
<path d="M24864 13796
L24864 14296
" />
<path d="M24864 14296
L23964 14296
" />
<path d="M23964 14296
L23964 13796
" />
<path d="M15564 9371
L15564 8471
" />
<path d="M15564 8471
L16064 8471
" />
<path d="M16064 8471
L16064 9371
" />
<path d="M16064 9371
L15564 9371
" />
<path d="M15514 14096
L15514 13196
" />
<path d="M15514 13196
L16014 13196
" />
<path d="M16014 13196
L16014 14096
" />
<path d="M16014 14096
L15514 14096
" />
<path d="M25364 8021
L26264 8021
" />
<path d="M26264 8021
L26264 8521
" />
<path d="M26264 8521
L25364 8521
" />
<path d="M25364 8521
L25364 8021
" />
<path d="M26664 11646
L26664 10746
" />
<path d="M26664 10746
L27164 10746
" />
<path d="M27164 10746
L27164 11646
" />
<path d="M27164 11646
L26664 11646
" />
<path d="M15014 13196
L15014 14096
" />
<path d="M15014 14096
L14514 14096
" />
<path d="M14514 14096
L14514 13196
" />
<path d="M14514 13196
L15014 13196
" />
<path d="M25364 12046
L26264 12046
" />
<path d="M26264 12046
L26264 12546
" />
<path d="M26264 12546
L25364 12546
" />
<path d="M25364 12546
L25364 12046
" />
<path d="M26214 14296
L25314 14296
" />
<path d="M25314 14296
L25314 13796
" />
<path d="M25314 13796
L26214 13796
" />
<path d="M26214 13796
L26214 14296
" />
<path d="M21839 8546
L21839 9446
" />
<path d="M21839 9446
L21339 9446
" />
<path d="M21339 9446
L21339 8546
" />
<path d="M21339 8546
L21839 8546
" />
</g>
<g style="fill:#00A0A0; fill-opacity:0.0; 
stroke:#00A0A0; stroke-width:150; stroke-opacity:1; 
stroke-linecap:round; stroke-linejoin:round;">
<path d="M13042 10026
L13042 12466
" />
<path d="M11586 12466
L11586 10026
" />
</g>
<g style="fill:#00A0A0; fill-opacity:1.0; 
stroke:#00A0A0; stroke-width:1; stroke-opacity:1; 
stroke-linecap:round; stroke-linejoin:round;">
<polyline style="fill-rule:evenodd;"
points="12444,9014
12296,9014
12296,8876
12296,8689
12296,8502
12296,8472
12296,8114
12296,7755
11942,7755
11587,7755
11587,7726
11587,7708
11580,7699
11563,7696
11538,7696
11489,7696
11489,7888
11489,8080
11538,8080
11587,8080
11587,7966
11587,7853
11890,7856
12193,7858
12195,8166
12198,8472
12247,8472
12296,8472
12296,8502
11942,8502
11587,8502
11587,8305
11587,8109
11538,8109
11489,8109
11489,8492
11489,8876
11893,8876
12296,8876
12296,9014
11450,9014
11450,7706
11047,7706
10643,7706
10643,8026
10643,8344
10995,8347
11347,8349
11347,8428
11347,8507
10995,8509
10643,8512
10643,8699
10643,8886
11046,8886
11450,8886
11447,8563
11445,8242
11093,8240
10741,8237
10741,8158
10741,8080
11093,8077
11445,8075
11447,7890
11450,7706
11450,9014
10604,9014
10604,8070
10601,7885
10598,7701
10198,7698
9797,7696
9797,8089
9797,8482
9846,8482
9896,8482
9896,8276
9896,8070
10250,8070
10604,8070
10604,9014
10603,9014
10603,8886
10603,8832
10603,8777
10250,8777
9896,8777
9896,8645
9896,8512
9846,8512
9797,8512
9797,8699
9797,8886
10201,8886
10603,8886
10603,9014
10279,9014
9751,9014
9751,8886
9744,8775
9743,8743
9742,8693
9741,8629
9740,8552
9739,8466
9739,8373
9738,8275
9738,8181
9738,7696
8995,7696
8252,7696
8252,8290
8252,8886
9002,8886
9751,8886
9751,9014
8114,9014
8114,8281
8114,7548
10279,7548
12444,7548
12444,8281
12444,9014
12444,9014
" /> 
<polyline style="fill-rule:evenodd;"
points="9561,7893
9561,8181
9561,8261
9560,8340
9559,8415
9558,8482
9556,8538
9555,8578
9555,8578
9548,8689
9536,8689
9536,8246
9521,8227
9513,8223
9503,8216
9499,8202
9499,8175
9500,8160
9501,8126
9498,8105
9489,8092
9486,8089
9473,8080
9475,8084
9481,8092
9489,8112
9489,8144
9487,8159
9481,8191
9472,8208
9467,8211
9467,8082
9445,8061
9428,8041
9425,8021
9434,7995
9438,7987
9450,7961
9449,7948
9436,7942
9423,7942
9402,7947
9392,7959
9399,7973
9403,7976
9411,7990
9413,8006
9413,8031
9333,8031
9333,7995
9333,7984
9325,7961
9307,7953
9292,7954
9286,7966
9285,7981
9288,8002
9299,8010
9311,8011
9329,8008
9333,7995
9333,8031
9255,8031
9255,7995
9254,7984
9246,7961
9229,7953
9213,7954
9207,7966
9207,7981
9209,8002
9220,8010
9232,8011
9250,8008
9255,7995
9255,8031
9182,8031
9177,8030
9177,7988
9169,7954
9146,7931
9112,7924
9110,7924
9090,7925
9090,7927
9098,7929
9129,7935
9143,7942
9143,7950
9139,7954
9130,7973
9128,7988
9132,8005
9150,8011
9152,8011
9171,8007
9177,7991
9177,7988
9177,8030
9117,8030
9098,8030
9098,7981
9095,7960
9084,7952
9079,7952
9062,7960
9056,7972
9056,7925
9049,7923
9022,7930
9000,7951
8990,7979
8990,7982
8993,8003
9005,8010
9010,8011
9024,8008
9029,7996
9028,7975
9028,7949
9037,7935
9044,7931
9056,7925
9056,7972
9052,7979
9053,7999
9054,8001
9068,8009
9079,8011
9093,8006
9098,7988
9098,7981
9098,8030
9059,8029
9011,8028
8975,8026
8955,8024
8951,8023
8957,8009
8961,8004
8968,7986
8962,7966
8947,7953
8940,7952
8926,7957
8921,7976
8921,7979
8925,8004
8933,8019
8937,8026
8925,8030
8907,8031
8892,8033
8892,7991
8892,7989
8886,7969
8870,7945
8852,7928
8839,7922
8838,7927
8847,7935
8858,7948
8854,7956
8845,7970
8842,7987
8847,8005
8863,8011
8867,8011
8886,8006
8892,7991
8892,8033
8864,8038
8824,8058
8813,8069
8813,7979
8810,7958
8800,7953
8791,7953
8775,7959
8770,7975
8770,7989
8769,8008
8759,8025
8750,8033
8750,7923
8746,7922
8731,7930
8729,7932
8716,7940
8700,7942
8679,7938
8670,7932
8655,7924
8632,7922
8611,7928
8600,7937
8598,7961
8613,7977
8634,7981
8659,7976
8675,7966
8693,7954
8703,7951
8718,7948
8734,7939
8747,7930
8750,7923
8750,8033
8739,8043
8725,8054
8684,8081
8651,8101
8626,8113
8614,8114
8605,8115
8595,8126
8590,8141
8591,8148
8607,8158
8629,8157
8648,8146
8655,8136
8666,8121
8690,8098
8722,8072
8738,8060
8774,8033
8797,8014
8808,7998
8813,7984
8813,7979
8813,8069
8793,8087
8772,8122
8767,8158
8768,8164
8771,8186
8766,8196
8748,8198
8743,8198
8713,8205
8670,8227
8645,8243
8578,8287
8600,8280
8632,8264
8636,8261
8662,8244
8679,8237
8693,8239
8706,8246
8730,8255
8751,8252
8759,8249
8778,8235
8779,8222
8782,8204
8793,8186
8809,8159
8812,8132
8803,8113
8801,8101
8816,8082
8828,8071
8863,8040
9005,8040
9148,8040
9148,8073
9144,8098
9137,8116
9137,8116
9129,8135
9131,8156
9143,8170
9152,8173
9168,8165
9176,8147
9174,8126
9168,8116
9161,8099
9157,8074
9157,8073
9157,8040
9285,8040
9336,8041
9378,8043
9406,8046
9418,8050
9431,8062
9446,8071
9467,8082
9467,8211
9457,8218
9456,8218
9448,8224
9448,8173
9444,8160
9430,8152
9400,8145
9399,8145
9365,8138
9337,8130
9328,8126
9305,8121
9285,8125
9276,8135
9276,8137
9281,8150
9289,8164
9301,8177
9311,8175
9322,8166
9346,8153
9371,8149
9392,8151
9398,8159
9397,8168
9386,8187
9368,8209
9352,8228
9344,8245
9344,8245
9338,8264
9328,8278
9317,8293
9320,8302
9325,8306
9350,8314
9372,8310
9381,8299
9379,8281
9371,8275
9357,8259
9358,8239
9371,8218
9393,8202
9422,8194
9427,8193
9444,8186
9448,8173
9448,8224
9432,8234
9426,8257
9432,8275
9437,8291
9427,8302
9421,8306
9401,8317
9396,8325
9401,8338
9405,8343
9413,8362
9406,8375
9390,8381
9370,8377
9354,8366
9350,8352
9350,8351
9347,8337
9331,8329
9309,8329
9304,8330
9288,8341
9288,8356
9304,8367
9312,8370
9336,8375
9351,8379
9358,8391
9361,8416
9361,8430
9356,8469
9341,8494
9312,8507
9305,8508
9305,8429
9305,8426
9298,8400
9274,8374
9271,8371
9254,8359
9251,8357
9251,8148
9245,8128
9229,8121
9212,8122
9207,8137
9207,8141
9211,8167
9225,8177
9236,8176
9248,8165
9251,8148
9251,8357
9238,8351
9217,8346
9205,8345
9205,8230
9200,8211
9182,8201
9155,8200
9126,8211
9125,8211
9097,8224
9097,8147
9092,8123
9079,8102
9067,8091
9052,8085
9029,8081
8994,8080
8970,8080
8926,8080
8897,8083
8878,8088
8865,8097
8862,8099
8848,8122
8842,8148
8847,8169
8849,8172
8865,8177
8882,8168
8890,8150
8888,8129
8881,8119
8871,8108
8880,8099
8906,8093
8948,8090
8969,8090
9017,8090
9047,8093
9062,8098
9064,8106
9058,8115
9050,8136
9053,8157
9065,8171
9074,8173
9090,8166
9097,8147
9097,8224
9095,8225
9070,8224
9041,8209
9038,8207
9019,8190
9017,8178
9019,8175
9029,8156
9028,8136
9019,8121
9011,8119
8992,8126
8985,8142
8989,8165
9004,8191
9028,8213
9035,8218
9063,8231
9089,8237
9092,8237
9113,8241
9123,8248
9136,8254
9161,8255
9166,8255
9191,8250
9203,8239
9205,8230
9205,8345
9188,8343
9144,8342
9130,8341
9086,8340
9048,8337
9022,8334
9012,8331
9003,8320
9010,8312
9028,8310
9040,8312
9063,8313
9074,8303
9075,8300
9075,8283
9059,8274
9025,8273
9011,8274
8979,8277
8963,8282
8961,8291
8968,8305
8968,8305
8974,8323
8970,8330
8961,8344
8961,8351
8964,8359
8976,8362
9003,8360
9015,8359
9054,8356
9078,8361
9084,8364
9101,8372
9123,8366
9124,8366
9157,8357
9197,8355
9233,8361
9253,8369
9268,8383
9267,8397
9264,8403
9257,8426
9265,8445
9285,8453
9285,8453
9300,8448
9305,8429
9305,8508
9268,8511
9267,8511
9214,8512
9222,8453
9224,8420
9224,8402
9219,8395
9209,8394
9188,8400
9179,8405
9166,8412
9155,8405
9136,8395
9126,8394
9113,8400
9108,8419
9108,8423
9111,8445
9123,8453
9127,8453
9145,8446
9151,8438
9162,8423
9175,8424
9186,8438
9194,8464
9197,8490
9196,8498
9192,8504
9182,8508
9162,8511
9131,8512
9084,8513
9074,8513
9074,8423
9068,8403
9052,8395
9035,8397
9030,8412
9030,8416
9034,8442
9048,8451
9059,8451
9071,8439
9074,8423
9074,8513
9056,8514
9012,8514
9000,8515
9000,8423
8997,8401
8985,8394
8981,8394
8963,8399
8958,8406
8951,8412
8939,8403
8931,8387
8924,8358
8919,8322
8915,8286
8914,8253
8916,8230
8920,8223
8933,8208
8947,8183
8957,8156
8961,8137
8953,8122
8940,8119
8926,8121
8922,8132
8924,8155
8924,8158
8924,8190
8916,8209
8911,8223
8907,8251
8902,8288
8899,8330
8896,8372
8896,8409
8897,8436
8899,8447
8915,8453
8932,8449
8941,8439
8941,8438
8946,8425
8951,8423
8959,8431
8961,8438
8969,8450
8980,8453
8995,8448
9000,8431
9000,8423
9000,8515
8982,8516
8966,8517
8968,8518
8978,8519
9017,8524
9037,8532
9039,8545
9024,8561
9010,8568
8998,8559
8996,8556
8981,8544
8968,8550
8961,8571
8961,8576
8968,8595
8984,8601
9004,8592
9006,8590
9019,8587
9029,8595
9046,8609
9060,8604
9069,8595
9077,8581
9072,8564
9065,8550
9048,8522
9128,8522
9207,8522
9191,8546
9181,8568
9186,8587
9187,8591
9200,8607
9211,8605
9219,8587
9219,8563
9218,8522
9267,8522
9317,8516
9351,8498
9370,8469
9374,8444
9377,8416
9389,8400
9398,8394
9419,8378
9429,8363
9437,8348
9444,8345
9450,8336
9453,8321
9456,8304
9469,8296
9491,8291
9517,8283
9534,8274
9535,8271
9536,8246
9536,8689
9449,8689
9449,8635
9442,8624
9438,8620
9421,8612
9399,8618
9398,8619
9371,8627
9341,8630
9315,8627
9300,8620
9299,8605
9304,8592
9308,8570
9301,8555
9289,8543
9276,8547
9271,8551
9259,8572
9260,8592
9260,8614
9254,8622
9247,8633
9249,8643
9262,8656
9282,8659
9299,8651
9300,8650
9315,8642
9341,8640
9371,8643
9398,8651
9420,8658
9435,8652
9439,8648
9449,8635
9449,8689
9148,8689
9148,8581
9144,8559
9133,8551
9129,8551
9111,8558
9105,8566
9103,8590
9115,8606
9129,8610
9143,8605
9147,8586
9148,8581
9148,8689
9019,8689
9019,8641
9015,8635
8997,8630
8962,8628
8939,8628
8939,8588
8937,8566
8926,8551
8916,8550
8916,8514
8889,8513
8857,8521
8837,8538
8818,8563
8814,8582
8825,8599
8841,8608
8852,8599
8857,8572
8857,8565
8859,8540
8867,8527
8886,8521
8887,8520
8916,8514
8916,8550
8911,8549
8905,8552
8894,8571
8893,8593
8898,8604
8915,8609
8932,8601
8939,8588
8939,8628
8910,8627
8853,8628
8786,8630
8736,8629
8701,8625
8676,8619
8661,8609
8650,8596
8645,8585
8633,8566
8615,8562
8586,8573
8582,8575
8554,8589
8599,8596
8631,8604
8655,8616
8661,8621
8670,8629
8683,8634
8702,8637
8733,8639
8777,8640
8814,8640
8868,8640
8912,8642
8942,8645
8955,8649
8956,8650
8971,8658
8994,8657
9010,8650
9019,8641
9019,8689
8994,8689
8439,8689
8439,8640
8439,8591
8491,8590
8520,8589
8531,8586
8528,8581
8508,8574
8480,8571
8476,8571
8448,8568
8439,8558
8439,8557
8446,8549
8468,8542
8507,8537
8510,8536
8546,8532
8573,8525
8598,8513
8627,8494
8652,8476
8687,8450
8713,8435
8734,8426
8757,8423
8772,8423
8804,8425
8819,8430
8823,8438
8831,8450
8842,8453
8857,8448
8862,8431
8862,8423
8859,8402
8847,8394
8842,8394
8826,8398
8823,8404
8814,8409
8791,8413
8771,8413
8745,8415
8723,8419
8701,8430
8672,8449
8646,8469
8610,8494
8585,8510
8566,8517
8549,8519
8537,8517
8503,8512
8471,8509
8446,8504
8438,8495
8447,8487
8471,8482
8479,8482
8506,8479
8516,8470
8507,8460
8483,8453
8460,8446
8455,8438
8465,8431
8487,8423
8521,8418
8563,8414
8578,8414
8615,8409
8639,8396
8640,8394
8663,8379
8688,8372
8714,8364
8723,8352
8718,8339
8702,8333
8683,8335
8667,8345
8663,8353
8651,8372
8632,8389
8616,8397
8598,8402
8572,8402
8533,8399
8522,8397
8479,8392
8452,8385
8443,8378
8451,8373
8478,8370
8503,8369
8545,8365
8588,8353
8624,8338
8648,8319
8650,8315
8663,8310
8685,8312
8708,8313
8720,8303
8721,8300
8720,8281
8713,8276
8695,8268
8681,8274
8668,8286
8649,8304
8624,8320
8598,8332
8579,8338
8572,8337
8559,8333
8533,8330
8504,8330
8466,8328
8446,8323
8445,8317
8462,8310
8498,8303
8515,8300
8563,8292
8577,8287
8508,8281
8473,8276
8447,8272
8434,8267
8434,8267
8436,8257
8454,8251
8485,8250
8513,8253
8550,8255
8569,8250
8572,8247
8573,8231
8557,8220
8522,8214
8495,8213
8434,8213
8431,8053
8429,7893
8995,7893
9561,7893
9561,7893
" /> 
<polyline style="fill-rule:evenodd;"
points="8849,8417
8848,8423
8842,8423
8834,8420
8836,8417
8848,8415
8849,8417
8849,8417
" /> 
<polyline style="fill-rule:evenodd;"
points="8547,8349
8542,8354
8537,8349
8542,8345
8547,8349
8547,8349
" /> 
<polyline style="fill-rule:evenodd;"
points="8701,8348
8700,8353
8695,8354
8687,8351
8688,8348
8700,8347
8701,8348
8701,8348
" /> 
<polyline style="fill-rule:evenodd;"
points="8701,8289
8700,8294
8695,8295
8687,8292
8688,8289
8700,8288
8701,8289
8701,8289
" /> 
<polyline style="fill-rule:evenodd;"
points="8547,8232
8542,8237
8537,8232
8542,8227
8547,8232
8547,8232
" /> 
<polyline style="fill-rule:evenodd;"
points="8744,8222
8739,8227
8734,8222
8739,8217
8744,8222
8744,8222
" /> 
<polyline style="fill-rule:evenodd;"
points="8793,8144
8788,8149
8783,8144
8788,8139
8793,8144
8793,8144
" /> 
<polyline style="fill-rule:evenodd;"
points="9157,8144
9152,8149
9148,8144
9152,8139
9157,8144
9157,8144
" /> 
<polyline style="fill-rule:evenodd;"
points="8949,7987
8948,7988
8942,7987
8941,7981
8945,7973
8948,7975
8949,7987
8949,7987
" /> 
<polyline style="fill-rule:evenodd;"
points="9433,7957
9428,7962
9423,7957
9428,7952
9433,7957
9433,7957
" /> 
<polyline style="fill-rule:evenodd;"
points="11344,8662
11343,8698
11343,8703
11340,8777
11041,8777
10741,8777
10741,8694
10741,8610
11040,8610
11129,8611
11204,8612
11264,8613
11308,8615
11335,8617
11343,8620
11344,8634
11344,8662
11344,8662
" /> 
<polyline style="fill-rule:evenodd;"
points="11351,7971
10741,7971
10741,7804
11351,7804
11351,7971
11351,7971
" /> 
<polyline style="fill-rule:evenodd;"
points="12198,8768
11587,8768
11587,8610
12198,8610
12198,8768
12198,8768
" /> 
<polyline style="fill-rule:evenodd;"
points="10505,7962
9896,7962
9896,7804
10505,7804
10505,7962
10505,7962
" /> 
<polyline style="fill-rule:evenodd;"
points="8990,8635
8985,8640
8980,8635
8985,8630
8990,8635
8990,8635
" /> 
<polyline style="fill-rule:evenodd;"
points="8626,8586
8621,8591
8616,8586
8621,8581
8626,8586
8626,8586
" /> 
<polyline style="fill-rule:evenodd;"
points="9285,8635
9281,8640
9276,8635
9281,8630
9285,8635
9285,8635
" /> 
<polyline style="fill-rule:evenodd;"
points="9423,8635
9418,8640
9413,8635
9418,8630
9423,8635
9423,8635
" /> 
<polyline style="fill-rule:evenodd;"
points="9292,8574
9291,8580
9285,8581
9277,8577
9279,8574
9291,8573
9292,8574
9292,8574
" /> 
<polyline style="fill-rule:evenodd;"
points="8852,8576
8847,8581
8842,8576
8847,8571
8852,8576
8852,8576
" /> 
<polyline style="fill-rule:evenodd;"
points="8921,8576
8916,8581
8911,8576
8916,8571
8921,8576
8921,8576
" /> 
<polyline style="fill-rule:evenodd;"
points="8990,8576
8985,8581
8980,8576
8985,8571
8990,8576
8990,8576
" /> 
<polyline style="fill-rule:evenodd;"
points="9059,8576
9054,8581
9049,8576
9054,8571
9059,8576
9059,8576
" /> 
<polyline style="fill-rule:evenodd;"
points="9217,8576
9211,8581
9207,8576
9211,8571
9217,8576
9217,8576
" /> 
<polyline style="fill-rule:evenodd;"
points="9138,8418
9133,8423
9128,8418
9133,8413
9138,8418
9138,8418
" /> 
<polyline style="fill-rule:evenodd;"
points="9217,8418
9211,8423
9207,8418
9211,8413
9217,8418
9217,8418
" /> 
<polyline style="fill-rule:evenodd;"
points="9325,8349
9320,8354
9315,8349
9320,8345
9325,8349
9325,8349
" /> 
<polyline style="fill-rule:evenodd;"
points="9433,8330
9428,8335
9423,8330
9428,8325
9433,8330
9433,8330
" /> 
<polyline style="fill-rule:evenodd;"
points="9492,8257
9485,8266
9482,8267
9473,8259
9473,8257
9480,8247
9482,8247
9492,8255
9492,8257
9492,8257
" /> 
<polyline style="fill-rule:evenodd;"
points="9138,8576
9133,8581
9128,8576
9133,8571
9138,8576
9138,8576
" /> 
<polyline style="fill-rule:evenodd;"
points="8921,8418
8916,8423
8911,8418
8916,8413
8921,8418
8921,8418
" /> 
<polyline style="fill-rule:evenodd;"
points="8990,8418
8985,8423
8980,8418
8985,8413
8990,8418
8990,8418
" /> 
<polyline style="fill-rule:evenodd;"
points="8951,8144
8946,8149
8941,8144
8946,8139
8951,8144
8951,8144
" /> 
<polyline style="fill-rule:evenodd;"
points="9059,8418
9054,8423
9049,8418
9054,8413
9059,8418
9059,8418
" /> 
<polyline style="fill-rule:evenodd;"
points="9295,8418
9290,8423
9285,8418
9290,8413
9295,8418
9295,8418
" /> 
<polyline style="fill-rule:evenodd;"
points="8997,8348
8995,8353
8990,8354
8982,8351
8984,8348
8995,8347
8997,8348
8997,8348
" /> 
<polyline style="fill-rule:evenodd;"
points="9108,8349
9103,8354
9098,8349
9103,8345
9108,8349
9108,8349
" /> 
<polyline style="fill-rule:evenodd;"
points="8997,8289
8995,8294
8990,8295
8982,8292
8984,8289
8995,8288
8997,8289
8997,8289
" /> 
<polyline style="fill-rule:evenodd;"
points="9059,8290
9054,8295
9049,8290
9054,8286
9059,8290
9059,8290
" /> 
<polyline style="fill-rule:evenodd;"
points="9354,8290
9349,8295
9344,8290
9349,8286
9354,8290
9354,8290
" /> 
<polyline style="fill-rule:evenodd;"
points="9433,8173
9428,8178
9423,8173
9428,8168
9433,8173
9433,8173
" /> 
<polyline style="fill-rule:evenodd;"
points="9312,8142
9310,8148
9305,8149
9297,8145
9299,8142
9310,8141
9312,8142
9312,8142
" /> 
<polyline style="fill-rule:evenodd;"
points="9167,8232
9162,8237
9157,8232
9162,8227
9167,8232
9167,8232
" /> 
<polyline style="fill-rule:evenodd;"
points="9020,8144
9015,8149
9010,8144
9015,8139
9020,8144
9020,8144
" /> 
<polyline style="fill-rule:evenodd;"
points="8872,8144
8867,8149
8862,8144
8867,8139
8872,8144
8872,8144
" /> 
<polyline style="fill-rule:evenodd;"
points="9085,8142
9084,8148
9079,8149
9071,8145
9072,8142
9084,8141
9085,8142
9085,8142
" /> 
<polyline style="fill-rule:evenodd;"
points="9236,8144
9231,8149
9226,8144
9231,8139
9236,8144
9236,8144
" /> 
<polyline style="fill-rule:evenodd;"
points="8626,8134
8621,8139
8616,8134
8621,8129
8626,8134
8626,8134
" /> 
<polyline style="fill-rule:evenodd;"
points="8803,7986
8798,7991
8793,7986
8798,7981
8803,7986
8803,7986
" /> 
<polyline style="fill-rule:evenodd;"
points="8882,7986
8877,7991
8872,7986
8877,7981
8882,7986
8882,7986
" /> 
<polyline style="fill-rule:evenodd;"
points="9020,7986
9015,7991
9010,7986
9015,7981
9020,7986
9020,7986
" /> 
<polyline style="fill-rule:evenodd;"
points="9234,7987
9233,7988
9227,7987
9226,7981
9230,7973
9233,7975
9234,7987
9234,7987
" /> 
<polyline style="fill-rule:evenodd;"
points="9313,7987
9312,7988
9306,7987
9305,7981
9309,7973
9312,7975
9313,7987
9313,7987
" /> 
<polyline style="fill-rule:evenodd;"
points="8646,7947
8641,7952
8636,7947
8641,7942
8646,7947
8646,7947
" /> 
<polyline style="fill-rule:evenodd;"
points="13821,8806
13828,8802
13843,8793
13865,8778
13891,8761
13917,8743
13939,8729
13954,8719
13960,8716
13963,8717
13976,8723
13993,8732
14004,8738
14020,8745
14029,8746
14030,8744
14036,8732
14045,8710
14058,8682
14072,8648
14087,8612
14103,8576
14117,8541
14130,8509
14140,8483
14147,8466
14150,8458
14149,8456
14141,8448
14126,8438
14095,8412
14064,8374
14046,8331
14039,8282
14045,8237
14062,8195
14092,8156
14129,8127
14171,8109
14219,8103
14264,8108
14308,8126
14347,8155
14364,8174
14386,8213
14399,8255
14400,8266
14398,8312
14385,8356
14360,8395
14327,8428
14322,8431
14307,8443
14296,8451
14288,8457
14347,8599
14356,8621
14372,8660
14386,8693
14398,8720
14406,8738
14409,8745
14409,8745
14415,8746
14425,8742
14445,8733
14458,8726
14473,8719
14480,8716
14486,8719
14500,8728
14521,8742
14547,8760
14571,8776
14593,8791
14609,8801
14617,8805
14618,8805
14625,8801
14638,8791
14657,8773
14684,8746
14688,8741
14711,8719
14729,8700
14741,8686
14746,8680
14746,8680
14742,8672
14731,8656
14717,8633
14699,8607
14652,8539
14678,8475
14686,8455
14696,8431
14703,8414
14707,8407
14714,8404
14731,8400
14757,8395
14787,8389
14816,8384
14842,8379
14861,8375
14870,8374
14872,8372
14874,8368
14875,8359
14875,8343
14876,8318
14876,8282
14876,8278
14875,8244
14875,8216
14874,8199
14873,8192
14873,8192
14864,8190
14846,8186
14820,8181
14789,8175
14787,8174
14756,8168
14729,8163
14711,8159
14704,8156
14702,8154
14696,8142
14687,8123
14676,8099
14666,8075
14658,8053
14652,8036
14650,8029
14650,8029
14655,8021
14665,8005
14680,7983
14699,7956
14700,7954
14718,7928
14732,7906
14742,7890
14746,7883
14745,7882
14740,7875
14726,7860
14707,7840
14684,7816
14677,7809
14651,7784
14633,7768
14622,7759
14617,7757
14617,7757
14609,7762
14592,7773
14570,7788
14543,7806
14541,7808
14515,7826
14493,7840
14478,7851
14471,7855
14470,7855
14459,7852
14440,7845
14417,7836
14393,7826
14371,7817
14354,7810
14347,7805
14346,7805
14344,7795
14339,7776
14333,7749
14327,7716
14326,7711
14320,7680
14315,7654
14312,7636
14310,7629
14305,7628
14290,7627
14267,7626
14239,7626
14209,7626
14180,7627
14156,7627
14138,7629
14130,7630
14130,7631
14127,7640
14123,7660
14118,7687
14111,7719
14110,7725
14104,7756
14099,7782
14095,7800
14093,7807
14091,7808
14078,7814
14057,7822
14031,7833
13971,7857
13897,7807
13890,7802
13864,7784
13842,7769
13827,7760
13820,7756
13820,7756
13812,7763
13798,7776
13778,7796
13755,7819
13737,7836
13717,7857
13704,7871
13697,7880
13695,7885
13695,7889
13700,7896
13711,7913
13726,7935
13744,7961
13759,7983
13775,8008
13785,8025
13789,8034
13788,8038
13783,8052
13774,8074
13763,8100
13737,8158
13699,8166
13676,8170
13643,8176
13612,8182
13564,8192
13562,8369
13570,8372
13577,8374
13595,8378
13620,8383
13651,8389
13676,8394
13702,8399
13721,8402
13729,8404
13731,8407
13738,8419
13747,8439
13757,8463
13768,8488
13777,8511
13783,8529
13786,8538
13782,8545
13772,8560
13758,8582
13740,8608
13723,8633
13708,8656
13698,8671
13693,8679
13695,8684
13706,8696
13725,8716
13754,8745
13759,8749
13782,8772
13801,8790
13815,8802
13821,8806
" /> 
</g>
<g style="fill:#A000A0; fill-opacity:1.0; 
stroke:#A000A0; stroke-width:1; stroke-opacity:1; 
stroke-linecap:round; stroke-linejoin:round;">
<polyline style="fill-rule:evenodd;"
points="22950,12144
22737,12144
22737,9591
22730,9587
22708,9584
22668,9581
22610,9578
22514,9568
22415,9551
22320,9526
22235,9496
22165,9464
22139,9447
22114,9434
22073,9417
22025,9400
22007,9395
21952,9379
21909,9370
21868,9368
21823,9371
21748,9380
21681,9393
21617,9412
21552,9438
21482,9474
21405,9520
21315,9579
21245,9627
21160,9685
21089,9729
21029,9762
20976,9785
20927,9798
20877,9805
20832,9806
20771,9802
20705,9789
20643,9770
20592,9747
20569,9731
20537,9704
20607,9668
20717,9610
20806,9562
20879,9520
20937,9485
20982,9453
21016,9425
21043,9397
21061,9374
21084,9331
21094,9285
21089,9232
21070,9169
21045,9108
21017,9048
20999,9003
20989,8971
20986,8946
20989,8923
20997,8898
20999,8892
21015,8860
21039,8830
21074,8800
21122,8768
21186,8734
21268,8694
21300,8679
21387,8639
21455,8605
21508,8577
21549,8552
21582,8529
21604,8509
21628,8482
21647,8450
21659,8422
21659,8404
21657,8403
21645,8405
21618,8419
21582,8440
21573,8446
21528,8473
21475,8501
21420,8528
21368,8552
21324,8569
21294,8577
21290,8577
21262,8582
21219,8593
21166,8610
21110,8630
21055,8651
21010,8671
21000,8676
20921,8720
20859,8764
20811,8815
20774,8875
20742,8951
20719,9025
20700,9089
20685,9135
20672,9168
20659,9193
20642,9217
20619,9243
20615,9248
20583,9279
20547,9305
20504,9328
20447,9349
20379,9371
20328,9388
20281,9403
20248,9416
20239,9421
20217,9430
20208,9427
20214,9411
20233,9379
20249,9355
20288,9292
20317,9235
20334,9188
20337,9165
20330,9140
20310,9109
20305,9102
20272,9066
20123,9079
20019,9086
19938,9085
19878,9077
19838,9059
19817,9032
19814,8995
19829,8946
19859,8886
19866,8875
19904,8806
19926,8750
19932,8705
19930,8690
19923,8686
19907,8699
19882,8733
19872,8746
19837,8790
19793,8841
19747,8889
19736,8899
19669,8969
19621,9030
19593,9083
19587,9126
19601,9160
19607,9165
19629,9180
19665,9197
19698,9211
19761,9239
19801,9270
19821,9305
19819,9345
19796,9394
19752,9452
19719,9487
19684,9521
19654,9545
19632,9556
19630,9556
19609,9548
19579,9528
19549,9502
19515,9472
19490,9456
19464,9450
19434,9449
19354,9459
19270,9490
19215,9520
19157,9556
17757,9559
17544,9559
17355,9560
17186,9560
17037,9561
16908,9561
16795,9562
16699,9563
16617,9563
16549,9564
16493,9566
16449,9567
16413,9569
16386,9571
16366,9572
16352,9575
16343,9578
16336,9581
16332,9584
16331,9585
16324,9591
16319,9600
16315,9612
16311,9632
16309,9661
16307,9701
16307,9756
16306,9827
16306,9917
16306,10009
16306,10121
16307,10211
16308,10283
16309,10338
16312,10378
16315,10406
16318,10423
16323,10432
16326,10436
16331,10440
16340,10443
16352,10446
16371,10448
16398,10450
16433,10451
16478,10453
16536,10454
16607,10455
16692,10456
16794,10456
16914,10457
17052,10458
17211,10458
17392,10459
17450,10459
17611,10459
17764,10460
17909,10461
18044,10461
18167,10463
18276,10464
18370,10464
18447,10465
18505,10466
18544,10468
18560,10469
18561,10469
18554,10487
18535,10516
18508,10552
18479,10589
18452,10621
18432,10641
18395,10666
18352,10686
18297,10704
18225,10719
18161,10730
18093,10744
18031,10760
17978,10779
17940,10798
17919,10816
17917,10824
17920,10834
17936,10835
17965,10829
17993,10823
18020,10824
18053,10831
18101,10846
18111,10850
18197,10874
18270,10883
18333,10876
18382,10857
18412,10837
18455,10801
18510,10750
18576,10685
18614,10646
18793,10461
18954,10461
19115,10462
18991,10578
18923,10645
18873,10703
18839,10755
18819,10804
18812,10853
18811,10865
18815,10904
18826,10941
18849,10980
18885,11027
18914,11061
18954,11107
18980,11144
18994,11177
19001,11213
19002,11253
19000,11294
18992,11333
18977,11371
18952,11412
18917,11459
18868,11514
18805,11580
18745,11640
18659,11727
18590,11801
18539,11863
18504,11913
18484,11953
18478,11983
18481,11994
18490,11990
18509,11968
18511,11965
18538,11932
18573,11894
18592,11874
18641,11832
18699,11794
18770,11759
18858,11724
18920,11703
18995,11677
19055,11651
19103,11621
19140,11586
19168,11542
19187,11486
19201,11416
19210,11329
19215,11221
19217,11178
19221,11084
19226,11004
19231,10941
19237,10898
19241,10879
19286,10793
19352,10716
19440,10649
19511,10608
19556,10587
19584,10576
19601,10575
19610,10581
19610,10582
19615,10600
19618,10636
19620,10687
19621,10745
19621,10752
19623,10834
19628,10896
19639,10941
19655,10973
19679,10996
19693,11005
19732,11020
19778,11028
19833,11030
19901,11024
19984,11011
20086,10990
20141,10978
20276,10954
20391,10946
20448,10946
20489,10949
20521,10955
20552,10966
20580,10979
20642,11019
20690,11074
20725,11144
20748,11231
20759,11338
20761,11380
20763,11447
20767,11497
20774,11536
20786,11573
20792,11589
20814,11633
20843,11677
20876,11718
20909,11751
20937,11771
20950,11774
20960,11772
20967,11763
20968,11744
20966,11711
20959,11662
20950,11607
20930,11488
20994,11330
21034,11218
21058,11121
21067,11038
21059,10967
21034,10905
20994,10851
20973,10832
20933,10802
20886,10778
20827,10757
20753,10740
20661,10725
20613,10718
20548,10708
20482,10697
20426,10684
20390,10675
20313,10641
20255,10595
20218,10539
20201,10474
20206,10402
20233,10327
20267,10269
20289,10238
20412,10273
20540,10303
20654,10316
20754,10312
20822,10297
20876,10278
20927,10254
20979,10222
21032,10182
21090,10131
21156,10066
21231,9986
21308,9899
21394,9811
21482,9738
21568,9683
21600,9668
21656,9646
21715,9631
21781,9623
21859,9621
21952,9625
22045,9632
22192,9644
22325,9649
22444,9649
22546,9644
22629,9633
22692,9617
22717,9606
22732,9597
22737,9591
22737,12144
19479,12144
16008,12144
16008,10176
16008,8208
19479,8208
22950,8208
22950,10176
22950,12144
22950,12144
" /> 
<polyline style="fill-rule:evenodd;"
points="19025,10009
19018,10020
18996,10028
18966,10036
18966,10212
18967,10280
18967,10328
18969,10359
18973,10378
18978,10387
18987,10391
18992,10392
19015,10401
19023,10411
19019,10419
18998,10424
18958,10426
18937,10426
18888,10425
18860,10421
18850,10415
18850,10411
18864,10400
18891,10392
18893,10392
18930,10388
18930,10311
18930,10233
18930,10233
18930,10138
18920,10088
18902,10061
18880,10040
18856,10030
18820,10027
18811,10027
18772,10029
18746,10038
18725,10056
18721,10061
18697,10103
18692,10146
18704,10187
18728,10222
18762,10247
18802,10259
18846,10252
18871,10238
18907,10208
18925,10176
18930,10138
18930,10233
18899,10258
18863,10276
18813,10283
18808,10283
18771,10281
18744,10272
18717,10251
18702,10236
18674,10204
18660,10177
18656,10145
18656,10145
18666,10087
18694,10040
18735,10006
18785,9989
18838,9990
18890,10010
18916,10025
18928,10026
18930,10016
18937,10003
18961,9998
18978,9998
19011,10001
19025,10009
19025,10009
" /> 
<polyline style="fill-rule:evenodd;"
points="16687,10162
16674,10211
16652,10244
16652,10137
16644,10090
16639,10080
16615,10054
16577,10033
16537,10022
16528,10021
16476,10032
16436,10059
16411,10099
16402,10146
16413,10196
16421,10211
16451,10247
16489,10264
16541,10266
16544,10266
16585,10258
16614,10239
16624,10227
16645,10186
16652,10137
16652,10244
16646,10254
16606,10285
16558,10303
16504,10304
16450,10285
16404,10248
16377,10201
16368,10148
16379,10093
16409,10043
16414,10038
16463,10003
16517,9988
16571,9992
16621,10016
16658,10054
16683,10108
16687,10162
16687,10162
" /> 
<polyline style="fill-rule:evenodd;"
points="17022,10149
17011,10202
16982,10248
16938,10281
16883,10301
16822,10304
16763,10291
16728,10274
16706,10257
16701,10242
16703,10240
16718,10239
16745,10246
16759,10251
16825,10270
16881,10268
16929,10245
16945,10230
16973,10201
16986,10179
16986,10178
16986,10106
16979,10091
16963,10067
16962,10065
16927,10038
16880,10024
16830,10025
16824,10027
16796,10039
16767,10061
16744,10085
16735,10104
16747,10110
16781,10115
16833,10116
16861,10117
16912,10116
16953,10113
16979,10110
16986,10106
16986,10178
16983,10166
16963,10158
16922,10154
16860,10153
16841,10153
16697,10153
16704,10114
16726,10057
16763,10017
16789,10002
16851,9988
16908,9993
16958,10017
16996,10057
17017,10110
17022,10149
17022,10149
" /> 
<polyline style="fill-rule:evenodd;"
points="17341,10013
17327,10025
17304,10031
17272,10035
17272,10146
17272,10198
17270,10232
17265,10254
17256,10269
17241,10281
17241,10282
17199,10301
17144,10305
17085,10294
17066,10287
17036,10271
17023,10257
17027,10250
17050,10251
17055,10252
17124,10265
17177,10267
17211,10260
17223,10251
17231,10237
17235,10214
17236,10176
17236,10140
17236,10033
17153,10033
17108,10032
17082,10028
17071,10021
17069,10015
17074,10005
17092,10000
17127,9998
17153,9998
17236,9998
17236,9950
17236,9902
17144,9900
17107,9898
17088,9897
17089,9894
17096,9893
17141,9888
17141,9794
17141,9699
17183,9699
17210,9702
17224,9707
17225,9708
17214,9715
17192,9717
17175,9718
17165,9724
17160,9741
17159,9773
17159,9801
17159,9884
17216,9888
17272,9891
17272,9944
17273,9977
17279,9993
17295,9997
17309,9998
17335,10002
17341,10013
17341,10013
" /> 
<polyline style="fill-rule:evenodd;"
points="18047,10282
18029,10290
17995,10295
17988,10295
17949,10292
17930,10284
17933,10271
17947,10262
17956,10252
17961,10231
17963,10196
17962,10152
17959,10103
17956,10072
17949,10053
17938,10041
17927,10034
17901,10023
17883,10027
17876,10032
17867,10044
17861,10067
17858,10103
17857,10157
17857,10172
17857,10295
17821,10295
17793,10289
17785,10277
17795,10261
17803,10259
17812,10254
17818,10238
17821,10206
17821,10164
17820,10114
17816,10081
17808,10059
17797,10045
17773,10025
17752,10023
17733,10028
17724,10035
17718,10052
17715,10081
17714,10128
17714,10166
17714,10295
17678,10295
17650,10290
17636,10280
17638,10269
17653,10262
17673,10247
17678,10227
17677,10209
17672,10207
17658,10221
17647,10235
17595,10280
17535,10303
17468,10304
17419,10291
17384,10274
17362,10257
17357,10242
17359,10240
17374,10239
17402,10246
17415,10251
17481,10270
17537,10268
17585,10245
17602,10230
17629,10201
17642,10179
17642,10178
17642,10110
17631,10082
17604,10054
17567,10033
17526,10022
17517,10021
17477,10029
17438,10048
17408,10074
17392,10103
17391,10110
17403,10113
17433,10115
17477,10116
17517,10117
17568,10116
17609,10115
17636,10112
17642,10110
17642,10178
17639,10166
17619,10158
17578,10154
17516,10153
17499,10153
17439,10152
17398,10151
17374,10149
17361,10144
17356,10136
17356,10126
17367,10081
17396,10040
17439,10008
17488,9989
17517,9985
17570,9995
17618,10022
17653,10059
17654,10059
17678,10099
17678,10066
17687,10031
17710,10004
17740,9988
17771,9987
17797,10003
17822,10020
17847,10013
17858,10002
17881,9989
17910,9991
17946,9995
17989,9997
17997,9997
18030,10000
18047,10009
18045,10020
18024,10030
18012,10035
18006,10046
18002,10068
18000,10105
18000,10146
18000,10198
18002,10231
18007,10250
18015,10259
18024,10262
18046,10272
18047,10282
18047,10282
" /> 
<polyline style="fill-rule:evenodd;"
points="18334,10144
18323,10198
18298,10238
18298,10146
18288,10103
18262,10064
18225,10034
18184,10022
18180,10021
18127,10031
18085,10057
18057,10094
18044,10137
18048,10182
18070,10225
18092,10246
18138,10269
18187,10270
18235,10249
18258,10230
18285,10197
18297,10167
18298,10146
18298,10238
18295,10244
18253,10279
18204,10300
18150,10305
18098,10290
18087,10284
18044,10245
18019,10197
18012,10147
18021,10096
18045,10050
18083,10014
18133,9991
18176,9985
18223,9996
18268,10025
18305,10065
18329,10112
18334,10144
18334,10144
" /> 
<polyline style="fill-rule:evenodd;"
points="18650,10277
18639,10282
18607,10287
18559,10290
18515,10292
18454,10293
18415,10292
18392,10289
18384,10283
18385,10280
18399,10270
18434,10263
18457,10261
18525,10258
18525,10182
18524,10140
18519,10114
18508,10094
18487,10074
18486,10074
18444,10042
18412,10027
18385,10027
18365,10037
18339,10048
18326,10043
18330,10026
18347,10008
18386,9991
18431,9997
18482,10025
18485,10028
18525,10058
18525,10028
18527,10009
18538,10000
18563,9998
18579,9998
18614,10000
18630,10008
18632,10015
18622,10029
18597,10033
18561,10033
18561,10146
18561,10257
18605,10261
18634,10266
18650,10275
18650,10277
18650,10277
" /> 
<polyline style="fill-rule:evenodd;"
points="20206,9788
20202,9805
20192,9838
20176,9883
20158,9936
20138,9990
20120,10041
20111,10063
20095,10083
20066,10105
20055,10110
20025,10127
19981,10153
19933,10182
19911,10196
19865,10225
19824,10249
19792,10266
19782,10271
19756,10276
19713,10280
19665,10281
19617,10280
19580,10277
19574,10276
19552,10272
19516,10267
19501,10265
19448,10258
19434,10176
19425,10122
19421,10082
19424,10050
19434,10020
19456,9988
19488,9948
19531,9899
19588,9839
19635,9794
19670,9766
19684,9759
19711,9750
19754,9736
19808,9718
19854,9704
19985,9662
20096,9717
20141,9742
20178,9764
20201,9781
20206,9788
20206,9788
" /> 
<polyline style="fill-rule:evenodd;"
points="16577,9795
16575,9812
16556,9854
16556,9766
16556,9765
16546,9745
16520,9727
16486,9714
16461,9711
16428,9719
16398,9738
16380,9762
16377,9774
16385,9781
16408,9785
16452,9785
16467,9785
16517,9781
16546,9775
16556,9766
16556,9854
16555,9859
16519,9891
16470,9907
16415,9904
16404,9901
16378,9890
16366,9878
16366,9877
16374,9872
16389,9878
16430,9890
16476,9888
16516,9874
16530,9862
16551,9838
16555,9821
16541,9812
16507,9807
16462,9806
16417,9805
16381,9802
16362,9797
16360,9796
16362,9780
16375,9755
16381,9745
16402,9719
16426,9707
16463,9702
16499,9701
16522,9709
16545,9731
16550,9737
16571,9768
16577,9795
16577,9795
" /> 
<polyline style="fill-rule:evenodd;"
points="17031,9815
17012,9850
17012,9792
17008,9772
16984,9736
16951,9717
16913,9713
16877,9724
16848,9748
16832,9785
16831,9801
16841,9843
16868,9874
16908,9889
16954,9887
16968,9882
16991,9862
17007,9829
17012,9792
17012,9850
17010,9854
16993,9873
16967,9897
16948,9911
16942,9912
16924,9909
16903,9905
16860,9887
16832,9854
16819,9812
16824,9767
16843,9731
16866,9709
16894,9700
16920,9699
16958,9702
16983,9716
17003,9736
17028,9777
17031,9815
17031,9815
" /> 
<polyline style="fill-rule:evenodd;"
points="17716,9839
17715,9862
17711,9872
17699,9887
17699,9860
17696,9829
17678,9811
17641,9802
17616,9801
17578,9802
17558,9807
17550,9819
17549,9823
17554,9850
17578,9872
17614,9885
17648,9887
17681,9882
17696,9871
17699,9860
17699,9887
17691,9896
17662,9911
17642,9912
17627,9909
17612,9905
17584,9893
17571,9886
17556,9878
17550,9887
17535,9898
17519,9901
17503,9898
17510,9895
17514,9894
17526,9886
17532,9869
17535,9835
17535,9813
17538,9757
17550,9722
17574,9703
17612,9698
17642,9699
17670,9705
17683,9712
17680,9718
17657,9718
17637,9715
17600,9712
17578,9716
17564,9728
17563,9729
17548,9756
17551,9772
17574,9781
17611,9783
17652,9784
17677,9791
17695,9807
17700,9813
17716,9839
17716,9839
" /> 
<polyline style="fill-rule:evenodd;"
points="18168,9806
18160,9845
18137,9879
18099,9902
18077,9908
18041,9907
18005,9897
17977,9882
17959,9868
17959,9867
17957,9856
17969,9858
17993,9872
17993,9873
18031,9888
18075,9888
18116,9874
18129,9862
18151,9824
18151,9781
18130,9742
18097,9718
18056,9711
18016,9722
18000,9735
17978,9755
17967,9755
17964,9735
17964,9727
17966,9707
17975,9706
17981,9710
17999,9717
18006,9712
18021,9704
18051,9699
18061,9699
18108,9708
18142,9733
18162,9767
18168,9806
18168,9806
" /> 
<polyline style="fill-rule:evenodd;"
points="18404,9792
18402,9809
18388,9856
18386,9857
18386,9799
18377,9757
18351,9727
18316,9712
18276,9714
18238,9735
18232,9740
18207,9778
18206,9819
18228,9859
18260,9883
18301,9891
18341,9883
18364,9865
18381,9834
18386,9799
18386,9857
18358,9887
18328,9902
18301,9911
18281,9911
18255,9902
18255,9902
18220,9876
18197,9835
18191,9797
18201,9754
18228,9722
18265,9702
18307,9698
18350,9710
18377,9732
18399,9761
18404,9792
18404,9792
" /> 
<polyline style="fill-rule:evenodd;"
points="18621,9867
18613,9892
18599,9899
18574,9902
18539,9907
18535,9907
18498,9908
18469,9895
18459,9887
18437,9858
18437,9829
18456,9805
18490,9789
18536,9783
18569,9776
18588,9760
18590,9738
18585,9729
18558,9714
18522,9712
18486,9722
18466,9737
18442,9763
18442,9733
18443,9717
18451,9708
18471,9705
18509,9704
18515,9704
18559,9707
18586,9713
18601,9726
18601,9726
18608,9753
18591,9776
18552,9794
18527,9801
18485,9811
18463,9821
18454,9833
18456,9853
18458,9860
18465,9878
18479,9887
18507,9890
18525,9890
18564,9888
18588,9879
18602,9863
18621,9837
18621,9867
18621,9867
" /> 
<polyline style="fill-rule:evenodd;"
points="18847,9870
18844,9892
18837,9897
18820,9896
18791,9900
18785,9901
18730,9902
18705,9895
18677,9877
18668,9853
18668,9850
18675,9821
18696,9802
18737,9790
18748,9788
18793,9778
18817,9766
18821,9750
18816,9738
18793,9721
18759,9713
18724,9716
18700,9728
18681,9745
18673,9742
18672,9729
18683,9718
18709,9707
18744,9700
18779,9699
18794,9701
18821,9715
18833,9739
18828,9765
18808,9785
18786,9792
18728,9804
18692,9823
18680,9847
18680,9848
18686,9871
18706,9884
18744,9889
18764,9890
18801,9885
18825,9868
18828,9863
18847,9837
18847,9870
18847,9870
" /> 
<polyline style="fill-rule:evenodd;"
points="19097,9849
19088,9878
19077,9886
19077,9839
19061,9816
19029,9800
18985,9795
18944,9798
18924,9810
18922,9831
18924,9841
18942,9865
18974,9882
19011,9889
19046,9886
19070,9871
19074,9867
19077,9839
19077,9886
19061,9898
19025,9906
18983,9902
18969,9896
18944,9888
18931,9889
18930,9891
18920,9898
18898,9901
18880,9898
18884,9894
18886,9894
18898,9886
18904,9869
18906,9835
18907,9813
18909,9760
18918,9728
18925,9718
18951,9705
18988,9700
19026,9702
19049,9710
19049,9715
19028,9716
19008,9714
18970,9712
18948,9717
18935,9729
18920,9754
18923,9770
18945,9780
18988,9785
18990,9785
19047,9795
19083,9815
19097,9845
19097,9849
19097,9849
" /> 
<polyline style="fill-rule:evenodd;"
points="16804,9701
16800,9707
16792,9712
16779,9732
16771,9766
16769,9807
16773,9848
16783,9878
16792,9889
16801,9897
16791,9900
16765,9900
16741,9898
16734,9895
16738,9894
16750,9886
16757,9867
16759,9831
16759,9818
16758,9776
16752,9751
16739,9734
16733,9729
16697,9714
16662,9714
16641,9727
16632,9750
16627,9785
16626,9825
16630,9862
16637,9887
16641,9891
16645,9898
16625,9901
16616,9901
16593,9899
16587,9895
16589,9894
16599,9878
16604,9841
16604,9820
16609,9762
16625,9723
16652,9703
16680,9699
16712,9703
16734,9714
16749,9723
16756,9714
16770,9702
16787,9699
16804,9701
16804,9701
" /> 
<polyline style="fill-rule:evenodd;"
points="17463,9892
17453,9898
17425,9902
17389,9902
17351,9901
17317,9896
17296,9889
17292,9886
17293,9863
17297,9853
17305,9845
17308,9859
17308,9863
17310,9879
17321,9887
17345,9889
17374,9890
17410,9889
17433,9886
17439,9883
17432,9871
17412,9846
17383,9813
17368,9795
17336,9758
17312,9728
17298,9710
17296,9707
17307,9703
17336,9700
17376,9699
17380,9699
17423,9699
17448,9702
17459,9708
17462,9721
17462,9732
17461,9754
17458,9753
17451,9738
17440,9721
17420,9713
17386,9711
17354,9713
17335,9719
17332,9723
17339,9736
17359,9762
17388,9796
17398,9807
17428,9843
17451,9872
17462,9889
17463,9892
17463,9892
" /> 
<polyline style="fill-rule:evenodd;"
points="17911,9704
17895,9708
17887,9709
17868,9714
17857,9723
17851,9742
17849,9775
17847,9803
17844,9888
17889,9893
17899,9895
17887,9897
17857,9898
17833,9898
17788,9898
17766,9896
17768,9893
17779,9891
17827,9884
17831,9792
17834,9699
17878,9700
17906,9702
17911,9704
17911,9704
" /> 
<polyline style="fill-rule:evenodd;"
points="17165,9622
17158,9637
17153,9640
17142,9630
17141,9622
17147,9606
17153,9604
17163,9613
17165,9622
17165,9622
" /> 
<polyline style="fill-rule:evenodd;"
points="17857,9622
17850,9637
17845,9640
17834,9630
17833,9622
17839,9606
17845,9604
17855,9613
17857,9622
17857,9622
" /> 
</g>
<g style="fill:#808000; fill-opacity:1.0; 
stroke:#808000; stroke-width:39.3701; stroke-opacity:1; 
stroke-linecap:round; stroke-linejoin:round;">
<circle cx="28039" cy="10021" r="275.815" /> 
<circle cx="28039" cy="11021" r="275.815" /> 
<circle cx="28039" cy="11821" r="275.815" /> 
<circle cx="28039" cy="12821" r="275.815" /> 
<circle cx="29089" cy="8821" r="570.815" /> 
<circle cx="29089" cy="14221" r="570.815" /> 
</g>
<g style="fill:#A00000; fill-opacity:1.0; 
stroke:#A00000; stroke-width:39.3701; stroke-opacity:1; 
stroke-linecap:round; stroke-linejoin:round;">
<polyline style="fill-rule:evenodd;"
points="19850,13465
19713,13465
19713,12718
19850,12718
19850,13465
" /> 
<polyline style="fill-rule:evenodd;"
points="19535,13465
19398,13465
19398,12718
19535,12718
19535,13465
" /> 
<polyline style="fill-rule:evenodd;"
points="19220,13465
19083,13465
19083,12718
19220,12718
19220,13465
" /> 
<polyline style="fill-rule:evenodd;"
points="18905,13465
18768,13465
18768,12718
18905,12718
18905,13465
" /> 
<polyline style="fill-rule:evenodd;"
points="18590,13465
18453,13465
18453,12718
18590,12718
18590,13465
" /> 
<polyline style="fill-rule:evenodd;"
points="18275,13465
18138,13465
18138,12718
18275,12718
18275,13465
" /> 
<polyline style="fill-rule:evenodd;"
points="17960,13465
17823,13465
17823,12718
17960,12718
17960,13465
" /> 
<polyline style="fill-rule:evenodd;"
points="17645,13465
17508,13465
17508,12718
17645,12718
17645,13465
" /> 
<polyline style="fill-rule:evenodd;"
points="17647,9699
17510,9699
17510,8952
17647,8952
17647,9699
" /> 
<polyline style="fill-rule:evenodd;"
points="19857,9699
19720,9699
19720,8952
19857,8952
19857,9699
" /> 
<polyline style="fill-rule:evenodd;"
points="19537,9699
19400,9699
19400,8952
19537,8952
19537,9699
" /> 
<polyline style="fill-rule:evenodd;"
points="19217,9699
19080,9699
19080,8952
19217,8952
19217,9699
" /> 
<polyline style="fill-rule:evenodd;"
points="18907,9699
18770,9699
18770,8952
18907,8952
18907,9699
" /> 
<polyline style="fill-rule:evenodd;"
points="18587,9699
18450,9699
18450,8952
18587,8952
18587,9699
" /> 
<polyline style="fill-rule:evenodd;"
points="18277,9699
18140,9699
18140,8952
18277,8952
18277,9699
" /> 
<polyline style="fill-rule:evenodd;"
points="17957,9699
17820,9699
17820,8952
17957,8952
17957,9699
" /> 
<polyline style="fill-rule:evenodd;"
points="17162,12376
16415,12376
16415,12239
17162,12239
17162,12376
" /> 
<polyline style="fill-rule:evenodd;"
points="17162,12062
16415,12062
16415,11925
17162,11925
17162,12062
" /> 
<polyline style="fill-rule:evenodd;"
points="17162,11746
16415,11746
16415,11609
17162,11609
17162,11746
" /> 
<polyline style="fill-rule:evenodd;"
points="17162,11432
16415,11432
16415,11295
17162,11295
17162,11432
" /> 
<polyline style="fill-rule:evenodd;"
points="17162,11116
16415,11116
16415,10979
17162,10979
17162,11116
" /> 
<polyline style="fill-rule:evenodd;"
points="17162,10802
16415,10802
16415,10665
17162,10665
17162,10802
" /> 
<polyline style="fill-rule:evenodd;"
points="17162,10486
16415,10486
16415,10349
17162,10349
17162,10486
" /> 
<polyline style="fill-rule:evenodd;"
points="17162,10172
16415,10172
16415,10035
17162,10035
17162,10172
" /> 
<polyline style="fill-rule:evenodd;"
points="20942,12374
20195,12374
20195,12237
20942,12237
20942,12374
" /> 
<polyline style="fill-rule:evenodd;"
points="20942,12064
20195,12064
20195,11927
20942,11927
20942,12064
" /> 
<polyline style="fill-rule:evenodd;"
points="20942,11744
20195,11744
20195,11607
20942,11607
20942,11744
" /> 
<polyline style="fill-rule:evenodd;"
points="20942,11434
20195,11434
20195,11297
20942,11297
20942,11434
" /> 
<polyline style="fill-rule:evenodd;"
points="20942,11124
20195,11124
20195,10987
20942,10987
20942,11124
" /> 
<polyline style="fill-rule:evenodd;"
points="20942,10804
20195,10804
20195,10667
20942,10667
20942,10804
" /> 
<polyline style="fill-rule:evenodd;"
points="20942,10484
20195,10484
20195,10347
20942,10347
20942,10484
" /> 
<polyline style="fill-rule:evenodd;"
points="20942,10164
20195,10164
20195,10027
20942,10027
20942,10164
" /> 
</g>
<g style="fill:#808000; fill-opacity:1.0; 
stroke:#808000; stroke-width:39.3701; stroke-opacity:1; 
stroke-linecap:round; stroke-linejoin:round;">
<polyline style="fill-rule:evenodd;"
points="23394,10576
22883,10576
22883,10065
23394,10065
23394,10576
" /> 
<circle cx="23139" cy="9321" r="255.315" /> 
<polyline style="fill-rule:evenodd;"
points="23344,13126
22833,13126
22833,12615
23344,12615
23344,13126
" /> 
<circle cx="23089" cy="11871" r="255.315" /> 
<polyline style="fill-rule:evenodd;"
points="25919,10601
25408,10601
25408,10090
25919,10090
25919,10601
" /> 
<circle cx="25664" cy="9346" r="255.315" /> 
<polyline style="fill-rule:evenodd;"
points="8483,9390
9044,9390
9044,9951
8483,9951
8483,9390
" /> 
<circle cx="9764" cy="9671" r="280.315" /> 
<circle cx="8764" cy="10671" r="280.315" /> 
<circle cx="9764" cy="10671" r="280.315" /> 
<circle cx="8764" cy="11671" r="280.315" /> 
<circle cx="9764" cy="11671" r="280.315" /> 
<circle cx="8764" cy="12671" r="280.315" /> 
<circle cx="9764" cy="12671" r="280.315" /> 
<circle cx="8764" cy="13671" r="280.315" /> 
<circle cx="9764" cy="13671" r="280.315" /> 
</g>
<g style="fill:#A00000; fill-opacity:1.0; 
stroke:#A00000; stroke-width:39.3701; stroke-opacity:1; 
stroke-linecap:round; stroke-linejoin:round;">
<polyline style="fill-rule:evenodd;"
points="20533,8565
20944,8565
20944,8776
20533,8776
20533,8565
" /> 
<polyline style="fill-rule:evenodd;"
points="20533,9165
20944,9165
20944,9376
20533,9376
20533,9165
" /> 
<polyline style="fill-rule:evenodd;"
points="26858,8340
27269,8340
27269,8551
26858,8551
26858,8340
" /> 
<polyline style="fill-rule:evenodd;"
points="26858,8940
27269,8940
27269,9151
26858,9151
26858,8940
" /> 
<polyline style="fill-rule:evenodd;"
points="21219,13701
20808,13701
20808,13490
21219,13490
21219,13701
" /> 
<polyline style="fill-rule:evenodd;"
points="21219,13101
20808,13101
20808,12890
21219,12890
21219,13101
" /> 
<polyline style="fill-rule:evenodd;"
points="14294,12051
13883,12051
13883,11840
14294,11840
14294,12051
" /> 
<polyline style="fill-rule:evenodd;"
points="14294,11451
13883,11451
13883,11240
14294,11240
14294,11451
" /> 
<polyline style="fill-rule:evenodd;"
points="26708,12290
27119,12290
27119,12501
26708,12501
26708,12290
" /> 
<polyline style="fill-rule:evenodd;"
points="26708,12890
27119,12890
27119,13101
26708,13101
26708,12890
" /> 
<polyline style="fill-rule:evenodd;"
points="25383,13401
25383,12990
25594,12990
25594,13401
25383,13401
" /> 
<polyline style="fill-rule:evenodd;"
points="25983,13401
25983,12990
26194,12990
26194,13401
25983,13401
" /> 
<polyline style="fill-rule:evenodd;"
points="24008,14251
24008,13840
24219,13840
24219,14251
24008,14251
" /> 
<polyline style="fill-rule:evenodd;"
points="24608,14251
24608,13840
24819,13840
24819,14251
24608,14251
" /> 
<polyline style="fill-rule:evenodd;"
points="16019,9326
15608,9326
15608,9115
16019,9115
16019,9326
" /> 
<polyline style="fill-rule:evenodd;"
points="16019,8726
15608,8726
15608,8515
16019,8515
16019,8726
" /> 
<polyline style="fill-rule:evenodd;"
points="15969,14051
15558,14051
15558,13840
15969,13840
15969,14051
" /> 
<polyline style="fill-rule:evenodd;"
points="15969,13451
15558,13451
15558,13240
15969,13240
15969,13451
" /> 
<polyline style="fill-rule:evenodd;"
points="25408,8476
25408,8065
25619,8065
25619,8476
25408,8476
" /> 
<polyline style="fill-rule:evenodd;"
points="26008,8476
26008,8065
26219,8065
26219,8476
26008,8476
" /> 
<polyline style="fill-rule:evenodd;"
points="27119,11601
26708,11601
26708,11390
27119,11390
27119,11601
" /> 
<polyline style="fill-rule:evenodd;"
points="27119,11001
26708,11001
26708,10790
27119,10790
27119,11001
" /> 
<polyline style="fill-rule:evenodd;"
points="14558,13240
14969,13240
14969,13451
14558,13451
14558,13240
" /> 
<polyline style="fill-rule:evenodd;"
points="14558,13840
14969,13840
14969,14051
14558,14051
14558,13840
" /> 
<polyline style="fill-rule:evenodd;"
points="25408,12501
25408,12090
25619,12090
25619,12501
25408,12501
" /> 
<polyline style="fill-rule:evenodd;"
points="26008,12501
26008,12090
26219,12090
26219,12501
26008,12501
" /> 
<polyline style="fill-rule:evenodd;"
points="26169,13840
26169,14251
25958,14251
25958,13840
26169,13840
" /> 
<polyline style="fill-rule:evenodd;"
points="25569,13840
25569,14251
25358,14251
25358,13840
25569,13840
" /> 
<polyline style="fill-rule:evenodd;"
points="21383,8590
21794,8590
21794,8801
21383,8801
21383,8590
" /> 
<polyline style="fill-rule:evenodd;"
points="21383,9190
21794,9190
21794,9401
21383,9401
21383,9190
" /> 
<polyline style="fill-rule:evenodd;"
points="12766,12427
11861,12427
11861,11836
12766,11836
12766,12427
" /> 
<polyline style="fill-rule:evenodd;"
points="12766,10655
11861,10655
11861,10064
12766,10064
12766,10655
" /> 
</g> 
</svg>
