<?xml version="1.0" standalone="no"?>
 <!DOCTYPE svg PUBLIC "-//W3C//DTD SVG 1.1//EN" 
 "http://www.w3.org/Graphics/SVG/1.1/DTD/svg11.dtd"> 
<svg xmlns="http://www.w3.org/2000/svg" version="1.1" 
    width="8.44804cm" height="3.87858cm" viewBox="0 0 33260 15270 ">
<title>SVG Picture created as OpenUsbAsp-F_SilkS.svg date 2014/03/14 15:16:47 </title>
  <desc>Picture generated by PCBNEW </desc>
<g style="fill:#000000; fill-opacity:1;stroke:#000000; stroke-opacity:1;
stroke-linecap:round; stroke-linejoin:round; "
 transform="translate(0 0) scale(1 1)">
</g>
<g style="fill:#FFFF00; fill-opacity:0.0; 
stroke:#FFFF00; stroke-width:150; stroke-opacity:1; 
stroke-linecap:round; stroke-linejoin:round;">
<path d="M7879 15176
L7879 7296
" />
<path d="M29819 15176
L7879 15176
" />
<path d="M29819 7296
L29819 15176
" />
<path d="M7939 7296
L29819 7296
" />
</g>
<g style="fill:#00A0A0; fill-opacity:0.0; 
stroke:#00A0A0; stroke-width:120; stroke-opacity:1; 
stroke-linecap:round; stroke-linejoin:round;">
<path d="M30839 12063
L30839 12492
L30810 12578
L30753 12635
L30667 12663
L30610 12663
" />
<path d="M31439 12663
L31096 12663
" />
<path d="M31267 12663
L31267 12063
L31210 12149
L31153 12206
L31096 12235
" />
<path d="M29767 10063
L29767 10549
L29796 10606
L29824 10635
L29881 10663
L29996 10663
L30053 10635
L30081 10606
L30110 10549
L30110 10063
" />
<path d="M30367 10635
L30453 10663
L30596 10663
L30653 10635
L30681 10606
L30710 10549
L30710 10492
L30681 10435
L30653 10406
L30596 10378
L30481 10349
L30424 10321
L30396 10292
L30367 10235
L30367 10178
L30396 10121
L30424 10092
L30481 10063
L30624 10063
L30710 10092
" />
<path d="M31167 10349
L31253 10378
L31281 10406
L31310 10463
L31310 10549
L31281 10606
L31253 10635
L31196 10663
L30967 10663
L30967 10063
L31167 10063
L31224 10092
L31253 10121
L31281 10178
L31281 10235
L31253 10292
L31224 10321
L31167 10349
L30967 10349
" />
<path d="M31424 10721
L31881 10721
" />
<path d="M31996 10121
L32024 10092
L32081 10063
L32224 10063
L32281 10092
L32310 10121
L32339 10178
L32339 10235
L32310 10321
L31967 10663
L32339 10663
" />
</g>
<g style="fill:#00A0A0; fill-opacity:0.0; 
stroke:#00A0A0; stroke-width:80; stroke-opacity:1; 
stroke-linecap:round; stroke-linejoin:round;">
<path d="M18391 11586
L17891 11586
" />
<path d="M18343 11167
L18367 11186
L18391 11243
L18391 11281
L18367 11338
L18319 11376
L18272 11395
L18177 11415
L18105 11415
L18010 11395
L17962 11376
L17915 11338
L17891 11281
L17891 11243
L17915 11186
L17939 11167
" />
<path d="M18391 10786
L18391 11015
" />
<path d="M18391 10900
L17891 10900
L17962 10938
L18010 10976
L18034 11015
" />
</g>
<g style="fill:#00A0A0; fill-opacity:0.0; 
stroke:#00A0A0; stroke-width:100; stroke-opacity:1; 
stroke-linecap:round; stroke-linejoin:round;">
<path d="M22821 8489
L23250 8489
L23336 8508
L23393 8546
L23421 8603
L23421 8641
" />
<path d="M23421 8298
L22821 8298
L22821 8146
L22850 8108
L22879 8089
L22936 8070
L23021 8070
L23079 8089
L23107 8108
L23136 8146
L23136 8298
" />
<path d="M22821 7936
L22821 7689
L23050 7822
L23050 7765
L23079 7727
L23107 7708
L23164 7689
L23307 7689
L23364 7708
L23393 7727
L23421 7765
L23421 7879
L23393 7917
L23364 7936
" />
<path d="M21721 12529
L22150 12529
L22236 12548
L22293 12586
L22321 12643
L22321 12681
" />
<path d="M22321 12338
L21721 12338
L21721 12186
L21750 12148
L21779 12129
L21836 12110
L21921 12110
L21979 12129
L22007 12148
L22036 12186
L22036 12338
" />
<path d="M21779 11957
L21750 11938
L21721 11900
L21721 11805
L21750 11767
L21779 11748
L21836 11729
L21893 11729
L21979 11748
L22321 11976
L22321 11729
" />
<path d="M24306 10179
L24735 10179
L24821 10198
L24878 10236
L24906 10293
L24906 10331
" />
<path d="M24906 9988
L24306 9988
L24306 9836
L24335 9798
L24364 9779
L24421 9760
L24506 9760
L24564 9779
L24592 9798
L24621 9836
L24621 9988
" />
<path d="M24906 9379
L24906 9607
" />
<path d="M24906 9493
L24306 9493
L24392 9531
L24449 9569
L24478 9607
" />
</g>
<g style="fill:#00A0A0; fill-opacity:0.0; 
stroke:#00A0A0; stroke-width:80; stroke-opacity:1; 
stroke-linecap:round; stroke-linejoin:round;">
<path d="M10860 12246
L10460 12246
" />
<path d="M10822 11827
L10841 11846
L10860 11903
L10860 11941
L10841 11998
L10803 12036
L10765 12055
L10689 12075
L10632 12075
L10556 12055
L10518 12036
L10479 11998
L10460 11941
L10460 11903
L10479 11846
L10499 11827
" />
<path d="M10841 11675
L10860 11617
L10860 11522
L10841 11484
L10822 11465
L10784 11446
L10746 11446
L10708 11465
L10689 11484
L10670 11522
L10651 11598
L10632 11636
L10613 11655
L10575 11675
L10537 11675
L10499 11655
L10479 11636
L10460 11598
L10460 11503
L10479 11446
" />
<path d="M10860 11275
L10460 11275
L10460 11122
L10479 11084
L10499 11065
L10537 11046
L10594 11046
L10632 11065
L10651 11084
L10670 11122
L10670 11275
" />
</g>
<g style="fill:#00A0A0; fill-opacity:0.0; 
stroke:#00A0A0; stroke-width:45; stroke-opacity:1; 
stroke-linecap:round; stroke-linejoin:round;">
<path d="M20820 8226
L20830 8234
L20839 8260
L20839 8277
L20830 8303
L20811 8320
L20792 8328
L20754 8337
L20725 8337
L20687 8328
L20668 8320
L20649 8303
L20639 8277
L20639 8260
L20649 8234
L20659 8226
" />
<path d="M20839 8054
L20839 8157
" />
<path d="M20839 8106
L20639 8106
L20668 8123
L20687 8140
L20697 8157
" />
<path d="M20259 8517
L20259 8620
" />
<path d="M20259 8568
L20059 8568
L20088 8586
L20107 8603
L20117 8620
" />
<path d="M20059 8406
L20059 8388
L20069 8371
L20079 8363
L20098 8354
L20136 8346
L20183 8346
L20221 8354
L20240 8363
L20250 8371
L20259 8388
L20259 8406
L20250 8423
L20240 8431
L20221 8440
L20183 8448
L20136 8448
L20098 8440
L20079 8431
L20069 8423
L20059 8406
" />
<path d="M20059 8234
L20059 8217
L20069 8200
L20079 8191
L20098 8183
L20136 8174
L20183 8174
L20221 8183
L20240 8191
L20250 8200
L20259 8217
L20259 8234
L20250 8251
L20240 8260
L20221 8268
L20183 8277
L20136 8277
L20098 8268
L20079 8260
L20069 8251
L20059 8234
" />
<path d="M20126 8097
L20259 8097
" />
<path d="M20145 8097
L20136 8088
L20126 8071
L20126 8045
L20136 8028
L20155 8020
L20259 8020
" />
<path d="M26600 8806
L26610 8814
L26619 8840
L26619 8857
L26610 8883
L26591 8900
L26572 8908
L26534 8917
L26505 8917
L26467 8908
L26448 8900
L26429 8883
L26419 8857
L26419 8840
L26429 8814
L26439 8806
" />
<path d="M26439 8737
L26429 8728
L26419 8711
L26419 8668
L26429 8651
L26439 8643
L26458 8634
L26477 8634
L26505 8643
L26619 8746
L26619 8634
" />
<path d="M26946 8011
L27079 8011
" />
<path d="M26870 8054
L27013 8097
L27013 7986
" />
<path d="M27060 7917
L27070 7908
L27079 7917
L27070 7925
L27060 7917
L27079 7917
" />
<path d="M26879 7848
L26879 7728
L27079 7806
" />
<path d="M26946 7583
L27079 7583
" />
<path d="M26946 7660
L27051 7660
L27070 7651
L27079 7634
L27079 7608
L27070 7591
L27060 7583
" />
<path d="M20560 13346
L20570 13354
L20579 13380
L20579 13397
L20570 13423
L20551 13440
L20532 13448
L20494 13457
L20465 13457
L20427 13448
L20408 13440
L20389 13423
L20379 13397
L20379 13380
L20389 13354
L20399 13346
" />
<path d="M20379 13286
L20379 13174
L20456 13234
L20456 13208
L20465 13191
L20475 13183
L20494 13174
L20541 13174
L20560 13183
L20570 13191
L20579 13208
L20579 13260
L20570 13277
L20560 13286
" />
<path d="M21399 13586
L21389 13577
L21379 13560
L21379 13517
L21389 13500
L21399 13491
L21418 13483
L21437 13483
L21465 13491
L21579 13594
L21579 13483
" />
<path d="M21399 13414
L21389 13406
L21379 13388
L21379 13346
L21389 13328
L21399 13320
L21418 13311
L21437 13311
L21465 13320
L21579 13423
L21579 13311
" />
<path d="M21446 13234
L21646 13234
" />
<path d="M21456 13234
L21446 13217
L21446 13183
L21456 13165
L21465 13157
L21484 13148
L21541 13148
L21560 13157
L21570 13165
L21579 13183
L21579 13217
L21570 13234
" />
<path d="M21446 13097
L21446 13028
" />
<path d="M21579 13071
L21408 13071
L21389 13063
L21379 13046
L21379 13028
" />
<path d="M13580 11666
L13590 11674
L13599 11700
L13599 11717
L13590 11743
L13571 11760
L13552 11768
L13514 11777
L13485 11777
L13447 11768
L13428 11760
L13409 11743
L13399 11717
L13399 11700
L13409 11674
L13419 11666
" />
<path d="M13466 11511
L13599 11511
" />
<path d="M13390 11554
L13533 11597
L13533 11486
" />
<path d="M14539 11866
L14529 11857
L14519 11840
L14519 11797
L14529 11780
L14539 11771
L14558 11763
L14577 11763
L14605 11771
L14719 11874
L14719 11763
" />
<path d="M14539 11694
L14529 11686
L14519 11668
L14519 11626
L14529 11608
L14539 11600
L14558 11591
L14577 11591
L14605 11600
L14719 11703
L14719 11591
" />
<path d="M14586 11514
L14786 11514
" />
<path d="M14596 11514
L14586 11497
L14586 11463
L14596 11445
L14605 11437
L14624 11428
L14681 11428
L14700 11437
L14710 11445
L14719 11463
L14719 11497
L14710 11514
" />
<path d="M14586 11377
L14586 11308
" />
<path d="M14719 11351
L14548 11351
L14529 11343
L14519 11326
L14519 11308
" />
<path d="M26519 12848
L26319 12848
L26319 12806
L26329 12780
L26348 12763
L26367 12754
L26405 12746
L26434 12746
L26472 12754
L26491 12763
L26510 12780
L26519 12806
L26519 12848
" />
<path d="M26519 12574
L26519 12677
" />
<path d="M26519 12626
L26319 12626
L26348 12643
L26367 12660
L26377 12677
" />
<path d="M27299 12918
L27299 12807
L27376 12867
L27376 12841
L27385 12824
L27395 12816
L27414 12807
L27461 12807
L27480 12816
L27490 12824
L27499 12841
L27499 12893
L27490 12910
L27480 12918
" />
<path d="M27299 12756
L27499 12696
L27299 12636
" />
<path d="M27299 12498
L27299 12533
L27309 12550
L27319 12558
L27347 12576
L27385 12584
L27461 12584
L27480 12576
L27490 12567
L27499 12550
L27499 12516
L27490 12498
L27480 12490
L27461 12481
L27414 12481
L27395 12490
L27385 12498
L27376 12516
L27376 12550
L27385 12567
L27395 12576
L27414 12584
" />
<path d="M24886 13316
L24886 13116
L24929 13116
L24954 13126
L24971 13145
L24980 13164
L24989 13202
L24989 13231
L24980 13269
L24971 13288
L24954 13307
L24929 13316
L24886 13316
" />
<path d="M25057 13136
L25066 13126
L25083 13116
L25126 13116
L25143 13126
L25151 13136
L25160 13155
L25160 13174
L25151 13202
L25049 13316
L25160 13316
" />
<path d="M26416 13456
L26527 13456
L26467 13533
L26493 13533
L26510 13542
L26519 13552
L26527 13571
L26527 13618
L26519 13637
L26510 13647
L26493 13656
L26441 13656
L26424 13647
L26416 13637
" />
<path d="M26579 13456
L26639 13656
L26699 13456
" />
<path d="M26836 13456
L26801 13456
L26784 13466
L26776 13476
L26759 13504
L26750 13542
L26750 13618
L26759 13637
L26767 13647
L26784 13656
L26819 13656
L26836 13647
L26844 13637
L26853 13618
L26853 13571
L26844 13552
L26836 13542
L26819 13533
L26784 13533
L26767 13542
L26759 13552
L26750 13571
" />
<path d="M24266 13636
L24266 13436
L24309 13436
L24334 13446
L24351 13465
L24360 13484
L24369 13522
L24369 13551
L24360 13589
L24351 13608
L24334 13627
L24309 13636
L24266 13636
" />
<path d="M24429 13436
L24540 13436
L24480 13513
L24506 13513
L24523 13522
L24531 13532
L24540 13551
L24540 13598
L24531 13617
L24523 13627
L24506 13636
L24454 13636
L24437 13627
L24429 13617
" />
<path d="M23986 14656
L23900 14656
L23900 14456
" />
<path d="M24046 14552
L24106 14552
" />
<path d="M24131 14656
L24046 14656
L24046 14456
L24131 14456
" />
<path d="M24209 14656
L24209 14456
L24251 14456
L24277 14466
L24294 14485
L24303 14504
L24311 14542
L24311 14571
L24303 14609
L24294 14628
L24277 14647
L24251 14656
L24209 14656
" />
<path d="M24346 14676
L24483 14676
" />
<path d="M24629 14656
L24569 14561
" />
<path d="M24526 14656
L24526 14456
L24594 14456
L24611 14466
L24620 14476
L24629 14495
L24629 14523
L24620 14542
L24611 14552
L24594 14561
L24526 14561
" />
<path d="M24774 14647
L24757 14656
L24723 14656
L24706 14647
L24697 14628
L24697 14552
L24706 14533
L24723 14523
L24757 14523
L24774 14533
L24783 14552
L24783 14571
L24697 14590
" />
<path d="M24937 14656
L24937 14456
" />
<path d="M24937 14647
L24920 14656
L24886 14656
L24869 14647
L24860 14637
L24851 14618
L24851 14561
L24860 14542
L24869 14533
L24886 14523
L24920 14523
L24937 14533
" />
<path d="M15339 9088
L15139 9088
L15139 9046
L15149 9020
L15168 9003
L15187 8994
L15225 8986
L15254 8986
L15292 8994
L15311 9003
L15330 9020
L15339 9046
L15339 9088
" />
<path d="M15206 8831
L15339 8831
" />
<path d="M15130 8874
L15273 8917
L15273 8806
" />
<path d="M16439 9481
L16439 9567
L16239 9567
" />
<path d="M16335 9421
L16335 9361
" />
<path d="M16439 9336
L16439 9421
L16239 9421
L16239 9336
" />
<path d="M16439 9258
L16239 9258
L16239 9216
L16249 9190
L16268 9173
L16287 9164
L16325 9156
L16354 9156
L16392 9164
L16411 9173
L16430 9190
L16439 9216
L16439 9258
" />
<path d="M16459 9121
L16459 8984
" />
<path d="M16249 8847
L16239 8864
L16239 8890
L16249 8916
L16268 8933
L16287 8941
L16325 8950
L16354 8950
L16392 8941
L16411 8933
L16430 8916
L16439 8890
L16439 8873
L16430 8847
L16420 8838
L16354 8838
L16354 8873
" />
<path d="M16439 8761
L16306 8761
" />
<path d="M16344 8761
L16325 8753
L16316 8744
L16306 8727
L16306 8710
" />
<path d="M16430 8581
L16439 8598
L16439 8633
L16430 8650
L16411 8658
L16335 8658
L16316 8650
L16306 8633
L16306 8598
L16316 8581
L16335 8573
L16354 8573
L16373 8658
" />
<path d="M16430 8427
L16439 8444
L16439 8478
L16430 8496
L16411 8504
L16335 8504
L16316 8496
L16306 8478
L16306 8444
L16316 8427
L16335 8418
L16354 8418
L16373 8504
" />
<path d="M16306 8341
L16439 8341
" />
<path d="M16325 8341
L16316 8333
L16306 8316
L16306 8290
L16316 8273
L16335 8264
L16439 8264
" />
<path d="M16452 13446
L16319 13506
" />
<path d="M16452 13548
L16172 13548
L16172 13480
L16185 13463
L16199 13454
L16225 13446
L16265 13446
L16292 13454
L16305 13463
L16319 13480
L16319 13548
" />
<path d="M16452 13274
L16452 13377
" />
<path d="M16452 13326
L16172 13326
L16212 13343
L16239 13360
L16252 13377
" />
<path d="M15932 14560
L15932 14663
" />
<path d="M15932 14611
L15652 14611
L15692 14628
L15719 14646
L15732 14663
" />
<path d="M15652 14448
L15652 14431
L15665 14414
L15679 14406
L15705 14397
L15759 14388
L15825 14388
L15879 14397
L15905 14406
L15919 14414
L15932 14431
L15932 14448
L15919 14466
L15905 14474
L15879 14483
L15825 14491
L15759 14491
L15705 14483
L15679 14474
L15665 14466
L15652 14448
" />
<path d="M15932 14311
L15652 14311
" />
<path d="M15932 14208
L15772 14286
" />
<path d="M15652 14208
L15812 14311
" />
<path d="M25784 8384
L25724 8251
" />
<path d="M25681 8384
L25681 8104
L25749 8104
L25766 8117
L25775 8131
L25784 8157
L25784 8197
L25775 8224
L25766 8237
L25749 8251
L25681 8251
" />
<path d="M25852 8131
L25861 8117
L25878 8104
L25921 8104
L25938 8117
L25946 8131
L25955 8157
L25955 8184
L25946 8224
L25844 8384
L25955 8384
" />
<path d="M26472 11246
L26339 11306
" />
<path d="M26472 11348
L26192 11348
L26192 11280
L26205 11263
L26219 11254
L26245 11246
L26285 11246
L26312 11254
L26325 11263
L26339 11280
L26339 11348
" />
<path d="M26192 11186
L26192 11074
L26299 11134
L26299 11108
L26312 11091
L26325 11083
L26352 11074
L26419 11074
L26445 11083
L26459 11091
L26472 11108
L26472 11160
L26459 11177
L26445 11186
" />
<path d="M27252 11287
L27252 11321
L27265 11338
L27279 11347
L27319 11364
L27372 11373
L27479 11373
L27505 11364
L27519 11356
L27532 11338
L27532 11304
L27519 11287
L27505 11278
L27479 11270
L27412 11270
L27385 11278
L27372 11287
L27359 11304
L27359 11338
L27372 11356
L27385 11364
L27412 11373
" />
<path d="M27372 11167
L27359 11184
L27345 11193
L27319 11201
L27305 11201
L27279 11193
L27265 11184
L27252 11167
L27252 11133
L27265 11116
L27279 11107
L27305 11098
L27319 11098
L27345 11107
L27359 11116
L27372 11133
L27372 11167
L27385 11184
L27399 11193
L27425 11201
L27479 11201
L27505 11193
L27519 11184
L27532 11167
L27532 11133
L27519 11116
L27505 11107
L27479 11098
L27425 11098
L27399 11107
L27385 11116
L27372 11133
" />
<path d="M14852 12986
L14719 13046
" />
<path d="M14852 13088
L14572 13088
L14572 13020
L14585 13003
L14599 12994
L14625 12986
L14665 12986
L14692 12994
L14705 13003
L14719 13020
L14719 13088
" />
<path d="M14665 12831
L14852 12831
" />
<path d="M14559 12874
L14759 12917
L14759 12806
" />
<path d="M14872 14474
L14872 14577
" />
<path d="M14872 14526
L14592 14526
L14632 14543
L14659 14560
L14672 14577
" />
<path d="M14872 14397
L14592 14397
" />
<path d="M14872 14294
L14712 14371
" />
<path d="M14592 14294
L14752 14397
" />
<path d="M25784 12409
L25724 12276
" />
<path d="M25681 12409
L25681 12129
L25749 12129
L25766 12142
L25775 12156
L25784 12182
L25784 12222
L25775 12249
L25766 12262
L25749 12276
L25681 12276
" />
<path d="M25946 12129
L25861 12129
L25852 12262
L25861 12249
L25878 12236
L25921 12236
L25938 12249
L25946 12262
L25955 12289
L25955 12356
L25946 12382
L25938 12396
L25921 12409
L25878 12409
L25861 12396
L25852 12382
" />
<path d="M26509 14189
L26449 14056
" />
<path d="M26406 14189
L26406 13909
L26474 13909
L26491 13922
L26500 13936
L26509 13962
L26509 14002
L26500 14029
L26491 14042
L26474 14056
L26406 14056
" />
<path d="M26663 13909
L26629 13909
L26611 13922
L26603 13936
L26586 13976
L26577 14029
L26577 14136
L26586 14162
L26594 14176
L26611 14189
L26646 14189
L26663 14176
L26671 14162
L26680 14136
L26680 14069
L26671 14042
L26663 14029
L26646 14016
L26611 14016
L26594 14029
L26586 14042
L26577 14069
" />
<path d="M25680 14769
L25577 14769
" />
<path d="M25629 14769
L25629 14489
L25611 14529
L25594 14556
L25577 14569
" />
<path d="M25757 14769
L25757 14489
" />
<path d="M25860 14769
L25783 14609
" />
<path d="M25860 14489
L25757 14649
" />
<path d="M21652 8186
L21519 8246
" />
<path d="M21652 8288
L21372 8288
L21372 8220
L21385 8203
L21399 8194
L21425 8186
L21465 8186
L21492 8194
L21505 8203
L21519 8220
L21519 8288
" />
<path d="M21372 8126
L21372 8006
L21652 8083
" />
<path d="M22312 8814
L22312 8917
" />
<path d="M22312 8866
L22032 8866
L22072 8883
L22099 8900
L22112 8917
" />
<path d="M22312 8737
L22032 8737
" />
<path d="M22312 8634
L22152 8711
" />
<path d="M22032 8634
L22192 8737
" />
</g>
<g style="fill:#00A0A0; fill-opacity:0.0; 
stroke:#00A0A0; stroke-width:120; stroke-opacity:1; 
stroke-linecap:round; stroke-linejoin:round;">
<path d="M11141 13858
L10799 13858
" />
<path d="M10970 13858
L10970 13258
L10913 13344
L10856 13401
L10799 13430
" />
<path d="M11370 13316
L11399 13287
L11456 13258
L11599 13258
L11656 13287
L11684 13316
L11713 13373
L11713 13430
L11684 13516
L11341 13858
L11713 13858
" />
<path d="M11970 13858
L11970 13258
L12170 13687
L12370 13258
L12370 13858
" />
<path d="M12656 13858
L12656 13258
" />
<path d="M12656 13544
L12999 13544
" />
<path d="M12999 13858
L12999 13258
" />
<path d="M13227 13258
L13627 13258
L13227 13858
L13627 13858
" />
</g>
<g style="fill:#00A0A0; fill-opacity:0.0; 
stroke:#00A0A0; stroke-width:50; stroke-opacity:1; 
stroke-linecap:round; stroke-linejoin:round;">
<path d="M27589 8471
L33139 8471
" />
<path d="M33139 14371
L27589 14371
" />
<path d="M27589 8471
L27589 14371
" />
<path d="M33139 8471
L33139 14371
" />
</g>
<g style="fill:#00A0A0; fill-opacity:0.0; 
stroke:#00A0A0; stroke-width:60; stroke-opacity:1; 
stroke-linecap:round; stroke-linejoin:round;">
<path d="M19779 9216
L19779 9666
" />
<path d="M17599 9216
L17599 9656
" />
<path d="M19779 9216
L17599 9216
" />
<path d="M20249 10096
L20679 10096
" />
<path d="M20259 12306
L20679 12306
" />
<path d="M20679 12316
L20689 10096
" />
<path d="M16709 12296
L16699 10126
" />
<path d="M17399 12726
L20229 12726
" />
<path d="M16709 10116
L17119 10116
" />
<path d="M17159 12476
L17159 9696
" />
<path d="M20239 9676
L17199 9676
" />
<path d="M20239 12726
L20239 9726
" />
<path d="M17569 13176
L19789 13176
" />
<path d="M19789 13176
L19789 12726
" />
<path d="M17389 12722
L17159 12492
" />
<path d="M17569 13174
L17569 12722
" />
<path d="M17159 12296
L16707 12296
" />
<circle cx="17563" cy="12314" r="188.68" /> 
</g>
<g style="fill:#00A0A0; fill-opacity:0.0; 
stroke:#00A0A0; stroke-width:120; stroke-opacity:1; 
stroke-linecap:round; stroke-linejoin:round;">
<path d="M23639 10821
L22639 10821
" />
<path d="M22639 10821
L22639 8821
" />
<path d="M22639 8821
L23639 8821
" />
<path d="M23639 8821
L23639 10821
" />
<path d="M23589 13371
L22589 13371
" />
<path d="M22589 13371
L22589 11371
" />
<path d="M22589 11371
L23589 11371
" />
<path d="M23589 11371
L23589 13371
" />
<path d="M26164 10846
L25164 10846
" />
<path d="M25164 10846
L25164 8846
" />
<path d="M25164 8846
L26164 8846
" />
<path d="M26164 8846
L26164 10846
" />
<path d="M10264 9171
L10264 14171
" />
<path d="M10264 14171
L8264 14171
" />
<path d="M8264 14171
L8264 9171
" />
<path d="M8264 9171
L10264 9171
" />
</g>
<g style="fill:#00A0A0; fill-opacity:0.0; 
stroke:#00A0A0; stroke-width:50; stroke-opacity:1; 
stroke-linecap:round; stroke-linejoin:round;">
<path d="M20989 8521
L20989 9421
" />
<path d="M20989 9421
L20489 9421
" />
<path d="M20489 9421
L20489 8521
" />
<path d="M20489 8521
L20989 8521
" />
<path d="M27314 8296
L27314 9196
" />
<path d="M27314 9196
L26814 9196
" />
<path d="M26814 9196
L26814 8296
" />
<path d="M26814 8296
L27314 8296
" />
<path d="M20764 13746
L20764 12846
" />
<path d="M20764 12846
L21264 12846
" />
<path d="M21264 12846
L21264 13746
" />
<path d="M21264 13746
L20764 13746
" />
<path d="M13839 12096
L13839 11196
" />
<path d="M13839 11196
L14339 11196
" />
<path d="M14339 11196
L14339 12096
" />
<path d="M14339 12096
L13839 12096
" />
<path d="M27164 12246
L27164 13146
" />
<path d="M27164 13146
L26664 13146
" />
<path d="M26664 13146
L26664 12246
" />
<path d="M26664 12246
L27164 12246
" />
<path d="M25339 12946
L26239 12946
" />
<path d="M26239 12946
L26239 13446
" />
<path d="M26239 13446
L25339 13446
" />
<path d="M25339 13446
L25339 12946
" />
<path d="M23964 13796
L24864 13796
" />
<path d="M24864 13796
L24864 14296
" />
<path d="M24864 14296
L23964 14296
" />
<path d="M23964 14296
L23964 13796
" />
<path d="M15564 9371
L15564 8471
" />
<path d="M15564 8471
L16064 8471
" />
<path d="M16064 8471
L16064 9371
" />
<path d="M16064 9371
L15564 9371
" />
<path d="M15514 14096
L15514 13196
" />
<path d="M15514 13196
L16014 13196
" />
<path d="M16014 13196
L16014 14096
" />
<path d="M16014 14096
L15514 14096
" />
<path d="M25364 8021
L26264 8021
" />
<path d="M26264 8021
L26264 8521
" />
<path d="M26264 8521
L25364 8521
" />
<path d="M25364 8521
L25364 8021
" />
<path d="M26664 11646
L26664 10746
" />
<path d="M26664 10746
L27164 10746
" />
<path d="M27164 10746
L27164 11646
" />
<path d="M27164 11646
L26664 11646
" />
<path d="M15014 13196
L15014 14096
" />
<path d="M15014 14096
L14514 14096
" />
<path d="M14514 14096
L14514 13196
" />
<path d="M14514 13196
L15014 13196
" />
<path d="M25364 12046
L26264 12046
" />
<path d="M26264 12046
L26264 12546
" />
<path d="M26264 12546
L25364 12546
" />
<path d="M25364 12546
L25364 12046
" />
<path d="M26214 14296
L25314 14296
" />
<path d="M25314 14296
L25314 13796
" />
<path d="M25314 13796
L26214 13796
" />
<path d="M26214 13796
L26214 14296
" />
<path d="M21839 8546
L21839 9446
" />
<path d="M21839 9446
L21339 9446
" />
<path d="M21339 9446
L21339 8546
" />
<path d="M21339 8546
L21839 8546
" />
</g>
<g style="fill:#00A0A0; fill-opacity:0.0; 
stroke:#00A0A0; stroke-width:150; stroke-opacity:1; 
stroke-linecap:round; stroke-linejoin:round;">
<path d="M13042 10026
L13042 12466
" />
<path d="M11586 12466
L11586 10026
" />
</g>
<g style="fill:#00A0A0; fill-opacity:1.0; 
stroke:#00A0A0; stroke-width:1; stroke-opacity:1; 
stroke-linecap:round; stroke-linejoin:round;">
<polyline style="fill-rule:evenodd;"
points="12444,9014
12296,9014
12296,8876
12296,8689
12296,8502
12296,8472
12296,8114
12296,7755
11942,7755
11587,7755
11587,7726
11587,7708
11580,7699
11563,7696
11538,7696
11489,7696
11489,7888
11489,8080
11538,8080
11587,8080
11587,7966
11587,7853
11890,7856
12193,7858
12195,8166
12198,8472
12247,8472
12296,8472
12296,8502
11942,8502
11587,8502
11587,8305
11587,8109
11538,8109
11489,8109
11489,8492
11489,8876
11893,8876
12296,8876
12296,9014
11450,9014
11450,7706
11047,7706
10643,7706
10643,8026
10643,8344
10995,8347
11347,8349
11347,8428
11347,8507
10995,8509
10643,8512
10643,8699
10643,8886
11046,8886
11450,8886
11447,8563
11445,8242
11093,8240
10741,8237
10741,8158
10741,8080
11093,8077
11445,8075
11447,7890
11450,7706
11450,9014
10604,9014
10604,8070
10601,7885
10598,7701
10198,7698
9797,7696
9797,8089
9797,8482
9846,8482
9896,8482
9896,8276
9896,8070
10250,8070
10604,8070
10604,9014
10603,9014
10603,8886
10603,8832
10603,8777
10250,8777
9896,8777
9896,8645
9896,8512
9846,8512
9797,8512
9797,8699
9797,8886
10201,8886
10603,8886
10603,9014
10279,9014
9751,9014
9751,8886
9744,8775
9743,8743
9742,8693
9741,8629
9740,8552
9739,8466
9739,8373
9738,8275
9738,8181
9738,7696
8995,7696
8252,7696
8252,8290
8252,8886
9002,8886
9751,8886
9751,9014
8114,9014
8114,8281
8114,7548
10279,7548
12444,7548
12444,8281
12444,9014
12444,9014
" /> 
<polyline style="fill-rule:evenodd;"
points="9561,7893
9561,8181
9561,8261
9560,8340
9559,8415
9558,8482
9556,8538
9555,8578
9555,8578
9548,8689
9536,8689
9536,8246
9521,8227
9513,8223
9503,8216
9499,8202
9499,8175
9500,8160
9501,8126
9498,8105
9489,8092
9486,8089
9473,8080
9475,8084
9481,8092
9489,8112
9489,8144
9487,8159
9481,8191
9472,8208
9467,8211
9467,8082
9445,8061
9428,8041
9425,8021
9434,7995
9438,7987
9450,7961
9449,7948
9436,7942
9423,7942
9402,7947
9392,7959
9399,7973
9403,7976
9411,7990
9413,8006
9413,8031
9333,8031
9333,7995
9333,7984
9325,7961
9307,7953
9292,7954
9286,7966
9285,7981
9288,8002
9299,8010
9311,8011
9329,8008
9333,7995
9333,8031
9255,8031
9255,7995
9254,7984
9246,7961
9229,7953
9213,7954
9207,7966
9207,7981
9209,8002
9220,8010
9232,8011
9250,8008
9255,7995
9255,8031
9182,8031
9177,8030
9177,7988
9169,7954
9146,7931
9112,7924
9110,7924
9090,7925
9090,7927
9098,7929
9129,7935
9143,7942
9143,7950
9139,7954
9130,7973
9128,7988
9132,8005
9150,8011
9152,8011
9171,8007
9177,7991
9177,7988
9177,8030
9117,8030
9098,8030
9098,7981
9095,7960
9084,7952
9079,7952
9062,7960
9056,7972
9056,7925
9049,7923
9022,7930
9000,7951
8990,7979
8990,7982
8993,8003
9005,8010
9010,8011
9024,8008
9029,7996
9028,7975
9028,7949
9037,7935
9044,7931
9056,7925
9056,7972
9052,7979
9053,7999
9054,8001
9068,8009
9079,8011
9093,8006
9098,7988
9098,7981
9098,8030
9059,8029
9011,8028
8975,8026
8955,8024
8951,8023
8957,8009
8961,8004
8968,7986
8962,7966
8947,7953
8940,7952
8926,7957
8921,7976
8921,7979
8925,8004
8933,8019
8937,8026
8925,8030
8907,8031
8892,8033
8892,7991
8892,7989
8886,7969
8870,7945
8852,7928
8839,7922
8838,7927
8847,7935
8858,7948
8854,7956
8845,7970
8842,7987
8847,8005
8863,8011
8867,8011
8886,8006
8892,7991
8892,8033
8864,8038
8824,8058
8813,8069
8813,7979
8810,7958
8800,7953
8791,7953
8775,7959
8770,7975
8770,7989
8769,8008
8759,8025
8750,8033
8750,7923
8746,7922
8731,7930
8729,7932
8716,7940
8700,7942
8679,7938
8670,7932
8655,7924
8632,7922
8611,7928
8600,7937
8598,7961
8613,7977
8634,7981
8659,7976
8675,7966
8693,7954
8703,7951
8718,7948
8734,7939
8747,7930
8750,7923
8750,8033
8739,8043
8725,8054
8684,8081
8651,8101
8626,8113
8614,8114
8605,8115
8595,8126
8590,8141
8591,8148
8607,8158
8629,8157
8648,8146
8655,8136
8666,8121
8690,8098
8722,8072
8738,8060
8774,8033
8797,8014
8808,7998
8813,7984
8813,7979
8813,8069
8793,8087
8772,8122
8767,8158
8768,8164
8771,8186
8766,8196
8748,8198
8743,8198
8713,8205
8670,8227
8645,8243
8578,8287
8600,8280
8632,8264
8636,8261
8662,8244
8679,8237
8693,8239
8706,8246
8730,8255
8751,8252
8759,8249
8778,8235
8779,8222
8782,8204
8793,8186
8809,8159
8812,8132
8803,8113
8801,8101
8816,8082
8828,8071
8863,8040
9005,8040
9148,8040
9148,8073
9144,8098
9137,8116
9137,8116
9129,8135
9131,8156
9143,8170
9152,8173
9168,8165
9176,8147
9174,8126
9168,8116
9161,8099
9157,8074
9157,8073
9157,8040
9285,8040
9336,8041
9378,8043
9406,8046
9418,8050
9431,8062
9446,8071
9467,8082
9467,8211
9457,8218
9456,8218
9448,8224
9448,8173
9444,8160
9430,8152
9400,8145
9399,8145
9365,8138
9337,8130
9328,8126
9305,8121
9285,8125
9276,8135
9276,8137
9281,8150
9289,8164
9301,8177
9311,8175
9322,8166
9346,8153
9371,8149
9392,8151
9398,8159
9397,8168
9386,8187
9368,8209
9352,8228
9344,8245
9344,8245
9338,8264
9328,8278
9317,8293
9320,8302
9325,8306
9350,8314
9372,8310
9381,8299
9379,8281
9371,8275
9357,8259
9358,8239
9371,8218
9393,8202
9422,8194
9427,8193
9444,8186
9448,8173
9448,8224
9432,8234
9426,8257
9432,8275
9437,8291
9427,8302
9421,8306
9401,8317
9396,8325
9401,8338
9405,8343
9413,8362
9406,8375
9390,8381
9370,8377
9354,8366
9350,8352
9350,8351
9347,8337
9331,8329
9309,8329
9304,8330
9288,8341
9288,8356
9304,8367
9312,8370
9336,8375
9351,8379
9358,8391
9361,8416
9361,8430
9356,8469
9341,8494
9312,8507
9305,8508
9305,8429
9305,8426
9298,8400
9274,8374
9271,8371
9254,8359
9251,8357
9251,8148
9245,8128
9229,8121
9212,8122
9207,8137
9207,8141
9211,8167
9225,8177
9236,8176
9248,8165
9251,8148
9251,8357
9238,8351
9217,8346
9205,8345
9205,8230
9200,8211
9182,8201
9155,8200
9126,8211
9125,8211
9097,8224
9097,8147
9092,8123
9079,8102
9067,8091
9052,8085
9029,8081
8994,8080
8970,8080
8926,8080
8897,8083
8878,8088
8865,8097
8862,8099
8848,8122
8842,8148
8847,8169
8849,8172
8865,8177
8882,8168
8890,8150
8888,8129
8881,8119
8871,8108
8880,8099
8906,8093
8948,8090
8969,8090
9017,8090
9047,8093
9062,8098
9064,8106
9058,8115
9050,8136
9053,8157
9065,8171
9074,8173
9090,8166
9097,8147
9097,8224
9095,8225
9070,8224
9041,8209
9038,8207
9019,8190
9017,8178
9019,8175
9029,8156
9028,8136
9019,8121
9011,8119
8992,8126
8985,8142
8989,8165
9004,8191
9028,8213
9035,8218
9063,8231
9089,8237
9092,8237
9113,8241
9123,8248
9136,8254
9161,8255
9166,8255
9191,8250
9203,8239
9205,8230
9205,8345
9188,8343
9144,8342
9130,8341
9086,8340
9048,8337
9022,8334
9012,8331
9003,8320
9010,8312
9028,8310
9040,8312
9063,8313
9074,8303
9075,8300
9075,8283
9059,8274
9025,8273
9011,8274
8979,8277
8963,8282
8961,8291
8968,8305
8968,8305
8974,8323
8970,8330
8961,8344
8961,8351
8964,8359
8976,8362
9003,8360
9015,8359
9054,8356
9078,8361
9084,8364
9101,8372
9123,8366
9124,8366
9157,8357
9197,8355
9233,8361
9253,8369
9268,8383
9267,8397
9264,8403
9257,8426
9265,8445
9285,8453
9285,8453
9300,8448
9305,8429
9305,8508
9268,8511
9267,8511
9214,8512
9222,8453
9224,8420
9224,8402
9219,8395
9209,8394
9188,8400
9179,8405
9166,8412
9155,8405
9136,8395
9126,8394
9113,8400
9108,8419
9108,8423
9111,8445
9123,8453
9127,8453
9145,8446
9151,8438
9162,8423
9175,8424
9186,8438
9194,8464
9197,8490
9196,8498
9192,8504
9182,8508
9162,8511
9131,8512
9084,8513
9074,8513
9074,8423
9068,8403
9052,8395
9035,8397
9030,8412
9030,8416
9034,8442
9048,8451
9059,8451
9071,8439
9074,8423
9074,8513
9056,8514
9012,8514
9000,8515
9000,8423
8997,8401
8985,8394
8981,8394
8963,8399
8958,8406
8951,8412
8939,8403
8931,8387
8924,8358
8919,8322
8915,8286
8914,8253
8916,8230
8920,8223
8933,8208
8947,8183
8957,8156
8961,8137
8953,8122
8940,8119
8926,8121
8922,8132
8924,8155
8924,8158
8924,8190
8916,8209
8911,8223
8907,8251
8902,8288
8899,8330
8896,8372
8896,8409
8897,8436
8899,8447
8915,8453
8932,8449
8941,8439
8941,8438
8946,8425
8951,8423
8959,8431
8961,8438
8969,8450
8980,8453
8995,8448
9000,8431
9000,8423
9000,8515
8982,8516
8966,8517
8968,8518
8978,8519
9017,8524
9037,8532
9039,8545
9024,8561
9010,8568
8998,8559
8996,8556
8981,8544
8968,8550
8961,8571
8961,8576
8968,8595
8984,8601
9004,8592
9006,8590
9019,8587
9029,8595
9046,8609
9060,8604
9069,8595
9077,8581
9072,8564
9065,8550
9048,8522
9128,8522
9207,8522
9191,8546
9181,8568
9186,8587
9187,8591
9200,8607
9211,8605
9219,8587
9219,8563
9218,8522
9267,8522
9317,8516
9351,8498
9370,8469
9374,8444
9377,8416
9389,8400
9398,8394
9419,8378
9429,8363
9437,8348
9444,8345
9450,8336
9453,8321
9456,8304
9469,8296
9491,8291
9517,8283
9534,8274
9535,8271
9536,8246
9536,8689
9449,8689
9449,8635
9442,8624
9438,8620
9421,8612
9399,8618
9398,8619
9371,8627
9341,8630
9315,8627
9300,8620
9299,8605
9304,8592
9308,8570
9301,8555
9289,8543
9276,8547
9271,8551
9259,8572
9260,8592
9260,8614
9254,8622
9247,8633
9249,8643
9262,8656
9282,8659
9299,8651
9300,8650
9315,8642
9341,8640
9371,8643
9398,8651
9420,8658
9435,8652
9439,8648
9449,8635
9449,8689
9148,8689
9148,8581
9144,8559
9133,8551
9129,8551
9111,8558
9105,8566
9103,8590
9115,8606
9129,8610
9143,8605
9147,8586
9148,8581
9148,8689
9019,8689
9019,8641
9015,8635
8997,8630
8962,8628
8939,8628
8939,8588
8937,8566
8926,8551
8916,8550
8916,8514
8889,8513
8857,8521
8837,8538
8818,8563
8814,8582
8825,8599
8841,8608
8852,8599
8857,8572
8857,8565
8859,8540
8867,8527
8886,8521
8887,8520
8916,8514
8916,8550
8911,8549
8905,8552
8894,8571
8893,8593
8898,8604
8915,8609
8932,8601
8939,8588
8939,8628
8910,8627
8853,8628
8786,8630
8736,8629
8701,8625
8676,8619
8661,8609
8650,8596
8645,8585
8633,8566
8615,8562
8586,8573
8582,8575
8554,8589
8599,8596
8631,8604
8655,8616
8661,8621
8670,8629
8683,8634
8702,8637
8733,8639
8777,8640
8814,8640
8868,8640
8912,8642
8942,8645
8955,8649
8956,8650
8971,8658
8994,8657
9010,8650
9019,8641
9019,8689
8994,8689
8439,8689
8439,8640
8439,8591
8491,8590
8520,8589
8531,8586
8528,8581
8508,8574
8480,8571
8476,8571
8448,8568
8439,8558
8439,8557
8446,8549
8468,8542
8507,8537
8510,8536
8546,8532
8573,8525
8598,8513
8627,8494
8652,8476
8687,8450
8713,8435
8734,8426
8757,8423
8772,8423
8804,8425
8819,8430
8823,8438
8831,8450
8842,8453
8857,8448
8862,8431
8862,8423
8859,8402
8847,8394
8842,8394
8826,8398
8823,8404
8814,8409
8791,8413
8771,8413
8745,8415
8723,8419
8701,8430
8672,8449
8646,8469
8610,8494
8585,8510
8566,8517
8549,8519
8537,8517
8503,8512
8471,8509
8446,8504
8438,8495
8447,8487
8471,8482
8479,8482
8506,8479
8516,8470
8507,8460
8483,8453
8460,8446
8455,8438
8465,8431
8487,8423
8521,8418
8563,8414
8578,8414
8615,8409
8639,8396
8640,8394
8663,8379
8688,8372
8714,8364
8723,8352
8718,8339
8702,8333
8683,8335
8667,8345
8663,8353
8651,8372
8632,8389
8616,8397
8598,8402
8572,8402
8533,8399
8522,8397
8479,8392
8452,8385
8443,8378
8451,8373
8478,8370
8503,8369
8545,8365
8588,8353
8624,8338
8648,8319
8650,8315
8663,8310
8685,8312
8708,8313
8720,8303
8721,8300
8720,8281
8713,8276
8695,8268
8681,8274
8668,8286
8649,8304
8624,8320
8598,8332
8579,8338
8572,8337
8559,8333
8533,8330
8504,8330
8466,8328
8446,8323
8445,8317
8462,8310
8498,8303
8515,8300
8563,8292
8577,8287
8508,8281
8473,8276
8447,8272
8434,8267
8434,8267
8436,8257
8454,8251
8485,8250
8513,8253
8550,8255
8569,8250
8572,8247
8573,8231
8557,8220
8522,8214
8495,8213
8434,8213
8431,8053
8429,7893
8995,7893
9561,7893
9561,7893
" /> 
<polyline style="fill-rule:evenodd;"
points="8849,8417
8848,8423
8842,8423
8834,8420
8836,8417
8848,8415
8849,8417
8849,8417
" /> 
<polyline style="fill-rule:evenodd;"
points="8547,8349
8542,8354
8537,8349
8542,8345
8547,8349
8547,8349
" /> 
<polyline style="fill-rule:evenodd;"
points="8701,8348
8700,8353
8695,8354
8687,8351
8688,8348
8700,8347
8701,8348
8701,8348
" /> 
<polyline style="fill-rule:evenodd;"
points="8701,8289
8700,8294
8695,8295
8687,8292
8688,8289
8700,8288
8701,8289
8701,8289
" /> 
<polyline style="fill-rule:evenodd;"
points="8547,8232
8542,8237
8537,8232
8542,8227
8547,8232
8547,8232
" /> 
<polyline style="fill-rule:evenodd;"
points="8744,8222
8739,8227
8734,8222
8739,8217
8744,8222
8744,8222
" /> 
<polyline style="fill-rule:evenodd;"
points="8793,8144
8788,8149
8783,8144
8788,8139
8793,8144
8793,8144
" /> 
<polyline style="fill-rule:evenodd;"
points="9157,8144
9152,8149
9148,8144
9152,8139
9157,8144
9157,8144
" /> 
<polyline style="fill-rule:evenodd;"
points="8949,7987
8948,7988
8942,7987
8941,7981
8945,7973
8948,7975
8949,7987
8949,7987
" /> 
<polyline style="fill-rule:evenodd;"
points="9433,7957
9428,7962
9423,7957
9428,7952
9433,7957
9433,7957
" /> 
<polyline style="fill-rule:evenodd;"
points="11344,8662
11343,8698
11343,8703
11340,8777
11041,8777
10741,8777
10741,8694
10741,8610
11040,8610
11129,8611
11204,8612
11264,8613
11308,8615
11335,8617
11343,8620
11344,8634
11344,8662
11344,8662
" /> 
<polyline style="fill-rule:evenodd;"
points="11351,7971
10741,7971
10741,7804
11351,7804
11351,7971
11351,7971
" /> 
<polyline style="fill-rule:evenodd;"
points="12198,8768
11587,8768
11587,8610
12198,8610
12198,8768
12198,8768
" /> 
<polyline style="fill-rule:evenodd;"
points="10505,7962
9896,7962
9896,7804
10505,7804
10505,7962
10505,7962
" /> 
<polyline style="fill-rule:evenodd;"
points="8990,8635
8985,8640
8980,8635
8985,8630
8990,8635
8990,8635
" /> 
<polyline style="fill-rule:evenodd;"
points="8626,8586
8621,8591
8616,8586
8621,8581
8626,8586
8626,8586
" /> 
<polyline style="fill-rule:evenodd;"
points="9285,8635
9281,8640
9276,8635
9281,8630
9285,8635
9285,8635
" /> 
<polyline style="fill-rule:evenodd;"
points="9423,8635
9418,8640
9413,8635
9418,8630
9423,8635
9423,8635
" /> 
<polyline style="fill-rule:evenodd;"
points="9292,8574
9291,8580
9285,8581
9277,8577
9279,8574
9291,8573
9292,8574
9292,8574
" /> 
<polyline style="fill-rule:evenodd;"
points="8852,8576
8847,8581
8842,8576
8847,8571
8852,8576
8852,8576
" /> 
<polyline style="fill-rule:evenodd;"
points="8921,8576
8916,8581
8911,8576
8916,8571
8921,8576
8921,8576
" /> 
<polyline style="fill-rule:evenodd;"
points="8990,8576
8985,8581
8980,8576
8985,8571
8990,8576
8990,8576
" /> 
<polyline style="fill-rule:evenodd;"
points="9059,8576
9054,8581
9049,8576
9054,8571
9059,8576
9059,8576
" /> 
<polyline style="fill-rule:evenodd;"
points="9217,8576
9211,8581
9207,8576
9211,8571
9217,8576
9217,8576
" /> 
<polyline style="fill-rule:evenodd;"
points="9138,8418
9133,8423
9128,8418
9133,8413
9138,8418
9138,8418
" /> 
<polyline style="fill-rule:evenodd;"
points="9217,8418
9211,8423
9207,8418
9211,8413
9217,8418
9217,8418
" /> 
<polyline style="fill-rule:evenodd;"
points="9325,8349
9320,8354
9315,8349
9320,8345
9325,8349
9325,8349
" /> 
<polyline style="fill-rule:evenodd;"
points="9433,8330
9428,8335
9423,8330
9428,8325
9433,8330
9433,8330
" /> 
<polyline style="fill-rule:evenodd;"
points="9492,8257
9485,8266
9482,8267
9473,8259
9473,8257
9480,8247
9482,8247
9492,8255
9492,8257
9492,8257
" /> 
<polyline style="fill-rule:evenodd;"
points="9138,8576
9133,8581
9128,8576
9133,8571
9138,8576
9138,8576
" /> 
<polyline style="fill-rule:evenodd;"
points="8921,8418
8916,8423
8911,8418
8916,8413
8921,8418
8921,8418
" /> 
<polyline style="fill-rule:evenodd;"
points="8990,8418
8985,8423
8980,8418
8985,8413
8990,8418
8990,8418
" /> 
<polyline style="fill-rule:evenodd;"
points="8951,8144
8946,8149
8941,8144
8946,8139
8951,8144
8951,8144
" /> 
<polyline style="fill-rule:evenodd;"
points="9059,8418
9054,8423
9049,8418
9054,8413
9059,8418
9059,8418
" /> 
<polyline style="fill-rule:evenodd;"
points="9295,8418
9290,8423
9285,8418
9290,8413
9295,8418
9295,8418
" /> 
<polyline style="fill-rule:evenodd;"
points="8997,8348
8995,8353
8990,8354
8982,8351
8984,8348
8995,8347
8997,8348
8997,8348
" /> 
<polyline style="fill-rule:evenodd;"
points="9108,8349
9103,8354
9098,8349
9103,8345
9108,8349
9108,8349
" /> 
<polyline style="fill-rule:evenodd;"
points="8997,8289
8995,8294
8990,8295
8982,8292
8984,8289
8995,8288
8997,8289
8997,8289
" /> 
<polyline style="fill-rule:evenodd;"
points="9059,8290
9054,8295
9049,8290
9054,8286
9059,8290
9059,8290
" /> 
<polyline style="fill-rule:evenodd;"
points="9354,8290
9349,8295
9344,8290
9349,8286
9354,8290
9354,8290
" /> 
<polyline style="fill-rule:evenodd;"
points="9433,8173
9428,8178
9423,8173
9428,8168
9433,8173
9433,8173
" /> 
<polyline style="fill-rule:evenodd;"
points="9312,8142
9310,8148
9305,8149
9297,8145
9299,8142
9310,8141
9312,8142
9312,8142
" /> 
<polyline style="fill-rule:evenodd;"
points="9167,8232
9162,8237
9157,8232
9162,8227
9167,8232
9167,8232
" /> 
<polyline style="fill-rule:evenodd;"
points="9020,8144
9015,8149
9010,8144
9015,8139
9020,8144
9020,8144
" /> 
<polyline style="fill-rule:evenodd;"
points="8872,8144
8867,8149
8862,8144
8867,8139
8872,8144
8872,8144
" /> 
<polyline style="fill-rule:evenodd;"
points="9085,8142
9084,8148
9079,8149
9071,8145
9072,8142
9084,8141
9085,8142
9085,8142
" /> 
<polyline style="fill-rule:evenodd;"
points="9236,8144
9231,8149
9226,8144
9231,8139
9236,8144
9236,8144
" /> 
<polyline style="fill-rule:evenodd;"
points="8626,8134
8621,8139
8616,8134
8621,8129
8626,8134
8626,8134
" /> 
<polyline style="fill-rule:evenodd;"
points="8803,7986
8798,7991
8793,7986
8798,7981
8803,7986
8803,7986
" /> 
<polyline style="fill-rule:evenodd;"
points="8882,7986
8877,7991
8872,7986
8877,7981
8882,7986
8882,7986
" /> 
<polyline style="fill-rule:evenodd;"
points="9020,7986
9015,7991
9010,7986
9015,7981
9020,7986
9020,7986
" /> 
<polyline style="fill-rule:evenodd;"
points="9234,7987
9233,7988
9227,7987
9226,7981
9230,7973
9233,7975
9234,7987
9234,7987
" /> 
<polyline style="fill-rule:evenodd;"
points="9313,7987
9312,7988
9306,7987
9305,7981
9309,7973
9312,7975
9313,7987
9313,7987
" /> 
<polyline style="fill-rule:evenodd;"
points="8646,7947
8641,7952
8636,7947
8641,7942
8646,7947
8646,7947
" /> 
<polyline style="fill-rule:evenodd;"
points="13821,8806
13828,8802
13843,8793
13865,8778
13891,8761
13917,8743
13939,8729
13954,8719
13960,8716
13963,8717
13976,8723
13993,8732
14004,8738
14020,8745
14029,8746
14030,8744
14036,8732
14045,8710
14058,8682
14072,8648
14087,8612
14103,8576
14117,8541
14130,8509
14140,8483
14147,8466
14150,8458
14149,8456
14141,8448
14126,8438
14095,8412
14064,8374
14046,8331
14039,8282
14045,8237
14062,8195
14092,8156
14129,8127
14171,8109
14219,8103
14264,8108
14308,8126
14347,8155
14364,8174
14386,8213
14399,8255
14400,8266
14398,8312
14385,8356
14360,8395
14327,8428
14322,8431
14307,8443
14296,8451
14288,8457
14347,8599
14356,8621
14372,8660
14386,8693
14398,8720
14406,8738
14409,8745
14409,8745
14415,8746
14425,8742
14445,8733
14458,8726
14473,8719
14480,8716
14486,8719
14500,8728
14521,8742
14547,8760
14571,8776
14593,8791
14609,8801
14617,8805
14618,8805
14625,8801
14638,8791
14657,8773
14684,8746
14688,8741
14711,8719
14729,8700
14741,8686
14746,8680
14746,8680
14742,8672
14731,8656
14717,8633
14699,8607
14652,8539
14678,8475
14686,8455
14696,8431
14703,8414
14707,8407
14714,8404
14731,8400
14757,8395
14787,8389
14816,8384
14842,8379
14861,8375
14870,8374
14872,8372
14874,8368
14875,8359
14875,8343
14876,8318
14876,8282
14876,8278
14875,8244
14875,8216
14874,8199
14873,8192
14873,8192
14864,8190
14846,8186
14820,8181
14789,8175
14787,8174
14756,8168
14729,8163
14711,8159
14704,8156
14702,8154
14696,8142
14687,8123
14676,8099
14666,8075
14658,8053
14652,8036
14650,8029
14650,8029
14655,8021
14665,8005
14680,7983
14699,7956
14700,7954
14718,7928
14732,7906
14742,7890
14746,7883
14745,7882
14740,7875
14726,7860
14707,7840
14684,7816
14677,7809
14651,7784
14633,7768
14622,7759
14617,7757
14617,7757
14609,7762
14592,7773
14570,7788
14543,7806
14541,7808
14515,7826
14493,7840
14478,7851
14471,7855
14470,7855
14459,7852
14440,7845
14417,7836
14393,7826
14371,7817
14354,7810
14347,7805
14346,7805
14344,7795
14339,7776
14333,7749
14327,7716
14326,7711
14320,7680
14315,7654
14312,7636
14310,7629
14305,7628
14290,7627
14267,7626
14239,7626
14209,7626
14180,7627
14156,7627
14138,7629
14130,7630
14130,7631
14127,7640
14123,7660
14118,7687
14111,7719
14110,7725
14104,7756
14099,7782
14095,7800
14093,7807
14091,7808
14078,7814
14057,7822
14031,7833
13971,7857
13897,7807
13890,7802
13864,7784
13842,7769
13827,7760
13820,7756
13820,7756
13812,7763
13798,7776
13778,7796
13755,7819
13737,7836
13717,7857
13704,7871
13697,7880
13695,7885
13695,7889
13700,7896
13711,7913
13726,7935
13744,7961
13759,7983
13775,8008
13785,8025
13789,8034
13788,8038
13783,8052
13774,8074
13763,8100
13737,8158
13699,8166
13676,8170
13643,8176
13612,8182
13564,8192
13562,8369
13570,8372
13577,8374
13595,8378
13620,8383
13651,8389
13676,8394
13702,8399
13721,8402
13729,8404
13731,8407
13738,8419
13747,8439
13757,8463
13768,8488
13777,8511
13783,8529
13786,8538
13782,8545
13772,8560
13758,8582
13740,8608
13723,8633
13708,8656
13698,8671
13693,8679
13695,8684
13706,8696
13725,8716
13754,8745
13759,8749
13782,8772
13801,8790
13815,8802
13821,8806
" /> 
</g>
<g style="fill:#808000; fill-opacity:1.0; 
stroke:#808000; stroke-width:39.3701; stroke-opacity:1; 
stroke-linecap:round; stroke-linejoin:round;">
<circle cx="28039" cy="10021" r="275.815" /> 
<circle cx="28039" cy="11021" r="275.815" /> 
<circle cx="28039" cy="11821" r="275.815" /> 
<circle cx="28039" cy="12821" r="275.815" /> 
<circle cx="29089" cy="8821" r="570.815" /> 
<circle cx="29089" cy="14221" r="570.815" /> 
<polyline style="fill-rule:evenodd;"
points="23394,10576
22883,10576
22883,10065
23394,10065
23394,10576
" /> 
<circle cx="23139" cy="9321" r="255.315" /> 
<polyline style="fill-rule:evenodd;"
points="23344,13126
22833,13126
22833,12615
23344,12615
23344,13126
" /> 
<circle cx="23089" cy="11871" r="255.315" /> 
<polyline style="fill-rule:evenodd;"
points="25919,10601
25408,10601
25408,10090
25919,10090
25919,10601
" /> 
<circle cx="25664" cy="9346" r="255.315" /> 
<polyline style="fill-rule:evenodd;"
points="8483,9390
9044,9390
9044,9951
8483,9951
8483,9390
" /> 
<circle cx="9764" cy="9671" r="280.315" /> 
<circle cx="8764" cy="10671" r="280.315" /> 
<circle cx="9764" cy="10671" r="280.315" /> 
<circle cx="8764" cy="11671" r="280.315" /> 
<circle cx="9764" cy="11671" r="280.315" /> 
<circle cx="8764" cy="12671" r="280.315" /> 
<circle cx="9764" cy="12671" r="280.315" /> 
<circle cx="8764" cy="13671" r="280.315" /> 
<circle cx="9764" cy="13671" r="280.315" /> 
</g> 
</svg>
