<?xml version="1.0" standalone="no"?>
 <!DOCTYPE svg PUBLIC "-//W3C//DTD SVG 1.1//EN" 
 "http://www.w3.org/Graphics/SVG/1.1/DTD/svg11.dtd"> 
<svg xmlns="http://www.w3.org/2000/svg" version="1.1" 
    width="8.44804cm" height="3.87858cm" viewBox="0 0 33260 15270 ">
<title>SVG Picture created as OpenUsbAsp-F_Mask.svg date 2014/03/14 15:16:47 </title>
  <desc>Picture generated by PCBNEW </desc>
<g style="fill:#000000; fill-opacity:1;stroke:#000000; stroke-opacity:1;
stroke-linecap:round; stroke-linejoin:round; "
 transform="translate(0 0) scale(1 1)">
</g>
<g style="fill:#FFFF00; fill-opacity:0.0; 
stroke:#FFFF00; stroke-width:150; stroke-opacity:1; 
stroke-linecap:round; stroke-linejoin:round;">
<path d="M7879 15176
L7879 7296
" />
<path d="M29819 15176
L7879 15176
" />
<path d="M29819 7296
L29819 15176
" />
<path d="M7939 7296
L29819 7296
" />
</g>
<g style="fill:#808000; fill-opacity:0.0; 
stroke:#808000; stroke-width:39.3701; stroke-opacity:1; 
stroke-linecap:round; stroke-linejoin:round;">
</g>
<g style="fill:#808000; fill-opacity:1.0; 
stroke:#808000; stroke-width:39.3701; stroke-opacity:1; 
stroke-linecap:round; stroke-linejoin:round;">
<circle cx="28039" cy="10021" r="375.815" /> 
<circle cx="28039" cy="11021" r="375.815" /> 
<circle cx="28039" cy="11821" r="375.815" /> 
<circle cx="28039" cy="12821" r="375.815" /> 
<circle cx="29089" cy="8821" r="670.815" /> 
<circle cx="29089" cy="14221" r="670.815" /> 
</g>
<g style="fill:#A00000; fill-opacity:1.0; 
stroke:#A00000; stroke-width:39.3701; stroke-opacity:1; 
stroke-linecap:round; stroke-linejoin:round;">
<polyline style="fill-rule:evenodd;"
points="19950,13565
19613,13565
19613,12618
19950,12618
19950,13565
" /> 
<polyline style="fill-rule:evenodd;"
points="19635,13565
19298,13565
19298,12618
19635,12618
19635,13565
" /> 
<polyline style="fill-rule:evenodd;"
points="19320,13565
18983,13565
18983,12618
19320,12618
19320,13565
" /> 
<polyline style="fill-rule:evenodd;"
points="19005,13565
18668,13565
18668,12618
19005,12618
19005,13565
" /> 
<polyline style="fill-rule:evenodd;"
points="18690,13565
18353,13565
18353,12618
18690,12618
18690,13565
" /> 
<polyline style="fill-rule:evenodd;"
points="18375,13565
18038,13565
18038,12618
18375,12618
18375,13565
" /> 
<polyline style="fill-rule:evenodd;"
points="18060,13565
17723,13565
17723,12618
18060,12618
18060,13565
" /> 
<polyline style="fill-rule:evenodd;"
points="17745,13565
17408,13565
17408,12618
17745,12618
17745,13565
" /> 
<polyline style="fill-rule:evenodd;"
points="17747,9799
17410,9799
17410,8852
17747,8852
17747,9799
" /> 
<polyline style="fill-rule:evenodd;"
points="19957,9799
19620,9799
19620,8852
19957,8852
19957,9799
" /> 
<polyline style="fill-rule:evenodd;"
points="19637,9799
19300,9799
19300,8852
19637,8852
19637,9799
" /> 
<polyline style="fill-rule:evenodd;"
points="19317,9799
18980,9799
18980,8852
19317,8852
19317,9799
" /> 
<polyline style="fill-rule:evenodd;"
points="19007,9799
18670,9799
18670,8852
19007,8852
19007,9799
" /> 
<polyline style="fill-rule:evenodd;"
points="18687,9799
18350,9799
18350,8852
18687,8852
18687,9799
" /> 
<polyline style="fill-rule:evenodd;"
points="18377,9799
18040,9799
18040,8852
18377,8852
18377,9799
" /> 
<polyline style="fill-rule:evenodd;"
points="18057,9799
17720,9799
17720,8852
18057,8852
18057,9799
" /> 
<polyline style="fill-rule:evenodd;"
points="17262,12476
16315,12476
16315,12139
17262,12139
17262,12476
" /> 
<polyline style="fill-rule:evenodd;"
points="17262,12162
16315,12162
16315,11825
17262,11825
17262,12162
" /> 
<polyline style="fill-rule:evenodd;"
points="17262,11846
16315,11846
16315,11509
17262,11509
17262,11846
" /> 
<polyline style="fill-rule:evenodd;"
points="17262,11532
16315,11532
16315,11195
17262,11195
17262,11532
" /> 
<polyline style="fill-rule:evenodd;"
points="17262,11216
16315,11216
16315,10879
17262,10879
17262,11216
" /> 
<polyline style="fill-rule:evenodd;"
points="17262,10902
16315,10902
16315,10565
17262,10565
17262,10902
" /> 
<polyline style="fill-rule:evenodd;"
points="17262,10586
16315,10586
16315,10249
17262,10249
17262,10586
" /> 
<polyline style="fill-rule:evenodd;"
points="17262,10272
16315,10272
16315,9935
17262,9935
17262,10272
" /> 
<polyline style="fill-rule:evenodd;"
points="21042,12474
20095,12474
20095,12137
21042,12137
21042,12474
" /> 
<polyline style="fill-rule:evenodd;"
points="21042,12164
20095,12164
20095,11827
21042,11827
21042,12164
" /> 
<polyline style="fill-rule:evenodd;"
points="21042,11844
20095,11844
20095,11507
21042,11507
21042,11844
" /> 
<polyline style="fill-rule:evenodd;"
points="21042,11534
20095,11534
20095,11197
21042,11197
21042,11534
" /> 
<polyline style="fill-rule:evenodd;"
points="21042,11224
20095,11224
20095,10887
21042,10887
21042,11224
" /> 
<polyline style="fill-rule:evenodd;"
points="21042,10904
20095,10904
20095,10567
21042,10567
21042,10904
" /> 
<polyline style="fill-rule:evenodd;"
points="21042,10584
20095,10584
20095,10247
21042,10247
21042,10584
" /> 
<polyline style="fill-rule:evenodd;"
points="21042,10264
20095,10264
20095,9927
21042,9927
21042,10264
" /> 
</g>
<g style="fill:#808000; fill-opacity:1.0; 
stroke:#808000; stroke-width:39.3701; stroke-opacity:1; 
stroke-linecap:round; stroke-linejoin:round;">
<polyline style="fill-rule:evenodd;"
points="23494,10676
22783,10676
22783,9965
23494,9965
23494,10676
" /> 
<circle cx="23139" cy="9321" r="355.315" /> 
<polyline style="fill-rule:evenodd;"
points="23444,13226
22733,13226
22733,12515
23444,12515
23444,13226
" /> 
<circle cx="23089" cy="11871" r="355.315" /> 
<polyline style="fill-rule:evenodd;"
points="26019,10701
25308,10701
25308,9990
26019,9990
26019,10701
" /> 
<circle cx="25664" cy="9346" r="355.315" /> 
<polyline style="fill-rule:evenodd;"
points="8383,9290
9144,9290
9144,10051
8383,10051
8383,9290
" /> 
<circle cx="9764" cy="9671" r="380.315" /> 
<circle cx="8764" cy="10671" r="380.315" /> 
<circle cx="9764" cy="10671" r="380.315" /> 
<circle cx="8764" cy="11671" r="380.315" /> 
<circle cx="9764" cy="11671" r="380.315" /> 
<circle cx="8764" cy="12671" r="380.315" /> 
<circle cx="9764" cy="12671" r="380.315" /> 
<circle cx="8764" cy="13671" r="380.315" /> 
<circle cx="9764" cy="13671" r="380.315" /> 
</g>
<g style="fill:#A00000; fill-opacity:1.0; 
stroke:#A00000; stroke-width:39.3701; stroke-opacity:1; 
stroke-linecap:round; stroke-linejoin:round;">
<polyline style="fill-rule:evenodd;"
points="20433,8465
21044,8465
21044,8876
20433,8876
20433,8465
" /> 
<polyline style="fill-rule:evenodd;"
points="20433,9065
21044,9065
21044,9476
20433,9476
20433,9065
" /> 
<polyline style="fill-rule:evenodd;"
points="26758,8240
27369,8240
27369,8651
26758,8651
26758,8240
" /> 
<polyline style="fill-rule:evenodd;"
points="26758,8840
27369,8840
27369,9251
26758,9251
26758,8840
" /> 
<polyline style="fill-rule:evenodd;"
points="21319,13801
20708,13801
20708,13390
21319,13390
21319,13801
" /> 
<polyline style="fill-rule:evenodd;"
points="21319,13201
20708,13201
20708,12790
21319,12790
21319,13201
" /> 
<polyline style="fill-rule:evenodd;"
points="14394,12151
13783,12151
13783,11740
14394,11740
14394,12151
" /> 
<polyline style="fill-rule:evenodd;"
points="14394,11551
13783,11551
13783,11140
14394,11140
14394,11551
" /> 
<polyline style="fill-rule:evenodd;"
points="26608,12190
27219,12190
27219,12601
26608,12601
26608,12190
" /> 
<polyline style="fill-rule:evenodd;"
points="26608,12790
27219,12790
27219,13201
26608,13201
26608,12790
" /> 
<polyline style="fill-rule:evenodd;"
points="25283,13501
25283,12890
25694,12890
25694,13501
25283,13501
" /> 
<polyline style="fill-rule:evenodd;"
points="25883,13501
25883,12890
26294,12890
26294,13501
25883,13501
" /> 
<polyline style="fill-rule:evenodd;"
points="23908,14351
23908,13740
24319,13740
24319,14351
23908,14351
" /> 
<polyline style="fill-rule:evenodd;"
points="24508,14351
24508,13740
24919,13740
24919,14351
24508,14351
" /> 
<polyline style="fill-rule:evenodd;"
points="16119,9426
15508,9426
15508,9015
16119,9015
16119,9426
" /> 
<polyline style="fill-rule:evenodd;"
points="16119,8826
15508,8826
15508,8415
16119,8415
16119,8826
" /> 
<polyline style="fill-rule:evenodd;"
points="16069,14151
15458,14151
15458,13740
16069,13740
16069,14151
" /> 
<polyline style="fill-rule:evenodd;"
points="16069,13551
15458,13551
15458,13140
16069,13140
16069,13551
" /> 
<polyline style="fill-rule:evenodd;"
points="25308,8576
25308,7965
25719,7965
25719,8576
25308,8576
" /> 
<polyline style="fill-rule:evenodd;"
points="25908,8576
25908,7965
26319,7965
26319,8576
25908,8576
" /> 
<polyline style="fill-rule:evenodd;"
points="27219,11701
26608,11701
26608,11290
27219,11290
27219,11701
" /> 
<polyline style="fill-rule:evenodd;"
points="27219,11101
26608,11101
26608,10690
27219,10690
27219,11101
" /> 
<polyline style="fill-rule:evenodd;"
points="14458,13140
15069,13140
15069,13551
14458,13551
14458,13140
" /> 
<polyline style="fill-rule:evenodd;"
points="14458,13740
15069,13740
15069,14151
14458,14151
14458,13740
" /> 
<polyline style="fill-rule:evenodd;"
points="25308,12601
25308,11990
25719,11990
25719,12601
25308,12601
" /> 
<polyline style="fill-rule:evenodd;"
points="25908,12601
25908,11990
26319,11990
26319,12601
25908,12601
" /> 
<polyline style="fill-rule:evenodd;"
points="26269,13740
26269,14351
25858,14351
25858,13740
26269,13740
" /> 
<polyline style="fill-rule:evenodd;"
points="25669,13740
25669,14351
25258,14351
25258,13740
25669,13740
" /> 
<polyline style="fill-rule:evenodd;"
points="21283,8490
21894,8490
21894,8901
21283,8901
21283,8490
" /> 
<polyline style="fill-rule:evenodd;"
points="21283,9090
21894,9090
21894,9501
21283,9501
21283,9090
" /> 
<polyline style="fill-rule:evenodd;"
points="12866,12527
11761,12527
11761,11736
12866,11736
12866,12527
" /> 
<polyline style="fill-rule:evenodd;"
points="12866,10755
11761,10755
11761,9964
12866,9964
12866,10755
" /> 
</g> 
</svg>
