G04 (created by PCBNEW-RS274X (2012-jan-04)-stable) date Thu 15 Nov 2012 21:08:36 CET*
G01*
G70*
G90*
%MOIN*%
G04 Gerber Fmt 3.4, Leading zero omitted, Abs format*
%FSLAX34Y34*%
G04 APERTURE LIST*
%ADD10C,0.006000*%
%ADD11C,0.059100*%
%ADD12C,0.118100*%
%ADD13R,0.017700X0.078700*%
%ADD14R,0.078700X0.017700*%
%ADD15R,0.055000X0.055000*%
%ADD16C,0.055000*%
%ADD17R,0.060000X0.060000*%
%ADD18C,0.060000*%
%ADD19R,0.045000X0.025000*%
%ADD20R,0.025000X0.045000*%
%ADD21R,0.094500X0.063000*%
%ADD22C,0.035000*%
%ADD23C,0.011900*%
%ADD24C,0.010000*%
G04 APERTURE END LIST*
G54D10*
G54D11*
X61800Y-39725D03*
X61800Y-40725D03*
X61800Y-41525D03*
X61800Y-42525D03*
G54D12*
X62850Y-38525D03*
X62850Y-43925D03*
G54D13*
X53543Y-42796D03*
X53228Y-42796D03*
X52913Y-42796D03*
X52598Y-42796D03*
X52283Y-42796D03*
X51968Y-42796D03*
X51653Y-42796D03*
X51338Y-42796D03*
X51340Y-39030D03*
X53550Y-39030D03*
X53230Y-39030D03*
X52910Y-39030D03*
X52600Y-39030D03*
X52280Y-39030D03*
X51970Y-39030D03*
X51650Y-39030D03*
G54D14*
X50550Y-42012D03*
X50550Y-41698D03*
X50550Y-41382D03*
X50550Y-41068D03*
X50550Y-40752D03*
X50550Y-40438D03*
X50550Y-40122D03*
X50550Y-39808D03*
X54330Y-42010D03*
X54330Y-41700D03*
X54330Y-41380D03*
X54330Y-41070D03*
X54330Y-40760D03*
X54330Y-40440D03*
X54330Y-40120D03*
X54330Y-39800D03*
G54D15*
X56900Y-40025D03*
G54D16*
X56900Y-39025D03*
G54D15*
X56850Y-42575D03*
G54D16*
X56850Y-41575D03*
G54D15*
X59425Y-40050D03*
G54D16*
X59425Y-39050D03*
G54D17*
X42525Y-39375D03*
G54D18*
X43525Y-39375D03*
X42525Y-40375D03*
X43525Y-40375D03*
X42525Y-41375D03*
X43525Y-41375D03*
X42525Y-42375D03*
X43525Y-42375D03*
X42525Y-43375D03*
X43525Y-43375D03*
G54D19*
X54500Y-38375D03*
X54500Y-38975D03*
X60825Y-38150D03*
X60825Y-38750D03*
X54775Y-43300D03*
X54775Y-42700D03*
X47850Y-41650D03*
X47850Y-41050D03*
X60675Y-42100D03*
X60675Y-42700D03*
G54D20*
X59250Y-42900D03*
X59850Y-42900D03*
X57875Y-43750D03*
X58475Y-43750D03*
G54D19*
X49575Y-38925D03*
X49575Y-38325D03*
X49525Y-43650D03*
X49525Y-43050D03*
G54D20*
X59275Y-37975D03*
X59875Y-37975D03*
G54D19*
X60675Y-41200D03*
X60675Y-40600D03*
X48525Y-43050D03*
X48525Y-43650D03*
G54D20*
X59275Y-42000D03*
X59875Y-42000D03*
X59825Y-43750D03*
X59225Y-43750D03*
G54D19*
X55350Y-38400D03*
X55350Y-39000D03*
G54D21*
X46075Y-41836D03*
X46075Y-40064D03*
G54D22*
X52550Y-41600D03*
X52050Y-43550D03*
X58500Y-38450D03*
X58325Y-39625D03*
X55525Y-39900D03*
X53600Y-39950D03*
X48650Y-41850D03*
X53960Y-38720D03*
X42525Y-42375D03*
X44760Y-39440D03*
X47900Y-43150D03*
X45600Y-42550D03*
X43525Y-40375D03*
X61800Y-42525D03*
X43525Y-43375D03*
X43525Y-42375D03*
X56900Y-40025D03*
X47350Y-42150D03*
X60750Y-39900D03*
X61800Y-40725D03*
X53500Y-40450D03*
X56850Y-41575D03*
X56950Y-43575D03*
X58450Y-42900D03*
X59300Y-41100D03*
X51360Y-41200D03*
X55400Y-40825D03*
X58775Y-42425D03*
X53600Y-40950D03*
X47980Y-38740D03*
X50150Y-43550D03*
X56850Y-42575D03*
X48875Y-41075D03*
X53080Y-40820D03*
X48350Y-40450D03*
X53400Y-42050D03*
X55050Y-42150D03*
X55240Y-39540D03*
X49700Y-39520D03*
X59425Y-39050D03*
G54D23*
X53230Y-39570D02*
X53260Y-39600D01*
X52550Y-40830D02*
X52550Y-41600D01*
X53230Y-40150D02*
X52550Y-40830D01*
X52283Y-42796D02*
X52300Y-42800D01*
X51600Y-44000D02*
X52050Y-43550D01*
X49825Y-44000D02*
X51600Y-44000D01*
X49525Y-43650D02*
X49525Y-43700D01*
X53230Y-39570D02*
X53230Y-40150D01*
X54425Y-38975D02*
X54500Y-38975D01*
X52550Y-41600D02*
X52900Y-41950D01*
X52900Y-41950D02*
X52900Y-42800D01*
X52900Y-42800D02*
X52913Y-42796D01*
X52300Y-42800D02*
X52250Y-42850D01*
X52250Y-42850D02*
X52250Y-43350D01*
X52250Y-43350D02*
X52050Y-43550D01*
X53230Y-39030D02*
X53230Y-39570D01*
X49525Y-43700D02*
X49825Y-44000D01*
X53800Y-39600D02*
X54425Y-38975D01*
X53260Y-39600D02*
X53800Y-39600D01*
X58500Y-38450D02*
X58325Y-38625D01*
X58325Y-38625D02*
X58325Y-39625D01*
X55525Y-39900D02*
X55475Y-39950D01*
X55475Y-39950D02*
X54975Y-39950D01*
X54975Y-39950D02*
X54825Y-39800D01*
X54825Y-39800D02*
X54330Y-39800D01*
X54330Y-40120D02*
X54350Y-40100D01*
X54350Y-40100D02*
X53750Y-40100D01*
X53750Y-40100D02*
X53600Y-39950D01*
X49100Y-41400D02*
X48650Y-41850D01*
X50550Y-41400D02*
X49100Y-41400D01*
X50550Y-41382D02*
X50550Y-41400D01*
X53650Y-39030D02*
X53960Y-38720D01*
X43020Y-41880D02*
X42525Y-42375D01*
X53550Y-39030D02*
X53650Y-39030D01*
X43020Y-39980D02*
X43020Y-41880D01*
X43160Y-39840D02*
X43020Y-39980D01*
X44360Y-39840D02*
X43160Y-39840D01*
X44760Y-39440D02*
X44360Y-39840D01*
X48525Y-43650D02*
X48400Y-43650D01*
X43550Y-40400D02*
X43525Y-40375D01*
X48400Y-43650D02*
X47900Y-43150D01*
X45600Y-42550D02*
X43550Y-40500D01*
X43550Y-40500D02*
X43550Y-40400D01*
X47850Y-41890D02*
X47960Y-42000D01*
X51968Y-40172D02*
X52280Y-39860D01*
X52600Y-43400D02*
X52598Y-43400D01*
X52360Y-44220D02*
X52600Y-43980D01*
X51968Y-42796D02*
X51968Y-40172D01*
X47850Y-41650D02*
X47850Y-41890D01*
X52600Y-43980D02*
X52600Y-43400D01*
X52280Y-39860D02*
X52280Y-39030D01*
X48260Y-44220D02*
X52360Y-44220D01*
X47520Y-43480D02*
X48260Y-44220D01*
X47520Y-42700D02*
X47520Y-43480D01*
X47960Y-42260D02*
X47520Y-42700D01*
X47960Y-42000D02*
X47960Y-42260D01*
X43550Y-42900D02*
X43550Y-43400D01*
X56900Y-40025D02*
X55975Y-39100D01*
X52598Y-42027D02*
X52571Y-42000D01*
X52598Y-42796D02*
X52598Y-42027D01*
X52571Y-42000D02*
X52025Y-42000D01*
X47350Y-42150D02*
X47850Y-41650D01*
X52598Y-43400D02*
X52598Y-42796D01*
X52025Y-42000D02*
X51968Y-42057D01*
X43550Y-42400D02*
X43550Y-42900D01*
X60825Y-39825D02*
X60750Y-39900D01*
X52598Y-43598D02*
X52598Y-43400D01*
X53800Y-43600D02*
X52600Y-43600D01*
X54775Y-43300D02*
X54100Y-43300D01*
X54100Y-43300D02*
X53800Y-43600D01*
X52600Y-43600D02*
X52598Y-43598D01*
X43525Y-42375D02*
X43550Y-42400D01*
X51968Y-42075D02*
X51968Y-42796D01*
X55325Y-38375D02*
X55350Y-38400D01*
X43550Y-43400D02*
X43525Y-43375D01*
X60675Y-42700D02*
X60050Y-42700D01*
X54250Y-37675D02*
X52525Y-37675D01*
X55975Y-39100D02*
X55975Y-38450D01*
X52525Y-37675D02*
X52280Y-37920D01*
X60825Y-38750D02*
X60825Y-39825D01*
X51968Y-42057D02*
X51968Y-42075D01*
X54500Y-37925D02*
X54250Y-37675D01*
X52280Y-37920D02*
X52280Y-39030D01*
X55975Y-38450D02*
X55925Y-38400D01*
X59825Y-44250D02*
X59825Y-43750D01*
X56950Y-44325D02*
X59750Y-44325D01*
X55925Y-43300D02*
X56950Y-44325D01*
X54775Y-43300D02*
X55925Y-43300D01*
X61800Y-42525D02*
X60850Y-42525D01*
X59850Y-42900D02*
X59850Y-43725D01*
X59750Y-44325D02*
X59825Y-44250D01*
X60850Y-42525D02*
X60675Y-42700D01*
X54500Y-38375D02*
X54500Y-37925D01*
X60050Y-42700D02*
X59850Y-42900D01*
X59850Y-43725D02*
X59825Y-43750D01*
X54500Y-38375D02*
X55325Y-38375D01*
X55925Y-38400D02*
X55350Y-38400D01*
X61325Y-41200D02*
X60675Y-41200D01*
X61800Y-40725D02*
X61325Y-41200D01*
X56850Y-41575D02*
X55715Y-40440D01*
X54350Y-40450D02*
X53500Y-40450D01*
X55715Y-40440D02*
X54330Y-40440D01*
X54330Y-40440D02*
X54350Y-40450D01*
X58450Y-42900D02*
X58400Y-42900D01*
X55070Y-41070D02*
X56075Y-42075D01*
X56600Y-43575D02*
X56950Y-43575D01*
X58900Y-40725D02*
X58400Y-41225D01*
X58400Y-42900D02*
X59250Y-42900D01*
X60125Y-40725D02*
X58900Y-40725D01*
X59875Y-38275D02*
X60200Y-38600D01*
X59875Y-37975D02*
X59875Y-38275D01*
X60200Y-40125D02*
X60675Y-40600D01*
X60675Y-40600D02*
X60250Y-40600D01*
X56075Y-42075D02*
X56075Y-43050D01*
X56075Y-43050D02*
X56600Y-43575D01*
X54330Y-41070D02*
X55070Y-41070D01*
X60250Y-40600D02*
X60125Y-40725D01*
X60200Y-38600D02*
X60200Y-40125D01*
X58400Y-41225D02*
X58400Y-42900D01*
X59275Y-41125D02*
X59275Y-42000D01*
X59300Y-41100D02*
X59275Y-41125D01*
X48525Y-43050D02*
X48650Y-43050D01*
X48650Y-43050D02*
X49950Y-41750D01*
X49950Y-41750D02*
X50500Y-41750D01*
X50500Y-41750D02*
X50550Y-41700D01*
X50550Y-41700D02*
X50550Y-41698D01*
X50600Y-41950D02*
X50550Y-42000D01*
X53800Y-40750D02*
X53600Y-40950D01*
X60675Y-42100D02*
X59975Y-42100D01*
X50550Y-42000D02*
X50550Y-42012D01*
X54350Y-40750D02*
X53800Y-40750D01*
X51360Y-41200D02*
X51150Y-41950D01*
X54330Y-40760D02*
X54350Y-40750D01*
X51150Y-41950D02*
X50600Y-41950D01*
X59825Y-42425D02*
X58775Y-42425D01*
X55335Y-40760D02*
X54330Y-40760D01*
X59975Y-42100D02*
X59875Y-42000D01*
X59875Y-42375D02*
X59825Y-42425D01*
X59875Y-42000D02*
X59875Y-42375D01*
X55400Y-40825D02*
X55335Y-40760D01*
X49575Y-38925D02*
X51235Y-38925D01*
X51235Y-38925D02*
X51340Y-39030D01*
X50550Y-39808D02*
X49992Y-39808D01*
X47980Y-39440D02*
X47980Y-38740D01*
X48420Y-39880D02*
X47980Y-39440D01*
X49920Y-39880D02*
X48420Y-39880D01*
X49992Y-39808D02*
X49920Y-39880D01*
X48882Y-41068D02*
X50550Y-41068D01*
X49950Y-43350D02*
X49850Y-43350D01*
X50150Y-43550D02*
X49950Y-43350D01*
X49850Y-43350D02*
X49550Y-43050D01*
X48875Y-41075D02*
X48882Y-41068D01*
X49550Y-43050D02*
X49525Y-43050D01*
X46100Y-41850D02*
X46950Y-41850D01*
X53750Y-41850D02*
X53750Y-42200D01*
X53750Y-42200D02*
X53550Y-42400D01*
X46950Y-41850D02*
X47450Y-41350D01*
X47850Y-41050D02*
X48350Y-40550D01*
X53550Y-42800D02*
X53543Y-42796D01*
X48350Y-40550D02*
X48350Y-40450D01*
X46075Y-41836D02*
X46100Y-41850D01*
X47450Y-41350D02*
X47550Y-41350D01*
X53080Y-40820D02*
X53750Y-41850D01*
X53550Y-42400D02*
X53550Y-42800D01*
X47550Y-41350D02*
X47850Y-41050D01*
X55050Y-42150D02*
X54800Y-42400D01*
X54800Y-42400D02*
X54800Y-42700D01*
X53228Y-42796D02*
X53250Y-42800D01*
X53250Y-42200D02*
X53400Y-42050D01*
X54800Y-42700D02*
X54775Y-42700D01*
X53250Y-42800D02*
X53250Y-42200D01*
X49575Y-38325D02*
X49135Y-38325D01*
X55350Y-39430D02*
X55350Y-39000D01*
X55240Y-39540D02*
X55350Y-39430D01*
X49135Y-38325D02*
X49060Y-38400D01*
X49060Y-38400D02*
X49060Y-39220D01*
X49060Y-39220D02*
X49360Y-39520D01*
X49360Y-39520D02*
X49700Y-39520D01*
X59225Y-43750D02*
X58375Y-43750D01*
X58350Y-43775D02*
X58475Y-43750D01*
X58375Y-43750D02*
X58350Y-43775D01*
X57875Y-43750D02*
X57875Y-38150D01*
X57150Y-37425D02*
X52300Y-37425D01*
X51650Y-38075D02*
X51650Y-39030D01*
X52300Y-37425D02*
X51650Y-38075D01*
X57875Y-38150D02*
X57150Y-37425D01*
X60825Y-38150D02*
X60825Y-38125D01*
X59275Y-37500D02*
X59275Y-37975D01*
X60200Y-37500D02*
X59275Y-37500D01*
X60825Y-38125D02*
X60200Y-37500D01*
X59275Y-37975D02*
X59275Y-38900D01*
X59275Y-38900D02*
X59425Y-39050D01*
G54D10*
G36*
X52921Y-40022D02*
X52332Y-40612D01*
X52265Y-40712D01*
X52241Y-40830D01*
X52241Y-41308D01*
X52190Y-41359D01*
X52125Y-41515D01*
X52125Y-41684D01*
X52189Y-41840D01*
X52309Y-41960D01*
X52465Y-42025D01*
X52538Y-42025D01*
X52591Y-42077D01*
X52591Y-42153D01*
X52498Y-42153D01*
X52498Y-42159D01*
X52493Y-42154D01*
X52460Y-42154D01*
X52440Y-42162D01*
X52421Y-42154D01*
X52322Y-42154D01*
X52146Y-42154D01*
X52125Y-42162D01*
X52106Y-42154D01*
X52073Y-42154D01*
X52012Y-42215D01*
X52012Y-42234D01*
X51984Y-42262D01*
X51967Y-42300D01*
X51952Y-42262D01*
X51924Y-42234D01*
X51924Y-42215D01*
X51863Y-42154D01*
X51830Y-42154D01*
X51810Y-42162D01*
X51791Y-42154D01*
X51692Y-42154D01*
X51516Y-42154D01*
X51495Y-42162D01*
X51476Y-42154D01*
X51377Y-42154D01*
X51378Y-42152D01*
X51393Y-42140D01*
X51413Y-42099D01*
X51435Y-42068D01*
X51438Y-42051D01*
X51448Y-42033D01*
X51577Y-41570D01*
X51600Y-41561D01*
X51720Y-41441D01*
X51785Y-41285D01*
X51785Y-41116D01*
X51721Y-40960D01*
X51601Y-40840D01*
X51445Y-40775D01*
X51276Y-40775D01*
X51192Y-40809D01*
X51192Y-40791D01*
X51192Y-40615D01*
X51183Y-40595D01*
X51192Y-40576D01*
X51192Y-40477D01*
X51192Y-40301D01*
X51183Y-40280D01*
X51192Y-40260D01*
X51192Y-40161D01*
X51192Y-39985D01*
X51183Y-39965D01*
X51192Y-39946D01*
X51192Y-39847D01*
X51192Y-39671D01*
X51190Y-39667D01*
X51202Y-39672D01*
X51301Y-39672D01*
X51477Y-39672D01*
X51494Y-39664D01*
X51512Y-39672D01*
X51611Y-39672D01*
X51787Y-39672D01*
X51809Y-39662D01*
X51832Y-39672D01*
X51931Y-39672D01*
X52107Y-39672D01*
X52124Y-39664D01*
X52142Y-39672D01*
X52175Y-39672D01*
X52236Y-39611D01*
X52236Y-39597D01*
X52269Y-39564D01*
X52285Y-39525D01*
X52301Y-39564D01*
X52324Y-39587D01*
X52324Y-39611D01*
X52385Y-39672D01*
X52418Y-39672D01*
X52440Y-39662D01*
X52462Y-39672D01*
X52561Y-39672D01*
X52737Y-39672D01*
X52754Y-39664D01*
X52772Y-39672D01*
X52871Y-39672D01*
X52921Y-39672D01*
X52921Y-40022D01*
X52921Y-40022D01*
G37*
G54D24*
X52921Y-40022D02*
X52332Y-40612D01*
X52265Y-40712D01*
X52241Y-40830D01*
X52241Y-41308D01*
X52190Y-41359D01*
X52125Y-41515D01*
X52125Y-41684D01*
X52189Y-41840D01*
X52309Y-41960D01*
X52465Y-42025D01*
X52538Y-42025D01*
X52591Y-42077D01*
X52591Y-42153D01*
X52498Y-42153D01*
X52498Y-42159D01*
X52493Y-42154D01*
X52460Y-42154D01*
X52440Y-42162D01*
X52421Y-42154D01*
X52322Y-42154D01*
X52146Y-42154D01*
X52125Y-42162D01*
X52106Y-42154D01*
X52073Y-42154D01*
X52012Y-42215D01*
X52012Y-42234D01*
X51984Y-42262D01*
X51967Y-42300D01*
X51952Y-42262D01*
X51924Y-42234D01*
X51924Y-42215D01*
X51863Y-42154D01*
X51830Y-42154D01*
X51810Y-42162D01*
X51791Y-42154D01*
X51692Y-42154D01*
X51516Y-42154D01*
X51495Y-42162D01*
X51476Y-42154D01*
X51377Y-42154D01*
X51378Y-42152D01*
X51393Y-42140D01*
X51413Y-42099D01*
X51435Y-42068D01*
X51438Y-42051D01*
X51448Y-42033D01*
X51577Y-41570D01*
X51600Y-41561D01*
X51720Y-41441D01*
X51785Y-41285D01*
X51785Y-41116D01*
X51721Y-40960D01*
X51601Y-40840D01*
X51445Y-40775D01*
X51276Y-40775D01*
X51192Y-40809D01*
X51192Y-40791D01*
X51192Y-40615D01*
X51183Y-40595D01*
X51192Y-40576D01*
X51192Y-40477D01*
X51192Y-40301D01*
X51183Y-40280D01*
X51192Y-40260D01*
X51192Y-40161D01*
X51192Y-39985D01*
X51183Y-39965D01*
X51192Y-39946D01*
X51192Y-39847D01*
X51192Y-39671D01*
X51190Y-39667D01*
X51202Y-39672D01*
X51301Y-39672D01*
X51477Y-39672D01*
X51494Y-39664D01*
X51512Y-39672D01*
X51611Y-39672D01*
X51787Y-39672D01*
X51809Y-39662D01*
X51832Y-39672D01*
X51931Y-39672D01*
X52107Y-39672D01*
X52124Y-39664D01*
X52142Y-39672D01*
X52175Y-39672D01*
X52236Y-39611D01*
X52236Y-39597D01*
X52269Y-39564D01*
X52285Y-39525D01*
X52301Y-39564D01*
X52324Y-39587D01*
X52324Y-39611D01*
X52385Y-39672D01*
X52418Y-39672D01*
X52440Y-39662D01*
X52462Y-39672D01*
X52561Y-39672D01*
X52737Y-39672D01*
X52754Y-39664D01*
X52772Y-39672D01*
X52871Y-39672D01*
X52921Y-39672D01*
X52921Y-40022D01*
G54D10*
G36*
X63255Y-43183D02*
X63018Y-43085D01*
X62684Y-43085D01*
X62375Y-43212D01*
X62340Y-43247D01*
X62340Y-42603D01*
X62328Y-42391D01*
X62268Y-42246D01*
X62175Y-42221D01*
X61871Y-42525D01*
X62175Y-42829D01*
X62268Y-42804D01*
X62340Y-42603D01*
X62340Y-43247D01*
X62139Y-43448D01*
X62104Y-43531D01*
X62104Y-42900D01*
X61800Y-42596D01*
X61729Y-42667D01*
X61729Y-42525D01*
X61425Y-42221D01*
X61332Y-42246D01*
X61260Y-42447D01*
X61272Y-42659D01*
X61332Y-42804D01*
X61425Y-42829D01*
X61729Y-42525D01*
X61729Y-42667D01*
X61496Y-42900D01*
X61521Y-42993D01*
X61722Y-43065D01*
X61934Y-43053D01*
X62079Y-42993D01*
X62104Y-42900D01*
X62104Y-43531D01*
X62010Y-43757D01*
X62010Y-44091D01*
X62137Y-44400D01*
X62292Y-44555D01*
X61150Y-44555D01*
X61150Y-42812D01*
X61088Y-42750D01*
X60725Y-42750D01*
X60725Y-43013D01*
X60787Y-43075D01*
X60851Y-43074D01*
X60950Y-43074D01*
X61041Y-43036D01*
X61111Y-42966D01*
X61149Y-42874D01*
X61150Y-42812D01*
X61150Y-44555D01*
X60225Y-44555D01*
X60200Y-44555D01*
X60200Y-43862D01*
X60138Y-43800D01*
X59875Y-43800D01*
X59875Y-44163D01*
X59937Y-44225D01*
X59999Y-44224D01*
X60091Y-44186D01*
X60161Y-44116D01*
X60199Y-44025D01*
X60199Y-43926D01*
X60200Y-43862D01*
X60200Y-44555D01*
X57425Y-44555D01*
X57425Y-40137D01*
X57425Y-39913D01*
X57424Y-39701D01*
X57386Y-39609D01*
X57316Y-39539D01*
X57225Y-39501D01*
X57126Y-39501D01*
X57122Y-39500D01*
X57197Y-39470D01*
X57345Y-39323D01*
X57425Y-39130D01*
X57425Y-38921D01*
X57345Y-38728D01*
X57198Y-38580D01*
X57005Y-38500D01*
X56796Y-38500D01*
X56603Y-38580D01*
X56455Y-38727D01*
X56375Y-38920D01*
X56375Y-39129D01*
X56455Y-39322D01*
X56602Y-39470D01*
X56676Y-39500D01*
X56674Y-39501D01*
X56575Y-39501D01*
X56484Y-39539D01*
X56414Y-39609D01*
X56376Y-39701D01*
X56375Y-39913D01*
X56437Y-39975D01*
X56800Y-39975D01*
X56850Y-39975D01*
X56950Y-39975D01*
X57000Y-39975D01*
X57363Y-39975D01*
X57425Y-39913D01*
X57425Y-40137D01*
X57363Y-40075D01*
X56950Y-40075D01*
X56950Y-40488D01*
X57012Y-40550D01*
X57126Y-40549D01*
X57225Y-40549D01*
X57316Y-40511D01*
X57386Y-40441D01*
X57424Y-40349D01*
X57425Y-40137D01*
X57425Y-44555D01*
X55250Y-44555D01*
X55250Y-43412D01*
X55188Y-43350D01*
X54825Y-43350D01*
X54825Y-43613D01*
X54887Y-43675D01*
X54951Y-43674D01*
X55050Y-43674D01*
X55141Y-43636D01*
X55211Y-43566D01*
X55249Y-43474D01*
X55250Y-43412D01*
X55250Y-44555D01*
X54725Y-44555D01*
X54725Y-43613D01*
X54725Y-43350D01*
X54362Y-43350D01*
X54300Y-43412D01*
X54301Y-43474D01*
X54339Y-43566D01*
X54409Y-43636D01*
X54500Y-43674D01*
X54599Y-43674D01*
X54663Y-43675D01*
X54725Y-43613D01*
X54725Y-44555D01*
X44068Y-44555D01*
X44068Y-43454D01*
X44068Y-42454D01*
X44057Y-42241D01*
X43997Y-42094D01*
X43903Y-42067D01*
X43596Y-42375D01*
X43903Y-42683D01*
X43997Y-42656D01*
X44068Y-42454D01*
X44068Y-43454D01*
X44057Y-43241D01*
X43997Y-43094D01*
X43903Y-43067D01*
X43833Y-43137D01*
X43833Y-42997D01*
X43806Y-42903D01*
X43732Y-42877D01*
X43806Y-42847D01*
X43833Y-42753D01*
X43525Y-42446D01*
X43217Y-42753D01*
X43244Y-42847D01*
X43317Y-42872D01*
X43244Y-42903D01*
X43217Y-42997D01*
X43525Y-43304D01*
X43833Y-42997D01*
X43833Y-43137D01*
X43596Y-43375D01*
X43903Y-43683D01*
X43997Y-43656D01*
X44068Y-43454D01*
X44068Y-44555D01*
X43833Y-44555D01*
X43833Y-43753D01*
X43525Y-43446D01*
X43217Y-43753D01*
X43244Y-43847D01*
X43446Y-43918D01*
X43659Y-43907D01*
X43806Y-43847D01*
X43833Y-43753D01*
X43833Y-44555D01*
X41965Y-44555D01*
X41965Y-37325D01*
X51963Y-37325D01*
X51432Y-37857D01*
X51365Y-37957D01*
X51341Y-38075D01*
X51341Y-38388D01*
X51203Y-38388D01*
X51111Y-38426D01*
X51041Y-38496D01*
X51003Y-38587D01*
X51003Y-38616D01*
X49986Y-38616D01*
X50011Y-38591D01*
X50049Y-38500D01*
X50049Y-38401D01*
X50049Y-38151D01*
X50011Y-38059D01*
X49941Y-37989D01*
X49850Y-37951D01*
X49751Y-37951D01*
X49301Y-37951D01*
X49209Y-37989D01*
X49182Y-38016D01*
X49135Y-38016D01*
X49017Y-38040D01*
X48916Y-38107D01*
X48842Y-38182D01*
X48775Y-38282D01*
X48751Y-38400D01*
X48751Y-39220D01*
X48775Y-39338D01*
X48842Y-39438D01*
X48974Y-39571D01*
X48547Y-39571D01*
X48289Y-39312D01*
X48289Y-39032D01*
X48340Y-38981D01*
X48405Y-38825D01*
X48405Y-38656D01*
X48341Y-38500D01*
X48221Y-38380D01*
X48065Y-38315D01*
X47896Y-38315D01*
X47740Y-38379D01*
X47620Y-38499D01*
X47555Y-38655D01*
X47555Y-38824D01*
X47619Y-38980D01*
X47671Y-39032D01*
X47671Y-39440D01*
X47695Y-39558D01*
X47762Y-39658D01*
X48168Y-40065D01*
X48110Y-40089D01*
X47990Y-40209D01*
X47925Y-40365D01*
X47925Y-40534D01*
X47926Y-40537D01*
X47787Y-40676D01*
X47576Y-40676D01*
X47484Y-40714D01*
X47414Y-40784D01*
X47376Y-40875D01*
X47376Y-40974D01*
X47376Y-41056D01*
X47332Y-41065D01*
X47231Y-41132D01*
X46822Y-41541D01*
X46796Y-41541D01*
X46796Y-41472D01*
X46796Y-40429D01*
X46796Y-40330D01*
X46796Y-39700D01*
X46758Y-39608D01*
X46688Y-39538D01*
X46597Y-39500D01*
X46498Y-39500D01*
X45554Y-39500D01*
X45462Y-39538D01*
X45392Y-39608D01*
X45354Y-39699D01*
X45354Y-39798D01*
X45354Y-40428D01*
X45392Y-40520D01*
X45462Y-40590D01*
X45553Y-40628D01*
X45652Y-40628D01*
X46596Y-40628D01*
X46688Y-40590D01*
X46758Y-40520D01*
X46796Y-40429D01*
X46796Y-41472D01*
X46758Y-41380D01*
X46688Y-41310D01*
X46597Y-41272D01*
X46498Y-41272D01*
X45554Y-41272D01*
X45462Y-41310D01*
X45392Y-41380D01*
X45354Y-41471D01*
X45354Y-41570D01*
X45354Y-41867D01*
X44043Y-40557D01*
X44074Y-40484D01*
X44074Y-40266D01*
X44025Y-40149D01*
X44360Y-40149D01*
X44360Y-40148D01*
X44478Y-40125D01*
X44578Y-40058D01*
X44771Y-39865D01*
X44844Y-39865D01*
X45000Y-39801D01*
X45120Y-39681D01*
X45185Y-39525D01*
X45185Y-39356D01*
X45121Y-39200D01*
X45001Y-39080D01*
X44845Y-39015D01*
X44676Y-39015D01*
X44520Y-39079D01*
X44400Y-39199D01*
X44335Y-39355D01*
X44335Y-39428D01*
X44232Y-39531D01*
X44054Y-39531D01*
X44074Y-39484D01*
X44074Y-39266D01*
X43990Y-39064D01*
X43836Y-38910D01*
X43634Y-38826D01*
X43416Y-38826D01*
X43214Y-38910D01*
X43074Y-39050D01*
X43074Y-39026D01*
X43036Y-38934D01*
X42966Y-38864D01*
X42875Y-38826D01*
X42776Y-38826D01*
X42176Y-38826D01*
X42084Y-38864D01*
X42014Y-38934D01*
X41976Y-39025D01*
X41976Y-39124D01*
X41976Y-39724D01*
X42014Y-39816D01*
X42084Y-39886D01*
X42175Y-39924D01*
X42200Y-39924D01*
X42060Y-40064D01*
X41976Y-40266D01*
X41976Y-40484D01*
X42060Y-40686D01*
X42214Y-40840D01*
X42298Y-40875D01*
X42214Y-40910D01*
X42060Y-41064D01*
X41976Y-41266D01*
X41976Y-41484D01*
X42060Y-41686D01*
X42214Y-41840D01*
X42298Y-41875D01*
X42214Y-41910D01*
X42060Y-42064D01*
X41976Y-42266D01*
X41976Y-42484D01*
X42060Y-42686D01*
X42214Y-42840D01*
X42298Y-42875D01*
X42214Y-42910D01*
X42060Y-43064D01*
X41976Y-43266D01*
X41976Y-43484D01*
X42060Y-43686D01*
X42214Y-43840D01*
X42416Y-43924D01*
X42634Y-43924D01*
X42836Y-43840D01*
X42990Y-43686D01*
X43027Y-43594D01*
X43053Y-43656D01*
X43147Y-43683D01*
X43454Y-43375D01*
X43147Y-43067D01*
X43053Y-43094D01*
X43029Y-43159D01*
X42990Y-43064D01*
X42836Y-42910D01*
X42751Y-42875D01*
X42836Y-42840D01*
X42990Y-42686D01*
X43027Y-42594D01*
X43053Y-42656D01*
X43147Y-42683D01*
X43419Y-42410D01*
X43454Y-42375D01*
X43525Y-42304D01*
X43560Y-42269D01*
X43833Y-41997D01*
X43806Y-41903D01*
X43740Y-41879D01*
X43836Y-41840D01*
X43990Y-41686D01*
X44074Y-41484D01*
X44074Y-41460D01*
X45175Y-42561D01*
X45175Y-42634D01*
X45239Y-42790D01*
X45359Y-42910D01*
X45515Y-42975D01*
X45684Y-42975D01*
X45840Y-42911D01*
X45960Y-42791D01*
X46025Y-42635D01*
X46025Y-42466D01*
X45997Y-42400D01*
X46596Y-42400D01*
X46688Y-42362D01*
X46758Y-42292D01*
X46796Y-42201D01*
X46796Y-42159D01*
X46950Y-42159D01*
X46950Y-42158D01*
X47068Y-42135D01*
X47168Y-42068D01*
X47386Y-41849D01*
X47414Y-41916D01*
X47484Y-41986D01*
X47575Y-42024D01*
X47674Y-42024D01*
X47738Y-42025D01*
X47800Y-41963D01*
X47800Y-41750D01*
X47800Y-41700D01*
X47800Y-41600D01*
X47900Y-41600D01*
X47900Y-41700D01*
X47900Y-41750D01*
X47900Y-41963D01*
X47962Y-42025D01*
X48026Y-42024D01*
X48125Y-42024D01*
X48216Y-41986D01*
X48237Y-41964D01*
X48289Y-42090D01*
X48409Y-42210D01*
X48565Y-42275D01*
X48734Y-42275D01*
X48890Y-42211D01*
X49010Y-42091D01*
X49075Y-41935D01*
X49075Y-41861D01*
X49227Y-41709D01*
X49554Y-41709D01*
X48587Y-42676D01*
X48251Y-42676D01*
X48159Y-42714D01*
X48100Y-42772D01*
X47985Y-42725D01*
X47816Y-42725D01*
X47660Y-42789D01*
X47540Y-42909D01*
X47475Y-43065D01*
X47475Y-43234D01*
X47539Y-43390D01*
X47659Y-43510D01*
X47815Y-43575D01*
X47888Y-43575D01*
X48051Y-43737D01*
X48051Y-43824D01*
X48089Y-43916D01*
X48159Y-43986D01*
X48250Y-44024D01*
X48349Y-44024D01*
X48799Y-44024D01*
X48891Y-43986D01*
X48961Y-43916D01*
X48999Y-43825D01*
X48999Y-43726D01*
X48999Y-43476D01*
X48961Y-43384D01*
X48927Y-43350D01*
X48961Y-43316D01*
X48999Y-43225D01*
X48999Y-43137D01*
X49051Y-43085D01*
X49051Y-43224D01*
X49089Y-43316D01*
X49123Y-43350D01*
X49089Y-43384D01*
X49051Y-43475D01*
X49051Y-43574D01*
X49051Y-43824D01*
X49089Y-43916D01*
X49159Y-43986D01*
X49250Y-44024D01*
X49349Y-44024D01*
X49412Y-44024D01*
X49606Y-44218D01*
X49607Y-44218D01*
X49707Y-44285D01*
X49825Y-44309D01*
X51600Y-44309D01*
X51600Y-44308D01*
X51718Y-44285D01*
X51818Y-44218D01*
X52061Y-43975D01*
X52134Y-43975D01*
X52290Y-43911D01*
X52410Y-43791D01*
X52475Y-43635D01*
X52475Y-43558D01*
X52475Y-43557D01*
X52512Y-43502D01*
X52534Y-43469D01*
X52535Y-43468D01*
X52540Y-43438D01*
X52541Y-43438D01*
X52553Y-43377D01*
X52554Y-43377D01*
X52554Y-43374D01*
X52554Y-43370D01*
X52557Y-43354D01*
X52558Y-43353D01*
X52582Y-43330D01*
X52598Y-43291D01*
X52614Y-43330D01*
X52642Y-43358D01*
X52642Y-43377D01*
X52703Y-43438D01*
X52736Y-43438D01*
X52755Y-43429D01*
X52775Y-43438D01*
X52874Y-43438D01*
X53050Y-43438D01*
X53070Y-43429D01*
X53090Y-43438D01*
X53189Y-43438D01*
X53365Y-43438D01*
X53385Y-43429D01*
X53405Y-43438D01*
X53504Y-43438D01*
X53680Y-43438D01*
X53772Y-43400D01*
X53842Y-43330D01*
X53880Y-43239D01*
X53880Y-43140D01*
X53880Y-42506D01*
X53968Y-42419D01*
X53968Y-42418D01*
X54012Y-42352D01*
X54015Y-42347D01*
X54450Y-42347D01*
X54409Y-42364D01*
X54339Y-42434D01*
X54301Y-42525D01*
X54301Y-42624D01*
X54301Y-42874D01*
X54339Y-42966D01*
X54373Y-43000D01*
X54339Y-43034D01*
X54301Y-43126D01*
X54300Y-43188D01*
X54362Y-43250D01*
X54675Y-43250D01*
X54725Y-43250D01*
X54825Y-43250D01*
X54875Y-43250D01*
X55188Y-43250D01*
X55250Y-43188D01*
X55249Y-43126D01*
X55211Y-43034D01*
X55177Y-43000D01*
X55211Y-42966D01*
X55249Y-42875D01*
X55249Y-42776D01*
X55249Y-42527D01*
X55290Y-42511D01*
X55410Y-42391D01*
X55475Y-42235D01*
X55475Y-42066D01*
X55411Y-41910D01*
X55291Y-41790D01*
X55135Y-41725D01*
X54972Y-41725D01*
X54972Y-41563D01*
X54962Y-41540D01*
X54972Y-41518D01*
X54972Y-41419D01*
X54972Y-41408D01*
X55766Y-42202D01*
X55766Y-43050D01*
X55790Y-43168D01*
X55857Y-43268D01*
X56381Y-43793D01*
X56382Y-43793D01*
X56482Y-43860D01*
X56600Y-43884D01*
X56658Y-43884D01*
X56709Y-43935D01*
X56865Y-44000D01*
X57034Y-44000D01*
X57190Y-43936D01*
X57310Y-43816D01*
X57375Y-43660D01*
X57375Y-43491D01*
X57311Y-43335D01*
X57191Y-43215D01*
X57035Y-43150D01*
X56866Y-43150D01*
X56710Y-43214D01*
X56692Y-43231D01*
X56560Y-43099D01*
X56624Y-43099D01*
X57174Y-43099D01*
X57266Y-43061D01*
X57336Y-42991D01*
X57374Y-42900D01*
X57374Y-42801D01*
X57374Y-42251D01*
X57336Y-42159D01*
X57266Y-42089D01*
X57175Y-42051D01*
X57076Y-42051D01*
X57072Y-42051D01*
X57147Y-42020D01*
X57295Y-41873D01*
X57375Y-41680D01*
X57375Y-41471D01*
X57295Y-41278D01*
X57148Y-41130D01*
X56955Y-41050D01*
X56850Y-41050D01*
X56850Y-40488D01*
X56850Y-40075D01*
X56437Y-40075D01*
X56375Y-40137D01*
X56376Y-40349D01*
X56414Y-40441D01*
X56484Y-40511D01*
X56575Y-40549D01*
X56674Y-40549D01*
X56788Y-40550D01*
X56850Y-40488D01*
X56850Y-41050D01*
X56761Y-41050D01*
X55933Y-40222D01*
X55855Y-40170D01*
X55885Y-40141D01*
X55950Y-39985D01*
X55950Y-39816D01*
X55886Y-39660D01*
X55766Y-39540D01*
X55665Y-39497D01*
X55665Y-39456D01*
X55657Y-39437D01*
X55658Y-39430D01*
X55659Y-39430D01*
X55659Y-39359D01*
X55716Y-39336D01*
X55786Y-39266D01*
X55824Y-39175D01*
X55824Y-39076D01*
X55824Y-38826D01*
X55786Y-38734D01*
X55752Y-38700D01*
X55786Y-38666D01*
X55824Y-38574D01*
X55825Y-38512D01*
X55825Y-38288D01*
X55824Y-38226D01*
X55786Y-38134D01*
X55716Y-38064D01*
X55625Y-38026D01*
X55526Y-38026D01*
X55462Y-38025D01*
X55400Y-38087D01*
X55400Y-38350D01*
X55763Y-38350D01*
X55825Y-38288D01*
X55825Y-38512D01*
X55763Y-38450D01*
X55450Y-38450D01*
X55400Y-38450D01*
X55300Y-38450D01*
X55300Y-38350D01*
X55300Y-38087D01*
X55238Y-38025D01*
X55174Y-38026D01*
X55075Y-38026D01*
X54984Y-38064D01*
X54936Y-38111D01*
X54936Y-38109D01*
X54866Y-38039D01*
X54775Y-38001D01*
X54676Y-38001D01*
X54612Y-38000D01*
X54550Y-38062D01*
X54550Y-38325D01*
X54912Y-38325D01*
X54937Y-38350D01*
X55300Y-38350D01*
X55300Y-38450D01*
X55250Y-38450D01*
X54938Y-38450D01*
X54913Y-38425D01*
X54600Y-38425D01*
X54550Y-38425D01*
X54450Y-38425D01*
X54450Y-38325D01*
X54450Y-38275D01*
X54450Y-38062D01*
X54388Y-38000D01*
X54324Y-38001D01*
X54225Y-38001D01*
X54134Y-38039D01*
X54064Y-38109D01*
X54026Y-38201D01*
X54025Y-38263D01*
X54037Y-38275D01*
X54025Y-38275D01*
X54025Y-38295D01*
X53876Y-38295D01*
X53720Y-38359D01*
X53690Y-38388D01*
X53688Y-38388D01*
X53589Y-38388D01*
X53413Y-38388D01*
X53390Y-38397D01*
X53368Y-38388D01*
X53269Y-38388D01*
X53093Y-38388D01*
X53070Y-38397D01*
X53048Y-38388D01*
X52949Y-38388D01*
X52773Y-38388D01*
X52755Y-38395D01*
X52738Y-38388D01*
X52639Y-38388D01*
X52463Y-38388D01*
X52440Y-38397D01*
X52418Y-38388D01*
X52385Y-38388D01*
X52324Y-38449D01*
X52324Y-38473D01*
X52301Y-38496D01*
X52284Y-38534D01*
X52269Y-38496D01*
X52236Y-38463D01*
X52236Y-38449D01*
X52175Y-38388D01*
X52142Y-38388D01*
X52125Y-38395D01*
X52108Y-38388D01*
X52009Y-38388D01*
X51959Y-38388D01*
X51959Y-38202D01*
X52427Y-37734D01*
X57022Y-37734D01*
X57566Y-38277D01*
X57566Y-43357D01*
X57539Y-43384D01*
X57501Y-43475D01*
X57501Y-43574D01*
X57501Y-44024D01*
X57539Y-44116D01*
X57609Y-44186D01*
X57700Y-44224D01*
X57799Y-44224D01*
X58049Y-44224D01*
X58141Y-44186D01*
X58175Y-44152D01*
X58209Y-44186D01*
X58300Y-44224D01*
X58399Y-44224D01*
X58649Y-44224D01*
X58741Y-44186D01*
X58811Y-44116D01*
X58834Y-44059D01*
X58865Y-44059D01*
X58889Y-44116D01*
X58959Y-44186D01*
X59050Y-44224D01*
X59149Y-44224D01*
X59399Y-44224D01*
X59491Y-44186D01*
X59525Y-44152D01*
X59559Y-44186D01*
X59651Y-44224D01*
X59713Y-44225D01*
X59775Y-44163D01*
X59775Y-43850D01*
X59775Y-43800D01*
X59775Y-43700D01*
X59775Y-43650D01*
X59775Y-43338D01*
X59775Y-43337D01*
X59800Y-43313D01*
X59800Y-43000D01*
X59800Y-42950D01*
X59800Y-42850D01*
X59900Y-42850D01*
X59900Y-42950D01*
X59900Y-43000D01*
X59900Y-43312D01*
X59875Y-43337D01*
X59875Y-43700D01*
X60138Y-43700D01*
X60200Y-43638D01*
X60199Y-43574D01*
X60199Y-43475D01*
X60161Y-43384D01*
X60113Y-43336D01*
X60116Y-43336D01*
X60186Y-43266D01*
X60224Y-43175D01*
X60224Y-43076D01*
X60225Y-43012D01*
X60213Y-43000D01*
X60225Y-43000D01*
X60225Y-42932D01*
X60239Y-42966D01*
X60309Y-43036D01*
X60400Y-43074D01*
X60499Y-43074D01*
X60563Y-43075D01*
X60625Y-43013D01*
X60625Y-42800D01*
X60625Y-42750D01*
X60625Y-42650D01*
X60725Y-42650D01*
X60775Y-42650D01*
X61088Y-42650D01*
X61150Y-42588D01*
X61149Y-42526D01*
X61111Y-42434D01*
X61077Y-42400D01*
X61111Y-42366D01*
X61149Y-42275D01*
X61149Y-42176D01*
X61149Y-41926D01*
X61111Y-41834D01*
X61041Y-41764D01*
X60950Y-41726D01*
X60851Y-41726D01*
X60401Y-41726D01*
X60309Y-41764D01*
X60282Y-41791D01*
X60249Y-41791D01*
X60249Y-41726D01*
X60211Y-41634D01*
X60141Y-41564D01*
X60050Y-41526D01*
X59951Y-41526D01*
X59701Y-41526D01*
X59609Y-41564D01*
X59584Y-41589D01*
X59584Y-41417D01*
X59660Y-41341D01*
X59725Y-41185D01*
X59725Y-41034D01*
X60125Y-41034D01*
X60125Y-41033D01*
X60203Y-41017D01*
X60201Y-41025D01*
X60201Y-41124D01*
X60201Y-41374D01*
X60239Y-41466D01*
X60309Y-41536D01*
X60400Y-41574D01*
X60499Y-41574D01*
X60949Y-41574D01*
X61041Y-41536D01*
X61068Y-41509D01*
X61256Y-41509D01*
X61256Y-41633D01*
X61339Y-41833D01*
X61492Y-41986D01*
X61592Y-42027D01*
X61521Y-42057D01*
X61496Y-42150D01*
X61800Y-42454D01*
X62104Y-42150D01*
X62079Y-42057D01*
X62002Y-42029D01*
X62108Y-41986D01*
X62261Y-41833D01*
X62344Y-41633D01*
X62344Y-41417D01*
X62261Y-41217D01*
X62169Y-41125D01*
X62261Y-41033D01*
X62344Y-40833D01*
X62344Y-40617D01*
X62261Y-40417D01*
X62108Y-40264D01*
X62014Y-40225D01*
X62108Y-40186D01*
X62261Y-40033D01*
X62344Y-39833D01*
X62344Y-39617D01*
X62261Y-39417D01*
X62108Y-39264D01*
X61908Y-39181D01*
X61692Y-39181D01*
X61492Y-39264D01*
X61339Y-39417D01*
X61300Y-39510D01*
X61300Y-38862D01*
X61238Y-38800D01*
X60875Y-38800D01*
X60875Y-39063D01*
X60937Y-39125D01*
X61001Y-39124D01*
X61100Y-39124D01*
X61191Y-39086D01*
X61261Y-39016D01*
X61299Y-38924D01*
X61300Y-38862D01*
X61300Y-39510D01*
X61256Y-39617D01*
X61256Y-39833D01*
X61339Y-40033D01*
X61492Y-40186D01*
X61585Y-40225D01*
X61492Y-40264D01*
X61339Y-40417D01*
X61256Y-40617D01*
X61256Y-40832D01*
X61197Y-40891D01*
X61086Y-40891D01*
X61111Y-40866D01*
X61149Y-40775D01*
X61149Y-40676D01*
X61149Y-40426D01*
X61111Y-40334D01*
X61041Y-40264D01*
X60950Y-40226D01*
X60851Y-40226D01*
X60737Y-40226D01*
X60509Y-39997D01*
X60509Y-39106D01*
X60550Y-39124D01*
X60649Y-39124D01*
X60713Y-39125D01*
X60775Y-39063D01*
X60775Y-38850D01*
X60775Y-38800D01*
X60775Y-38700D01*
X60875Y-38700D01*
X60925Y-38700D01*
X61238Y-38700D01*
X61300Y-38638D01*
X61299Y-38576D01*
X61261Y-38484D01*
X61227Y-38450D01*
X61261Y-38416D01*
X61299Y-38325D01*
X61299Y-38226D01*
X61299Y-37976D01*
X61261Y-37884D01*
X61191Y-37814D01*
X61100Y-37776D01*
X61001Y-37776D01*
X60912Y-37776D01*
X60461Y-37325D01*
X63255Y-37325D01*
X63255Y-37783D01*
X63018Y-37685D01*
X62684Y-37685D01*
X62375Y-37812D01*
X62139Y-38048D01*
X62010Y-38357D01*
X62010Y-38691D01*
X62137Y-39000D01*
X62373Y-39236D01*
X62682Y-39365D01*
X63016Y-39365D01*
X63255Y-39266D01*
X63255Y-43183D01*
X63255Y-43183D01*
G37*
G54D24*
X63255Y-43183D02*
X63018Y-43085D01*
X62684Y-43085D01*
X62375Y-43212D01*
X62340Y-43247D01*
X62340Y-42603D01*
X62328Y-42391D01*
X62268Y-42246D01*
X62175Y-42221D01*
X61871Y-42525D01*
X62175Y-42829D01*
X62268Y-42804D01*
X62340Y-42603D01*
X62340Y-43247D01*
X62139Y-43448D01*
X62104Y-43531D01*
X62104Y-42900D01*
X61800Y-42596D01*
X61729Y-42667D01*
X61729Y-42525D01*
X61425Y-42221D01*
X61332Y-42246D01*
X61260Y-42447D01*
X61272Y-42659D01*
X61332Y-42804D01*
X61425Y-42829D01*
X61729Y-42525D01*
X61729Y-42667D01*
X61496Y-42900D01*
X61521Y-42993D01*
X61722Y-43065D01*
X61934Y-43053D01*
X62079Y-42993D01*
X62104Y-42900D01*
X62104Y-43531D01*
X62010Y-43757D01*
X62010Y-44091D01*
X62137Y-44400D01*
X62292Y-44555D01*
X61150Y-44555D01*
X61150Y-42812D01*
X61088Y-42750D01*
X60725Y-42750D01*
X60725Y-43013D01*
X60787Y-43075D01*
X60851Y-43074D01*
X60950Y-43074D01*
X61041Y-43036D01*
X61111Y-42966D01*
X61149Y-42874D01*
X61150Y-42812D01*
X61150Y-44555D01*
X60225Y-44555D01*
X60200Y-44555D01*
X60200Y-43862D01*
X60138Y-43800D01*
X59875Y-43800D01*
X59875Y-44163D01*
X59937Y-44225D01*
X59999Y-44224D01*
X60091Y-44186D01*
X60161Y-44116D01*
X60199Y-44025D01*
X60199Y-43926D01*
X60200Y-43862D01*
X60200Y-44555D01*
X57425Y-44555D01*
X57425Y-40137D01*
X57425Y-39913D01*
X57424Y-39701D01*
X57386Y-39609D01*
X57316Y-39539D01*
X57225Y-39501D01*
X57126Y-39501D01*
X57122Y-39500D01*
X57197Y-39470D01*
X57345Y-39323D01*
X57425Y-39130D01*
X57425Y-38921D01*
X57345Y-38728D01*
X57198Y-38580D01*
X57005Y-38500D01*
X56796Y-38500D01*
X56603Y-38580D01*
X56455Y-38727D01*
X56375Y-38920D01*
X56375Y-39129D01*
X56455Y-39322D01*
X56602Y-39470D01*
X56676Y-39500D01*
X56674Y-39501D01*
X56575Y-39501D01*
X56484Y-39539D01*
X56414Y-39609D01*
X56376Y-39701D01*
X56375Y-39913D01*
X56437Y-39975D01*
X56800Y-39975D01*
X56850Y-39975D01*
X56950Y-39975D01*
X57000Y-39975D01*
X57363Y-39975D01*
X57425Y-39913D01*
X57425Y-40137D01*
X57363Y-40075D01*
X56950Y-40075D01*
X56950Y-40488D01*
X57012Y-40550D01*
X57126Y-40549D01*
X57225Y-40549D01*
X57316Y-40511D01*
X57386Y-40441D01*
X57424Y-40349D01*
X57425Y-40137D01*
X57425Y-44555D01*
X55250Y-44555D01*
X55250Y-43412D01*
X55188Y-43350D01*
X54825Y-43350D01*
X54825Y-43613D01*
X54887Y-43675D01*
X54951Y-43674D01*
X55050Y-43674D01*
X55141Y-43636D01*
X55211Y-43566D01*
X55249Y-43474D01*
X55250Y-43412D01*
X55250Y-44555D01*
X54725Y-44555D01*
X54725Y-43613D01*
X54725Y-43350D01*
X54362Y-43350D01*
X54300Y-43412D01*
X54301Y-43474D01*
X54339Y-43566D01*
X54409Y-43636D01*
X54500Y-43674D01*
X54599Y-43674D01*
X54663Y-43675D01*
X54725Y-43613D01*
X54725Y-44555D01*
X44068Y-44555D01*
X44068Y-43454D01*
X44068Y-42454D01*
X44057Y-42241D01*
X43997Y-42094D01*
X43903Y-42067D01*
X43596Y-42375D01*
X43903Y-42683D01*
X43997Y-42656D01*
X44068Y-42454D01*
X44068Y-43454D01*
X44057Y-43241D01*
X43997Y-43094D01*
X43903Y-43067D01*
X43833Y-43137D01*
X43833Y-42997D01*
X43806Y-42903D01*
X43732Y-42877D01*
X43806Y-42847D01*
X43833Y-42753D01*
X43525Y-42446D01*
X43217Y-42753D01*
X43244Y-42847D01*
X43317Y-42872D01*
X43244Y-42903D01*
X43217Y-42997D01*
X43525Y-43304D01*
X43833Y-42997D01*
X43833Y-43137D01*
X43596Y-43375D01*
X43903Y-43683D01*
X43997Y-43656D01*
X44068Y-43454D01*
X44068Y-44555D01*
X43833Y-44555D01*
X43833Y-43753D01*
X43525Y-43446D01*
X43217Y-43753D01*
X43244Y-43847D01*
X43446Y-43918D01*
X43659Y-43907D01*
X43806Y-43847D01*
X43833Y-43753D01*
X43833Y-44555D01*
X41965Y-44555D01*
X41965Y-37325D01*
X51963Y-37325D01*
X51432Y-37857D01*
X51365Y-37957D01*
X51341Y-38075D01*
X51341Y-38388D01*
X51203Y-38388D01*
X51111Y-38426D01*
X51041Y-38496D01*
X51003Y-38587D01*
X51003Y-38616D01*
X49986Y-38616D01*
X50011Y-38591D01*
X50049Y-38500D01*
X50049Y-38401D01*
X50049Y-38151D01*
X50011Y-38059D01*
X49941Y-37989D01*
X49850Y-37951D01*
X49751Y-37951D01*
X49301Y-37951D01*
X49209Y-37989D01*
X49182Y-38016D01*
X49135Y-38016D01*
X49017Y-38040D01*
X48916Y-38107D01*
X48842Y-38182D01*
X48775Y-38282D01*
X48751Y-38400D01*
X48751Y-39220D01*
X48775Y-39338D01*
X48842Y-39438D01*
X48974Y-39571D01*
X48547Y-39571D01*
X48289Y-39312D01*
X48289Y-39032D01*
X48340Y-38981D01*
X48405Y-38825D01*
X48405Y-38656D01*
X48341Y-38500D01*
X48221Y-38380D01*
X48065Y-38315D01*
X47896Y-38315D01*
X47740Y-38379D01*
X47620Y-38499D01*
X47555Y-38655D01*
X47555Y-38824D01*
X47619Y-38980D01*
X47671Y-39032D01*
X47671Y-39440D01*
X47695Y-39558D01*
X47762Y-39658D01*
X48168Y-40065D01*
X48110Y-40089D01*
X47990Y-40209D01*
X47925Y-40365D01*
X47925Y-40534D01*
X47926Y-40537D01*
X47787Y-40676D01*
X47576Y-40676D01*
X47484Y-40714D01*
X47414Y-40784D01*
X47376Y-40875D01*
X47376Y-40974D01*
X47376Y-41056D01*
X47332Y-41065D01*
X47231Y-41132D01*
X46822Y-41541D01*
X46796Y-41541D01*
X46796Y-41472D01*
X46796Y-40429D01*
X46796Y-40330D01*
X46796Y-39700D01*
X46758Y-39608D01*
X46688Y-39538D01*
X46597Y-39500D01*
X46498Y-39500D01*
X45554Y-39500D01*
X45462Y-39538D01*
X45392Y-39608D01*
X45354Y-39699D01*
X45354Y-39798D01*
X45354Y-40428D01*
X45392Y-40520D01*
X45462Y-40590D01*
X45553Y-40628D01*
X45652Y-40628D01*
X46596Y-40628D01*
X46688Y-40590D01*
X46758Y-40520D01*
X46796Y-40429D01*
X46796Y-41472D01*
X46758Y-41380D01*
X46688Y-41310D01*
X46597Y-41272D01*
X46498Y-41272D01*
X45554Y-41272D01*
X45462Y-41310D01*
X45392Y-41380D01*
X45354Y-41471D01*
X45354Y-41570D01*
X45354Y-41867D01*
X44043Y-40557D01*
X44074Y-40484D01*
X44074Y-40266D01*
X44025Y-40149D01*
X44360Y-40149D01*
X44360Y-40148D01*
X44478Y-40125D01*
X44578Y-40058D01*
X44771Y-39865D01*
X44844Y-39865D01*
X45000Y-39801D01*
X45120Y-39681D01*
X45185Y-39525D01*
X45185Y-39356D01*
X45121Y-39200D01*
X45001Y-39080D01*
X44845Y-39015D01*
X44676Y-39015D01*
X44520Y-39079D01*
X44400Y-39199D01*
X44335Y-39355D01*
X44335Y-39428D01*
X44232Y-39531D01*
X44054Y-39531D01*
X44074Y-39484D01*
X44074Y-39266D01*
X43990Y-39064D01*
X43836Y-38910D01*
X43634Y-38826D01*
X43416Y-38826D01*
X43214Y-38910D01*
X43074Y-39050D01*
X43074Y-39026D01*
X43036Y-38934D01*
X42966Y-38864D01*
X42875Y-38826D01*
X42776Y-38826D01*
X42176Y-38826D01*
X42084Y-38864D01*
X42014Y-38934D01*
X41976Y-39025D01*
X41976Y-39124D01*
X41976Y-39724D01*
X42014Y-39816D01*
X42084Y-39886D01*
X42175Y-39924D01*
X42200Y-39924D01*
X42060Y-40064D01*
X41976Y-40266D01*
X41976Y-40484D01*
X42060Y-40686D01*
X42214Y-40840D01*
X42298Y-40875D01*
X42214Y-40910D01*
X42060Y-41064D01*
X41976Y-41266D01*
X41976Y-41484D01*
X42060Y-41686D01*
X42214Y-41840D01*
X42298Y-41875D01*
X42214Y-41910D01*
X42060Y-42064D01*
X41976Y-42266D01*
X41976Y-42484D01*
X42060Y-42686D01*
X42214Y-42840D01*
X42298Y-42875D01*
X42214Y-42910D01*
X42060Y-43064D01*
X41976Y-43266D01*
X41976Y-43484D01*
X42060Y-43686D01*
X42214Y-43840D01*
X42416Y-43924D01*
X42634Y-43924D01*
X42836Y-43840D01*
X42990Y-43686D01*
X43027Y-43594D01*
X43053Y-43656D01*
X43147Y-43683D01*
X43454Y-43375D01*
X43147Y-43067D01*
X43053Y-43094D01*
X43029Y-43159D01*
X42990Y-43064D01*
X42836Y-42910D01*
X42751Y-42875D01*
X42836Y-42840D01*
X42990Y-42686D01*
X43027Y-42594D01*
X43053Y-42656D01*
X43147Y-42683D01*
X43419Y-42410D01*
X43454Y-42375D01*
X43525Y-42304D01*
X43560Y-42269D01*
X43833Y-41997D01*
X43806Y-41903D01*
X43740Y-41879D01*
X43836Y-41840D01*
X43990Y-41686D01*
X44074Y-41484D01*
X44074Y-41460D01*
X45175Y-42561D01*
X45175Y-42634D01*
X45239Y-42790D01*
X45359Y-42910D01*
X45515Y-42975D01*
X45684Y-42975D01*
X45840Y-42911D01*
X45960Y-42791D01*
X46025Y-42635D01*
X46025Y-42466D01*
X45997Y-42400D01*
X46596Y-42400D01*
X46688Y-42362D01*
X46758Y-42292D01*
X46796Y-42201D01*
X46796Y-42159D01*
X46950Y-42159D01*
X46950Y-42158D01*
X47068Y-42135D01*
X47168Y-42068D01*
X47386Y-41849D01*
X47414Y-41916D01*
X47484Y-41986D01*
X47575Y-42024D01*
X47674Y-42024D01*
X47738Y-42025D01*
X47800Y-41963D01*
X47800Y-41750D01*
X47800Y-41700D01*
X47800Y-41600D01*
X47900Y-41600D01*
X47900Y-41700D01*
X47900Y-41750D01*
X47900Y-41963D01*
X47962Y-42025D01*
X48026Y-42024D01*
X48125Y-42024D01*
X48216Y-41986D01*
X48237Y-41964D01*
X48289Y-42090D01*
X48409Y-42210D01*
X48565Y-42275D01*
X48734Y-42275D01*
X48890Y-42211D01*
X49010Y-42091D01*
X49075Y-41935D01*
X49075Y-41861D01*
X49227Y-41709D01*
X49554Y-41709D01*
X48587Y-42676D01*
X48251Y-42676D01*
X48159Y-42714D01*
X48100Y-42772D01*
X47985Y-42725D01*
X47816Y-42725D01*
X47660Y-42789D01*
X47540Y-42909D01*
X47475Y-43065D01*
X47475Y-43234D01*
X47539Y-43390D01*
X47659Y-43510D01*
X47815Y-43575D01*
X47888Y-43575D01*
X48051Y-43737D01*
X48051Y-43824D01*
X48089Y-43916D01*
X48159Y-43986D01*
X48250Y-44024D01*
X48349Y-44024D01*
X48799Y-44024D01*
X48891Y-43986D01*
X48961Y-43916D01*
X48999Y-43825D01*
X48999Y-43726D01*
X48999Y-43476D01*
X48961Y-43384D01*
X48927Y-43350D01*
X48961Y-43316D01*
X48999Y-43225D01*
X48999Y-43137D01*
X49051Y-43085D01*
X49051Y-43224D01*
X49089Y-43316D01*
X49123Y-43350D01*
X49089Y-43384D01*
X49051Y-43475D01*
X49051Y-43574D01*
X49051Y-43824D01*
X49089Y-43916D01*
X49159Y-43986D01*
X49250Y-44024D01*
X49349Y-44024D01*
X49412Y-44024D01*
X49606Y-44218D01*
X49607Y-44218D01*
X49707Y-44285D01*
X49825Y-44309D01*
X51600Y-44309D01*
X51600Y-44308D01*
X51718Y-44285D01*
X51818Y-44218D01*
X52061Y-43975D01*
X52134Y-43975D01*
X52290Y-43911D01*
X52410Y-43791D01*
X52475Y-43635D01*
X52475Y-43558D01*
X52475Y-43557D01*
X52512Y-43502D01*
X52534Y-43469D01*
X52535Y-43468D01*
X52540Y-43438D01*
X52541Y-43438D01*
X52553Y-43377D01*
X52554Y-43377D01*
X52554Y-43374D01*
X52554Y-43370D01*
X52557Y-43354D01*
X52558Y-43353D01*
X52582Y-43330D01*
X52598Y-43291D01*
X52614Y-43330D01*
X52642Y-43358D01*
X52642Y-43377D01*
X52703Y-43438D01*
X52736Y-43438D01*
X52755Y-43429D01*
X52775Y-43438D01*
X52874Y-43438D01*
X53050Y-43438D01*
X53070Y-43429D01*
X53090Y-43438D01*
X53189Y-43438D01*
X53365Y-43438D01*
X53385Y-43429D01*
X53405Y-43438D01*
X53504Y-43438D01*
X53680Y-43438D01*
X53772Y-43400D01*
X53842Y-43330D01*
X53880Y-43239D01*
X53880Y-43140D01*
X53880Y-42506D01*
X53968Y-42419D01*
X53968Y-42418D01*
X54012Y-42352D01*
X54015Y-42347D01*
X54450Y-42347D01*
X54409Y-42364D01*
X54339Y-42434D01*
X54301Y-42525D01*
X54301Y-42624D01*
X54301Y-42874D01*
X54339Y-42966D01*
X54373Y-43000D01*
X54339Y-43034D01*
X54301Y-43126D01*
X54300Y-43188D01*
X54362Y-43250D01*
X54675Y-43250D01*
X54725Y-43250D01*
X54825Y-43250D01*
X54875Y-43250D01*
X55188Y-43250D01*
X55250Y-43188D01*
X55249Y-43126D01*
X55211Y-43034D01*
X55177Y-43000D01*
X55211Y-42966D01*
X55249Y-42875D01*
X55249Y-42776D01*
X55249Y-42527D01*
X55290Y-42511D01*
X55410Y-42391D01*
X55475Y-42235D01*
X55475Y-42066D01*
X55411Y-41910D01*
X55291Y-41790D01*
X55135Y-41725D01*
X54972Y-41725D01*
X54972Y-41563D01*
X54962Y-41540D01*
X54972Y-41518D01*
X54972Y-41419D01*
X54972Y-41408D01*
X55766Y-42202D01*
X55766Y-43050D01*
X55790Y-43168D01*
X55857Y-43268D01*
X56381Y-43793D01*
X56382Y-43793D01*
X56482Y-43860D01*
X56600Y-43884D01*
X56658Y-43884D01*
X56709Y-43935D01*
X56865Y-44000D01*
X57034Y-44000D01*
X57190Y-43936D01*
X57310Y-43816D01*
X57375Y-43660D01*
X57375Y-43491D01*
X57311Y-43335D01*
X57191Y-43215D01*
X57035Y-43150D01*
X56866Y-43150D01*
X56710Y-43214D01*
X56692Y-43231D01*
X56560Y-43099D01*
X56624Y-43099D01*
X57174Y-43099D01*
X57266Y-43061D01*
X57336Y-42991D01*
X57374Y-42900D01*
X57374Y-42801D01*
X57374Y-42251D01*
X57336Y-42159D01*
X57266Y-42089D01*
X57175Y-42051D01*
X57076Y-42051D01*
X57072Y-42051D01*
X57147Y-42020D01*
X57295Y-41873D01*
X57375Y-41680D01*
X57375Y-41471D01*
X57295Y-41278D01*
X57148Y-41130D01*
X56955Y-41050D01*
X56850Y-41050D01*
X56850Y-40488D01*
X56850Y-40075D01*
X56437Y-40075D01*
X56375Y-40137D01*
X56376Y-40349D01*
X56414Y-40441D01*
X56484Y-40511D01*
X56575Y-40549D01*
X56674Y-40549D01*
X56788Y-40550D01*
X56850Y-40488D01*
X56850Y-41050D01*
X56761Y-41050D01*
X55933Y-40222D01*
X55855Y-40170D01*
X55885Y-40141D01*
X55950Y-39985D01*
X55950Y-39816D01*
X55886Y-39660D01*
X55766Y-39540D01*
X55665Y-39497D01*
X55665Y-39456D01*
X55657Y-39437D01*
X55658Y-39430D01*
X55659Y-39430D01*
X55659Y-39359D01*
X55716Y-39336D01*
X55786Y-39266D01*
X55824Y-39175D01*
X55824Y-39076D01*
X55824Y-38826D01*
X55786Y-38734D01*
X55752Y-38700D01*
X55786Y-38666D01*
X55824Y-38574D01*
X55825Y-38512D01*
X55825Y-38288D01*
X55824Y-38226D01*
X55786Y-38134D01*
X55716Y-38064D01*
X55625Y-38026D01*
X55526Y-38026D01*
X55462Y-38025D01*
X55400Y-38087D01*
X55400Y-38350D01*
X55763Y-38350D01*
X55825Y-38288D01*
X55825Y-38512D01*
X55763Y-38450D01*
X55450Y-38450D01*
X55400Y-38450D01*
X55300Y-38450D01*
X55300Y-38350D01*
X55300Y-38087D01*
X55238Y-38025D01*
X55174Y-38026D01*
X55075Y-38026D01*
X54984Y-38064D01*
X54936Y-38111D01*
X54936Y-38109D01*
X54866Y-38039D01*
X54775Y-38001D01*
X54676Y-38001D01*
X54612Y-38000D01*
X54550Y-38062D01*
X54550Y-38325D01*
X54912Y-38325D01*
X54937Y-38350D01*
X55300Y-38350D01*
X55300Y-38450D01*
X55250Y-38450D01*
X54938Y-38450D01*
X54913Y-38425D01*
X54600Y-38425D01*
X54550Y-38425D01*
X54450Y-38425D01*
X54450Y-38325D01*
X54450Y-38275D01*
X54450Y-38062D01*
X54388Y-38000D01*
X54324Y-38001D01*
X54225Y-38001D01*
X54134Y-38039D01*
X54064Y-38109D01*
X54026Y-38201D01*
X54025Y-38263D01*
X54037Y-38275D01*
X54025Y-38275D01*
X54025Y-38295D01*
X53876Y-38295D01*
X53720Y-38359D01*
X53690Y-38388D01*
X53688Y-38388D01*
X53589Y-38388D01*
X53413Y-38388D01*
X53390Y-38397D01*
X53368Y-38388D01*
X53269Y-38388D01*
X53093Y-38388D01*
X53070Y-38397D01*
X53048Y-38388D01*
X52949Y-38388D01*
X52773Y-38388D01*
X52755Y-38395D01*
X52738Y-38388D01*
X52639Y-38388D01*
X52463Y-38388D01*
X52440Y-38397D01*
X52418Y-38388D01*
X52385Y-38388D01*
X52324Y-38449D01*
X52324Y-38473D01*
X52301Y-38496D01*
X52284Y-38534D01*
X52269Y-38496D01*
X52236Y-38463D01*
X52236Y-38449D01*
X52175Y-38388D01*
X52142Y-38388D01*
X52125Y-38395D01*
X52108Y-38388D01*
X52009Y-38388D01*
X51959Y-38388D01*
X51959Y-38202D01*
X52427Y-37734D01*
X57022Y-37734D01*
X57566Y-38277D01*
X57566Y-43357D01*
X57539Y-43384D01*
X57501Y-43475D01*
X57501Y-43574D01*
X57501Y-44024D01*
X57539Y-44116D01*
X57609Y-44186D01*
X57700Y-44224D01*
X57799Y-44224D01*
X58049Y-44224D01*
X58141Y-44186D01*
X58175Y-44152D01*
X58209Y-44186D01*
X58300Y-44224D01*
X58399Y-44224D01*
X58649Y-44224D01*
X58741Y-44186D01*
X58811Y-44116D01*
X58834Y-44059D01*
X58865Y-44059D01*
X58889Y-44116D01*
X58959Y-44186D01*
X59050Y-44224D01*
X59149Y-44224D01*
X59399Y-44224D01*
X59491Y-44186D01*
X59525Y-44152D01*
X59559Y-44186D01*
X59651Y-44224D01*
X59713Y-44225D01*
X59775Y-44163D01*
X59775Y-43850D01*
X59775Y-43800D01*
X59775Y-43700D01*
X59775Y-43650D01*
X59775Y-43338D01*
X59775Y-43337D01*
X59800Y-43313D01*
X59800Y-43000D01*
X59800Y-42950D01*
X59800Y-42850D01*
X59900Y-42850D01*
X59900Y-42950D01*
X59900Y-43000D01*
X59900Y-43312D01*
X59875Y-43337D01*
X59875Y-43700D01*
X60138Y-43700D01*
X60200Y-43638D01*
X60199Y-43574D01*
X60199Y-43475D01*
X60161Y-43384D01*
X60113Y-43336D01*
X60116Y-43336D01*
X60186Y-43266D01*
X60224Y-43175D01*
X60224Y-43076D01*
X60225Y-43012D01*
X60213Y-43000D01*
X60225Y-43000D01*
X60225Y-42932D01*
X60239Y-42966D01*
X60309Y-43036D01*
X60400Y-43074D01*
X60499Y-43074D01*
X60563Y-43075D01*
X60625Y-43013D01*
X60625Y-42800D01*
X60625Y-42750D01*
X60625Y-42650D01*
X60725Y-42650D01*
X60775Y-42650D01*
X61088Y-42650D01*
X61150Y-42588D01*
X61149Y-42526D01*
X61111Y-42434D01*
X61077Y-42400D01*
X61111Y-42366D01*
X61149Y-42275D01*
X61149Y-42176D01*
X61149Y-41926D01*
X61111Y-41834D01*
X61041Y-41764D01*
X60950Y-41726D01*
X60851Y-41726D01*
X60401Y-41726D01*
X60309Y-41764D01*
X60282Y-41791D01*
X60249Y-41791D01*
X60249Y-41726D01*
X60211Y-41634D01*
X60141Y-41564D01*
X60050Y-41526D01*
X59951Y-41526D01*
X59701Y-41526D01*
X59609Y-41564D01*
X59584Y-41589D01*
X59584Y-41417D01*
X59660Y-41341D01*
X59725Y-41185D01*
X59725Y-41034D01*
X60125Y-41034D01*
X60125Y-41033D01*
X60203Y-41017D01*
X60201Y-41025D01*
X60201Y-41124D01*
X60201Y-41374D01*
X60239Y-41466D01*
X60309Y-41536D01*
X60400Y-41574D01*
X60499Y-41574D01*
X60949Y-41574D01*
X61041Y-41536D01*
X61068Y-41509D01*
X61256Y-41509D01*
X61256Y-41633D01*
X61339Y-41833D01*
X61492Y-41986D01*
X61592Y-42027D01*
X61521Y-42057D01*
X61496Y-42150D01*
X61800Y-42454D01*
X62104Y-42150D01*
X62079Y-42057D01*
X62002Y-42029D01*
X62108Y-41986D01*
X62261Y-41833D01*
X62344Y-41633D01*
X62344Y-41417D01*
X62261Y-41217D01*
X62169Y-41125D01*
X62261Y-41033D01*
X62344Y-40833D01*
X62344Y-40617D01*
X62261Y-40417D01*
X62108Y-40264D01*
X62014Y-40225D01*
X62108Y-40186D01*
X62261Y-40033D01*
X62344Y-39833D01*
X62344Y-39617D01*
X62261Y-39417D01*
X62108Y-39264D01*
X61908Y-39181D01*
X61692Y-39181D01*
X61492Y-39264D01*
X61339Y-39417D01*
X61300Y-39510D01*
X61300Y-38862D01*
X61238Y-38800D01*
X60875Y-38800D01*
X60875Y-39063D01*
X60937Y-39125D01*
X61001Y-39124D01*
X61100Y-39124D01*
X61191Y-39086D01*
X61261Y-39016D01*
X61299Y-38924D01*
X61300Y-38862D01*
X61300Y-39510D01*
X61256Y-39617D01*
X61256Y-39833D01*
X61339Y-40033D01*
X61492Y-40186D01*
X61585Y-40225D01*
X61492Y-40264D01*
X61339Y-40417D01*
X61256Y-40617D01*
X61256Y-40832D01*
X61197Y-40891D01*
X61086Y-40891D01*
X61111Y-40866D01*
X61149Y-40775D01*
X61149Y-40676D01*
X61149Y-40426D01*
X61111Y-40334D01*
X61041Y-40264D01*
X60950Y-40226D01*
X60851Y-40226D01*
X60737Y-40226D01*
X60509Y-39997D01*
X60509Y-39106D01*
X60550Y-39124D01*
X60649Y-39124D01*
X60713Y-39125D01*
X60775Y-39063D01*
X60775Y-38850D01*
X60775Y-38800D01*
X60775Y-38700D01*
X60875Y-38700D01*
X60925Y-38700D01*
X61238Y-38700D01*
X61300Y-38638D01*
X61299Y-38576D01*
X61261Y-38484D01*
X61227Y-38450D01*
X61261Y-38416D01*
X61299Y-38325D01*
X61299Y-38226D01*
X61299Y-37976D01*
X61261Y-37884D01*
X61191Y-37814D01*
X61100Y-37776D01*
X61001Y-37776D01*
X60912Y-37776D01*
X60461Y-37325D01*
X63255Y-37325D01*
X63255Y-37783D01*
X63018Y-37685D01*
X62684Y-37685D01*
X62375Y-37812D01*
X62139Y-38048D01*
X62010Y-38357D01*
X62010Y-38691D01*
X62137Y-39000D01*
X62373Y-39236D01*
X62682Y-39365D01*
X63016Y-39365D01*
X63255Y-39266D01*
X63255Y-43183D01*
M02*
