G04 (created by PCBNEW-RS274X (2012-jan-04)-stable) date Thu 15 Nov 2012 21:08:36 CET*
G01*
G70*
G90*
%MOIN*%
G04 Gerber Fmt 3.4, Leading zero omitted, Abs format*
%FSLAX34Y34*%
G04 APERTURE LIST*
%ADD10C,0.006000*%
%ADD11C,0.059100*%
%ADD12C,0.118100*%
%ADD13R,0.055000X0.055000*%
%ADD14C,0.055000*%
%ADD15R,0.060000X0.060000*%
%ADD16C,0.060000*%
%ADD17C,0.035000*%
%ADD18C,0.011900*%
%ADD19C,0.010000*%
G04 APERTURE END LIST*
G54D10*
G54D11*
X61800Y-39725D03*
X61800Y-40725D03*
X61800Y-41525D03*
X61800Y-42525D03*
G54D12*
X62850Y-38525D03*
X62850Y-43925D03*
G54D13*
X56900Y-40025D03*
G54D14*
X56900Y-39025D03*
G54D13*
X56850Y-42575D03*
G54D14*
X56850Y-41575D03*
G54D13*
X59425Y-40050D03*
G54D14*
X59425Y-39050D03*
G54D15*
X42525Y-39375D03*
G54D16*
X43525Y-39375D03*
X42525Y-40375D03*
X43525Y-40375D03*
X42525Y-41375D03*
X43525Y-41375D03*
X42525Y-42375D03*
X43525Y-42375D03*
X42525Y-43375D03*
X43525Y-43375D03*
G54D17*
X52550Y-41600D03*
X52050Y-43550D03*
X58500Y-38450D03*
X58325Y-39625D03*
X55525Y-39900D03*
X53600Y-39950D03*
X48650Y-41850D03*
X53960Y-38720D03*
X42525Y-42375D03*
X44760Y-39440D03*
X47900Y-43150D03*
X45600Y-42550D03*
X43525Y-40375D03*
X61800Y-42525D03*
X43525Y-43375D03*
X43525Y-42375D03*
X56900Y-40025D03*
X47350Y-42150D03*
X60750Y-39900D03*
X61800Y-40725D03*
X53500Y-40450D03*
X56850Y-41575D03*
X56950Y-43575D03*
X58450Y-42900D03*
X59300Y-41100D03*
X51360Y-41200D03*
X55400Y-40825D03*
X58775Y-42425D03*
X53600Y-40950D03*
X47980Y-38740D03*
X50150Y-43550D03*
X56850Y-42575D03*
X48875Y-41075D03*
X53080Y-40820D03*
X48350Y-40450D03*
X53400Y-42050D03*
X55050Y-42150D03*
X55240Y-39540D03*
X49700Y-39520D03*
X59425Y-39050D03*
G54D18*
X48850Y-41450D02*
X48750Y-41450D01*
X49050Y-40750D02*
X49100Y-40750D01*
X49100Y-40750D02*
X49950Y-41600D01*
X49950Y-41600D02*
X52550Y-41600D01*
X48700Y-40700D02*
X49000Y-40700D01*
X48700Y-41400D02*
X48650Y-41400D01*
X48750Y-41450D02*
X48700Y-41400D01*
X49000Y-40700D02*
X49050Y-40750D01*
X48500Y-41200D02*
X48500Y-40900D01*
X48550Y-41250D02*
X48500Y-41200D01*
X48650Y-41400D02*
X48550Y-41300D01*
X48550Y-41300D02*
X48550Y-41250D01*
X48500Y-40900D02*
X48700Y-40700D01*
X50300Y-42900D02*
X48850Y-41450D01*
X52050Y-43550D02*
X51400Y-42900D01*
X51400Y-42900D02*
X50300Y-42900D01*
X41925Y-43200D02*
X41925Y-38850D01*
X41925Y-38850D02*
X42150Y-38625D01*
X42150Y-38625D02*
X43925Y-38625D01*
X43925Y-38625D02*
X44872Y-37678D01*
X44872Y-37678D02*
X51647Y-37678D01*
X42100Y-43375D02*
X41925Y-43200D01*
X52150Y-37175D02*
X57225Y-37175D01*
X57225Y-37175D02*
X58500Y-38450D01*
X58200Y-39500D02*
X55925Y-39500D01*
X58325Y-39625D02*
X58200Y-39500D01*
X55925Y-39500D02*
X55525Y-39900D01*
X51647Y-37678D02*
X52150Y-37175D01*
X42525Y-43375D02*
X42100Y-43375D01*
X42550Y-39400D02*
X42525Y-39375D01*
X42850Y-39400D02*
X42550Y-39400D01*
X49400Y-39850D02*
X43350Y-39850D01*
X49450Y-39900D02*
X49400Y-39850D01*
X43300Y-39800D02*
X43250Y-39800D01*
X53550Y-39900D02*
X49450Y-39900D01*
X43250Y-39800D02*
X42850Y-39400D01*
X53600Y-39950D02*
X53550Y-39900D01*
X43350Y-39850D02*
X43300Y-39800D01*
X48200Y-41400D02*
X43550Y-41400D01*
X48650Y-41850D02*
X48200Y-41400D01*
X43550Y-41400D02*
X43525Y-41375D01*
X53960Y-38720D02*
X53560Y-39120D01*
X53560Y-39120D02*
X45080Y-39120D01*
X45080Y-39120D02*
X44760Y-39440D01*
X47300Y-42550D02*
X45600Y-42550D01*
X47900Y-43150D02*
X47300Y-42550D01*
X59425Y-40050D02*
X59425Y-40022D01*
X45000Y-37900D02*
X43525Y-39375D01*
X51800Y-37900D02*
X45000Y-37900D01*
X52303Y-37397D02*
X51800Y-37900D01*
X56800Y-37397D02*
X52303Y-37397D01*
X59425Y-40022D02*
X56800Y-37397D01*
X60075Y-40325D02*
X60075Y-40625D01*
X57625Y-40750D02*
X56900Y-40025D01*
X60075Y-40625D02*
X59950Y-40750D01*
X43800Y-42150D02*
X47350Y-42150D01*
X43600Y-42350D02*
X43800Y-42150D01*
X60750Y-39900D02*
X60500Y-40150D01*
X43525Y-42375D02*
X43600Y-42350D01*
X60250Y-40150D02*
X60075Y-40325D01*
X60500Y-40150D02*
X60250Y-40150D01*
X59950Y-40750D02*
X57625Y-40750D01*
X49300Y-40100D02*
X48200Y-40100D01*
X48150Y-40150D02*
X48100Y-40150D01*
X53475Y-40425D02*
X49625Y-40425D01*
X49625Y-40425D02*
X49300Y-40100D01*
X43300Y-40950D02*
X43250Y-40950D01*
X48200Y-40100D02*
X48150Y-40150D01*
X43250Y-40950D02*
X42800Y-41400D01*
X53500Y-40450D02*
X53475Y-40425D01*
X43350Y-40900D02*
X43300Y-40950D01*
X47350Y-40900D02*
X43350Y-40900D01*
X42550Y-41400D02*
X42525Y-41375D01*
X48100Y-40150D02*
X47350Y-40900D01*
X42800Y-41400D02*
X42550Y-41400D01*
X56950Y-43575D02*
X57625Y-42900D01*
X57625Y-42900D02*
X58450Y-42900D01*
X59725Y-41525D02*
X59300Y-41100D01*
X61800Y-41525D02*
X59725Y-41525D01*
X53600Y-40950D02*
X53350Y-41200D01*
X53350Y-41200D02*
X51360Y-41200D01*
X58775Y-42425D02*
X57175Y-40825D01*
X57175Y-40825D02*
X55400Y-40825D01*
X56235Y-38360D02*
X56900Y-39025D01*
X48360Y-38360D02*
X56235Y-38360D01*
X47980Y-38740D02*
X48360Y-38360D01*
X56850Y-42600D02*
X55550Y-43900D01*
X51850Y-43850D02*
X51800Y-43850D01*
X55550Y-43900D02*
X51900Y-43900D01*
X51900Y-43900D02*
X51850Y-43850D01*
X51500Y-43550D02*
X50150Y-43550D01*
X56850Y-42575D02*
X56750Y-42675D01*
X50475Y-42675D02*
X48875Y-41075D01*
X51800Y-43850D02*
X51500Y-43550D01*
X56750Y-42675D02*
X50475Y-42675D01*
X56850Y-42575D02*
X56850Y-42600D01*
X49550Y-40800D02*
X53080Y-40820D01*
X49150Y-40500D02*
X49200Y-40500D01*
X48350Y-40450D02*
X49100Y-40450D01*
X49300Y-40550D02*
X49550Y-40800D01*
X49200Y-40500D02*
X49250Y-40550D01*
X49250Y-40550D02*
X49300Y-40550D01*
X49100Y-40450D02*
X49150Y-40500D01*
X53400Y-42050D02*
X53500Y-42150D01*
X53500Y-42150D02*
X55050Y-42150D01*
X49800Y-39420D02*
X55120Y-39420D01*
X49700Y-39520D02*
X49800Y-39420D01*
X55120Y-39420D02*
X55240Y-39540D01*
X61800Y-39725D02*
X61075Y-39725D01*
X60400Y-39050D02*
X59425Y-39050D01*
X61075Y-39725D02*
X60400Y-39050D01*
G54D10*
G36*
X63255Y-43183D02*
X63018Y-43085D01*
X62684Y-43085D01*
X62375Y-43212D01*
X62340Y-43247D01*
X62340Y-42603D01*
X62328Y-42391D01*
X62268Y-42246D01*
X62175Y-42221D01*
X61871Y-42525D01*
X62175Y-42829D01*
X62268Y-42804D01*
X62340Y-42603D01*
X62340Y-43247D01*
X62139Y-43448D01*
X62104Y-43531D01*
X62104Y-42900D01*
X61800Y-42596D01*
X61729Y-42667D01*
X61729Y-42525D01*
X61425Y-42221D01*
X61332Y-42246D01*
X61260Y-42447D01*
X61272Y-42659D01*
X61332Y-42804D01*
X61425Y-42829D01*
X61729Y-42525D01*
X61729Y-42667D01*
X61496Y-42900D01*
X61521Y-42993D01*
X61722Y-43065D01*
X61934Y-43053D01*
X62079Y-42993D01*
X62104Y-42900D01*
X62104Y-43531D01*
X62010Y-43757D01*
X62010Y-44091D01*
X62137Y-44400D01*
X62292Y-44555D01*
X48325Y-44555D01*
X48325Y-43235D01*
X48325Y-43066D01*
X48261Y-42910D01*
X48141Y-42790D01*
X47985Y-42725D01*
X47911Y-42725D01*
X47518Y-42332D01*
X47418Y-42265D01*
X47300Y-42241D01*
X45892Y-42241D01*
X45841Y-42190D01*
X45685Y-42125D01*
X45516Y-42125D01*
X45360Y-42189D01*
X45240Y-42309D01*
X45175Y-42465D01*
X45175Y-42634D01*
X45239Y-42790D01*
X45359Y-42910D01*
X45515Y-42975D01*
X45684Y-42975D01*
X45840Y-42911D01*
X45892Y-42859D01*
X47172Y-42859D01*
X47475Y-43161D01*
X47475Y-43234D01*
X47539Y-43390D01*
X47659Y-43510D01*
X47815Y-43575D01*
X47984Y-43575D01*
X48140Y-43511D01*
X48260Y-43391D01*
X48325Y-43235D01*
X48325Y-44555D01*
X44068Y-44555D01*
X44068Y-43454D01*
X44068Y-42454D01*
X44057Y-42241D01*
X43997Y-42094D01*
X43903Y-42067D01*
X43596Y-42375D01*
X43903Y-42683D01*
X43997Y-42656D01*
X44068Y-42454D01*
X44068Y-43454D01*
X44057Y-43241D01*
X43997Y-43094D01*
X43903Y-43067D01*
X43833Y-43137D01*
X43833Y-42997D01*
X43806Y-42903D01*
X43732Y-42877D01*
X43806Y-42847D01*
X43833Y-42753D01*
X43525Y-42446D01*
X43217Y-42753D01*
X43244Y-42847D01*
X43317Y-42872D01*
X43244Y-42903D01*
X43217Y-42997D01*
X43525Y-43304D01*
X43833Y-42997D01*
X43833Y-43137D01*
X43596Y-43375D01*
X43903Y-43683D01*
X43997Y-43656D01*
X44068Y-43454D01*
X44068Y-44555D01*
X43833Y-44555D01*
X43833Y-43753D01*
X43525Y-43446D01*
X43217Y-43753D01*
X43244Y-43847D01*
X43446Y-43918D01*
X43659Y-43907D01*
X43806Y-43847D01*
X43833Y-43753D01*
X43833Y-44555D01*
X41965Y-44555D01*
X41965Y-43648D01*
X41982Y-43660D01*
X42055Y-43674D01*
X42060Y-43686D01*
X42214Y-43840D01*
X42416Y-43924D01*
X42634Y-43924D01*
X42836Y-43840D01*
X42990Y-43686D01*
X43027Y-43594D01*
X43053Y-43656D01*
X43147Y-43683D01*
X43454Y-43375D01*
X43147Y-43067D01*
X43053Y-43094D01*
X43029Y-43159D01*
X42990Y-43064D01*
X42836Y-42910D01*
X42751Y-42875D01*
X42836Y-42840D01*
X42990Y-42686D01*
X43027Y-42594D01*
X43053Y-42656D01*
X43147Y-42683D01*
X43454Y-42375D01*
X43147Y-42067D01*
X43053Y-42094D01*
X43029Y-42159D01*
X42990Y-42064D01*
X42836Y-41910D01*
X42751Y-41875D01*
X42836Y-41840D01*
X42990Y-41686D01*
X43018Y-41618D01*
X43018Y-41617D01*
X43027Y-41608D01*
X43060Y-41686D01*
X43214Y-41840D01*
X43305Y-41877D01*
X43244Y-41903D01*
X43217Y-41997D01*
X43525Y-42304D01*
X43833Y-41997D01*
X43806Y-41903D01*
X43740Y-41879D01*
X43836Y-41840D01*
X43967Y-41709D01*
X48072Y-41709D01*
X48225Y-41861D01*
X48225Y-41934D01*
X48289Y-42090D01*
X48409Y-42210D01*
X48565Y-42275D01*
X48734Y-42275D01*
X48890Y-42211D01*
X49010Y-42091D01*
X49023Y-42059D01*
X50081Y-43118D01*
X50082Y-43118D01*
X50091Y-43125D01*
X50066Y-43125D01*
X49910Y-43189D01*
X49790Y-43309D01*
X49725Y-43465D01*
X49725Y-43634D01*
X49789Y-43790D01*
X49909Y-43910D01*
X50065Y-43975D01*
X50234Y-43975D01*
X50390Y-43911D01*
X50442Y-43859D01*
X51372Y-43859D01*
X51581Y-44068D01*
X51582Y-44068D01*
X51682Y-44135D01*
X51717Y-44142D01*
X51718Y-44142D01*
X51748Y-44162D01*
X51781Y-44184D01*
X51782Y-44185D01*
X51899Y-44208D01*
X51900Y-44209D01*
X55550Y-44209D01*
X55550Y-44208D01*
X55668Y-44185D01*
X55768Y-44118D01*
X56787Y-43099D01*
X56989Y-43099D01*
X56938Y-43150D01*
X56866Y-43150D01*
X56710Y-43214D01*
X56590Y-43334D01*
X56525Y-43490D01*
X56525Y-43659D01*
X56589Y-43815D01*
X56709Y-43935D01*
X56865Y-44000D01*
X57034Y-44000D01*
X57190Y-43936D01*
X57310Y-43816D01*
X57375Y-43660D01*
X57375Y-43586D01*
X57752Y-43209D01*
X58158Y-43209D01*
X58209Y-43260D01*
X58365Y-43325D01*
X58534Y-43325D01*
X58690Y-43261D01*
X58810Y-43141D01*
X58875Y-42985D01*
X58875Y-42843D01*
X59015Y-42786D01*
X59135Y-42666D01*
X59200Y-42510D01*
X59200Y-42341D01*
X59136Y-42185D01*
X59016Y-42065D01*
X58860Y-42000D01*
X58786Y-42000D01*
X57393Y-40607D01*
X57293Y-40540D01*
X57261Y-40533D01*
X57316Y-40511D01*
X57386Y-40441D01*
X57424Y-40349D01*
X57425Y-40137D01*
X57363Y-40075D01*
X57000Y-40075D01*
X56950Y-40075D01*
X56850Y-40075D01*
X56800Y-40075D01*
X56437Y-40075D01*
X56375Y-40137D01*
X56376Y-40349D01*
X56414Y-40441D01*
X56484Y-40511D01*
X56495Y-40516D01*
X55692Y-40516D01*
X55641Y-40465D01*
X55485Y-40400D01*
X55316Y-40400D01*
X55160Y-40464D01*
X55040Y-40584D01*
X54975Y-40740D01*
X54975Y-40909D01*
X55039Y-41065D01*
X55159Y-41185D01*
X55315Y-41250D01*
X55484Y-41250D01*
X55640Y-41186D01*
X55692Y-41134D01*
X56548Y-41134D01*
X56405Y-41277D01*
X56325Y-41470D01*
X56325Y-41679D01*
X56405Y-41872D01*
X56552Y-42020D01*
X56626Y-42051D01*
X56526Y-42051D01*
X56434Y-42089D01*
X56364Y-42159D01*
X56326Y-42250D01*
X56326Y-42349D01*
X56326Y-42366D01*
X55420Y-42366D01*
X55475Y-42235D01*
X55475Y-42066D01*
X55411Y-41910D01*
X55291Y-41790D01*
X55135Y-41725D01*
X54966Y-41725D01*
X54810Y-41789D01*
X54758Y-41841D01*
X53773Y-41841D01*
X53761Y-41810D01*
X53641Y-41690D01*
X53485Y-41625D01*
X53316Y-41625D01*
X53160Y-41689D01*
X53040Y-41809D01*
X52975Y-41965D01*
X52975Y-42134D01*
X53039Y-42290D01*
X53115Y-42366D01*
X50602Y-42366D01*
X50145Y-41909D01*
X52258Y-41909D01*
X52309Y-41960D01*
X52465Y-42025D01*
X52634Y-42025D01*
X52790Y-41961D01*
X52910Y-41841D01*
X52975Y-41685D01*
X52975Y-41516D01*
X52972Y-41509D01*
X53350Y-41509D01*
X53350Y-41508D01*
X53468Y-41485D01*
X53568Y-41418D01*
X53611Y-41375D01*
X53684Y-41375D01*
X53840Y-41311D01*
X53960Y-41191D01*
X54025Y-41035D01*
X54025Y-40866D01*
X53961Y-40710D01*
X53884Y-40633D01*
X53925Y-40535D01*
X53925Y-40366D01*
X53884Y-40266D01*
X53960Y-40191D01*
X54025Y-40035D01*
X54025Y-39866D01*
X53968Y-39729D01*
X54858Y-39729D01*
X54879Y-39780D01*
X54999Y-39900D01*
X55100Y-39942D01*
X55100Y-39984D01*
X55164Y-40140D01*
X55284Y-40260D01*
X55440Y-40325D01*
X55609Y-40325D01*
X55765Y-40261D01*
X55885Y-40141D01*
X55950Y-39985D01*
X55950Y-39911D01*
X56052Y-39809D01*
X56375Y-39809D01*
X56375Y-39913D01*
X56437Y-39975D01*
X56800Y-39975D01*
X56850Y-39975D01*
X56950Y-39975D01*
X57000Y-39975D01*
X57363Y-39975D01*
X57425Y-39913D01*
X57424Y-39809D01*
X57941Y-39809D01*
X57964Y-39865D01*
X58084Y-39985D01*
X58240Y-40050D01*
X58409Y-40050D01*
X58565Y-39986D01*
X58685Y-39866D01*
X58728Y-39762D01*
X58901Y-39934D01*
X58901Y-40374D01*
X58939Y-40466D01*
X59009Y-40536D01*
X59100Y-40574D01*
X59199Y-40574D01*
X59749Y-40574D01*
X59841Y-40536D01*
X59911Y-40466D01*
X59949Y-40375D01*
X59949Y-40276D01*
X59949Y-39726D01*
X59911Y-39634D01*
X59841Y-39564D01*
X59750Y-39526D01*
X59651Y-39526D01*
X59647Y-39526D01*
X59722Y-39495D01*
X59858Y-39359D01*
X60272Y-39359D01*
X60856Y-39943D01*
X60857Y-39943D01*
X60956Y-40010D01*
X60957Y-40010D01*
X60976Y-40013D01*
X61075Y-40034D01*
X61340Y-40034D01*
X61492Y-40186D01*
X61585Y-40225D01*
X61492Y-40264D01*
X61339Y-40417D01*
X61256Y-40617D01*
X61256Y-40833D01*
X61339Y-41033D01*
X61431Y-41125D01*
X61340Y-41216D01*
X59852Y-41216D01*
X59725Y-41088D01*
X59725Y-41016D01*
X59661Y-40860D01*
X59541Y-40740D01*
X59385Y-40675D01*
X59216Y-40675D01*
X59060Y-40739D01*
X58940Y-40859D01*
X58875Y-41015D01*
X58875Y-41184D01*
X58939Y-41340D01*
X59059Y-41460D01*
X59215Y-41525D01*
X59288Y-41525D01*
X59506Y-41743D01*
X59507Y-41743D01*
X59607Y-41810D01*
X59725Y-41834D01*
X61340Y-41834D01*
X61492Y-41986D01*
X61592Y-42027D01*
X61521Y-42057D01*
X61496Y-42150D01*
X61800Y-42454D01*
X62104Y-42150D01*
X62079Y-42057D01*
X62002Y-42029D01*
X62108Y-41986D01*
X62261Y-41833D01*
X62344Y-41633D01*
X62344Y-41417D01*
X62261Y-41217D01*
X62169Y-41125D01*
X62261Y-41033D01*
X62344Y-40833D01*
X62344Y-40617D01*
X62261Y-40417D01*
X62108Y-40264D01*
X62014Y-40225D01*
X62108Y-40186D01*
X62261Y-40033D01*
X62344Y-39833D01*
X62344Y-39617D01*
X62261Y-39417D01*
X62108Y-39264D01*
X61908Y-39181D01*
X61692Y-39181D01*
X61492Y-39264D01*
X61340Y-39416D01*
X61202Y-39416D01*
X60618Y-38832D01*
X60518Y-38765D01*
X60400Y-38741D01*
X59858Y-38741D01*
X59723Y-38605D01*
X59530Y-38525D01*
X59321Y-38525D01*
X59128Y-38605D01*
X58980Y-38752D01*
X58900Y-38945D01*
X58900Y-39060D01*
X58676Y-38836D01*
X58740Y-38811D01*
X58860Y-38691D01*
X58925Y-38535D01*
X58925Y-38366D01*
X58861Y-38210D01*
X58741Y-38090D01*
X58585Y-38025D01*
X58511Y-38025D01*
X57811Y-37325D01*
X63255Y-37325D01*
X63255Y-37783D01*
X63018Y-37685D01*
X62684Y-37685D01*
X62375Y-37812D01*
X62139Y-38048D01*
X62010Y-38357D01*
X62010Y-38691D01*
X62137Y-39000D01*
X62373Y-39236D01*
X62682Y-39365D01*
X63016Y-39365D01*
X63255Y-39266D01*
X63255Y-43183D01*
X63255Y-43183D01*
G37*
G54D19*
X63255Y-43183D02*
X63018Y-43085D01*
X62684Y-43085D01*
X62375Y-43212D01*
X62340Y-43247D01*
X62340Y-42603D01*
X62328Y-42391D01*
X62268Y-42246D01*
X62175Y-42221D01*
X61871Y-42525D01*
X62175Y-42829D01*
X62268Y-42804D01*
X62340Y-42603D01*
X62340Y-43247D01*
X62139Y-43448D01*
X62104Y-43531D01*
X62104Y-42900D01*
X61800Y-42596D01*
X61729Y-42667D01*
X61729Y-42525D01*
X61425Y-42221D01*
X61332Y-42246D01*
X61260Y-42447D01*
X61272Y-42659D01*
X61332Y-42804D01*
X61425Y-42829D01*
X61729Y-42525D01*
X61729Y-42667D01*
X61496Y-42900D01*
X61521Y-42993D01*
X61722Y-43065D01*
X61934Y-43053D01*
X62079Y-42993D01*
X62104Y-42900D01*
X62104Y-43531D01*
X62010Y-43757D01*
X62010Y-44091D01*
X62137Y-44400D01*
X62292Y-44555D01*
X48325Y-44555D01*
X48325Y-43235D01*
X48325Y-43066D01*
X48261Y-42910D01*
X48141Y-42790D01*
X47985Y-42725D01*
X47911Y-42725D01*
X47518Y-42332D01*
X47418Y-42265D01*
X47300Y-42241D01*
X45892Y-42241D01*
X45841Y-42190D01*
X45685Y-42125D01*
X45516Y-42125D01*
X45360Y-42189D01*
X45240Y-42309D01*
X45175Y-42465D01*
X45175Y-42634D01*
X45239Y-42790D01*
X45359Y-42910D01*
X45515Y-42975D01*
X45684Y-42975D01*
X45840Y-42911D01*
X45892Y-42859D01*
X47172Y-42859D01*
X47475Y-43161D01*
X47475Y-43234D01*
X47539Y-43390D01*
X47659Y-43510D01*
X47815Y-43575D01*
X47984Y-43575D01*
X48140Y-43511D01*
X48260Y-43391D01*
X48325Y-43235D01*
X48325Y-44555D01*
X44068Y-44555D01*
X44068Y-43454D01*
X44068Y-42454D01*
X44057Y-42241D01*
X43997Y-42094D01*
X43903Y-42067D01*
X43596Y-42375D01*
X43903Y-42683D01*
X43997Y-42656D01*
X44068Y-42454D01*
X44068Y-43454D01*
X44057Y-43241D01*
X43997Y-43094D01*
X43903Y-43067D01*
X43833Y-43137D01*
X43833Y-42997D01*
X43806Y-42903D01*
X43732Y-42877D01*
X43806Y-42847D01*
X43833Y-42753D01*
X43525Y-42446D01*
X43217Y-42753D01*
X43244Y-42847D01*
X43317Y-42872D01*
X43244Y-42903D01*
X43217Y-42997D01*
X43525Y-43304D01*
X43833Y-42997D01*
X43833Y-43137D01*
X43596Y-43375D01*
X43903Y-43683D01*
X43997Y-43656D01*
X44068Y-43454D01*
X44068Y-44555D01*
X43833Y-44555D01*
X43833Y-43753D01*
X43525Y-43446D01*
X43217Y-43753D01*
X43244Y-43847D01*
X43446Y-43918D01*
X43659Y-43907D01*
X43806Y-43847D01*
X43833Y-43753D01*
X43833Y-44555D01*
X41965Y-44555D01*
X41965Y-43648D01*
X41982Y-43660D01*
X42055Y-43674D01*
X42060Y-43686D01*
X42214Y-43840D01*
X42416Y-43924D01*
X42634Y-43924D01*
X42836Y-43840D01*
X42990Y-43686D01*
X43027Y-43594D01*
X43053Y-43656D01*
X43147Y-43683D01*
X43454Y-43375D01*
X43147Y-43067D01*
X43053Y-43094D01*
X43029Y-43159D01*
X42990Y-43064D01*
X42836Y-42910D01*
X42751Y-42875D01*
X42836Y-42840D01*
X42990Y-42686D01*
X43027Y-42594D01*
X43053Y-42656D01*
X43147Y-42683D01*
X43454Y-42375D01*
X43147Y-42067D01*
X43053Y-42094D01*
X43029Y-42159D01*
X42990Y-42064D01*
X42836Y-41910D01*
X42751Y-41875D01*
X42836Y-41840D01*
X42990Y-41686D01*
X43018Y-41618D01*
X43018Y-41617D01*
X43027Y-41608D01*
X43060Y-41686D01*
X43214Y-41840D01*
X43305Y-41877D01*
X43244Y-41903D01*
X43217Y-41997D01*
X43525Y-42304D01*
X43833Y-41997D01*
X43806Y-41903D01*
X43740Y-41879D01*
X43836Y-41840D01*
X43967Y-41709D01*
X48072Y-41709D01*
X48225Y-41861D01*
X48225Y-41934D01*
X48289Y-42090D01*
X48409Y-42210D01*
X48565Y-42275D01*
X48734Y-42275D01*
X48890Y-42211D01*
X49010Y-42091D01*
X49023Y-42059D01*
X50081Y-43118D01*
X50082Y-43118D01*
X50091Y-43125D01*
X50066Y-43125D01*
X49910Y-43189D01*
X49790Y-43309D01*
X49725Y-43465D01*
X49725Y-43634D01*
X49789Y-43790D01*
X49909Y-43910D01*
X50065Y-43975D01*
X50234Y-43975D01*
X50390Y-43911D01*
X50442Y-43859D01*
X51372Y-43859D01*
X51581Y-44068D01*
X51582Y-44068D01*
X51682Y-44135D01*
X51717Y-44142D01*
X51718Y-44142D01*
X51748Y-44162D01*
X51781Y-44184D01*
X51782Y-44185D01*
X51899Y-44208D01*
X51900Y-44209D01*
X55550Y-44209D01*
X55550Y-44208D01*
X55668Y-44185D01*
X55768Y-44118D01*
X56787Y-43099D01*
X56989Y-43099D01*
X56938Y-43150D01*
X56866Y-43150D01*
X56710Y-43214D01*
X56590Y-43334D01*
X56525Y-43490D01*
X56525Y-43659D01*
X56589Y-43815D01*
X56709Y-43935D01*
X56865Y-44000D01*
X57034Y-44000D01*
X57190Y-43936D01*
X57310Y-43816D01*
X57375Y-43660D01*
X57375Y-43586D01*
X57752Y-43209D01*
X58158Y-43209D01*
X58209Y-43260D01*
X58365Y-43325D01*
X58534Y-43325D01*
X58690Y-43261D01*
X58810Y-43141D01*
X58875Y-42985D01*
X58875Y-42843D01*
X59015Y-42786D01*
X59135Y-42666D01*
X59200Y-42510D01*
X59200Y-42341D01*
X59136Y-42185D01*
X59016Y-42065D01*
X58860Y-42000D01*
X58786Y-42000D01*
X57393Y-40607D01*
X57293Y-40540D01*
X57261Y-40533D01*
X57316Y-40511D01*
X57386Y-40441D01*
X57424Y-40349D01*
X57425Y-40137D01*
X57363Y-40075D01*
X57000Y-40075D01*
X56950Y-40075D01*
X56850Y-40075D01*
X56800Y-40075D01*
X56437Y-40075D01*
X56375Y-40137D01*
X56376Y-40349D01*
X56414Y-40441D01*
X56484Y-40511D01*
X56495Y-40516D01*
X55692Y-40516D01*
X55641Y-40465D01*
X55485Y-40400D01*
X55316Y-40400D01*
X55160Y-40464D01*
X55040Y-40584D01*
X54975Y-40740D01*
X54975Y-40909D01*
X55039Y-41065D01*
X55159Y-41185D01*
X55315Y-41250D01*
X55484Y-41250D01*
X55640Y-41186D01*
X55692Y-41134D01*
X56548Y-41134D01*
X56405Y-41277D01*
X56325Y-41470D01*
X56325Y-41679D01*
X56405Y-41872D01*
X56552Y-42020D01*
X56626Y-42051D01*
X56526Y-42051D01*
X56434Y-42089D01*
X56364Y-42159D01*
X56326Y-42250D01*
X56326Y-42349D01*
X56326Y-42366D01*
X55420Y-42366D01*
X55475Y-42235D01*
X55475Y-42066D01*
X55411Y-41910D01*
X55291Y-41790D01*
X55135Y-41725D01*
X54966Y-41725D01*
X54810Y-41789D01*
X54758Y-41841D01*
X53773Y-41841D01*
X53761Y-41810D01*
X53641Y-41690D01*
X53485Y-41625D01*
X53316Y-41625D01*
X53160Y-41689D01*
X53040Y-41809D01*
X52975Y-41965D01*
X52975Y-42134D01*
X53039Y-42290D01*
X53115Y-42366D01*
X50602Y-42366D01*
X50145Y-41909D01*
X52258Y-41909D01*
X52309Y-41960D01*
X52465Y-42025D01*
X52634Y-42025D01*
X52790Y-41961D01*
X52910Y-41841D01*
X52975Y-41685D01*
X52975Y-41516D01*
X52972Y-41509D01*
X53350Y-41509D01*
X53350Y-41508D01*
X53468Y-41485D01*
X53568Y-41418D01*
X53611Y-41375D01*
X53684Y-41375D01*
X53840Y-41311D01*
X53960Y-41191D01*
X54025Y-41035D01*
X54025Y-40866D01*
X53961Y-40710D01*
X53884Y-40633D01*
X53925Y-40535D01*
X53925Y-40366D01*
X53884Y-40266D01*
X53960Y-40191D01*
X54025Y-40035D01*
X54025Y-39866D01*
X53968Y-39729D01*
X54858Y-39729D01*
X54879Y-39780D01*
X54999Y-39900D01*
X55100Y-39942D01*
X55100Y-39984D01*
X55164Y-40140D01*
X55284Y-40260D01*
X55440Y-40325D01*
X55609Y-40325D01*
X55765Y-40261D01*
X55885Y-40141D01*
X55950Y-39985D01*
X55950Y-39911D01*
X56052Y-39809D01*
X56375Y-39809D01*
X56375Y-39913D01*
X56437Y-39975D01*
X56800Y-39975D01*
X56850Y-39975D01*
X56950Y-39975D01*
X57000Y-39975D01*
X57363Y-39975D01*
X57425Y-39913D01*
X57424Y-39809D01*
X57941Y-39809D01*
X57964Y-39865D01*
X58084Y-39985D01*
X58240Y-40050D01*
X58409Y-40050D01*
X58565Y-39986D01*
X58685Y-39866D01*
X58728Y-39762D01*
X58901Y-39934D01*
X58901Y-40374D01*
X58939Y-40466D01*
X59009Y-40536D01*
X59100Y-40574D01*
X59199Y-40574D01*
X59749Y-40574D01*
X59841Y-40536D01*
X59911Y-40466D01*
X59949Y-40375D01*
X59949Y-40276D01*
X59949Y-39726D01*
X59911Y-39634D01*
X59841Y-39564D01*
X59750Y-39526D01*
X59651Y-39526D01*
X59647Y-39526D01*
X59722Y-39495D01*
X59858Y-39359D01*
X60272Y-39359D01*
X60856Y-39943D01*
X60857Y-39943D01*
X60956Y-40010D01*
X60957Y-40010D01*
X60976Y-40013D01*
X61075Y-40034D01*
X61340Y-40034D01*
X61492Y-40186D01*
X61585Y-40225D01*
X61492Y-40264D01*
X61339Y-40417D01*
X61256Y-40617D01*
X61256Y-40833D01*
X61339Y-41033D01*
X61431Y-41125D01*
X61340Y-41216D01*
X59852Y-41216D01*
X59725Y-41088D01*
X59725Y-41016D01*
X59661Y-40860D01*
X59541Y-40740D01*
X59385Y-40675D01*
X59216Y-40675D01*
X59060Y-40739D01*
X58940Y-40859D01*
X58875Y-41015D01*
X58875Y-41184D01*
X58939Y-41340D01*
X59059Y-41460D01*
X59215Y-41525D01*
X59288Y-41525D01*
X59506Y-41743D01*
X59507Y-41743D01*
X59607Y-41810D01*
X59725Y-41834D01*
X61340Y-41834D01*
X61492Y-41986D01*
X61592Y-42027D01*
X61521Y-42057D01*
X61496Y-42150D01*
X61800Y-42454D01*
X62104Y-42150D01*
X62079Y-42057D01*
X62002Y-42029D01*
X62108Y-41986D01*
X62261Y-41833D01*
X62344Y-41633D01*
X62344Y-41417D01*
X62261Y-41217D01*
X62169Y-41125D01*
X62261Y-41033D01*
X62344Y-40833D01*
X62344Y-40617D01*
X62261Y-40417D01*
X62108Y-40264D01*
X62014Y-40225D01*
X62108Y-40186D01*
X62261Y-40033D01*
X62344Y-39833D01*
X62344Y-39617D01*
X62261Y-39417D01*
X62108Y-39264D01*
X61908Y-39181D01*
X61692Y-39181D01*
X61492Y-39264D01*
X61340Y-39416D01*
X61202Y-39416D01*
X60618Y-38832D01*
X60518Y-38765D01*
X60400Y-38741D01*
X59858Y-38741D01*
X59723Y-38605D01*
X59530Y-38525D01*
X59321Y-38525D01*
X59128Y-38605D01*
X58980Y-38752D01*
X58900Y-38945D01*
X58900Y-39060D01*
X58676Y-38836D01*
X58740Y-38811D01*
X58860Y-38691D01*
X58925Y-38535D01*
X58925Y-38366D01*
X58861Y-38210D01*
X58741Y-38090D01*
X58585Y-38025D01*
X58511Y-38025D01*
X57811Y-37325D01*
X63255Y-37325D01*
X63255Y-37783D01*
X63018Y-37685D01*
X62684Y-37685D01*
X62375Y-37812D01*
X62139Y-38048D01*
X62010Y-38357D01*
X62010Y-38691D01*
X62137Y-39000D01*
X62373Y-39236D01*
X62682Y-39365D01*
X63016Y-39365D01*
X63255Y-39266D01*
X63255Y-43183D01*
M02*
